<svg width="210" height="154" viewBox="0 0 210 154" fill="none" xmlns="http://www.w3.org/2000/svg">
<g clip-path="url(#clip0_109_1434)">
<path d="M157.822 153.576L36.3379 139.539L53.7699 0L182.66 14.891L157.822 153.576Z" fill="#F5DFFF"/>
<path d="M5.789 66.0859L0 104.59L189.683 133.085L195.472 94.5819L5.789 66.0859ZM182.695 112.348C182.574 113.155 182.275 113.925 181.82 114.602C181.366 115.28 180.767 115.848 180.066 116.266C179.366 116.685 178.581 116.942 177.769 117.021C176.957 117.1 176.138 116.998 175.37 116.722C174.343 116.352 173.449 115.686 172.801 114.808C172.152 113.93 171.778 112.88 171.727 111.789C171.676 110.699 171.95 109.617 172.514 108.683C172.982 107.907 173.635 107.258 174.414 106.794C175.193 106.329 176.074 106.065 176.98 106.022C177.885 105.98 178.788 106.161 179.606 106.551C180.425 106.94 181.135 107.526 181.674 108.255C182.542 109.431 182.908 110.903 182.691 112.348H182.695Z" fill="#FF8974"/>
<path d="M12.0098 66.96L9.83984 81.467L11.6368 81.736L13.8078 67.229L12.0108 66.959L12.0098 66.96ZM17.9618 67.851L16.4098 78.218L18.2078 78.487L19.7588 68.12L17.9618 67.851ZM23.9128 68.748L22.3598 79.114L24.1578 79.384L25.7088 69.017L23.9118 68.747L23.9128 68.748ZM29.8618 69.638L28.3098 80.005L30.1068 80.274L31.6588 69.907L29.8618 69.638ZM35.8128 70.535L34.2618 80.9L36.0588 81.17L37.6108 70.803L35.8128 70.533V70.535ZM42.4718 71.535L40.2998 86.042L42.0968 86.311L44.2678 71.804L42.4718 71.535ZM48.4218 72.426L46.8718 82.793L48.6688 83.062L50.2198 72.695L48.4218 72.426ZM54.3738 73.324L52.8218 83.69L54.6198 83.96L56.1708 73.593L54.3738 73.324ZM60.3248 74.213L58.7728 84.58L60.5708 84.849L62.1228 74.482L60.3248 74.213ZM66.2738 75.11L64.7228 85.476L66.5198 85.746L68.0718 75.379L66.2738 75.11ZM72.9328 76.11L70.7618 90.617L72.5588 90.887L74.7298 76.379L72.9328 76.11ZM78.8848 77.002L77.3338 87.368L79.1319 87.638L80.6828 77.271L78.8848 77.002ZM84.8348 77.899L83.2828 88.266L85.0808 88.534L86.6319 78.168L84.8348 77.899ZM90.7858 78.789L89.2338 89.155L91.0318 89.425L92.5828 79.058L90.7858 78.789ZM96.7348 79.685L95.1838 90.052L96.9809 90.321L98.5328 79.954L96.7348 79.685ZM103.395 80.686L101.225 95.192L103.022 95.462L105.193 80.954L103.395 80.686ZM109.346 81.577L107.795 91.943L109.593 92.213L111.144 81.846L109.346 81.576V81.577ZM115.295 82.474L113.744 92.841L115.542 93.11L117.093 82.743L115.295 82.474ZM121.247 83.364L119.695 93.73L121.493 94L123.044 83.633L121.247 83.364ZM127.198 84.26L125.646 94.627L127.444 94.896L128.996 84.529L127.198 84.26ZM133.856 85.26L131.686 99.767L133.483 100.036L135.654 85.53L133.856 85.26ZM139.807 86.153L138.256 96.519L140.054 96.789L141.605 86.422L139.807 86.153ZM145.758 87.05L144.207 97.416L146.005 97.685L147.556 87.318L145.758 87.05ZM151.708 87.94L150.156 98.305L151.954 98.575L153.505 88.208L151.708 87.94ZM157.659 88.836L156.107 99.202L157.905 99.471L159.456 89.105L157.659 88.836ZM164.318 89.835L162.146 104.343L163.944 104.612L166.115 90.104L164.318 89.835ZM170.268 90.728L168.717 101.095L170.515 101.364L172.066 90.997L170.268 90.728ZM176.219 91.625L174.668 101.991L176.466 102.26L178.017 91.894L176.219 91.625ZM182.168 92.514L180.617 102.881L182.415 103.15L183.966 92.783L182.168 92.514ZM188.12 93.41L186.568 103.777L188.366 104.046L189.917 93.68L188.12 93.41Z" fill="#FFDDD1"/>
<path d="M121.316 82.7302C118.274 82.7302 115.637 80.4782 113.463 76.0102L109.456 67.7762C107.734 64.2402 102.585 61.0222 98.6502 61.0222H6.24219V50.4092H98.6522C106.237 50.4092 114.736 55.5152 118.506 62.1962C119.491 58.8066 121.546 55.8267 124.364 53.702C127.183 51.5774 130.614 50.4222 134.143 50.4092H190.262V61.0222H134.143C132.661 61.0456 131.244 61.6409 130.19 62.6836C129.136 63.7264 128.526 65.136 128.486 66.6182L128.412 72.6682C128.343 78.4172 126.449 81.7482 122.782 82.5712C122.301 82.6778 121.809 82.7305 121.316 82.7302Z" fill="#E15BAD"/>
<path d="M186.254 69.4231L210.001 55.7101L186.254 41.9971V69.4231Z" fill="#E15BAD"/>
<path d="M123.066 72.5498L118.77 64.2878C118.77 64.2878 119.514 60.0428 121.441 57.7378L123.066 72.5498Z" fill="#C81F87"/>
</g>
<defs>
<clipPath id="clip0_109_1434">
<rect width="210" height="154" fill="white"/>
</clipPath>
</defs>
</svg>
