<svg width="145" height="92" viewBox="0 0 145 92" fill="none" xmlns="http://www.w3.org/2000/svg">
<path d="M143 67.5L131.711 8L1.69482 45.157L17.9998 79L143 67.5Z" fill="#FFDDD1"/>
<mask id="mask0_108_1085" style="mask-type:luminance" maskUnits="userSpaceOnUse" x="27" y="12" width="83" height="70">
<path d="M27.3501 12.427H110V81.18H27.3501V12.427Z" fill="white"/>
</mask>
<g mask="url(#mask0_108_1085)">
<path d="M88.1522 69.1679H69.6952V24.4299H89.3002M49.3462 46.7989H69.6962" stroke="#B52FA5" stroke-width="5.316" stroke-linecap="round" stroke-linejoin="round"/>
<path d="M106.757 12.427H85.1319C84.2692 12.427 83.4417 12.7697 82.8317 13.3798C82.2216 13.9898 81.8789 14.8173 81.8789 15.68V33.19C81.8788 33.6173 81.9628 34.0404 82.1262 34.4352C82.2897 34.83 82.5293 35.1887 82.8313 35.4909C83.1334 35.793 83.4921 36.0327 83.8868 36.1963C84.2815 36.3598 84.7046 36.444 85.1319 36.444H106.757C107.184 36.444 107.607 36.3598 108.002 36.1963C108.397 36.0327 108.755 35.793 109.057 35.4909C109.36 35.1887 109.599 34.83 109.763 34.4352C109.926 34.0404 110.01 33.6173 110.01 33.19V15.68C110.01 14.8173 109.667 13.9898 109.057 13.3798C108.447 12.7697 107.62 12.427 106.757 12.427Z" fill="#E15BAD"/>
<path d="M106.757 12.427H102.43C103.291 12.4291 104.116 12.7728 104.724 13.3827C105.332 13.9926 105.674 14.8188 105.673 15.68V28.31C105.673 29.0911 105.363 29.8401 104.811 30.3924C104.258 30.9447 103.509 31.255 102.728 31.255H85.1221C84.2594 31.255 83.432 30.9123 82.8219 30.3022C82.2119 29.6922 81.8691 28.8648 81.8691 28.002V33.2C81.8691 34.0628 82.2119 34.8902 82.8219 35.5002C83.432 36.1103 84.2594 36.453 85.1221 36.453H106.747C107.61 36.453 108.437 36.1104 109.047 35.5006C109.657 34.8907 110 34.0636 110 33.201V15.68C110.001 15.2533 109.918 14.8306 109.756 14.436C109.593 14.0415 109.355 13.6829 109.054 13.3807C108.752 13.0785 108.394 12.8387 108 12.6751C107.606 12.5114 107.184 12.4271 106.757 12.427Z" fill="#C81F87"/>
<path d="M106.758 57.165H85.1329C84.7056 57.1649 84.2825 57.249 83.8877 57.4124C83.4929 57.5758 83.1342 57.8154 82.832 58.1175C82.5299 58.4195 82.2902 58.7782 82.1266 59.1729C81.9631 59.5677 81.8789 59.9908 81.8789 60.418V77.928C81.8788 78.3554 81.9629 78.7786 82.1263 79.1734C82.2898 79.5683 82.5295 79.9271 82.8317 80.2293C83.1339 80.5314 83.4927 80.7711 83.8875 80.9346C84.2824 81.0981 84.7056 81.1822 85.1329 81.182H106.758C107.185 81.182 107.608 81.0979 108.003 80.9343C108.398 80.7708 108.756 80.5311 109.058 80.2289C109.361 79.9267 109.6 79.568 109.764 79.1732C109.927 78.7784 110.011 78.3553 110.011 77.928V60.418C110.011 59.5553 109.668 58.7279 109.058 58.1178C108.448 57.5078 107.621 57.165 106.758 57.165Z" fill="#E15BAD"/>
<path d="M106.758 57.165H102.43C103.293 57.165 104.12 57.5077 104.73 58.1178C105.341 58.7278 105.684 59.5552 105.684 60.418V73.048C105.684 73.8291 105.374 74.5782 104.821 75.1305C104.269 75.6828 103.52 75.993 102.739 75.993H85.1329C84.7056 75.9932 84.2825 75.9091 83.8877 75.7457C83.4929 75.5823 83.1342 75.3427 82.832 75.0406C82.5299 74.7385 82.2902 74.3799 82.1266 73.9851C81.9631 73.5904 81.8789 73.1673 81.8789 72.74V77.939C81.8789 78.3663 81.9631 78.7894 82.1266 79.1841C82.2902 79.5789 82.5299 79.9375 82.832 80.2396C83.1342 80.5417 83.4929 80.7813 83.8877 80.9447C84.2825 81.1081 84.7056 81.1922 85.1329 81.192H106.758C107.621 81.1918 108.448 80.849 109.058 80.239C109.668 79.629 110.011 78.8017 110.011 77.939V60.429C110.011 60.0018 109.927 59.5786 109.764 59.1839C109.6 58.7891 109.361 58.4303 109.058 58.1282C108.756 57.826 108.398 57.5863 108.003 57.4228C107.608 57.2592 107.185 57.175 106.758 57.175V57.165Z" fill="#C81F87"/>
<path d="M52.2271 34.7959H30.6021C29.7394 34.7959 28.912 35.1386 28.3019 35.7487C27.6918 36.3587 27.3491 37.1861 27.3491 38.0489V55.5589C27.349 55.9862 27.433 56.4093 27.5965 56.8041C27.7599 57.1989 27.9995 57.5576 28.3015 57.8598C28.6036 58.1619 28.9623 58.4016 29.357 58.5652C29.7518 58.7287 30.1748 58.8129 30.6021 58.8129H52.2271C52.6545 58.813 53.0777 58.729 53.4725 58.5655C53.8674 58.402 54.2261 58.1623 54.5283 57.8601C54.8305 57.5579 55.0702 57.1992 55.2337 56.8043C55.3972 56.4095 55.4813 55.9863 55.4811 55.5589V38.0499C55.4811 37.6226 55.3969 37.1995 55.2334 36.8048C55.0699 36.4101 54.8302 36.0514 54.528 35.7493C54.2258 35.4472 53.8671 35.2077 53.4723 35.0442C53.0775 34.8808 52.6544 34.7958 52.2271 34.7959Z" fill="#E15BAD"/>
<path d="M52.2271 34.7959H47.9001C48.3274 34.7958 48.7505 34.8798 49.1453 35.0432C49.5401 35.2066 49.8988 35.4462 50.201 35.7483C50.5032 36.0504 50.7429 36.4091 50.9064 36.8038C51.0699 37.1985 51.1541 37.6216 51.1541 38.0489V50.6789C51.1541 51.0657 51.0779 51.4488 50.9298 51.8061C50.7818 52.1635 50.5648 52.4882 50.2912 52.7617C50.0176 53.0352 49.6928 53.2521 49.3354 53.4C48.978 53.548 48.5949 53.624 48.2081 53.6239H30.6021C30.1749 53.6239 29.7519 53.5398 29.3573 53.3763C28.9626 53.2128 28.604 52.9732 28.3019 52.6711C27.9998 52.369 27.7602 52.0104 27.5967 51.6158C27.4333 51.2211 27.3491 50.7981 27.3491 50.3709V55.5699C27.3491 56.4326 27.6918 57.2601 28.3019 57.8701C28.912 58.4802 29.7394 58.8229 30.6021 58.8229H52.2271C52.6544 58.823 53.0775 58.739 53.4723 58.5756C53.8671 58.4121 54.2258 58.1726 54.528 57.8705C54.8302 57.5684 55.0699 57.2097 55.2334 56.815C55.3969 56.4203 55.4811 55.9972 55.4811 55.5699V38.0599C55.4813 37.6325 55.3972 37.2093 55.2337 36.8145C55.0702 36.4196 54.8305 36.0609 54.5283 35.7587C54.2261 35.4565 53.8674 35.2168 53.4725 35.0533C53.0777 34.8898 52.6545 34.8058 52.2271 34.8059V34.7959Z" fill="#C81F87"/>
</g>
</svg>
