<svg width="145" height="91" viewBox="0 0 145 91" fill="none" xmlns="http://www.w3.org/2000/svg">
<path d="M6.81583 22.6189L2.90283 79.1189L137.322 65.6189L126.345 25.6189L6.81583 22.6189Z" fill="#FFDDD1"/>
<path d="M69.43 12.0039C57.23 12.0039 47.35 21.8939 47.35 34.0839C47.35 38.1039 48.44 42.0439 50.52 45.4839L39.81 56.1839L39.85 56.2239C38.7 57.3139 38 58.8739 38 60.6239C38 64.0139 40.7 66.6639 44.09 66.6639C45.82 66.6639 47.37 65.9739 48.47 64.8439L48.5 64.8739L59.55 53.8239C62.62 55.3639 66 56.1639 69.44 56.1639C81.64 56.1639 91.52 46.2739 91.52 34.0839C91.52 21.8939 81.63 12.0039 69.43 12.0039ZM69.56 47.4839C61.94 47.4839 55.76 41.3039 55.76 33.6839C55.76 26.0639 61.94 19.8839 69.56 19.8839C77.18 19.8839 83.36 26.0639 83.36 33.6839C83.36 41.3039 77.19 47.4839 69.56 47.4839Z" fill="#E15BAD"/>
<path d="M78.2901 13.883C67.1301 8.96304 54.1001 14.013 49.1801 25.173C47.5501 28.843 45.4201 37.093 50.5201 45.473C50.5201 45.473 42.7601 26.453 59.7601 16.183C68.6901 10.793 78.2901 13.883 78.2901 13.883Z" fill="#FFA5DC"/>
<path d="M76.04 51.5941C66.06 53.9341 61.46 50.4541 57.31 48.0141L48.35 56.8941L45.42 59.7841C41.43 63.1241 38 58.8741 38 60.6241C38 64.0141 40.7 66.6641 44.09 66.6641C45.82 66.6641 47.37 65.9741 48.47 64.8441L48.5 64.8741L59.55 53.8241C62.62 55.3641 66 56.1641 69.44 56.1641C81.64 56.1641 91.34 46.2741 91.52 34.0841C91.6 28.9041 89.17 23.1341 87.07 20.9141C87.07 20.9141 88.9 23.9941 89.62 27.2841C90.82 32.8141 89.98 36.2341 89.04 39.3341C87.29 45.0641 82.09 50.1841 76.06 51.5941H76.04Z" fill="#B52FA5"/>
</svg>
