<svg width="145" height="91" viewBox="0 0 145 91" fill="none" xmlns="http://www.w3.org/2000/svg">
<path d="M6.81592 21.4211L2.90301 77.9211L137.322 64.4212L126.345 24.4216L6.81592 21.4211Z" fill="#CAA9FF"/>
<g clip-path="url(#clip0_162_8958)">
<path d="M104.206 7.8C103.956 7.55 103.656 7.35 103.316 7.21C102.986 7.07 102.626 7 102.276 7C101.926 7 101.566 7.07 101.236 7.21C100.906 7.35 100.606 7.55 100.346 7.8L82.4759 25.68L80.6459 23.84C78.5959 21.8 75.8159 20.65 72.9259 20.65C70.0359 20.65 67.2559 21.8 65.2059 23.84L57.2559 31.79L55.0959 29.62C54.5859 29.11 53.8859 28.82 53.1659 28.82C52.4459 28.82 51.7459 29.11 51.2359 29.62C50.7259 30.13 50.4359 30.83 50.4359 31.55C50.4359 32.27 50.7259 32.97 51.2359 33.48L53.4059 35.64L45.4559 43.59C44.4459 44.6 43.6359 45.81 43.0859 47.13C42.5359 48.45 42.2559 49.87 42.2559 51.31C42.2559 52.75 42.5359 54.16 43.0859 55.49C43.6359 56.81 44.4359 58.02 45.4559 59.03L47.2959 60.86L29.3959 78.75C29.1459 79 28.9459 79.3 28.8059 79.64C28.6659 79.97 28.5959 80.33 28.5959 80.68C28.5959 81.03 28.6659 81.39 28.8059 81.72C28.9459 82.05 29.1459 82.35 29.3959 82.61C29.9059 83.12 30.6059 83.41 31.3259 83.41C31.6859 83.41 32.0359 83.34 32.3659 83.2C32.6959 83.06 32.9959 82.86 33.2559 82.61L51.1259 64.73L52.9559 66.57C53.9659 67.58 55.1759 68.39 56.4959 68.94C57.8159 69.49 59.2359 69.77 60.6759 69.77C62.1159 69.77 63.5259 69.49 64.8559 68.94C66.1759 68.39 67.3859 67.59 68.3959 66.57L76.3459 58.62L78.5059 60.79C78.7559 61.04 79.0559 61.24 79.3959 61.38C79.7259 61.52 80.0859 61.59 80.4359 61.59C80.7859 61.59 81.1459 61.52 81.4759 61.38C81.8059 61.24 82.1059 61.04 82.3659 60.79C82.6159 60.54 82.8159 60.24 82.9559 59.9C83.0959 59.57 83.1659 59.21 83.1659 58.86C83.1659 58.51 83.0959 58.15 82.9559 57.82C82.8159 57.49 82.6159 57.19 82.3659 56.93L80.1959 54.77L88.1459 46.82C89.1559 45.81 89.9659 44.6 90.5159 43.28C91.0659 41.96 91.3459 40.54 91.3459 39.1C91.3459 37.66 91.0659 36.25 90.5159 34.92C89.9659 33.6 89.1659 32.39 88.1459 31.38L86.3059 29.55L104.186 11.68C104.436 11.43 104.636 11.13 104.776 10.79C104.916 10.46 104.986 10.1 104.986 9.75C104.986 9.4 104.916 9.04 104.776 8.71C104.636 8.38 104.436 8.08 104.186 7.82L104.206 7.8ZM84.3059 42.95L76.3559 50.89L61.1159 35.65L69.0659 27.7C70.0859 26.68 71.4759 26.1 72.9259 26.1C74.3759 26.1 75.7559 26.67 76.7859 27.7L84.3059 35.2C84.8159 35.71 85.2159 36.31 85.4959 36.97C85.7759 37.63 85.9159 38.35 85.9159 39.06C85.9159 39.77 85.7759 40.49 85.4959 41.15C85.2159 41.81 84.8159 42.42 84.3059 42.92V42.95ZM53.2959 13.32C53.0659 12.63 53.1159 11.88 53.4459 11.24C53.7659 10.59 54.3359 10.1 55.0259 9.87C55.7159 9.64 56.4659 9.69 57.1059 10.02C57.7559 10.34 58.2459 10.91 58.4759 11.6L61.2059 19.79C61.3159 20.13 61.3659 20.49 61.3359 20.85C61.3059 21.21 61.2159 21.56 61.0559 21.88C60.8959 22.2 60.6759 22.49 60.4059 22.72C60.1359 22.95 59.8159 23.13 59.4759 23.25C58.7859 23.48 58.0359 23.43 57.3959 23.1C57.0759 22.94 56.7859 22.72 56.5559 22.45C56.3259 22.18 56.1459 21.86 56.0259 21.52L53.2959 13.33V13.32ZM31.4659 33.43C31.5759 33.09 31.7559 32.78 31.9959 32.5C32.2259 32.23 32.5159 32.01 32.8359 31.85C33.1559 31.69 33.5059 31.59 33.8659 31.57C34.2259 31.54 34.5859 31.59 34.9259 31.7L43.1159 34.43C43.4559 34.54 43.7659 34.72 44.0459 34.96C44.3159 35.19 44.5359 35.48 44.6959 35.8C44.8559 36.12 44.9559 36.47 44.9759 36.83C45.0059 37.19 44.9559 37.55 44.8459 37.89C44.7359 38.23 44.5559 38.54 44.3159 38.81C44.0859 39.08 43.7959 39.3 43.4759 39.46C43.1559 39.62 42.8059 39.72 42.4459 39.74C42.0859 39.77 41.7259 39.72 41.3859 39.61L33.1959 36.88C32.8559 36.77 32.5459 36.59 32.2659 36.35C31.9959 36.12 31.7759 35.83 31.6159 35.51C31.4559 35.19 31.3559 34.84 31.3359 34.48C31.3059 34.12 31.3559 33.76 31.4659 33.42V33.43ZM102.136 56.99C102.026 57.33 101.846 57.64 101.606 57.92C101.376 58.19 101.086 58.41 100.766 58.57C100.446 58.73 100.096 58.83 99.7359 58.85C99.3759 58.88 99.0159 58.83 98.6759 58.72L90.4859 55.99C89.7959 55.76 89.2359 55.27 88.9059 54.62C88.5759 53.97 88.5259 53.22 88.7559 52.54C88.9859 51.85 89.4759 51.29 90.1259 50.96C90.7759 50.64 91.5259 50.58 92.2059 50.81L100.396 53.54C100.736 53.65 101.046 53.83 101.326 54.07C101.596 54.3 101.816 54.59 101.976 54.91C102.136 55.23 102.236 55.58 102.256 55.94C102.286 56.3 102.236 56.66 102.126 57L102.136 56.99ZM80.3059 77.09C80.5359 77.78 80.4859 78.53 80.1559 79.17C79.8259 79.81 79.2659 80.31 78.5759 80.54C77.8859 80.77 77.1359 80.72 76.4959 80.39C75.8459 80.07 75.3559 79.5 75.1259 78.81L72.3959 70.62C72.1659 69.93 72.2159 69.18 72.5459 68.54C72.8659 67.89 73.4359 67.4 74.1259 67.17C74.8159 66.94 75.5659 66.99 76.2059 67.32C76.8559 67.64 77.3459 68.21 77.5759 68.9L80.3059 77.09Z" fill="#FF8964"/>
<path d="M76.356 58.6098L78.516 60.7798C79.026 61.2898 79.726 61.5798 80.446 61.5798C81.166 61.5798 81.866 61.2898 82.376 60.7798C82.886 60.2698 83.176 59.5698 83.176 58.8498C83.176 58.1298 82.886 57.4298 82.376 56.9198L80.206 54.7598L88.156 46.8098C89.166 45.7998 89.976 44.5898 90.526 43.2698C91.076 41.9498 91.356 40.5298 91.356 39.0898C91.356 37.6498 91.076 36.2398 90.526 34.9098C89.976 33.5898 89.176 32.3798 88.156 31.3698L86.316 29.5398L104.196 11.6698C104.446 11.4198 104.646 11.1198 104.786 10.7798C104.926 10.4498 104.996 10.0898 104.996 9.73977C104.996 9.38977 104.926 9.02977 104.786 8.69977C104.646 8.36977 104.446 8.06977 104.196 7.80977C103.686 7.29977 102.986 7.00977 102.266 7.00977C101.906 7.00977 101.556 7.07977 101.226 7.21977C100.896 7.35977 100.596 7.55977 100.336 7.80977L82.466 25.6898L80.636 23.8498C79.626 22.8398 78.416 22.0298 77.096 21.4798C75.776 20.9298 74.356 20.6498 72.916 20.6498C71.476 20.6498 70.066 20.9298 68.736 21.4798C67.416 22.0298 66.206 22.8298 65.196 23.8498L57.246 31.7998L55.086 29.6298C54.836 29.3798 54.536 29.1798 54.196 29.0398C53.866 28.8998 53.506 28.8298 53.156 28.8298C52.806 28.8298 52.446 28.8998 52.116 29.0398C51.786 29.1798 51.486 29.3798 51.226 29.6298C50.976 29.8798 50.776 30.1798 50.636 30.5198C50.496 30.8498 50.426 31.2098 50.426 31.5598C50.426 31.9098 50.496 32.2698 50.636 32.5998C50.776 32.9298 50.976 33.2298 51.226 33.4898L53.396 35.6498L76.356 58.6098Z" fill="#FF8964"/>
<path d="M57.2459 31.8001L55.0859 29.6301C54.5759 29.1201 53.8759 28.8301 53.1559 28.8301C52.4359 28.8301 51.7359 29.1201 51.2259 29.6301C50.7159 30.1401 50.4259 30.8401 50.4259 31.5601C50.4259 32.2801 50.7159 32.9801 51.2259 33.4901L53.3959 35.6501L45.4459 43.6001C44.4359 44.6101 43.6259 45.8201 43.0759 47.1401C42.5259 48.4601 42.2459 49.8801 42.2459 51.3201C42.2459 52.7601 42.5259 54.1701 43.0759 55.5001C43.6259 56.8201 44.4259 58.0301 45.4459 59.0401L47.2859 60.8701L29.3959 78.7501C29.1459 79.0001 28.9459 79.3001 28.8059 79.6401C28.6659 79.9701 28.5959 80.3301 28.5959 80.6801C28.5959 81.0301 28.6659 81.3901 28.8059 81.7201C28.9459 82.0501 29.1459 82.3501 29.3959 82.6101C29.9059 83.1201 30.6059 83.4101 31.3259 83.4101C31.6859 83.4101 32.0359 83.3401 32.3659 83.2001C32.6959 83.0601 32.9959 82.8601 33.2559 82.6101L51.1259 64.7301L52.9559 66.5701C53.9659 67.5801 55.1759 68.3901 56.4959 68.9401C57.8159 69.4901 59.2359 69.7701 60.6759 69.7701C62.1159 69.7701 63.5259 69.4901 64.8559 68.9401C66.1759 68.3901 67.3859 67.5901 68.3959 66.5701L76.3459 58.6201L78.5059 60.7901C78.7559 61.0401 79.0559 61.2401 79.3959 61.3801C79.7259 61.5201 80.0859 61.5901 80.4359 61.5901C80.7859 61.5901 81.1459 61.5201 81.4759 61.3801C81.8059 61.2401 82.1059 61.0401 82.3659 60.7901C82.6159 60.5401 82.8159 60.2401 82.9559 59.9001C83.0959 59.5701 83.1659 59.2101 83.1659 58.8601C83.1659 58.5101 83.0959 58.1501 82.9559 57.8201C82.8159 57.4901 82.6159 57.1901 82.3659 56.9301L80.1959 54.7701L57.2359 31.8101L57.2459 31.8001Z" fill="#FF6279"/>
<path opacity="0.2" d="M47.2759 60.8802L29.3959 78.7502C29.1459 79.0002 28.9459 79.3002 28.8059 79.6402C28.6659 79.9702 28.5959 80.3302 28.5959 80.6802C28.5959 81.0302 28.6659 81.3902 28.8059 81.7202C28.9459 82.0502 29.1459 82.3502 29.3959 82.6102C29.9059 83.1202 30.6059 83.4102 31.3259 83.4102C31.6859 83.4102 32.0359 83.3402 32.3659 83.2002C32.6959 83.0602 32.9959 82.8602 33.2559 82.6102L51.1259 64.7302L52.9559 66.5702C53.9659 67.5802 55.1759 68.3902 56.4959 68.9402C57.8159 69.4902 59.2359 69.7702 60.6759 69.7702C62.1159 69.7702 63.5259 69.4902 64.8559 68.9402C66.1759 68.3902 67.3859 67.5902 68.3959 66.5702L76.3459 58.6202L78.5059 60.7902C78.7559 61.0402 79.0559 61.2402 79.3959 61.3802C79.7259 61.5202 80.0859 61.5902 80.4359 61.5902C80.7859 61.5902 81.1459 61.5202 81.4759 61.3802C81.8059 61.2402 82.1059 61.0402 82.3659 60.7902C82.6159 60.5402 82.8159 60.2402 82.9559 59.9002C83.0959 59.5702 83.1659 59.2102 83.1659 58.8602C83.1659 58.5102 83.0959 58.1502 82.9559 57.8202C82.8159 57.4902 82.6159 57.1902 82.3659 56.9302L80.1959 54.7702L76.3359 50.9102C74.2659 53.1302 66.3659 59.9802 62.0559 61.0102C54.9259 62.7202 47.2659 60.8902 47.2659 60.8902L47.2759 60.8802Z" fill="#7F3F00"/>
<path opacity="0.2" d="M85.036 41.8801C82.306 45.3701 78.576 48.8301 76.356 50.9001L80.266 54.7601L88.216 46.8101C89.226 45.8001 90.036 44.5901 90.586 43.2701C91.136 41.9501 91.416 40.5301 91.416 39.0901C91.416 37.6501 91.136 36.2401 90.586 34.9101C90.036 33.5901 89.236 32.3801 88.216 31.3701C88.216 31.3701 89.016 36.8101 85.036 41.8901V41.8801Z" fill="#7F3F00"/>
</g>
<defs>
<clipPath id="clip0_162_8958">
<rect width="76.41" height="76.41" fill="white" transform="translate(28.5959 7)"/>
</clipPath>
</defs>
</svg>
