<svg width="145" height="92" viewBox="0 0 145 92" fill="none" xmlns="http://www.w3.org/2000/svg">
<path d="M143 62.196L131.711 2.69597L1.69533 39.8527L18 73.696L143 62.196Z" fill="#CAA9FF"/>
<g clip-path="url(#clip0_162_8990)">
<path d="M39.2349 37.9798H43.1449M74.4149 2.7998V6.7098M105.685 37.9798H109.595M49.3949 12.9598L52.1349 15.6998M99.4349 12.9598L96.6949 15.6998M65.4249 57.5198H83.4049M62.6849 53.6098C59.4049 51.1498 56.9749 47.7198 55.7549 43.7998C54.5349 39.8798 54.5749 35.6798 55.8649 31.7898C57.1549 27.8998 59.6549 24.5098 62.9749 22.1198C66.3049 19.7198 70.3049 18.4298 74.4049 18.4298C78.5049 18.4298 82.5049 19.7198 85.8349 22.1198C89.1649 24.5198 91.6549 27.8998 92.9449 31.7898C94.2349 35.6798 94.2849 39.8798 93.0549 43.7998C91.8349 47.7198 89.4049 51.1498 86.1249 53.6098C84.5949 55.1198 83.4449 56.9698 82.7749 59.0098C82.0949 61.0498 81.9049 63.2198 82.2249 65.3398C82.2249 67.4098 81.4049 69.3998 79.9349 70.8698C78.4649 72.3398 76.4849 73.1598 74.4049 73.1598C72.3249 73.1598 70.3449 72.3398 68.8749 70.8698C67.4049 69.3998 66.5849 67.4198 66.5849 65.3398C66.8949 63.2198 66.7049 61.0498 66.0349 59.0098C65.3549 56.9698 64.2049 55.1198 62.6849 53.6098Z" stroke="#FF8964" stroke-width="5.6" stroke-linecap="round" stroke-linejoin="round"/>
<path d="M74.4149 74.6599C71.9249 74.6599 69.5849 73.6899 67.8249 71.9299C66.0649 70.1699 65.0949 67.8299 65.0949 65.3399V65.2299L65.1149 65.1199C65.3949 63.2399 65.2249 61.2899 64.6249 59.4799C64.0349 57.7099 63.0249 56.0699 61.7049 54.7399C58.1949 52.0799 55.6449 48.4499 54.3349 44.2399C53.0049 39.9999 53.0549 35.5299 54.4549 31.3099C55.8649 27.0899 58.5049 23.4899 62.1149 20.8899C65.7149 18.2899 69.9749 16.9199 74.4149 16.9199C78.8549 16.9199 83.1149 18.2899 86.7149 20.8899C90.3149 23.4899 92.9649 27.0899 94.3749 31.3099C95.7849 35.5299 95.8249 39.9999 94.4949 44.2399C93.1849 48.4499 90.6349 52.0699 87.1249 54.7399C85.8049 56.0699 84.7949 57.6999 84.2049 59.4799C83.6049 61.2799 83.4349 63.2299 83.7149 65.1199L83.7349 65.2299V65.3399C83.7349 67.8299 82.7649 70.1699 81.0049 71.9299C79.2449 73.6899 76.9049 74.6599 74.4149 74.6599Z" fill="#FF8964"/>
<path d="M74.4148 18.4399C78.5148 18.4399 82.5148 19.7299 85.8448 22.1299C89.1748 24.5299 91.6648 27.9099 92.9548 31.7999C94.2548 35.6899 94.2948 39.8899 93.0648 43.8099C91.8448 47.7299 89.4148 51.1599 86.1348 53.6199C84.6048 55.1299 83.4548 56.9799 82.7848 59.0199C82.1048 61.0599 81.9148 63.2299 82.2348 65.3499C82.2348 67.4199 81.4148 69.4099 79.9448 70.8799C78.4748 72.3499 76.4948 73.1699 74.4148 73.1699C72.3348 73.1699 70.3548 72.3499 68.8848 70.8799C67.4148 69.4099 66.5948 67.4299 66.5948 65.3499C66.9048 63.2299 66.7148 61.0599 66.0448 59.0199C65.3648 56.9799 64.2148 55.1299 62.6948 53.6199C59.4148 51.1599 56.9848 47.7299 55.7648 43.8099C54.5448 39.8899 54.5848 35.6899 55.8748 31.7999C57.1748 27.9099 59.6648 24.5199 62.9848 22.1299C66.3148 19.7299 70.3148 18.4399 74.4148 18.4399ZM74.4148 15.4399C69.6548 15.4399 65.0948 16.9099 61.2348 19.6999C57.3748 22.4799 54.5348 26.3399 53.0248 30.8599C51.5148 35.3799 51.4748 40.1699 52.8948 44.7099C54.2948 49.1799 56.9948 53.0399 60.7048 55.8899C61.8248 57.0399 62.6848 58.4499 63.1948 59.9699C63.7248 61.5499 63.8748 63.2599 63.6248 64.9099L63.5948 65.1299V65.3499C63.5948 68.2399 64.7248 70.9599 66.7648 72.9999C68.8048 75.0399 71.5248 76.1699 74.4148 76.1699C77.3048 76.1699 80.0248 75.0399 82.0648 72.9999C84.1048 70.9599 85.2348 68.2399 85.2348 65.3499V65.1299L85.2048 64.9099C84.9648 63.2599 85.1148 61.5499 85.6348 59.9699C86.1448 58.4499 87.0048 57.0399 88.1248 55.8899C91.8448 53.0499 94.5448 49.1899 95.9348 44.7099C97.3548 40.1699 97.3048 35.3799 95.8048 30.8599C94.2948 26.3399 91.4648 22.4799 87.5948 19.6999C83.7348 16.9199 79.1748 15.4399 74.4148 15.4399Z" fill="#FF8964"/>
<path opacity="0.2" d="M95.7348 30.8502C94.2248 26.3302 91.3948 22.4702 87.5248 19.6902C83.6648 16.9102 79.1048 15.4302 74.3448 15.4302C73.1948 15.4302 72.0548 15.5202 70.9348 15.6902C74.4448 16.2202 77.7748 17.5702 80.7048 19.6902C84.5648 22.4702 87.4048 26.3302 88.9148 30.8502C90.4248 35.3702 90.4648 40.1602 89.0448 44.7002C87.6448 49.1702 84.9448 53.0302 81.2348 55.8802C80.1148 57.0302 79.2548 58.4402 78.7448 59.9602C78.2148 61.5402 78.0648 63.2502 78.3148 64.9002L78.3448 65.1202V65.3402C78.3448 68.2302 77.2148 70.9502 75.1748 72.9902C73.9648 74.2002 72.5148 75.0802 70.9348 75.6002C72.0248 75.9602 73.1648 76.1602 74.3448 76.1602C77.2348 76.1602 79.9548 75.0302 81.9948 72.9902C84.0348 70.9502 85.1648 68.2302 85.1648 65.3402V65.1202L85.1348 64.9002C84.8948 63.2502 85.0448 61.5402 85.5648 59.9602C86.0748 58.4402 86.9348 57.0302 88.0548 55.8802C91.7748 53.0402 94.4748 49.1802 95.8648 44.7002C97.2848 40.1602 97.2348 35.3702 95.7348 30.8502Z" fill="#7F3F00"/>
<path d="M81.7649 54.8999L85.5749 60.1299H63.2549C63.7449 61.5899 63.8149 63.6899 63.6049 65.1199C63.5849 65.2599 63.5849 65.4199 63.5849 65.5599C63.5849 68.3999 64.9049 71.0799 66.9149 73.0799C68.9249 75.0899 71.5849 76.1899 74.4249 76.1899C77.2649 76.1899 79.9249 75.0899 81.9349 73.0799C83.9449 71.0799 85.2149 68.4099 85.2149 65.5699C85.2149 65.4299 85.2649 65.2499 85.2449 65.1199C84.9949 63.4399 85.0449 61.7399 85.5849 60.1299" fill="#FF6279"/>
</g>
<defs>
<clipPath id="clip0_162_8990">
<rect width="75.96" height="76.19" fill="white" transform="translate(36.4348)"/>
</clipPath>
</defs>
</svg>
