<svg width="145" height="92" viewBox="0 0 145 92" fill="none" xmlns="http://www.w3.org/2000/svg">
<path d="M143 62.196L131.711 2.69597L1.69533 39.8527L18 73.696L143 62.196Z" fill="#1d1c24" stroke="#25232d" stroke-width="1.3" stroke-linejoin="round"/>
<path d="M65.4249 57.5198H83.4049M62.6849 53.6098C59.4049 51.1498 56.9749 47.7198 55.7549 43.7998C54.5349 39.8798 54.5749 35.6798 55.8649 31.7898C57.1549 27.8998 59.6549 24.5098 62.9749 22.1198C66.3049 19.7198 70.3049 18.4298 74.4049 18.4298C78.5049 18.4298 82.5049 19.7198 85.8349 22.1198C89.1649 24.5198 91.6549 27.8998 92.9449 31.7898C94.2349 35.6798 94.2849 39.8798 93.0549 43.7998C91.8349 47.7198 89.4049 51.1498 86.1249 53.6098C84.5949 55.1198 83.4449 56.9698 82.7749 59.0098C82.0949 61.0498 81.9049 63.2198 82.2249 65.3398C82.2249 67.4098 81.4049 69.3998 79.9349 70.8698C78.4649 72.3398 76.4849 73.1598 74.4049 73.1598C72.3249 73.1598 70.3449 72.3398 68.8749 70.8698C67.4049 69.3998 66.5849 67.4198 66.5849 65.3398C66.8949 63.2198 66.7049 61.0498 66.0349 59.0098C65.3549 56.9698 64.2049 55.1198 62.6849 53.6098Z" stroke="#FF9C7D" stroke-width="2.6" stroke-linecap="round" stroke-linejoin="round"/>
<circle cx="41.2" cy="38" r="2" fill="#9dfff4"/>
<circle cx="74.4" cy="4.8" r="2" fill="#9dfff4"/>
<circle cx="107.6" cy="38" r="2" fill="#9dfff4"/>
<circle cx="50.8" cy="14.3" r="2" fill="#9dfff4"/>
<circle cx="98.1" cy="14.3" r="2" fill="#9dfff4"/>
</svg>
