<svg xmlns="http://www.w3.org/2000/svg" width="145" height="91" fill="none"><path fill="#AFDDC9" d="m6.816 21.42-3.913 56.5 134.419-13.5-10.977-39.999-119.53-3Z"/><g clip-path="url(#a)"><path fill="#FFA23E" d="M65.904 64.323c-1.73 0-3.39-.69-4.615-1.906a6.518 6.518 0 0 1-1.906-4.616v-8.695c0-1.73.69-3.39 1.906-4.615a6.527 6.527 0 0 1 4.615-1.916c1.309-.01 13.053-2.174 13.053-10.88 0-4.347-4.347-8.695-10.879-8.695-5.306 0-8.695 4.348-8.695 6.522a6.44 6.44 0 0 1-.495 2.493 6.39 6.39 0 0 1-1.41 2.112 6.607 6.607 0 0 1-2.113 1.411 6.483 6.483 0 0 1-2.493.495 6.44 6.44 0 0 1-2.493-.495 6.389 6.389 0 0 1-2.112-1.411 6.608 6.608 0 0 1-1.412-2.112 6.482 6.482 0 0 1-.494-2.493C46.33 18.91 56.292 9.947 68.078 9.947 85.478 9.947 92 22.96 92 33.87c0 9.015-4.955 15.907-13.95 19.4a34.339 34.339 0 0 1-5.624 1.627v2.895c0 1.73-.69 3.39-1.906 4.616a6.518 6.518 0 0 1-4.616 1.905v.01Z"/><path fill="#7F3F00" d="M58.878 32.014c.33-.793.495-1.638.495-2.493 0-2.174 3.39-6.521 8.695-6.521 1.957 0 3.719.402 5.223 1.061-1.916-1.854-4.79-3.122-8.314-3.122-5.306 0-8.695 4.348-8.695 6.522 0 .855-.165 1.71-.494 2.493a6.386 6.386 0 0 1-1.412 2.112 6.607 6.607 0 0 1-2.112 1.411 6.445 6.445 0 0 1-2.493.495 6.408 6.408 0 0 1-1.875-.278c.113.144.216.298.35.422a6.608 6.608 0 0 0 2.112 1.412c.794.33 1.638.494 2.493.494s1.71-.165 2.493-.494a6.497 6.497 0 0 0 3.524-3.524l.01.01Z" opacity=".2"/><path fill="#FF7F00" d="M80.513 12.831c5.934 4.78 8.396 12.27 8.396 18.977 0 9.014-4.955 15.907-13.949 19.399a34.342 34.342 0 0 1-5.625 1.628v2.895c0 1.73-.69 3.39-1.906 4.615a6.5 6.5 0 0 1-4.615 1.906c-.66 0-1.309-.103-1.927-.288a6.517 6.517 0 0 0 5.017 2.349 6.56 6.56 0 0 0 4.616-1.906 6.5 6.5 0 0 0 1.906-4.616v-2.895c1.73-.35 3.667-.865 5.625-1.628C87.045 49.776 92 42.883 92 33.868c0-7.768-3.307-16.597-11.487-21.037Z"/><path fill="#FFA23E" d="M65.904 81.722a6.523 6.523 0 0 0 6.522-6.521 6.53 6.53 0 0 0-6.522-6.521 6.53 6.53 0 0 0-6.52 6.521 6.53 6.53 0 0 0 6.52 6.521Z"/><path fill="#FF7F00" d="M65.904 68.67c-.474 0-.927.051-1.37.144a6.52 6.52 0 0 1 5.151 6.377 6.52 6.52 0 0 1-5.15 6.377 6.523 6.523 0 0 0 7.892-6.377 6.53 6.53 0 0 0-6.523-6.521Z"/></g><defs><clipPath id="a"><path fill="#fff" d="M46.33 9.947H92v71.776H46.33z"/></clipPath></defs></svg>