<svg xmlns="http://www.w3.org/2000/svg" width="145" height="92" fill="none"><path fill="#AFDDC9" d="m143 62.196-11.289-59.5L1.695 39.853 18 73.696l125-11.5Z"/><g clip-path="url(#a)"><path stroke="#FFA23E" stroke-linecap="round" stroke-linejoin="round" stroke-width="5.6" d="M39.235 37.98h3.91M74.415 2.8v3.91m31.27 31.27h3.91m-60.2-25.02 2.74 2.74m47.3-2.74-2.74 2.74m-31.27 41.82h17.98m-20.72-3.91a19.518 19.518 0 0 1-6.93-9.81c-1.22-3.92-1.18-8.12.11-12.01 1.29-3.89 3.79-7.28 7.11-9.67a19.551 19.551 0 0 1 22.86 0c3.33 2.4 5.82 5.78 7.11 9.67 1.29 3.89 1.34 8.09.11 12.01a19.518 19.518 0 0 1-6.93 9.81 13.514 13.514 0 0 0-3.35 5.4c-.68 2.04-.87 4.21-.55 6.33a7.819 7.819 0 0 1-13.35 5.53 7.802 7.802 0 0 1-2.29-5.53c.31-2.12.12-4.29-.55-6.33a13.74 13.74 0 0 0-3.35-5.4Z"/><path fill="#FFA23E" d="M74.415 74.66c-2.49 0-4.83-.97-6.59-2.73a9.259 9.259 0 0 1-2.73-6.59v-.11l.02-.11c.28-1.88.11-3.83-.49-5.64-.59-1.77-1.6-3.41-2.92-4.74a20.888 20.888 0 0 1-7.37-10.5c-1.33-4.24-1.28-8.71.12-12.93 1.41-4.22 4.05-7.82 7.66-10.42 3.6-2.6 7.86-3.97 12.3-3.97s8.7 1.37 12.3 3.97c3.6 2.6 6.25 6.2 7.66 10.42 1.41 4.22 1.45 8.69.12 12.93a20.93 20.93 0 0 1-7.37 10.5 12.208 12.208 0 0 0-2.92 4.74c-.6 1.8-.77 3.75-.49 5.64l.02.11v.11c0 2.49-.97 4.83-2.73 6.59a9.259 9.259 0 0 1-6.59 2.73Z"/><path fill="#FFA23E" d="M74.415 18.44c4.1 0 8.1 1.29 11.43 3.69s5.82 5.78 7.11 9.67c1.3 3.89 1.34 8.09.11 12.01a19.518 19.518 0 0 1-6.93 9.81 13.514 13.514 0 0 0-3.35 5.4c-.68 2.04-.87 4.21-.55 6.33a7.819 7.819 0 0 1-13.35 5.53 7.802 7.802 0 0 1-2.29-5.53c.31-2.12.12-4.29-.55-6.33a13.74 13.74 0 0 0-3.35-5.4 19.518 19.518 0 0 1-6.93-9.81c-1.22-3.92-1.18-8.12.11-12.01 1.3-3.89 3.79-7.28 7.11-9.67 3.33-2.4 7.33-3.69 11.43-3.69Zm0-3c-4.76 0-9.32 1.47-13.18 4.26a22.43 22.43 0 0 0-8.21 11.16 22.374 22.374 0 0 0-.13 13.85c1.4 4.47 4.1 8.33 7.81 11.18 1.12 1.15 1.98 2.56 2.49 4.08.53 1.58.68 3.29.43 4.94l-.03.22v.22c0 2.89 1.13 5.61 3.17 7.65s4.76 3.17 7.65 3.17c2.89 0 5.61-1.13 7.65-3.17s3.17-4.76 3.17-7.65v-.22l-.03-.22c-.24-1.65-.09-3.36.43-4.94.51-1.52 1.37-2.93 2.49-4.08 3.72-2.84 6.42-6.7 7.81-11.18 1.42-4.54 1.37-9.33-.13-13.85-1.51-4.52-4.34-8.38-8.21-11.16a22.434 22.434 0 0 0-13.18-4.26Z"/><path fill="#7F3F00" d="M95.735 30.85c-1.51-4.52-4.34-8.38-8.21-11.16a22.434 22.434 0 0 0-13.18-4.26c-1.15 0-2.29.09-3.41.26 3.51.53 6.84 1.88 9.77 4a22.43 22.43 0 0 1 8.21 11.16c1.51 4.52 1.55 9.31.13 13.85-1.4 4.47-4.1 8.33-7.81 11.18a10.808 10.808 0 0 0-2.49 4.08c-.53 1.58-.68 3.29-.43 4.94l.03.22v.22c0 2.89-1.13 5.61-3.17 7.65a10.719 10.719 0 0 1-4.24 2.61c1.09.36 2.23.56 3.41.56 2.89 0 5.61-1.13 7.65-3.17s3.17-4.76 3.17-7.65v-.22l-.03-.22c-.24-1.65-.09-3.36.43-4.94.51-1.52 1.37-2.93 2.49-4.08 3.72-2.84 6.42-6.7 7.81-11.18 1.42-4.54 1.37-9.33-.13-13.85Z" opacity=".2"/><path fill="#FF7F00" d="m81.765 54.9 3.81 5.23h-22.32c.49 1.46.56 3.56.35 4.99-.02.14-.02.3-.02.44 0 2.84 1.32 5.52 3.33 7.52 2.01 2.01 4.67 3.11 7.51 3.11s5.5-1.1 7.51-3.11c2.01-2 3.28-4.67 3.28-7.51 0-.14.05-.32.03-.45-.25-1.68-.2-3.38.34-4.99"/></g><defs><clipPath id="a"><path fill="#fff" d="M36.435 0h75.96v76.19h-75.96z"/></clipPath></defs></svg>