<svg xmlns="http://www.w3.org/2000/svg" width="3016" height="255" fill="none"><g clip-path="url(#a)"><path fill="#189E71" d="m1320.29 3.605 12.58-22.215 12.58-22.212 12.96 22.008 12.94 22-25.53.215-25.53.204Z"/><path fill="#8C694D" d="m1371.36 3.183-36.65-25.035 10.75-18.974 25.9 44.009Z" opacity=".2"/><path fill="#189E71" d="m1074.62 46.801-12.46-22.284-12.46-22.28 25.54.342 25.52.352-13.07 21.94-13.07 21.93Zm603.62-15.477-.12-25.532-.12-25.528 22.18 12.659 22.17 12.66-22.05 12.875-22.06 12.866Z"/><path fill="#8C694D" d="m1722.35 5.576-44.24-3.509-.1-21.81 44.34 25.319Z" opacity=".2"/><path fill="#EFCEA6" d="M3056 39v72H0V39h3056Z"/><path fill="#fff" d="m1612.49 15.5-7.25-39.076-37.64 7.239 7.25 39.075 37.64-7.238Z"/><path fill="#8C694D" d="M1605.27-23.575 1571.2 3.211l-3.58-19.547 37.65-7.239Z" opacity=".2"/><path fill="#fff" d="m2012.74 197.398-24.11-31.587-30.31 23.461 24.11 31.587 30.31-23.461Z"/><path fill="#8C694D" d="m1988.65 165.801-18.29 39.284-12.03-15.821 30.32-23.463Z" opacity=".2"/><path fill="#fff" d="m2268.27 131.094-31.74 23.917 23.27 30.46 31.74-23.917-23.27-30.46Z"/><path fill="#8C694D" d="m2236.52 154.989 39.17 18.538-15.9 11.924-23.27-30.462Z" opacity=".2"/><path fill="#189E71" d="m2269.53 57.58-9.9-23.533-9.9-23.53 25.34 3.185 25.32 3.192-15.43 20.347-15.43 20.34Z"/><path fill="#fff" d="m1504.98 185.167 25.16-30.768-29.84-24.066-25.15 30.768 29.83 24.066Z"/><path fill="#8C694D" d="m1530.14 154.412-42.44-8.711 12.61-15.357 29.83 24.068Z" opacity=".2"/><path fill="#fff" d="m1192.41 39.106 25.16-30.768-29.84-24.066-25.15 30.768 29.83 24.066Z"/><path fill="#8C694D" d="m1217.57 8.35-42.44-8.71 12.61-15.357 29.83 24.068Z" opacity=".2"/><path stroke="#FF7F00" stroke-width="21.422" d="M1449.36 53.908c6.81-4.868 20.45-15.58 39.92-21.422 20.86-6.256 47.71-3.895 69.14 13.633 21.42 17.527 35.05 27.264 62.31 32.133 27.92 4.985 67.19-.974 93.48-11.685 26.29-10.711 37.98-33.107 39.93-50.635 1.94-17.527-10.71-35.054-34.08-33.106-23.37 1.947-61.35 33.106-82.77 71.082-21.42 37.976-23.37 64.27-11.69 82.769 8.14 12.886 35.06 17.529 55.51 13.635 42.84-8.16 64.26-28.241 109.06-41.872 32.08-9.763 57.45-9.183 66.21-2.924 8.76 6.26 17.53 14.607 17.53 34.083-5.52 45.44 21.42 122.689 173.32 68.16 189.88-68.16 227.66-184.835 185.99-212.276-39.93-26.291-92.51 13.632-75.96 54.53 12.17 30.058 82.82 88.868 209.35 13.632 72.06-42.845 115.88-87.637 199.62-77.9 66.99 7.79 90.88 14.931 94.45 17.528M1450.33 52.936c-7.79 5.843-21.26 13.352-37.58 25.485-23.77 17.674-58.98 45.326-102.64 55.336-46.72 10.711-78.73-8.78-99.35-27.265-18.47-16.554-67.86-20.518-95.4-13.632-42.84 10.711-70.1 35.054-57.45 59.398 8.14 15.646 43.82 33.107 111.98 0 21.09-10.246 64.27-40.899 93.5-81.34 25.54-35.337 22.36-62.047 7.77-78.355-33.1-37.003-115.05 8.67-133.39 18.5-54.53 29.212-114.8 59.2-155.803 81.797-47.713 26.291-100.305 39.92-150.935 15.579-50.63-24.341-21.546-71.166-23.366-90.558 5.191-22.395-1.37-61.149-69.142-37.002C670.752 5.026 622.005 60.4 606.104 85.067c-16.88 26.616-58.819 75.367-91.537 57.45"/><path fill="#D96C00" d="m1618.79 67.54 22.39 1.948-16.55-14.606-5.84 12.659Z"/><path stroke="#000" stroke-linecap="round" stroke-width="1.363" d="M1817.43 184.39c-1.95-2.597-6.82-8.764-10.71-12.659-3.9-3.895-10.06-8.764-12.66-10.711m24.34 8.764-10.71-12.659m-170.4 50.635c-3.25-2.597-10.52-8.959-13.63-13.633-3.12-4.674-5.85-10.386-6.82-12.658m72.06 1.947c-7.79.974-25.9 2.337-36.03 0-12.66-2.921-26.29-7.79-33.11-16.554-5.45-7.01-8.76-16.553-9.74-20.448m-69.13-5.843c-1.3-2.272-4.29-7.205-5.84-8.763m0 14.606-19.48-18.501m232.72-37.976c5.52-2.272 18.12-9.348 24.35-19.475 7.79-12.658 10.71-31.16 4.87-46.74-5.85-15.58-25.32-19.474-27.27-20.448-1.95-.974-15.58-2.921-18.5-2.921m65.24 37.002c1.62-3.57 4.09-12.464.98-19.475-3.9-8.763-11.57-10.996-13.64-11.685-2.92-.973-7.79-.973-9.73-.973m-688.7 121.119c-4.65 3.741-14.73 14.092-17.84 25.568-3.89 14.346-1.45 32.917 8.56 46.207 10.01 13.289 29.79 11.514 31.94 11.896 2.14.383 15.77-1.607 18.57-2.434m-73.05-17.026c-.54 3.884-.39 13.112 4.58 18.954 6.22 7.303 14.21 7.274 16.38 7.35 3.08.107 7.75-1.271 9.62-1.822M2211.22 13.677c-3.56-4.79-13.52-15.254-24.87-18.803-14.18-4.435-32.84-2.714-46.5 6.783-13.66 9.497-12.64 29.331-13.11 31.458-.46 2.127 1 15.82 1.72 18.651m19.81-72.34c-3.86-.694-13.09-.896-19.11 3.849-7.54 5.932-7.82 13.917-7.97 16.088-.23 3.071.97 7.79 1.45 9.678"/><path fill="#189E71" d="m1778.04 221.113 3.47-25.297 3.46-25.291 20.18 15.646 20.17 15.645-23.64 9.654-23.64 9.643Z"/><path fill="#8C694D" d="m1825.33 201.81-43.32-9.684 2.97-21.608 40.35 31.292Z" opacity=".2"/><path fill="#189E71" d="m962.596 165.301 9.816-18.55 9.814-18.546 11.164 17.777 11.15 17.771-20.973.778-20.971.77Z"/><path fill="#8C694D" d="m1004.55 163.751-30.703-19.705 8.389-15.843 22.314 35.548Z" opacity=".2"/><path fill="#189E71" d="m1448.82 130.566-17.67-18.438-17.66-18.433 24.81-6.086 24.79-6.074-7.13 24.519-7.14 24.512Z"/><path fill="#8C694D" d="m1463.08 81.526-34.51 27.912-15.08-15.753 49.59-12.16Z" opacity=".2"/><path fill="#189E71" d="m2061.89 72.472-21.21-14.226-21.19-14.223 22.92-11.258 22.91-11.243L2063.61 47l-1.72 25.473Z"/><path fill="#8C694D" d="m2065.32 21.515-27.73 34.657-18.11-12.156 45.84-22.501Z" opacity=".2"/><path fill="#3A2082" d="m1604.02 211.518-14.31-55.684-19.27 4.951 14.31 55.684 19.27-4.951Z"/><path fill="#351C70" d="m1589.72 155.821-12.14 32.801-7.13-27.849 19.27-4.952Z"/><path fill="#3A2082" d="m1912.36 146.287 43.29-37.836-13.1-14.978-43.28 37.836 13.09 14.978Z"/><path fill="#351C70" d="m1955.66 108.455-34.75 3.922 21.66-18.901 13.09 14.979Z"/><path fill="#3A2082" d="M979.85 63.512 965.542 7.828l-19.267 4.95 14.309 55.685 19.266-4.951Z"/><path fill="#351C70" d="m965.552 7.815-12.136 32.8-7.133-27.848 19.269-4.952Z"/><path fill="#3A2082" d="m1349.9 58.5-52.8 22.76 7.88 18.268 52.8-22.76-7.88-18.268Z"/><path fill="#351C70" d="m1297.09 81.252 34.28 6.91-26.4 11.359-7.88-18.27Z"/><path fill="#D96C00" d="m1849.56 90.91-7.79-.973h-5.84l-13.34.974 7.34 16.519 28.66-12.959-9.03-3.56Z"/><path fill="#fff" d="m1866.79 85.796-16.13-36.319-34.93 15.792 16.14 36.319 34.92-15.792Z"/><path fill="#8C694D" d="m1850.68 49.472-26.9 33.972-8.02-18.178 34.92-15.794Z" opacity=".2"/><path fill="#D96C00" d="m889.456 110.386-6.816-2.887-4.869 2.887-14.317-1.914 7.34 16.52 29.373-14.606h-10.711Z"/><path fill="#fff" d="m907.66 103.358-16.136-36.32-34.925 15.793 16.136 36.319 34.925-15.792Z"/><path fill="#8C694D" d="m891.551 67.034-26.9 33.972-8.028-18.178 34.928-15.794Z" opacity=".2"/><path fill="#D96C00" d="m1523.35 40.272 6.8-16.495-10.68-4.698s-3.63-.225-3.9-.225c-.62 0-3.36-.205-3.36-.205l-9.3 21.627h9.74l10.7-.004Z"/><path fill="#3A2082" d="m1510.55 76.613 21.53-48.95-16.94-7.45-21.53 48.95 16.94 7.45Z"/><path fill="#351C70" d="m1532.11 27.662-27.72 17.017 10.78-24.467 16.94 7.45Z"/><path fill="#D96C00" d="m1187.3 159.341 6.8-16.495-16.41-7.141-.98.973-15.58 31.16s14.61-6.816 16.56-6.816c1.95 0 9.61-1.681 9.61-1.681Z"/><path fill="#3A2082" d="m1174.51 195.681 21.53-48.95-16.94-7.449-21.53 48.95 16.94 7.449Z"/><path fill="#351C70" d="m1196.07 146.73-27.73 17.017 10.79-24.467 16.94 7.45Z"/><path fill="#D96C00" d="m2111.73 164.651-5.75 16.89 15.25 5.768 2.93-1.948 13.63-32.13s-14.62 9.016-16.57 9.139c-1.94.122-9.49 2.281-9.49 2.281Z"/><path fill="#3A2082" d="m2122.22 127.578-18.41 50.205 17.37 6.372 18.41-50.205-17.37-6.372Z"/><path fill="#351C70" d="m2103.78 177.787 26.6-18.724-9.23 25.096-17.37-6.372Z"/><path stroke="#000" stroke-linecap="round" stroke-width="1.363" d="M1207.03-33.056c7.2-3.138 24.18-9.572 34.56-10.196 12.96-.78 27.42.031 36.43 6.508 7.22 5.18 13.09 13.396 15.13 16.856m67.96-13.961c1.89 1.811 6.15 5.698 8.09 6.751m-4.14-14.008 23.92 12.233M961.294-16.847c-2.587.395-8.264 1.41-10.277 2.303m13.63 5.248L940.384 2.231M2222.22 175.806c1.16 2.345 3.85 7.448 5.31 9.096m.87-14.58 18.34 19.63M680.259 60.517c.216 2.607.837 8.34 1.591 10.411m6.173-13.237 9.83 24.998m306.727 56.987-9.875-13.322M832.94 172.556c-4.83-1.799-12.612-5.693-21.383-17.378-3.372-4.493-8.05-14.488-8.876-16.818m71.782 6.582c-7.836.47-26.504-.025-36.617-2.424-17.527-4.158-31.314-13.514-37.976-22.396-8.763-11.685-11.937-27.21-12.658-31.16M2044.32 75.33l-20.45-20.448m-5.91 195.113c-7.69 1.558-20.31 2.453-30.7 2.685-13.77.307-31.99-1.652-42.54-5.113-33.03-10.834-42.47-24-43.74-27.811M2410.2 17.112c5.62-5.48 15.74-13.075 24.35-18.902 11.4-7.722 27.77-15.954 38.51-18.764 33.63-8.798 48.7-2.856 51.83-.34M664.604-7.423c6.308-4.672 17.361-10.833 26.674-15.448 12.339-6.114 29.673-12.064 40.695-13.4 34.503-4.186 48.64 3.734 51.401 6.65"/></g><defs><clipPath id="a"><path fill="#fff" d="M3016 255H0V0h3016z"/></clipPath></defs></svg>