<svg xmlns="http://www.w3.org/2000/svg" width="375" height="379" fill="none"><g clip-path="url(#a)"><path fill="#EAEBE3" d="M0 0h375v379H0z"/><path fill="#000" d="M42.036 153.436 38.526 166h-2.97l-2.358-8.946L30.732 166l-2.952.018-3.384-12.582h2.7l2.214 9.756 2.556-9.756h2.808l2.412 9.702 2.232-9.702h2.718Zm10.916 7.362c0 .36-.024.684-.072.972h-7.29c.06.72.311 1.284.755 1.692.444.408.99.612 1.639.612.935 0 1.602-.402 1.997-1.206H52.7a4.588 4.588 0 0 1-1.655 2.376c-.816.612-1.819.918-3.006.918-.96 0-1.824-.21-2.592-.63a4.637 4.637 0 0 1-1.782-1.818c-.42-.78-.63-1.68-.63-2.7 0-1.032.21-1.938.63-2.718a4.396 4.396 0 0 1 1.764-1.8c.756-.42 1.626-.63 2.61-.63.948 0 1.794.204 2.538.612.755.408 1.337.99 1.745 1.746.42.744.63 1.602.63 2.574Zm-2.61-.72c-.012-.648-.246-1.164-.703-1.548-.456-.396-1.014-.594-1.674-.594-.623 0-1.152.192-1.584.576-.42.372-.678.894-.773 1.566h4.734Zm3.8.9c0-1.008.199-1.902.595-2.682.408-.78.96-1.38 1.656-1.8.696-.42 1.47-.63 2.322-.63.648 0 1.266.144 1.854.432.588.276 1.056.648 1.404 1.116v-4.734h2.556V166h-2.556v-1.476c-.312.492-.75.888-1.314 1.188-.564.3-1.218.45-1.962.45-.84 0-1.608-.216-2.304-.648-.696-.432-1.248-1.038-1.656-1.818-.396-.792-.594-1.698-.594-2.718Zm7.849.036c0-.612-.12-1.134-.36-1.566a2.463 2.463 0 0 0-.972-1.008 2.548 2.548 0 0 0-1.314-.36c-.468 0-.9.114-1.296.342-.396.228-.72.564-.972 1.008-.24.432-.36.948-.36 1.548 0 .6.12 1.128.36 1.584.252.444.576.786.972 1.026.408.24.84.36 1.296.36a2.65 2.65 0 0 0 1.314-.342c.408-.24.732-.576.972-1.008.24-.444.36-.972.36-1.584Zm10.525-5.13c1.188 0 2.148.378 2.88 1.134.732.744 1.098 1.788 1.098 3.132V166h-2.52v-5.508c0-.792-.198-1.398-.594-1.818-.396-.432-.936-.648-1.62-.648-.696 0-1.248.216-1.656.648-.396.42-.594 1.026-.594 1.818V166h-2.52v-9.972h2.52v1.242a3.417 3.417 0 0 1 1.278-1.008 3.96 3.96 0 0 1 1.728-.378Zm15.644 4.914c0 .36-.024.684-.072.972h-7.29c.06.72.312 1.284.756 1.692.444.408.99.612 1.638.612.936 0 1.602-.402 1.998-1.206h2.718a4.588 4.588 0 0 1-1.656 2.376c-.816.612-1.818.918-3.006.918-.96 0-1.824-.21-2.592-.63a4.637 4.637 0 0 1-1.782-1.818c-.42-.78-.63-1.68-.63-2.7 0-1.032.21-1.938.63-2.718a4.396 4.396 0 0 1 1.764-1.8c.756-.42 1.626-.63 2.61-.63.948 0 1.794.204 2.538.612.756.408 1.338.99 1.746 1.746.42.744.63 1.602.63 2.574Zm-2.61-.72c-.012-.648-.246-1.164-.702-1.548-.456-.396-1.014-.594-1.674-.594-.624 0-1.152.192-1.584.576-.42.372-.678.894-.774 1.566h4.734Zm8.266 6.084c-.816 0-1.548-.144-2.196-.432-.648-.3-1.164-.702-1.548-1.206a3.069 3.069 0 0 1-.612-1.674h2.538c.048.384.234.702.558.954.336.252.75.378 1.242.378.48 0 .852-.096 1.116-.288.276-.192.414-.438.414-.738 0-.324-.168-.564-.504-.72-.324-.168-.846-.348-1.566-.54-.744-.18-1.356-.366-1.836-.558a3.263 3.263 0 0 1-1.224-.882c-.336-.396-.504-.93-.504-1.602 0-.552.156-1.056.468-1.512.324-.456.78-.816 1.368-1.08.6-.264 1.302-.396 2.106-.396 1.188 0 2.136.3 2.844.9.708.588 1.098 1.386 1.17 2.394h-2.412a1.265 1.265 0 0 0-.504-.936c-.288-.24-.678-.36-1.17-.36-.456 0-.81.084-1.062.252a.81.81 0 0 0-.36.702c0 .336.168.594.504.774.336.168.858.342 1.566.522.72.18 1.314.366 1.782.558.468.192.87.492 1.206.9.348.396.528.924.54 1.584 0 .576-.162 1.092-.486 1.548-.312.456-.768.816-1.368 1.08-.588.252-1.278.378-2.07.378Zm5.344-5.184c0-1.008.198-1.902.594-2.682.408-.78.96-1.38 1.656-1.8.696-.42 1.47-.63 2.322-.63.648 0 1.266.144 1.854.432.588.276 1.056.648 1.404 1.116v-4.734h2.556V166h-2.556v-1.476c-.312.492-.75.888-1.314 1.188-.564.3-1.218.45-1.962.45-.84 0-1.608-.216-2.304-.648-.696-.432-1.248-1.038-1.656-1.818-.396-.792-.594-1.698-.594-2.718Zm7.848.036c0-.612-.12-1.134-.36-1.566a2.463 2.463 0 0 0-.972-1.008 2.548 2.548 0 0 0-1.314-.36c-.468 0-.9.114-1.296.342-.396.228-.72.564-.972 1.008-.24.432-.36.948-.36 1.548 0 .6.12 1.128.36 1.584.252.444.576.786.972 1.026.408.24.84.36 1.296.36a2.65 2.65 0 0 0 1.314-.342c.408-.24.732-.576.972-1.008.24-.444.36-.972.36-1.584Zm4.352-.036c0-1.008.198-1.902.594-2.682.408-.78.954-1.38 1.638-1.8.696-.42 1.47-.63 2.322-.63.744 0 1.392.15 1.944.45.564.3 1.014.678 1.35 1.134v-1.422h2.538V166h-2.538v-1.458c-.324.468-.774.858-1.35 1.17-.564.3-1.218.45-1.962.45-.84 0-1.608-.216-2.304-.648-.684-.432-1.23-1.038-1.638-1.818-.396-.792-.594-1.698-.594-2.718Zm7.848.036c0-.612-.12-1.134-.36-1.566a2.463 2.463 0 0 0-.972-1.008 2.548 2.548 0 0 0-1.314-.36c-.468 0-.9.114-1.296.342-.396.228-.72.564-.972 1.008-.24.432-.36.948-.36 1.548 0 .6.12 1.128.36 1.584.252.444.576.786.972 1.026.408.24.84.36 1.296.36a2.65 2.65 0 0 0 1.314-.342c.408-.24.732-.576.972-1.008.24-.444.36-.972.36-1.584Zm14.539-4.986-6.174 14.688h-2.682l2.16-4.968-3.996-9.72h2.826l2.574 6.966 2.61-6.966h2.682Zm5.053-.828v-2.322h4.338V166h-2.592v-10.8H138.8Zm6.522 0v-2.322h4.338V166h-2.592v-10.8h-1.746Zm10.049 2.898v4.824c0 .336.078.582.234.738.168.144.444.216.828.216h1.17V166h-1.584c-2.124 0-3.186-1.032-3.186-3.096v-4.806h-1.188v-2.07h1.188v-2.466h2.538v2.466h2.232v2.07h-2.232Zm9.661-2.214c.756 0 1.428.168 2.016.504.588.324 1.044.81 1.368 1.458.336.636.504 1.404.504 2.304V166h-2.52v-5.508c0-.792-.198-1.398-.594-1.818-.396-.432-.936-.648-1.62-.648-.696 0-1.248.216-1.656.648-.396.42-.594 1.026-.594 1.818V166h-2.52v-13.32h2.52v4.59a3.214 3.214 0 0 1 1.296-1.008 4.205 4.205 0 0 1 1.8-.378Zm14.965-2.448c1.32 0 2.478.258 3.474.774a5.446 5.446 0 0 1 2.322 2.214c.552.948.828 2.052.828 3.312 0 1.26-.276 2.364-.828 3.312-.54.936-1.314 1.662-2.322 2.178-.996.516-2.154.774-3.474.774h-4.392v-12.564h4.392Zm-.09 10.422c1.32 0 2.34-.36 3.06-1.08.72-.72 1.08-1.734 1.08-3.042 0-1.308-.36-2.328-1.08-3.06-.72-.744-1.74-1.116-3.06-1.116h-1.782v8.298h1.782Zm17.871-3.06c0 .36-.024.684-.072.972h-7.29c.06.72.312 1.284.756 1.692.444.408.99.612 1.638.612.936 0 1.602-.402 1.998-1.206h2.718a4.588 4.588 0 0 1-1.656 2.376c-.816.612-1.818.918-3.006.918-.96 0-1.824-.21-2.592-.63a4.637 4.637 0 0 1-1.782-1.818c-.42-.78-.63-1.68-.63-2.7 0-1.032.21-1.938.63-2.718a4.396 4.396 0 0 1 1.764-1.8c.756-.42 1.626-.63 2.61-.63.948 0 1.794.204 2.538.612.756.408 1.338.99 1.746 1.746.42.744.63 1.602.63 2.574Zm-2.61-.72c-.012-.648-.246-1.164-.702-1.548-.456-.396-1.014-.594-1.674-.594-.624 0-1.152.192-1.584.576-.42.372-.678.894-.774 1.566h4.734Zm3.801.936c0-1.032.21-1.932.63-2.7a4.428 4.428 0 0 1 1.746-1.8c.744-.432 1.596-.648 2.556-.648 1.236 0 2.256.312 3.06.936.816.612 1.362 1.476 1.638 2.592h-2.718a1.923 1.923 0 0 0-.738-1.008c-.336-.252-.756-.378-1.26-.378-.72 0-1.29.264-1.71.792-.42.516-.63 1.254-.63 2.214 0 .948.21 1.686.63 2.214.42.516.99.774 1.71.774 1.02 0 1.686-.456 1.998-1.368h2.718c-.276 1.08-.822 1.938-1.638 2.574-.816.636-1.836.954-3.06.954-.96 0-1.812-.21-2.556-.63a4.58 4.58 0 0 1-1.746-1.8c-.42-.78-.63-1.686-.63-2.718Zm16.269 2.142a70.06 70.06 0 0 0 2.754-2.394 11.395 11.395 0 0 0 1.71-2.016c.456-.696.684-1.38.684-2.052 0-.612-.144-1.092-.432-1.44-.288-.348-.732-.522-1.332-.522-.6 0-1.062.204-1.386.612-.324.396-.492.942-.504 1.638h-2.448c.048-1.44.474-2.532 1.278-3.276.816-.744 1.848-1.116 3.096-1.116 1.368 0 2.418.366 3.15 1.098.732.72 1.098 1.674 1.098 2.862 0 .936-.252 1.83-.756 2.682a10.833 10.833 0 0 1-1.728 2.232 57.018 57.018 0 0 1-2.538 2.268h5.31v2.088h-8.892v-1.872l.936-.792Zm9.544-3.888c0-2.076.372-3.702 1.116-4.878.756-1.176 2.004-1.764 3.744-1.764 1.74 0 2.982.588 3.726 1.764.756 1.176 1.134 2.802 1.134 4.878 0 2.088-.378 3.726-1.134 4.914-.744 1.188-1.986 1.782-3.726 1.782s-2.988-.594-3.744-1.782c-.744-1.188-1.116-2.826-1.116-4.914Zm7.236 0c0-.888-.06-1.632-.18-2.232-.108-.612-.336-1.11-.684-1.494-.336-.384-.84-.576-1.512-.576s-1.182.192-1.53.576c-.336.384-.564.882-.684 1.494-.108.6-.162 1.344-.162 2.232 0 .912.054 1.68.162 2.304.108.612.336 1.11.684 1.494.348.372.858.558 1.53.558s1.182-.186 1.53-.558c.348-.384.576-.882.684-1.494.108-.624.162-1.392.162-2.304Zm5.193 3.888a70.06 70.06 0 0 0 2.754-2.394 11.395 11.395 0 0 0 1.71-2.016c.456-.696.684-1.38.684-2.052 0-.612-.144-1.092-.432-1.44-.288-.348-.732-.522-1.332-.522-.6 0-1.062.204-1.386.612-.324.396-.492.942-.504 1.638h-2.448c.048-1.44.474-2.532 1.278-3.276.816-.744 1.848-1.116 3.096-1.116 1.368 0 2.418.366 3.15 1.098.732.72 1.098 1.674 1.098 2.862 0 .936-.252 1.83-.756 2.682a10.833 10.833 0 0 1-1.728 2.232 57.018 57.018 0 0 1-2.538 2.268h5.31v2.088h-8.892v-1.872l.936-.792Zm9.58-6.822c.06-1.2.48-2.124 1.26-2.772.792-.66 1.83-.99 3.114-.99.876 0 1.626.156 2.25.468.624.3 1.092.714 1.404 1.242.324.516.486 1.104.486 1.764 0 .756-.198 1.398-.594 1.926-.384.516-.846.864-1.386 1.044v.072c.696.216 1.236.6 1.62 1.152.396.552.594 1.26.594 2.124 0 .72-.168 1.362-.504 1.926-.324.564-.81 1.008-1.458 1.332-.636.312-1.404.468-2.304.468-1.356 0-2.46-.342-3.312-1.026-.852-.684-1.302-1.692-1.35-3.024h2.448c.024.588.222 1.062.594 1.422.384.348.906.522 1.566.522.612 0 1.08-.168 1.404-.504.336-.348.504-.792.504-1.332 0-.72-.228-1.236-.684-1.548-.456-.312-1.164-.468-2.124-.468h-.522v-2.07h.522c1.704 0 2.556-.57 2.556-1.71 0-.516-.156-.918-.468-1.206-.3-.288-.738-.432-1.314-.432-.564 0-1.002.156-1.314.468-.3.3-.474.684-.522 1.152h-2.466Z"/><g clip-path="url(#b)"><path stroke="#C4C6BD" d="M24 61.5h327"/><path fill="#82847B" d="M59.22 46.126c-1.164 0-2.226-.27-3.186-.81a6.146 6.146 0 0 1-2.286-2.286c-.552-.984-.828-2.088-.828-3.312 0-1.224.276-2.322.828-3.294a5.976 5.976 0 0 1 2.286-2.286c.96-.552 2.022-.828 3.186-.828 1.176 0 2.244.276 3.204.828a5.885 5.885 0 0 1 2.268 2.268c.552.972.828 2.076.828 3.312 0 1.236-.276 2.34-.828 3.312a6.014 6.014 0 0 1-2.268 2.286c-.96.54-2.028.81-3.204.81Zm0-1.422c.876 0 1.662-.204 2.358-.612a4.23 4.23 0 0 0 1.656-1.746c.408-.756.612-1.632.612-2.628 0-1.008-.204-1.884-.612-2.628-.396-.756-.942-1.338-1.638-1.746-.696-.408-1.488-.612-2.376-.612-.888 0-1.68.204-2.376.612-.696.408-1.248.99-1.656 1.746-.396.744-.594 1.62-.594 2.628 0 .996.198 1.872.594 2.628.408.756.96 1.338 1.656 1.746.708.408 1.5.612 2.376.612Zm11.726-.216 3.06-8.352h1.746L71.882 46h-1.908l-3.87-9.864h1.764l3.078 8.352Zm15.01-3.798c0 .312-.018.642-.054.99h-7.884c.06.972.39 1.734.99 2.286.612.54 1.35.81 2.214.81.708 0 1.296-.162 1.764-.486.48-.336.816-.78 1.008-1.332h1.764a4.284 4.284 0 0 1-1.584 2.322c-.792.588-1.776.882-2.952.882-.936 0-1.776-.21-2.52-.63a4.492 4.492 0 0 1-1.728-1.782c-.42-.78-.63-1.68-.63-2.7 0-1.02.204-1.914.612-2.682a4.254 4.254 0 0 1 1.71-1.764c.744-.42 1.596-.63 2.556-.63.936 0 1.764.204 2.484.612.72.408 1.272.972 1.656 1.692.396.708.594 1.512.594 2.412Zm-1.692-.342c0-.624-.138-1.158-.414-1.602a2.605 2.605 0 0 0-1.134-1.026c-.468-.24-.99-.36-1.566-.36-.828 0-1.536.264-2.124.792-.576.528-.906 1.26-.99 2.196h6.228Zm5.084-2.61a3.16 3.16 0 0 1 1.224-1.314c.54-.312 1.194-.468 1.962-.468v1.692h-.432c-1.836 0-2.754.996-2.754 2.988V46H87.71v-9.864h1.638v1.602Zm8.341 6.75 3.06-8.352h1.746L98.625 46h-1.908l-3.87-9.864h1.764l3.078 8.352Zm6.856-9.954c-.312 0-.576-.108-.792-.324a1.077 1.077 0 0 1-.324-.792c0-.312.108-.576.324-.792.216-.216.48-.324.792-.324.3 0 .552.108.756.324.216.216.324.48.324.792 0 .312-.108.576-.324.792a.998.998 0 0 1-.756.324Zm.792 1.602V46h-1.638v-9.864h1.638Zm11.383 4.554c0 .312-.018.642-.054.99h-7.884c.06.972.39 1.734.99 2.286.612.54 1.35.81 2.214.81.708 0 1.296-.162 1.764-.486.48-.336.816-.78 1.008-1.332h1.764a4.284 4.284 0 0 1-1.584 2.322c-.792.588-1.776.882-2.952.882-.936 0-1.776-.21-2.52-.63a4.492 4.492 0 0 1-1.728-1.782c-.42-.78-.63-1.68-.63-2.7 0-1.02.204-1.914.612-2.682a4.254 4.254 0 0 1 1.71-1.764c.744-.42 1.596-.63 2.556-.63.936 0 1.764.204 2.484.612.72.408 1.272.972 1.656 1.692.396.708.594 1.512.594 2.412Zm-1.692-.342c0-.624-.138-1.158-.414-1.602a2.605 2.605 0 0 0-1.134-1.026c-.468-.24-.99-.36-1.566-.36-.828 0-1.536.264-2.124.792-.576.528-.906 1.26-.99 2.196h6.228Zm16.587-4.212L128.537 46h-1.692l-2.376-7.83-2.376 7.83h-1.692l-3.096-9.864h1.674l2.268 8.28 2.448-8.28h1.674l2.394 8.298 2.232-8.298h1.62Z"/><path fill="#006B4B" d="M248.94 33.436c1.32 0 2.478.258 3.474.774a5.446 5.446 0 0 1 2.322 2.214c.552.948.828 2.052.828 3.312 0 1.26-.276 2.364-.828 3.312-.54.936-1.314 1.662-2.322 2.178-.996.516-2.154.774-3.474.774h-4.392V33.436h4.392Zm-.09 10.422c1.32 0 2.34-.36 3.06-1.08.72-.72 1.08-1.734 1.08-3.042 0-1.308-.36-2.328-1.08-3.06-.72-.744-1.74-1.116-3.06-1.116h-1.782v8.298h1.782Zm7.545-2.88c0-1.008.198-1.902.594-2.682.408-.78.954-1.38 1.638-1.8.696-.42 1.47-.63 2.322-.63.744 0 1.392.15 1.944.45.564.3 1.014.678 1.35 1.134v-1.422h2.538V46h-2.538v-1.458c-.324.468-.774.858-1.35 1.17-.564.3-1.218.45-1.962.45-.84 0-1.608-.216-2.304-.648-.684-.432-1.23-1.038-1.638-1.818-.396-.792-.594-1.698-.594-2.718Zm7.848.036c0-.612-.12-1.134-.36-1.566a2.463 2.463 0 0 0-.972-1.008 2.548 2.548 0 0 0-1.314-.36c-.468 0-.9.114-1.296.342-.396.228-.72.564-.972 1.008-.24.432-.36.948-.36 1.548 0 .6.12 1.128.36 1.584.252.444.576.786.972 1.026.408.24.84.36 1.296.36a2.65 2.65 0 0 0 1.314-.342c.408-.24.732-.576.972-1.008.24-.444.36-.972.36-1.584Zm5.869-6.174c-.444 0-.816-.138-1.116-.414a1.444 1.444 0 0 1-.432-1.062c0-.42.144-.768.432-1.044.3-.288.672-.432 1.116-.432.444 0 .81.144 1.098.432.3.276.45.624.45 1.044 0 .42-.15.774-.45 1.062-.288.276-.654.414-1.098.414Zm1.242 1.188V46h-2.52v-9.972h2.52Zm4.602-3.348V46h-2.52V32.68h2.52Zm11.621 3.348-6.174 14.688h-2.682l2.16-4.968-3.996-9.72h2.826l2.574 6.966 2.61-6.966h2.682Z"/><rect width="153" height="3.771" x="198" y="60.114" fill="#006B4B" rx="1.886"/></g><rect width="115" height="32" x="24" y="96" fill="#000" rx="16"/><path fill="#fff" d="M54.435 107.228 51.705 117h-2.31l-1.834-6.958L45.643 117l-2.296.014-2.632-9.786h2.1l1.722 7.588 1.988-7.588h2.184l1.876 7.546 1.736-7.546h2.114Zm8.082 5.726c0 .28-.019.532-.056.756h-5.67c.047.56.243.999.588 1.316.346.317.77.476 1.274.476.728 0 1.246-.313 1.554-.938h2.114a3.566 3.566 0 0 1-1.288 1.848c-.635.476-1.414.714-2.338.714-.746 0-1.419-.163-2.016-.49a3.604 3.604 0 0 1-1.386-1.414c-.326-.607-.49-1.307-.49-2.1 0-.803.164-1.507.49-2.114a3.42 3.42 0 0 1 1.372-1.4c.588-.327 1.265-.49 2.03-.49.737 0 1.395.159 1.974.476.588.317 1.04.77 1.358 1.358.327.579.49 1.246.49 2.002Zm-2.03-.56c-.01-.504-.191-.905-.546-1.204-.355-.308-.788-.462-1.302-.462-.485 0-.896.149-1.232.448-.326.289-.527.695-.602 1.218h3.682Zm2.549.7c0-.784.154-1.479.462-2.086a3.469 3.469 0 0 1 1.288-1.4 3.425 3.425 0 0 1 1.806-.49c.504 0 .984.112 1.442.336.457.215.821.504 1.092.868v-3.682h1.988V117h-1.988v-1.148a2.651 2.651 0 0 1-1.022.924c-.439.233-.948.35-1.526.35-.654 0-1.25-.168-1.792-.504a3.567 3.567 0 0 1-1.288-1.414c-.308-.616-.462-1.321-.462-2.114Zm6.104.028c0-.476-.094-.882-.28-1.218a1.916 1.916 0 0 0-.756-.784 1.979 1.979 0 0 0-1.022-.28c-.364 0-.7.089-1.008.266a2.04 2.04 0 0 0-.756.784c-.187.336-.28.737-.28 1.204 0 .467.093.877.28 1.232.196.345.448.611.756.798.317.187.653.28 1.008.28.364 0 .705-.089 1.022-.266a2.04 2.04 0 0 0 .756-.784c.186-.345.28-.756.28-1.232Zm7.778-3.99c.924 0 1.67.294 2.24.882.57.579.854 1.391.854 2.436V117h-1.96v-4.284c0-.616-.154-1.087-.462-1.414-.308-.336-.728-.504-1.26-.504-.541 0-.97.168-1.288.504-.308.327-.462.798-.462 1.414V117h-1.96v-7.756h1.96v.966a2.66 2.66 0 0 1 .994-.784 3.08 3.08 0 0 1 1.344-.294Zm11.76 3.822c0 .28-.019.532-.056.756h-5.67c.047.56.243.999.588 1.316.345.317.77.476 1.274.476.728 0 1.246-.313 1.554-.938h2.114a3.566 3.566 0 0 1-1.288 1.848c-.635.476-1.414.714-2.338.714-.747 0-1.419-.163-2.016-.49a3.604 3.604 0 0 1-1.386-1.414c-.327-.607-.49-1.307-.49-2.1 0-.803.163-1.507.49-2.114a3.419 3.419 0 0 1 1.372-1.4c.588-.327 1.265-.49 2.03-.49.737 0 1.395.159 1.974.476.588.317 1.04.77 1.358 1.358.327.579.49 1.246.49 2.002Zm-2.03-.56c-.01-.504-.191-.905-.546-1.204-.355-.308-.789-.462-1.302-.462-.485 0-.896.149-1.232.448-.327.289-.527.695-.602 1.218h3.682Zm6.02 4.732c-.634 0-1.203-.112-1.707-.336a3.13 3.13 0 0 1-1.204-.938 2.386 2.386 0 0 1-.476-1.302h1.974c.037.299.182.546.434.742.26.196.583.294.966.294.373 0 .662-.075.868-.224.214-.149.322-.341.322-.574 0-.252-.131-.439-.392-.56-.252-.131-.658-.271-1.218-.42a10.775 10.775 0 0 1-1.428-.434 2.534 2.534 0 0 1-.952-.686c-.262-.308-.392-.723-.392-1.246 0-.429.12-.821.364-1.176.252-.355.606-.635 1.064-.84.466-.205 1.012-.308 1.638-.308.924 0 1.66.233 2.212.7.55.457.854 1.078.91 1.862h-1.876a.984.984 0 0 0-.392-.728c-.224-.187-.528-.28-.91-.28-.355 0-.63.065-.826.196a.63.63 0 0 0-.28.546c0 .261.13.462.392.602.26.131.667.266 1.218.406.56.14 1.022.285 1.386.434.364.149.676.383.938.7.27.308.41.719.42 1.232 0 .448-.126.849-.378 1.204-.243.355-.598.635-1.064.84-.458.196-.994.294-1.61.294Zm3.75-4.032c0-.784.153-1.479.461-2.086.318-.607.747-1.073 1.288-1.4a3.425 3.425 0 0 1 1.806-.49c.504 0 .985.112 1.442.336.458.215.822.504 1.092.868v-3.682h1.988V117h-1.988v-1.148a2.644 2.644 0 0 1-1.022.924c-.438.233-.947.35-1.525.35a3.329 3.329 0 0 1-1.792-.504 3.567 3.567 0 0 1-1.289-1.414c-.308-.616-.462-1.321-.462-2.114Zm6.103.028c0-.476-.093-.882-.28-1.218a1.907 1.907 0 0 0-.756-.784 1.978 1.978 0 0 0-1.022-.28c-.364 0-.7.089-1.007.266a2.04 2.04 0 0 0-.757.784c-.186.336-.28.737-.28 1.204 0 .467.094.877.28 1.232.197.345.448.611.757.798.317.187.653.28 1.007.28.364 0 .705-.089 1.022-.266a2.03 2.03 0 0 0 .756-.784c.187-.345.28-.756.28-1.232Zm2.977-.028c0-.784.154-1.479.462-2.086.317-.607.742-1.073 1.274-1.4a3.423 3.423 0 0 1 1.806-.49c.578 0 1.082.117 1.512.35a3.07 3.07 0 0 1 1.05.882v-1.106h1.974V117h-1.974v-1.134c-.252.364-.602.667-1.05.91-.439.233-.948.35-1.526.35a3.329 3.329 0 0 1-1.792-.504c-.532-.336-.957-.807-1.274-1.414-.308-.616-.462-1.321-.462-2.114Zm6.104.028c0-.476-.094-.882-.28-1.218a1.92 1.92 0 0 0-.756-.784 1.98 1.98 0 0 0-1.022-.28c-.364 0-.7.089-1.008.266a2.04 2.04 0 0 0-.756.784c-.187.336-.28.737-.28 1.204 0 .467.093.877.28 1.232.196.345.448.611.756.798.317.187.653.28 1.008.28.364 0 .704-.089 1.022-.266.317-.187.569-.448.756-.784.186-.345.28-.756.28-1.232Zm10.9-3.878-4.802 11.424h-2.086l1.68-3.864-3.108-7.56h2.198l2.002 5.418 2.03-5.418h2.086Z"/><circle cx="50.5" cy="216.5" r="26.5" fill="#FBFBFB"/><circle cx="33.661" cy="228.23" r="2.938" stroke="#189E71" stroke-width="2.373"/><circle cx="43.559" cy="212.554" r="2.938" stroke="#189E71" stroke-width="2.373"/><circle cx="56.756" cy="219.979" r="2.938" stroke="#189E71" stroke-width="2.373"/><path stroke="#000" stroke-width="1.699" d="m33.097 229.157 10.462-16.602 13.197 7.836 11.96-17.734m0 0-7.01 3.3m7.01-3.3v7.424"/><path fill="#006B4B" fill-rule="evenodd" d="M36.544 225.28a4.13 4.13 0 0 0-1.432-.913l-1.333 2.115a1.75 1.75 0 0 1 1.427.922l1.338-2.124Zm5.579-8.859a4.135 4.135 0 0 1-1.436-.908l1.337-2.117c.283.515.817.871 1.437.906l-1.338 2.119Zm4.472-1.076c.383-.416.682-.912.868-1.46l-2.154-1.279a1.752 1.752 0 0 1-.868 1.461l2.154 1.278ZM52.75 219a4.11 4.11 0 0 1 .738-1.537l2.077 1.233a1.746 1.746 0 0 0-.517 1.669L52.749 219Zm7.127-1.717a4.135 4.135 0 0 0-1.353-1.031l-1.365 2.023a1.755 1.755 0 0 1 1.264 1.165l1.454-2.157Z" clip-rule="evenodd"/><path fill="#000" d="m98.984 211.332-3.776 7.28v3.888h-2.24v-3.888l-3.792-7.28h2.528l2.4 5.104 2.384-5.104h2.496Zm4.82 11.312c-.853 0-1.621-.187-2.304-.56a4.204 4.204 0 0 1-1.616-1.616c-.384-.693-.576-1.493-.576-2.4 0-.907.197-1.707.592-2.4a4.17 4.17 0 0 1 1.648-1.6c.693-.384 1.467-.576 2.32-.576.853 0 1.627.192 2.32.576a4.065 4.065 0 0 1 1.632 1.6c.405.693.608 1.493.608 2.4 0 .907-.208 1.707-.624 2.4a4.252 4.252 0 0 1-1.664 1.616c-.693.373-1.472.56-2.336.56Zm0-1.952c.405 0 .784-.096 1.136-.288.363-.203.651-.501.864-.896.213-.395.32-.875.32-1.44 0-.843-.224-1.488-.672-1.936a2.143 2.143 0 0 0-1.616-.688c-.64 0-1.179.229-1.616.688-.427.448-.64 1.093-.64 1.936s.208 1.493.624 1.952c.427.448.96.672 1.6.672Zm14.227-7.056v8.864h-2.256v-1.12a3.015 3.015 0 0 1-1.136.912c-.459.213-.96.32-1.504.32-.693 0-1.307-.144-1.84-.432a3.22 3.22 0 0 1-1.264-1.296c-.299-.576-.448-1.259-.448-2.048v-5.2h2.24v4.88c0 .704.176 1.248.528 1.632.352.373.832.56 1.44.56.619 0 1.104-.187 1.456-.56.352-.384.528-.928.528-1.632v-4.88h2.256Zm4.042 1.376a3.173 3.173 0 0 1 1.12-1.104c.469-.267 1.003-.4 1.6-.4v2.352h-.592c-.704 0-1.237.165-1.6.496-.352.331-.528.907-.528 1.728v4.416h-2.24v-8.864h2.24v1.376Zm16.489-3.68V222.5h-2.24v-4.752h-4.784v4.752h-2.24v-11.168h2.24v4.592h4.784v-4.592h2.24Zm2.933 1.248c-.395 0-.725-.123-.992-.368a1.284 1.284 0 0 1-.384-.944c0-.373.128-.683.384-.928.267-.256.597-.384.992-.384s.72.128.976.384c.267.245.4.555.4.928s-.133.688-.4.944c-.256.245-.581.368-.976.368Zm1.104 1.056v8.864h-2.24v-8.864h2.24Zm5.277-.144c.662 0 1.243.133 1.744.4a3.14 3.14 0 0 1 1.184 1.008v-1.264h2.256v8.928c0 .821-.165 1.552-.496 2.192a3.61 3.61 0 0 1-1.488 1.536c-.661.384-1.461.576-2.4.576-1.258 0-2.293-.293-3.104-.88-.8-.587-1.253-1.387-1.36-2.4h2.224c.118.405.368.725.752.96.395.245.87.368 1.424.368.651 0 1.179-.197 1.584-.592.406-.384.608-.971.608-1.76v-1.376c-.288.416-.688.763-1.2 1.04-.501.277-1.077.416-1.728.416a3.81 3.81 0 0 1-2.048-.576c-.618-.384-1.109-.923-1.472-1.616-.352-.704-.528-1.509-.528-2.416 0-.896.176-1.691.528-2.384.363-.693.848-1.227 1.456-1.6a3.922 3.922 0 0 1 2.064-.56Zm2.928 4.576c0-.544-.106-1.008-.32-1.392a2.185 2.185 0 0 0-.864-.896 2.266 2.266 0 0 0-1.168-.32c-.416 0-.8.101-1.152.304-.352.203-.64.501-.864.896-.213.384-.32.843-.32 1.376 0 .533.107 1.003.32 1.408.224.395.512.699.864.912.363.213.747.32 1.152.32a2.35 2.35 0 0 0 1.168-.304 2.32 2.32 0 0 0 .864-.896c.214-.395.32-.864.32-1.408Zm9.028-4.56c.672 0 1.269.149 1.792.448.523.288.928.72 1.216 1.296.299.565.448 1.248.448 2.048v5.2h-2.24v-4.896c0-.704-.176-1.243-.528-1.616-.352-.384-.832-.576-1.44-.576-.619 0-1.109.192-1.472.576-.352.373-.528.912-.528 1.616v4.896h-2.24v-11.84h2.24v4.08a2.854 2.854 0 0 1 1.152-.896 3.736 3.736 0 0 1 1.6-.336Zm8.57 9.136c-.725 0-1.376-.128-1.952-.384-.576-.267-1.035-.624-1.376-1.072a2.725 2.725 0 0 1-.544-1.488h2.256c.043.341.208.624.496.848.299.224.667.336 1.104.336.427 0 .757-.085.992-.256.245-.171.368-.389.368-.656 0-.288-.149-.501-.448-.64-.288-.149-.752-.309-1.392-.48a12.242 12.242 0 0 1-1.632-.496 2.902 2.902 0 0 1-1.088-.784c-.299-.352-.448-.827-.448-1.424 0-.491.139-.939.416-1.344.288-.405.693-.725 1.216-.96.533-.235 1.157-.352 1.872-.352 1.056 0 1.899.267 2.528.8.629.523.976 1.232 1.04 2.128h-2.144a1.124 1.124 0 0 0-.448-.832c-.256-.213-.603-.32-1.04-.32-.405 0-.72.075-.944.224a.72.72 0 0 0-.32.624c0 .299.149.528.448.688.299.149.763.304 1.392.464.64.16 1.168.325 1.584.496.416.171.773.437 1.072.8.309.352.469.821.48 1.408 0 .512-.144.971-.432 1.376-.277.405-.683.725-1.216.96-.523.224-1.136.336-1.84.336ZM34.976 259.312V269h-1.274v-7.224L30.482 269h-.896l-3.234-7.238V269h-1.274v-9.688h1.372l3.584 8.008 3.584-8.008h1.358Zm5.099 9.814a3.963 3.963 0 0 1-1.96-.49 3.566 3.566 0 0 1-1.372-1.386c-.327-.607-.49-1.307-.49-2.1 0-.784.168-1.475.504-2.072a3.503 3.503 0 0 1 1.4-1.386c.588-.327 1.246-.49 1.974-.49s1.386.163 1.974.49a3.44 3.44 0 0 1 1.386 1.372c.345.597.518 1.293.518 2.086 0 .793-.178 1.493-.532 2.1a3.609 3.609 0 0 1-1.414 1.386 4.07 4.07 0 0 1-1.988.49Zm0-1.12a2.69 2.69 0 0 0 1.288-.322 2.41 2.41 0 0 0 .966-.966c.252-.429.378-.952.378-1.568 0-.616-.122-1.139-.364-1.568-.243-.429-.56-.747-.952-.952a2.606 2.606 0 0 0-1.274-.322c-.467 0-.896.107-1.288.322-.383.205-.691.523-.924.952-.234.429-.35.952-.35 1.568 0 .625.112 1.153.336 1.582.233.429.54.751.924.966.382.205.802.308 1.26.308Zm8.547 1.12a3.963 3.963 0 0 1-1.96-.49 3.566 3.566 0 0 1-1.372-1.386c-.327-.607-.49-1.307-.49-2.1 0-.784.168-1.475.504-2.072a3.503 3.503 0 0 1 1.4-1.386c.588-.327 1.246-.49 1.974-.49s1.386.163 1.974.49a3.44 3.44 0 0 1 1.386 1.372c.345.597.518 1.293.518 2.086 0 .793-.178 1.493-.532 2.1a3.61 3.61 0 0 1-1.414 1.386c-.598.327-1.26.49-1.988.49Zm0-1.12a2.69 2.69 0 0 0 1.288-.322 2.41 2.41 0 0 0 .966-.966c.252-.429.378-.952.378-1.568 0-.616-.122-1.139-.364-1.568-.243-.429-.56-.747-.952-.952a2.606 2.606 0 0 0-1.274-.322c-.467 0-.896.107-1.288.322-.383.205-.691.523-.924.952-.234.429-.35.952-.35 1.568 0 .625.112 1.153.336 1.582.233.429.541.751.924.966.382.205.802.308 1.26.308Zm4.725-2.87c0-.784.158-1.47.476-2.058a3.462 3.462 0 0 1 1.302-1.386 3.651 3.651 0 0 1 1.876-.49c.597 0 1.152.14 1.666.42.513.271.905.63 1.176 1.078v-4.06h1.288V269h-1.288v-1.442c-.252.457-.626.835-1.12 1.134-.495.289-1.074.434-1.736.434a3.55 3.55 0 0 1-1.862-.504 3.532 3.532 0 0 1-1.302-1.414c-.318-.607-.476-1.297-.476-2.072Zm6.496.014c0-.579-.117-1.083-.35-1.512a2.412 2.412 0 0 0-.952-.98 2.5 2.5 0 0 0-1.302-.35c-.476 0-.91.112-1.302.336a2.44 2.44 0 0 0-.938.98c-.234.429-.35.933-.35 1.512 0 .588.116 1.101.35 1.54.233.429.546.761.938.994.392.224.826.336 1.302.336.476 0 .91-.112 1.302-.336.401-.233.718-.565.952-.994.233-.439.35-.947.35-1.526Zm259.791-3.948c.663 0 1.241.145 1.736.434.504.289.877.653 1.12 1.092v-1.4h1.288v7.84c0 .7-.149 1.321-.448 1.862a3.17 3.17 0 0 1-1.288 1.288c-.551.308-1.195.462-1.932.462-1.008 0-1.848-.238-2.52-.714a2.79 2.79 0 0 1-1.19-1.946h1.26c.14.467.429.84.868 1.12.439.289.966.434 1.582.434.7 0 1.269-.219 1.708-.658.448-.439.672-1.055.672-1.848v-1.61c-.252.448-.625.821-1.12 1.12-.495.299-1.073.448-1.736.448a3.551 3.551 0 0 1-1.862-.504 3.528 3.528 0 0 1-1.302-1.414c-.317-.607-.476-1.297-.476-2.072 0-.784.159-1.47.476-2.058a3.458 3.458 0 0 1 1.302-1.386 3.625 3.625 0 0 1 1.862-.49Zm2.856 3.948c0-.579-.117-1.083-.35-1.512a2.412 2.412 0 0 0-.952-.98 2.5 2.5 0 0 0-1.302-.35c-.476 0-.91.112-1.302.336a2.438 2.438 0 0 0-.938.98c-.233.429-.35.933-.35 1.512 0 .588.117 1.101.35 1.54.233.429.546.761.938.994.392.224.826.336 1.302.336.476 0 .91-.112 1.302-.336.401-.233.719-.565.952-.994.233-.439.35-.947.35-1.526Zm6.379 3.976a3.963 3.963 0 0 1-1.96-.49 3.564 3.564 0 0 1-1.372-1.386c-.327-.607-.49-1.307-.49-2.1 0-.784.168-1.475.504-2.072a3.501 3.501 0 0 1 1.4-1.386c.588-.327 1.246-.49 1.974-.49s1.386.163 1.974.49a3.44 3.44 0 0 1 1.386 1.372c.345.597.518 1.293.518 2.086 0 .793-.177 1.493-.532 2.1a3.609 3.609 0 0 1-1.414 1.386 4.07 4.07 0 0 1-1.988.49Zm0-1.12c.457 0 .887-.107 1.288-.322.401-.215.723-.537.966-.966.252-.429.378-.952.378-1.568 0-.616-.121-1.139-.364-1.568-.243-.429-.56-.747-.952-.952a2.607 2.607 0 0 0-1.274-.322c-.467 0-.896.107-1.288.322-.383.205-.691.523-.924.952-.233.429-.35.952-.35 1.568 0 .625.112 1.153.336 1.582.233.429.541.751.924.966.383.205.803.308 1.26.308Zm8.547 1.12a3.963 3.963 0 0 1-1.96-.49 3.564 3.564 0 0 1-1.372-1.386c-.327-.607-.49-1.307-.49-2.1 0-.784.168-1.475.504-2.072a3.501 3.501 0 0 1 1.4-1.386c.588-.327 1.246-.49 1.974-.49s1.386.163 1.974.49a3.44 3.44 0 0 1 1.386 1.372c.345.597.518 1.293.518 2.086 0 .793-.177 1.493-.532 2.1a3.609 3.609 0 0 1-1.414 1.386 4.07 4.07 0 0 1-1.988.49Zm0-1.12c.457 0 .887-.107 1.288-.322.401-.215.723-.537.966-.966.252-.429.378-.952.378-1.568 0-.616-.121-1.139-.364-1.568-.243-.429-.56-.747-.952-.952a2.607 2.607 0 0 0-1.274-.322c-.467 0-.896.107-1.288.322-.383.205-.691.523-.924.952-.233.429-.35.952-.35 1.568 0 .625.112 1.153.336 1.582.233.429.541.751.924.966.383.205.803.308 1.26.308Zm4.725-2.87c0-.784.159-1.47.476-2.058a3.458 3.458 0 0 1 1.302-1.386 3.65 3.65 0 0 1 1.876-.49c.597 0 1.153.14 1.666.42.513.271.905.63 1.176 1.078v-4.06h1.288V269h-1.288v-1.442a3.034 3.034 0 0 1-1.12 1.134c-.495.289-1.073.434-1.736.434a3.551 3.551 0 0 1-1.862-.504 3.528 3.528 0 0 1-1.302-1.414c-.317-.607-.476-1.297-.476-2.072Zm6.496.014c0-.579-.117-1.083-.35-1.512a2.412 2.412 0 0 0-.952-.98 2.5 2.5 0 0 0-1.302-.35c-.476 0-.91.112-1.302.336a2.438 2.438 0 0 0-.938.98c-.233.429-.35.933-.35 1.512 0 .588.117 1.101.35 1.54.233.429.546.761.938.994.392.224.826.336 1.302.336.476 0 .91-.112 1.302-.336.401-.233.719-.565.952-.994.233-.439.35-.947.35-1.526Z"/><rect width="327" height="12" x="24" y="281" fill="#DDDED6" rx="6"/><rect width="261" height="12" x="24" y="281" fill="#189E71" rx="6"/><path fill="#000" d="m30.216 319-2.324-3.99h-1.54V319h-1.274v-9.758h3.15c.737 0 1.358.126 1.862.378.513.252.896.593 1.148 1.022.252.429.378.919.378 1.47 0 .672-.196 1.265-.588 1.778-.383.513-.961.854-1.736 1.022l2.45 4.088h-1.526Zm-3.864-5.012h1.876c.69 0 1.209-.168 1.554-.504.345-.345.518-.803.518-1.372 0-.579-.173-1.027-.518-1.344-.336-.317-.854-.476-1.554-.476h-1.876v3.696Zm13.836.882c0 .243-.014.499-.042.77h-6.132c.046.756.303 1.349.77 1.778.476.42 1.05.63 1.722.63.55 0 1.008-.126 1.372-.378.373-.261.634-.607.784-1.036h1.372a3.335 3.335 0 0 1-1.232 1.806c-.616.457-1.382.686-2.296.686-.728 0-1.382-.163-1.96-.49a3.497 3.497 0 0 1-1.344-1.386c-.327-.607-.49-1.307-.49-2.1 0-.793.158-1.489.476-2.086a3.308 3.308 0 0 1 1.33-1.372c.578-.327 1.24-.49 1.988-.49.728 0 1.372.159 1.932.476.56.317.989.756 1.288 1.316.308.551.462 1.176.462 1.876Zm-1.316-.266c0-.485-.108-.901-.322-1.246a2.023 2.023 0 0 0-.882-.798 2.626 2.626 0 0 0-1.218-.28c-.644 0-1.195.205-1.652.616-.448.411-.705.98-.77 1.708h4.844Zm5.305 4.522a4.052 4.052 0 0 1-1.582-.294c-.466-.205-.835-.485-1.106-.84a2.27 2.27 0 0 1-.448-1.246h1.316c.038.383.215.695.532.938.327.243.752.364 1.274.364.486 0 .868-.107 1.148-.322.28-.215.42-.485.42-.812a.786.786 0 0 0-.448-.742c-.298-.168-.76-.331-1.386-.49a11.408 11.408 0 0 1-1.4-.448 2.66 2.66 0 0 1-.924-.686c-.252-.308-.378-.709-.378-1.204 0-.392.117-.751.35-1.078.234-.327.565-.583.994-.77.43-.196.92-.294 1.47-.294.85 0 1.536.215 2.058.644.523.429.803 1.017.84 1.764h-1.274a1.308 1.308 0 0 0-.49-.966c-.29-.243-.681-.364-1.176-.364-.457 0-.821.098-1.092.294-.27.196-.406.453-.406.77 0 .252.08.462.238.63.168.159.374.289.616.392.252.093.598.201 1.036.322.55.149.999.299 1.344.448.346.14.64.355.882.644.252.289.383.667.392 1.134 0 .42-.116.798-.35 1.134-.233.336-.564.602-.994.798-.42.187-.905.28-1.456.28Zm5.745-6.748v4.522c0 .373.079.639.238.798.158.149.434.224.826.224h.938V319h-1.148c-.71 0-1.242-.163-1.596-.49-.355-.327-.532-.863-.532-1.61v-4.522h-.994v-1.05h.994v-1.932h1.274v1.932h2.002v1.05h-2.002Zm4.411-3.738V319H53.06v-10.36h1.274Zm8.764 6.23c0 .243-.014.499-.042.77h-6.132c.046.756.303 1.349.77 1.778.476.42 1.05.63 1.722.63.55 0 1.008-.126 1.372-.378.373-.261.634-.607.784-1.036h1.372a3.334 3.334 0 0 1-1.232 1.806c-.616.457-1.382.686-2.296.686-.728 0-1.382-.163-1.96-.49a3.499 3.499 0 0 1-1.344-1.386c-.327-.607-.49-1.307-.49-2.1 0-.793.158-1.489.476-2.086a3.309 3.309 0 0 1 1.33-1.372c.578-.327 1.24-.49 1.988-.49.728 0 1.372.159 1.932.476.56.317.989.756 1.288 1.316.308.551.462 1.176.462 1.876Zm-1.316-.266c0-.485-.108-.901-.322-1.246a2.023 2.023 0 0 0-.882-.798 2.626 2.626 0 0 0-1.218-.28c-.644 0-1.195.205-1.652.616-.448.411-.705.98-.77 1.708h4.844Zm5.305 4.522a4.052 4.052 0 0 1-1.582-.294c-.466-.205-.835-.485-1.106-.84a2.27 2.27 0 0 1-.448-1.246h1.316c.038.383.215.695.532.938.327.243.752.364 1.274.364.486 0 .868-.107 1.148-.322.28-.215.42-.485.42-.812a.786.786 0 0 0-.448-.742c-.298-.168-.76-.331-1.386-.49a11.408 11.408 0 0 1-1.4-.448 2.66 2.66 0 0 1-.924-.686c-.252-.308-.378-.709-.378-1.204 0-.392.117-.751.35-1.078.234-.327.565-.583.994-.77.43-.196.92-.294 1.47-.294.85 0 1.536.215 2.058.644.523.429.803 1.017.84 1.764h-1.274a1.308 1.308 0 0 0-.49-.966c-.29-.243-.681-.364-1.176-.364-.457 0-.821.098-1.092.294-.27.196-.406.453-.406.77 0 .252.08.462.238.63.168.159.374.289.616.392.252.093.598.201 1.036.322.55.149.999.299 1.344.448.346.14.64.355.882.644.252.289.383.667.392 1.134 0 .42-.116.798-.35 1.134-.233.336-.564.602-.994.798-.42.187-.905.28-1.456.28Zm6.907 0c-.588 0-1.116-.098-1.582-.294-.467-.205-.836-.485-1.106-.84a2.27 2.27 0 0 1-.448-1.246h1.316c.037.383.214.695.532.938.326.243.751.364 1.274.364.485 0 .868-.107 1.148-.322.28-.215.42-.485.42-.812a.786.786 0 0 0-.448-.742c-.299-.168-.761-.331-1.386-.49a11.408 11.408 0 0 1-1.4-.448 2.658 2.658 0 0 1-.924-.686c-.252-.308-.378-.709-.378-1.204 0-.392.116-.751.35-1.078.233-.327.564-.583.994-.77.429-.196.919-.294 1.47-.294.849 0 1.535.215 2.058.644.522.429.802 1.017.84 1.764h-1.274a1.308 1.308 0 0 0-.49-.966c-.29-.243-.682-.364-1.176-.364-.458 0-.822.098-1.092.294-.271.196-.406.453-.406.77a.88.88 0 0 0 .238.63c.168.159.373.289.616.392.252.093.597.201 1.036.322.55.149.998.299 1.344.448.345.14.639.355.882.644.252.289.382.667.392 1.134 0 .42-.117.798-.35 1.134-.234.336-.565.602-.994.798-.42.187-.906.28-1.456.28Zm7.928-7.938c.933 0 1.69.285 2.268.854.579.56.868 1.372.868 2.436V319h-1.26v-4.34c0-.765-.191-1.349-.574-1.75-.382-.411-.905-.616-1.568-.616-.672 0-1.209.21-1.61.63-.392.42-.588 1.031-.588 1.834V319h-1.274v-7.672h1.274v1.092a2.543 2.543 0 0 1 1.022-.91c.439-.215.92-.322 1.442-.322Zm11.81 3.682c0 .243-.015.499-.043.77h-6.132c.047.756.304 1.349.77 1.778.476.42 1.05.63 1.722.63.55 0 1.008-.126 1.372-.378.374-.261.635-.607.784-1.036h1.372a3.334 3.334 0 0 1-1.232 1.806c-.616.457-1.381.686-2.296.686-.728 0-1.381-.163-1.96-.49a3.499 3.499 0 0 1-1.344-1.386c-.326-.607-.49-1.307-.49-2.1 0-.793.159-1.489.476-2.086a3.31 3.31 0 0 1 1.33-1.372c.579-.327 1.242-.49 1.988-.49.728 0 1.372.159 1.932.476.56.317.99.756 1.288 1.316.308.551.462 1.176.462 1.876Zm-1.317-.266c0-.485-.107-.901-.322-1.246a2.022 2.022 0 0 0-.882-.798 2.626 2.626 0 0 0-1.218-.28c-.644 0-1.194.205-1.652.616-.448.411-.704.98-.77 1.708h4.844Zm5.306 4.522a4.052 4.052 0 0 1-1.582-.294c-.467-.205-.836-.485-1.106-.84a2.27 2.27 0 0 1-.448-1.246H95.9c.037.383.215.695.532.938.326.243.751.364 1.274.364.485 0 .868-.107 1.148-.322.28-.215.42-.485.42-.812a.787.787 0 0 0-.448-.742c-.299-.168-.76-.331-1.386-.49a11.403 11.403 0 0 1-1.4-.448 2.658 2.658 0 0 1-.924-.686c-.252-.308-.378-.709-.378-1.204 0-.392.117-.751.35-1.078.233-.327.565-.583.994-.77.43-.196.92-.294 1.47-.294.85 0 1.535.215 2.058.644.523.429.803 1.017.84 1.764h-1.274a1.309 1.309 0 0 0-.49-.966c-.29-.243-.682-.364-1.176-.364-.458 0-.822.098-1.092.294-.27.196-.406.453-.406.77 0 .252.08.462.238.63.168.159.373.289.616.392.252.093.597.201 1.036.322.55.149.998.299 1.344.448.345.14.64.355.882.644.252.289.383.667.392 1.134 0 .42-.117.798-.35 1.134-.234.336-.565.602-.994.798-.42.187-.906.28-1.456.28Zm6.906 0a4.052 4.052 0 0 1-1.582-.294c-.466-.205-.835-.485-1.106-.84a2.275 2.275 0 0 1-.448-1.246h1.316c.038.383.215.695.532.938.327.243.752.364 1.274.364.486 0 .868-.107 1.148-.322.28-.215.42-.485.42-.812a.786.786 0 0 0-.448-.742c-.298-.168-.76-.331-1.386-.49a11.425 11.425 0 0 1-1.4-.448 2.67 2.67 0 0 1-.924-.686c-.252-.308-.378-.709-.378-1.204 0-.392.117-.751.35-1.078.234-.327.565-.583.994-.77.43-.196.92-.294 1.47-.294.85 0 1.536.215 2.058.644.523.429.803 1.017.84 1.764h-1.274a1.307 1.307 0 0 0-.49-.966c-.289-.243-.681-.364-1.176-.364-.457 0-.821.098-1.092.294-.27.196-.406.453-.406.77 0 .252.08.462.238.63.168.159.374.289.616.392.252.093.598.201 1.036.322.551.149.999.299 1.344.448.346.14.64.355.882.644.252.289.383.667.392 1.134 0 .42-.116.798-.35 1.134-.233.336-.564.602-.994.798-.42.187-.905.28-1.456.28Zm215.008-7.924c.663 0 1.241.145 1.736.434.504.289.877.653 1.12 1.092v-1.4h1.288v7.84c0 .7-.149 1.321-.448 1.862a3.17 3.17 0 0 1-1.288 1.288c-.551.308-1.195.462-1.932.462-1.008 0-1.848-.238-2.52-.714a2.79 2.79 0 0 1-1.19-1.946h1.26c.14.467.429.84.868 1.12.439.289.966.434 1.582.434.7 0 1.269-.219 1.708-.658.448-.439.672-1.055.672-1.848v-1.61c-.252.448-.625.821-1.12 1.12-.495.299-1.073.448-1.736.448a3.551 3.551 0 0 1-1.862-.504 3.528 3.528 0 0 1-1.302-1.414c-.317-.607-.476-1.297-.476-2.072 0-.784.159-1.47.476-2.058a3.458 3.458 0 0 1 1.302-1.386 3.625 3.625 0 0 1 1.862-.49Zm2.856 3.948c0-.579-.117-1.083-.35-1.512a2.412 2.412 0 0 0-.952-.98 2.5 2.5 0 0 0-1.302-.35c-.476 0-.91.112-1.302.336a2.438 2.438 0 0 0-.938.98c-.233.429-.35.933-.35 1.512 0 .588.117 1.101.35 1.54.233.429.546.761.938.994.392.224.826.336 1.302.336.476 0 .91-.112 1.302-.336.401-.233.719-.565.952-.994.233-.439.35-.947.35-1.526Zm6.379 3.976a3.963 3.963 0 0 1-1.96-.49 3.564 3.564 0 0 1-1.372-1.386c-.327-.607-.49-1.307-.49-2.1 0-.784.168-1.475.504-2.072a3.501 3.501 0 0 1 1.4-1.386c.588-.327 1.246-.49 1.974-.49s1.386.163 1.974.49a3.44 3.44 0 0 1 1.386 1.372c.345.597.518 1.293.518 2.086 0 .793-.177 1.493-.532 2.1a3.609 3.609 0 0 1-1.414 1.386 4.07 4.07 0 0 1-1.988.49Zm0-1.12c.457 0 .887-.107 1.288-.322.401-.215.723-.537.966-.966.252-.429.378-.952.378-1.568 0-.616-.121-1.139-.364-1.568-.243-.429-.56-.747-.952-.952a2.607 2.607 0 0 0-1.274-.322c-.467 0-.896.107-1.288.322-.383.205-.691.523-.924.952-.233.429-.35.952-.35 1.568 0 .625.112 1.153.336 1.582.233.429.541.751.924.966.383.205.803.308 1.26.308Zm8.547 1.12a3.963 3.963 0 0 1-1.96-.49 3.564 3.564 0 0 1-1.372-1.386c-.327-.607-.49-1.307-.49-2.1 0-.784.168-1.475.504-2.072a3.501 3.501 0 0 1 1.4-1.386c.588-.327 1.246-.49 1.974-.49s1.386.163 1.974.49a3.44 3.44 0 0 1 1.386 1.372c.345.597.518 1.293.518 2.086 0 .793-.177 1.493-.532 2.1a3.609 3.609 0 0 1-1.414 1.386 4.07 4.07 0 0 1-1.988.49Zm0-1.12c.457 0 .887-.107 1.288-.322.401-.215.723-.537.966-.966.252-.429.378-.952.378-1.568 0-.616-.121-1.139-.364-1.568-.243-.429-.56-.747-.952-.952a2.607 2.607 0 0 0-1.274-.322c-.467 0-.896.107-1.288.322-.383.205-.691.523-.924.952-.233.429-.35.952-.35 1.568 0 .625.112 1.153.336 1.582.233.429.541.751.924.966.383.205.803.308 1.26.308Zm4.725-2.87c0-.784.159-1.47.476-2.058a3.458 3.458 0 0 1 1.302-1.386 3.65 3.65 0 0 1 1.876-.49c.597 0 1.153.14 1.666.42.513.271.905.63 1.176 1.078v-4.06h1.288V319h-1.288v-1.442a3.034 3.034 0 0 1-1.12 1.134c-.495.289-1.073.434-1.736.434a3.551 3.551 0 0 1-1.862-.504 3.528 3.528 0 0 1-1.302-1.414c-.317-.607-.476-1.297-.476-2.072Zm6.496.014c0-.579-.117-1.083-.35-1.512a2.412 2.412 0 0 0-.952-.98 2.5 2.5 0 0 0-1.302-.35c-.476 0-.91.112-1.302.336a2.438 2.438 0 0 0-.938.98c-.233.429-.35.933-.35 1.512 0 .588.117 1.101.35 1.54.233.429.546.761.938.994.392.224.826.336 1.302.336.476 0 .91-.112 1.302-.336.401-.233.719-.565.952-.994.233-.439.35-.947.35-1.526Z"/><rect width="327" height="12" x="24" y="331" fill="#DDDED6" rx="6"/><rect width="261" height="12" x="24" y="331" fill="#189E71" rx="6"/><path fill="#000" d="M158.096 107.242v1.036h-2.66V117h-1.274v-8.722h-2.674v-1.036h6.608Zm4.968 1.946c.579 0 1.102.126 1.568.378.467.243.831.611 1.092 1.106.271.495.406 1.097.406 1.806V117h-1.26v-4.34c0-.765-.191-1.349-.574-1.75-.382-.411-.905-.616-1.568-.616-.672 0-1.208.21-1.61.63-.392.42-.588 1.031-.588 1.834V117h-1.274v-10.36h1.274v3.78a2.526 2.526 0 0 1 1.036-.91 3.42 3.42 0 0 1 1.498-.322Zm11.543.14V117h-1.274v-1.134c-.242.392-.583.7-1.022.924a3.142 3.142 0 0 1-1.428.322 3.49 3.49 0 0 1-1.61-.364 2.784 2.784 0 0 1-1.134-1.12c-.27-.495-.406-1.097-.406-1.806v-4.494h1.26v4.326c0 .756.192 1.339.574 1.75.383.401.906.602 1.568.602.682 0 1.218-.21 1.61-.63.392-.42.588-1.031.588-1.834v-4.214h1.274Zm3.017 1.246c.224-.439.542-.779.952-1.022.42-.243.929-.364 1.526-.364v1.316h-.336c-1.428 0-2.142.775-2.142 2.324V117h-1.274v-7.672h1.274v1.246Zm6.257 6.552a4.052 4.052 0 0 1-1.582-.294c-.467-.205-.835-.485-1.106-.84a2.267 2.267 0 0 1-.448-1.246h1.316c.037.383.215.695.532.938.327.243.751.364 1.274.364.485 0 .868-.107 1.148-.322.28-.215.42-.485.42-.812a.786.786 0 0 0-.448-.742c-.299-.168-.761-.331-1.386-.49a11.425 11.425 0 0 1-1.4-.448 2.652 2.652 0 0 1-.924-.686c-.252-.308-.378-.709-.378-1.204 0-.392.117-.751.35-1.078.233-.327.565-.583.994-.77.429-.196.919-.294 1.47-.294.849 0 1.535.215 2.058.644.523.429.803 1.017.84 1.764h-1.274a1.307 1.307 0 0 0-.49-.966c-.289-.243-.681-.364-1.176-.364-.457 0-.821.098-1.092.294-.271.196-.406.453-.406.77a.88.88 0 0 0 .238.63c.168.159.373.289.616.392.252.093.597.201 1.036.322.551.149.999.299 1.344.448.345.14.639.355.882.644.252.289.383.667.392 1.134 0 .42-.117.798-.35 1.134-.233.336-.565.602-.994.798-.42.187-.905.28-1.456.28Zm3.714-3.99c0-.784.159-1.47.476-2.058a3.471 3.471 0 0 1 1.302-1.386 3.653 3.653 0 0 1 1.876-.49c.598 0 1.153.14 1.666.42.514.271.906.63 1.176 1.078v-4.06h1.288V117h-1.288v-1.442a3.034 3.034 0 0 1-1.12 1.134c-.494.289-1.073.434-1.736.434a3.551 3.551 0 0 1-1.862-.504 3.542 3.542 0 0 1-1.302-1.414c-.317-.607-.476-1.297-.476-2.072Zm6.496.014c0-.579-.116-1.083-.35-1.512a2.405 2.405 0 0 0-.952-.98 2.5 2.5 0 0 0-1.302-.35c-.476 0-.91.112-1.302.336a2.444 2.444 0 0 0-.938.98c-.233.429-.35.933-.35 1.512 0 .588.117 1.101.35 1.54.234.429.546.761.938.994.392.224.826.336 1.302.336.476 0 .91-.112 1.302-.336.402-.233.719-.565.952-.994.234-.439.35-.947.35-1.526Zm2.557-.014c0-.784.159-1.47.476-2.058a3.471 3.471 0 0 1 1.302-1.386 3.625 3.625 0 0 1 1.862-.49c.672 0 1.256.145 1.75.434.495.289.864.653 1.106 1.092v-1.4h1.288V117h-1.288v-1.428c-.252.448-.63.821-1.134 1.12-.494.289-1.073.434-1.736.434a3.48 3.48 0 0 1-1.848-.504 3.542 3.542 0 0 1-1.302-1.414c-.317-.607-.476-1.297-.476-2.072Zm6.496.014c0-.579-.116-1.083-.35-1.512a2.405 2.405 0 0 0-.952-.98 2.5 2.5 0 0 0-1.302-.35c-.476 0-.91.112-1.302.336a2.444 2.444 0 0 0-.938.98c-.233.429-.35.933-.35 1.512 0 .588.117 1.101.35 1.54.234.429.546.761.938.994.392.224.826.336 1.302.336.476 0 .91-.112 1.302-.336.402-.233.719-.565.952-.994.234-.439.35-.947.35-1.526Zm9.641-3.822-4.62 11.284h-1.316l1.512-3.696-3.094-7.588h1.414l2.408 6.216 2.38-6.216h1.316Zm23.062-2.086v1.036h-4.242v3.29h3.444v1.036h-3.444V117h-1.274v-9.758h5.516Zm2.405 3.332c.224-.439.541-.779.952-1.022.42-.243.929-.364 1.526-.364v1.316h-.336c-1.428 0-2.142.775-2.142 2.324V117h-1.274v-7.672h1.274v1.246Zm4.199-2.492a.837.837 0 0 1-.616-.252.837.837 0 0 1-.252-.616c0-.243.084-.448.252-.616a.837.837 0 0 1 .616-.252c.233 0 .429.084.588.252a.837.837 0 0 1 .252.616.837.837 0 0 1-.252.616.778.778 0 0 1-.588.252Zm.616 1.246V117h-1.274v-7.672h1.274Zm1.287 3.808c0-.784.159-1.47.476-2.058a3.458 3.458 0 0 1 1.302-1.386 3.65 3.65 0 0 1 1.876-.49c.597 0 1.153.14 1.666.42.513.271.905.63 1.176 1.078v-4.06h1.288V117h-1.288v-1.442a3.034 3.034 0 0 1-1.12 1.134c-.495.289-1.073.434-1.736.434a3.551 3.551 0 0 1-1.862-.504 3.528 3.528 0 0 1-1.302-1.414c-.317-.607-.476-1.297-.476-2.072Zm6.496.014c0-.579-.117-1.083-.35-1.512a2.412 2.412 0 0 0-.952-.98 2.5 2.5 0 0 0-1.302-.35c-.476 0-.91.112-1.302.336a2.438 2.438 0 0 0-.938.98c-.233.429-.35.933-.35 1.512 0 .588.117 1.101.35 1.54.233.429.546.761.938.994.392.224.826.336 1.302.336.476 0 .91-.112 1.302-.336.401-.233.719-.565.952-.994.233-.439.35-.947.35-1.526Zm2.557-.014c0-.784.159-1.47.476-2.058a3.458 3.458 0 0 1 1.302-1.386 3.625 3.625 0 0 1 1.862-.49c.672 0 1.255.145 1.75.434.495.289.863.653 1.106 1.092v-1.4h1.288V117h-1.288v-1.428c-.252.448-.63.821-1.134 1.12-.495.289-1.073.434-1.736.434a3.48 3.48 0 0 1-1.848-.504 3.528 3.528 0 0 1-1.302-1.414c-.317-.607-.476-1.297-.476-2.072Zm6.496.014c0-.579-.117-1.083-.35-1.512a2.412 2.412 0 0 0-.952-.98 2.5 2.5 0 0 0-1.302-.35c-.476 0-.91.112-1.302.336a2.438 2.438 0 0 0-.938.98c-.233.429-.35.933-.35 1.512 0 .588.117 1.101.35 1.54.233.429.546.761.938.994.392.224.826.336 1.302.336.476 0 .91-.112 1.302-.336.401-.233.719-.565.952-.994.233-.439.35-.947.35-1.526Zm9.641-3.822-4.62 11.284h-1.316l1.512-3.696-3.094-7.588h1.414l2.408 6.216 2.38-6.216h1.316Zm20.673 7.77c-.644 0-1.222-.112-1.736-.336a2.97 2.97 0 0 1-1.19-.952 2.48 2.48 0 0 1-.448-1.414h1.358c.047.457.234.845.56 1.162.336.308.822.462 1.456.462.607 0 1.083-.149 1.428-.448.355-.308.532-.7.532-1.176 0-.373-.102-.677-.308-.91a1.965 1.965 0 0 0-.77-.532 12.087 12.087 0 0 0-1.246-.392c-.644-.168-1.162-.336-1.554-.504a2.582 2.582 0 0 1-.994-.784c-.27-.364-.406-.849-.406-1.456 0-.532.136-1.003.406-1.414a2.654 2.654 0 0 1 1.134-.952c.495-.224 1.06-.336 1.694-.336.915 0 1.662.229 2.24.686.588.457.92 1.064.994 1.82h-1.4c-.046-.373-.242-.7-.588-.98-.345-.289-.802-.434-1.372-.434-.532 0-.966.14-1.302.42-.336.271-.504.653-.504 1.148 0 .355.098.644.294.868.206.224.453.397.742.518.299.112.714.243 1.246.392.644.177 1.162.355 1.554.532a2.51 2.51 0 0 1 1.008.798c.28.355.42.84.42 1.456 0 .476-.126.924-.378 1.344-.252.42-.625.761-1.12 1.022-.494.261-1.078.392-1.75.392Zm4.239-3.962c0-.784.159-1.47.476-2.058a3.458 3.458 0 0 1 1.302-1.386 3.625 3.625 0 0 1 1.862-.49c.672 0 1.255.145 1.75.434.495.289.863.653 1.106 1.092v-1.4h1.288V117h-1.288v-1.428c-.252.448-.63.821-1.134 1.12-.495.289-1.073.434-1.736.434a3.48 3.48 0 0 1-1.848-.504 3.528 3.528 0 0 1-1.302-1.414c-.317-.607-.476-1.297-.476-2.072Zm6.496.014c0-.579-.117-1.083-.35-1.512a2.412 2.412 0 0 0-.952-.98 2.5 2.5 0 0 0-1.302-.35c-.476 0-.91.112-1.302.336a2.438 2.438 0 0 0-.938.98c-.233.429-.35.933-.35 1.512 0 .588.117 1.101.35 1.54.233.429.546.761.938.994.392.224.826.336 1.302.336.476 0 .91-.112 1.302-.336.401-.233.719-.565.952-.994.233-.439.35-.947.35-1.526Zm4.587-2.772v4.522c0 .373.079.639.238.798.159.149.434.224.826.224h.938V117h-1.148c-.709 0-1.241-.163-1.596-.49-.355-.327-.532-.863-.532-1.61v-4.522h-.994v-1.05h.994v-1.932h1.274v1.932h2.002v1.05h-2.002Zm9.942-1.05V117h-1.274v-1.134c-.243.392-.584.7-1.022.924-.43.215-.906.322-1.428.322a3.488 3.488 0 0 1-1.61-.364 2.784 2.784 0 0 1-1.134-1.12c-.271-.495-.406-1.097-.406-1.806v-4.494h1.26v4.326c0 .756.191 1.339.574 1.75.382.401.905.602 1.568.602.681 0 1.218-.21 1.61-.63.392-.42.588-1.031.588-1.834v-4.214h1.274Zm3.017 1.246c.224-.439.541-.779.952-1.022.42-.243.928-.364 1.526-.364v1.316h-.336c-1.428 0-2.142.775-2.142 2.324V117h-1.274v-7.672h1.274v1.246Zm3.064 2.562c0-.784.159-1.47.476-2.058a3.471 3.471 0 0 1 1.302-1.386 3.653 3.653 0 0 1 1.876-.49c.598 0 1.153.14 1.666.42.514.271.906.63 1.176 1.078v-4.06h1.288V117h-1.288v-1.442a3.034 3.034 0 0 1-1.12 1.134c-.494.289-1.073.434-1.736.434a3.551 3.551 0 0 1-1.862-.504 3.542 3.542 0 0 1-1.302-1.414c-.317-.607-.476-1.297-.476-2.072Zm6.496.014c0-.579-.116-1.083-.35-1.512a2.405 2.405 0 0 0-.952-.98 2.5 2.5 0 0 0-1.302-.35c-.476 0-.91.112-1.302.336a2.444 2.444 0 0 0-.938.98c-.233.429-.35.933-.35 1.512 0 .588.117 1.101.35 1.54.234.429.546.761.938.994.392.224.826.336 1.302.336.476 0 .91-.112 1.302-.336.402-.233.719-.565.952-.994.234-.439.35-.947.35-1.526Zm2.557-.014c0-.784.159-1.47.476-2.058a3.471 3.471 0 0 1 1.302-1.386 3.625 3.625 0 0 1 1.862-.49c.672 0 1.256.145 1.75.434.495.289.864.653 1.106 1.092v-1.4h1.288V117h-1.288v-1.428c-.252.448-.63.821-1.134 1.12-.494.289-1.073.434-1.736.434a3.48 3.48 0 0 1-1.848-.504 3.542 3.542 0 0 1-1.302-1.414c-.317-.607-.476-1.297-.476-2.072Zm6.496.014c0-.579-.116-1.083-.35-1.512a2.405 2.405 0 0 0-.952-.98 2.5 2.5 0 0 0-1.302-.35c-.476 0-.91.112-1.302.336a2.444 2.444 0 0 0-.938.98c-.233.429-.35.933-.35 1.512 0 .588.117 1.101.35 1.54.234.429.546.761.938.994.392.224.826.336 1.302.336.476 0 .91-.112 1.302-.336.402-.233.719-.565.952-.994.234-.439.35-.947.35-1.526Zm9.641-3.822-4.62 11.284h-1.316l1.512-3.696-3.094-7.588h1.414l2.408 6.216 2.38-6.216h1.316Z"/></g><defs><clipPath id="a"><path fill="#fff" d="M0 0h375v379H0z"/></clipPath><clipPath id="b"><path fill="#fff" d="M24 29h327v34.886H24z"/></clipPath></defs></svg>