<svg xmlns="http://www.w3.org/2000/svg" width="145" height="91" fill="none"><path fill="#B8B2D8" d="m6.816 22.619-3.913 56.5 134.419-13.5-10.977-40-119.53-3Z"/><path fill="#189E71" d="M69.43 12.004c-12.2 0-22.08 9.89-22.08 22.08 0 4.02 1.09 7.96 3.17 11.4l-10.71 10.7.04.04c-1.15 1.09-1.85 2.65-1.85 4.4 0 3.39 2.7 6.04 6.09 6.04 1.73 0 3.28-.69 4.38-1.82l.03.03 11.05-11.05c3.07 1.54 6.45 2.34 9.89 2.34 12.2 0 22.08-9.89 22.08-22.08 0-12.19-9.89-22.08-22.09-22.08Zm.13 35.48c-7.62 0-13.8-6.18-13.8-13.8 0-7.62 6.18-13.8 13.8-13.8 7.62 0 13.8 6.18 13.8 13.8 0 7.62-6.17 13.8-13.8 13.8Z"/><path fill="#AFDDC9" d="M78.29 13.883c-11.16-4.92-24.19.13-29.11 11.29-1.63 3.67-3.76 11.92 1.34 20.3 0 0-7.76-19.02 9.24-29.29 8.93-5.39 18.53-2.3 18.53-2.3Z"/><path fill="#006B4B" d="M76.04 51.594c-9.98 2.34-14.58-1.14-18.73-3.58l-8.96 8.88-2.93 2.89c-3.99 3.34-7.42-.91-7.42.84 0 3.39 2.7 6.04 6.09 6.04 1.73 0 3.28-.69 4.38-1.82l.03.03 11.05-11.05c3.07 1.54 6.45 2.34 9.89 2.34 12.2 0 21.9-9.89 22.08-22.08.08-5.18-2.35-10.95-4.45-13.17 0 0 1.83 3.08 2.55 6.37 1.2 5.53.36 8.95-.58 12.05-1.75 5.73-6.95 10.85-12.98 12.26h-.02Z"/></svg>