<svg xmlns="http://www.w3.org/2000/svg" width="145" height="91" fill="none"><path fill="#B8B2D8" d="M12.305 36.021 2.196 79.136l138.109 2.385-21.5-51-106.5 5.5Z"/><g clip-path="url(#a)"><path fill="#189E71" d="M68.636 2.91c-.82.68-1.23 1.52-1.23 2.51v45.12l.53 17.01 5.17-1.74 2.8-2.93V5.92c0-.73-.28-2.09-1.29-2.86-1.16-.9-1.99-1.06-3.07-1.06-.73 0-2.09.23-2.91.91Zm.69 1.3.18.18Zm0 0 .18.18Zm-18.91 36.92v17.51l4.25-2.4c1-.87 4.25 2.95 4.25 2.95V22.08c0-.73-.26-2.14-1.37-2.9-.9-.62-1.53-.85-2.88-.85-1.35 0-2.21.34-3.02 1.02-.82.68-1.23 1.52-1.23 2.51v19.28-.01Zm-15.47 15.76v17.18l7.32-4.45 1.19-2.17V37.48c0-.73.08-2.4-.87-3.53-.78-.92-1.83-1.37-3.39-1.37s-2.21.34-3.03 1.02c-.81.66-1.22 1.5-1.22 2.49v20.8Zm4.15 18.8 15.12-15.12 11.96 10.28c.72.63 1.55.92 2.49.84.92-.07 1.7-.43 2.34-1.06l27.65-27.65v6.67c0 .64.22 1.19.66 1.63.44.44.99.66 1.63.66.64 0 1.19-.22 1.63-.66.44-.44.66-.99.66-1.63V38.7c0-1-.34-1.85-1.02-2.53-.68-.68-1.53-1.02-2.53-1.02h-10.95c-.64 0-1.19.22-1.63.66-.44.44-.66.99-.66 1.63 0 .64.22 1.19.66 1.63.44.44.99.66 1.63.66h6.67L68.536 66.6l-11.96-10.28c-.72-.63-1.55-.92-2.49-.84-.92.07-1.7.43-2.34 1.06l-15.88 15.89c-.36.36-.59.75-.68 1.18-.09.43-.03.88.16 1.33.19.45.46.81.83 1.05.36.24.8.35 1.29.35.32 0 .63-.07.92-.2.28-.13.52-.28.72-.46l-.01.01Z"/><path fill="#006B4B" d="m71.656 66.3 4.25-3.42V5.92c0-.73-.28-2.09-1.29-2.86l-2.97 63.24h.01Zm-15.85-8.14 1.56 1.03 1.56.35V22.08c0-.73-.28-2.09-1.29-2.86l-1.83 38.94Zm-15.46 14.32 1.56-2.18 1.56-1.95V36.41c0-.73-.28-2.09-1.29-2.86l-1.83 38.94v-.01Z"/><path fill="#AFDDC9" d="M36.236 33.54c-1.01.77-1.29 1.45-1.29 2.86v37.55l1.23-1.52.05-38.9.01.01Zm32.4-30.63c-1.01.77-1.23 1.78-1.23 2.51v59.93l1.46 1.25-.06-.75-.17-62.94Zm-17 16.43c-1.01.77-1.23 1.78-1.23 2.51v36.8l1.06-1.3.17-38v-.01Z"/><path fill="#189E71" stroke="#189E71" d="m39.426 75.68 15.12-15.12 11.96 10.28c.72.63 1.55.92 2.49.84.92-.07 1.7-.43 2.34-1.06l27.65-27.65v6.67c0 .64.22 1.19.66 1.63.44.44.99.66 1.63.66.64 0 1.19-.22 1.63-.66.44-.44.66-.99.66-1.63V38.69c0-1-.34-1.85-1.02-2.53-.68-.68-1.53-1.02-2.53-1.02h-10.95c-.64 0-1.19.22-1.63.66-.44.44-.66.99-.66 1.63 0 .64.22 1.19.66 1.63.44.44.99.66 1.63.66h6.67l-26.87 26.87-11.96-10.28c-.72-.63-1.55-.92-2.49-.84-.92.07-1.7.43-2.34 1.06l-15.9 15.9c-.36.36-.59.75-.68 1.18-.09.43-.03.88.16 1.33.19.45.46.81.83 1.05.36.24.8.35 1.29.35.32 0 .63-.07.92-.2.28-.13.52-.28.72-.46h.01Z"/></g><defs><clipPath id="a"><path fill="#fff" d="M34.946 2h69.11v74.84h-69.11z"/></clipPath></defs></svg>