<svg xmlns="http://www.w3.org/2000/svg" width="375" height="309" fill="none"><g clip-path="url(#a)"><path fill="#EAEBE3" d="M0 0h375v309H0z"/><path fill="#000" d="M49.048 27.248 44.368 44h-3.96l-3.144-11.928L33.976 44l-3.936.024-4.512-16.776h3.6l2.952 13.008 3.408-13.008h3.744l3.216 12.936 2.976-12.936h3.624Zm10.056 3.264c1.008 0 1.904.224 2.688.672.784.432 1.392 1.08 1.824 1.944.448.848.672 1.872.672 3.072V44h-3.36v-7.344c0-1.056-.264-1.864-.792-2.424-.528-.576-1.248-.864-2.16-.864-.928 0-1.664.288-2.208.864-.528.56-.792 1.368-.792 2.424V44h-3.36V26.24h3.36v6.12c.432-.576 1.008-1.024 1.728-1.344.72-.336 1.52-.504 2.4-.504Zm7.89 6.792c0-1.344.263-2.536.791-3.576.544-1.04 1.272-1.84 2.184-2.4.928-.56 1.96-.84 3.096-.84.992 0 1.856.2 2.592.6.752.4 1.352.904 1.8 1.512v-1.896h3.384V44h-3.384v-1.944c-.432.624-1.032 1.144-1.8 1.56-.752.4-1.624.6-2.616.6a5.71 5.71 0 0 1-3.072-.864c-.912-.576-1.64-1.384-2.184-2.424-.528-1.056-.792-2.264-.792-3.624Zm10.463.048c0-.816-.16-1.512-.48-2.088-.32-.592-.752-1.04-1.296-1.344a3.397 3.397 0 0 0-1.752-.48c-.624 0-1.2.152-1.728.456-.528.304-.96.752-1.296 1.344-.32.576-.48 1.264-.48 2.064s.16 1.504.48 2.112c.336.592.768 1.048 1.296 1.368.544.32 1.12.48 1.728.48.624 0 1.208-.152 1.752-.456.544-.32.976-.768 1.296-1.344.32-.592.48-1.296.48-2.112Zm10.952-3.888v6.432c0 .448.104.776.312.984.224.192.592.288 1.104.288h1.56V44h-2.112c-2.832 0-4.248-1.376-4.248-4.128v-6.408H83.44v-2.76h1.584v-3.288h3.384v3.288h2.976v2.76h-2.976Zm6.438-6.216h3.528l-2.592 6.048H93.48l1.368-6.048Zm11.4 16.968c-1.088 0-2.064-.192-2.928-.576-.864-.4-1.552-.936-2.064-1.608a4.092 4.092 0 0 1-.816-2.232h3.384c.064.512.312.936.744 1.272.448.336 1 .504 1.656.504.64 0 1.136-.128 1.488-.384.368-.256.552-.584.552-.984 0-.432-.224-.752-.672-.96-.432-.224-1.128-.464-2.088-.72-.992-.24-1.808-.488-2.448-.744a4.351 4.351 0 0 1-1.632-1.176c-.448-.528-.672-1.24-.672-2.136 0-.736.208-1.408.624-2.016.432-.608 1.04-1.088 1.824-1.44.8-.352 1.736-.528 2.808-.528 1.584 0 2.848.4 3.792 1.2.944.784 1.464 1.848 1.56 3.192h-3.216c-.048-.528-.272-.944-.672-1.248-.384-.32-.904-.48-1.56-.48-.608 0-1.08.112-1.416.336-.32.224-.48.536-.48.936 0 .448.224.792.672 1.032.448.224 1.144.456 2.088.696.96.24 1.752.488 2.376.744.624.256 1.16.656 1.608 1.2.464.528.704 1.232.72 2.112 0 .768-.216 1.456-.648 2.064-.416.608-1.024 1.088-1.824 1.44-.784.336-1.704.504-2.76.504Zm17.817-11.568c.432-.64 1.024-1.16 1.776-1.56.768-.4 1.64-.6 2.616-.6 1.136 0 2.16.28 3.072.84.928.56 1.656 1.36 2.184 2.4.544 1.024.816 2.216.816 3.576 0 1.36-.272 2.568-.816 3.624-.528 1.04-1.256 1.848-2.184 2.424-.912.576-1.936.864-3.072.864-.992 0-1.864-.192-2.616-.576-.736-.4-1.328-.912-1.776-1.536V44h-3.36V26.24h3.36v6.408Zm7.032 4.656c0-.8-.168-1.488-.504-2.064-.32-.592-.752-1.04-1.296-1.344a3.403 3.403 0 0 0-1.728-.456c-.608 0-1.184.16-1.728.48-.528.304-.96.752-1.296 1.344-.32.592-.48 1.288-.48 2.088s.16 1.496.48 2.088c.336.592.768 1.048 1.296 1.368a3.49 3.49 0 0 0 1.728.456c.624 0 1.2-.16 1.728-.48a3.45 3.45 0 0 0 1.296-1.368c.336-.592.504-1.296.504-2.112Zm18.607-.24c0 .48-.032.912-.096 1.296h-9.72c.08.96.416 1.712 1.008 2.256.592.544 1.32.816 2.184.816 1.248 0 2.136-.536 2.664-1.608h3.624c-.384 1.28-1.12 2.336-2.208 3.168-1.088.816-2.424 1.224-4.008 1.224-1.28 0-2.432-.28-3.456-.84a6.182 6.182 0 0 1-2.376-2.424c-.56-1.04-.84-2.24-.84-3.6 0-1.376.28-2.584.84-3.624a5.861 5.861 0 0 1 2.352-2.4c1.008-.56 2.168-.84 3.48-.84 1.264 0 2.392.272 3.384.816a5.63 5.63 0 0 1 2.328 2.328c.56.992.84 2.136.84 3.432Zm-3.48-.96c-.016-.864-.328-1.552-.936-2.064-.608-.528-1.352-.792-2.232-.792-.832 0-1.536.256-2.112.768-.56.496-.904 1.192-1.032 2.088h6.312Zm18.667.96c0 .48-.032.912-.096 1.296h-9.72c.08.96.416 1.712 1.008 2.256.592.544 1.32.816 2.184.816 1.248 0 2.136-.536 2.664-1.608h3.624c-.384 1.28-1.12 2.336-2.208 3.168-1.088.816-2.424 1.224-4.008 1.224-1.28 0-2.432-.28-3.456-.84a6.182 6.182 0 0 1-2.376-2.424c-.56-1.04-.84-2.24-.84-3.6 0-1.376.28-2.584.84-3.624a5.861 5.861 0 0 1 2.352-2.4c1.008-.56 2.168-.84 3.48-.84 1.264 0 2.392.272 3.384.816a5.63 5.63 0 0 1 2.328 2.328c.56.992.84 2.136.84 3.432Zm-3.48-.96c-.016-.864-.328-1.552-.936-2.064-.608-.528-1.352-.792-2.232-.792-.832 0-1.536.256-2.112.768-.56.496-.904 1.192-1.032 2.088h6.312Zm13.674-5.592c1.584 0 2.864.504 3.84 1.512.976.992 1.464 2.384 1.464 4.176V44h-3.36v-7.344c0-1.056-.264-1.864-.792-2.424-.528-.576-1.248-.864-2.16-.864-.928 0-1.664.288-2.208.864-.528.56-.792 1.368-.792 2.424V44h-3.36V30.704h3.36v1.656a4.555 4.555 0 0 1 1.704-1.344 5.28 5.28 0 0 1 2.304-.504Zm22.454 0c1.008 0 1.904.224 2.688.672.784.432 1.392 1.08 1.824 1.944.448.848.672 1.872.672 3.072V44h-3.36v-7.344c0-1.056-.264-1.864-.792-2.424-.528-.576-1.248-.864-2.16-.864-.928 0-1.664.288-2.208.864-.528.56-.792 1.368-.792 2.424V44h-3.36V26.24h3.36v6.12c.432-.576 1.008-1.024 1.728-1.344.72-.336 1.52-.504 2.4-.504Zm7.889 6.792c0-1.344.264-2.536.792-3.576.544-1.04 1.272-1.84 2.184-2.4.928-.56 1.96-.84 3.096-.84.992 0 1.856.2 2.592.6.752.4 1.352.904 1.8 1.512v-1.896h3.384V44h-3.384v-1.944c-.432.624-1.032 1.144-1.8 1.56-.752.4-1.624.6-2.616.6a5.71 5.71 0 0 1-3.072-.864c-.912-.576-1.64-1.384-2.184-2.424-.528-1.056-.792-2.264-.792-3.624Zm10.464.048c0-.816-.16-1.512-.48-2.088-.32-.592-.752-1.04-1.296-1.344a3.397 3.397 0 0 0-1.752-.48c-.624 0-1.2.152-1.728.456-.528.304-.96.752-1.296 1.344-.32.576-.48 1.264-.48 2.064s.16 1.504.48 2.112c.336.592.768 1.048 1.296 1.368.544.32 1.12.48 1.728.48.624 0 1.208-.152 1.752-.456.544-.32.976-.768 1.296-1.344.32-.592.48-1.296.48-2.112Zm10.4-4.728c.432-.608 1.024-1.112 1.776-1.512.768-.416 1.64-.624 2.616-.624 1.136 0 2.16.28 3.072.84.928.56 1.656 1.36 2.184 2.4.544 1.024.816 2.216.816 3.576 0 1.36-.272 2.568-.816 3.624-.528 1.04-1.256 1.848-2.184 2.424-.912.576-1.936.864-3.072.864-.976 0-1.84-.2-2.592-.6a5.571 5.571 0 0 1-1.8-1.512v8.232h-3.36V30.704h3.36v1.92Zm7.032 4.68c0-.8-.168-1.488-.504-2.064-.32-.592-.752-1.04-1.296-1.344a3.403 3.403 0 0 0-1.728-.456c-.608 0-1.184.16-1.728.48-.528.304-.96.752-1.296 1.344-.32.592-.48 1.288-.48 2.088s.16 1.496.48 2.088c.336.592.768 1.048 1.296 1.368a3.49 3.49 0 0 0 1.728.456c.624 0 1.2-.16 1.728-.48a3.45 3.45 0 0 0 1.296-1.368c.336-.592.504-1.296.504-2.112Zm9.608-4.68c.432-.608 1.024-1.112 1.776-1.512.768-.416 1.64-.624 2.616-.624 1.136 0 2.16.28 3.072.84.928.56 1.656 1.36 2.184 2.4.544 1.024.816 2.216.816 3.576 0 1.36-.272 2.568-.816 3.624-.528 1.04-1.256 1.848-2.184 2.424-.912.576-1.936.864-3.072.864-.976 0-1.84-.2-2.592-.6a5.571 5.571 0 0 1-1.8-1.512v8.232h-3.36V30.704h3.36v1.92Zm7.032 4.68c0-.8-.168-1.488-.504-2.064-.32-.592-.752-1.04-1.296-1.344a3.403 3.403 0 0 0-1.728-.456c-.608 0-1.184.16-1.728.48-.528.304-.96.752-1.296 1.344-.32.592-.48 1.288-.48 2.088s.16 1.496.48 2.088c.336.592.768 1.048 1.296 1.368a3.49 3.49 0 0 0 1.728.456c.624 0 1.2-.16 1.728-.48a3.45 3.45 0 0 0 1.296-1.368c.336-.592.504-1.296.504-2.112Zm18.607-.24c0 .48-.032.912-.096 1.296h-9.72c.08.96.416 1.712 1.008 2.256.592.544 1.32.816 2.184.816 1.248 0 2.136-.536 2.664-1.608h3.624c-.384 1.28-1.12 2.336-2.208 3.168-1.088.816-2.424 1.224-4.008 1.224-1.28 0-2.432-.28-3.456-.84a6.182 6.182 0 0 1-2.376-2.424c-.56-1.04-.84-2.24-.84-3.6 0-1.376.28-2.584.84-3.624a5.861 5.861 0 0 1 2.352-2.4c1.008-.56 2.168-.84 3.48-.84 1.264 0 2.392.272 3.384.816a5.63 5.63 0 0 1 2.328 2.328c.56.992.84 2.136.84 3.432Zm-3.48-.96c-.016-.864-.328-1.552-.936-2.064-.608-.528-1.352-.792-2.232-.792-.832 0-1.536.256-2.112.768-.56.496-.904 1.192-1.032 2.088h6.312Zm13.675-5.592c1.584 0 2.864.504 3.84 1.512.976.992 1.464 2.384 1.464 4.176V44h-3.36v-7.344c0-1.056-.264-1.864-.792-2.424-.528-.576-1.248-.864-2.16-.864-.928 0-1.664.288-2.208.864-.528.56-.792 1.368-.792 2.424V44h-3.36V30.704h3.36v1.656a4.555 4.555 0 0 1 1.704-1.344 5.28 5.28 0 0 1 2.304-.504Zm10.577-1.392c-.592 0-1.088-.184-1.488-.552a1.925 1.925 0 0 1-.576-1.416c0-.56.192-1.024.576-1.392.4-.384.896-.576 1.488-.576s1.08.192 1.464.576c.4.368.6.832.6 1.392 0 .56-.2 1.032-.6 1.416-.384.368-.872.552-1.464.552Zm1.656 1.584V44h-3.36V30.704h3.36Zm11.062-.192c1.584 0 2.864.504 3.84 1.512.976.992 1.464 2.384 1.464 4.176V44h-3.36v-7.344c0-1.056-.264-1.864-.792-2.424-.528-.576-1.248-.864-2.16-.864-.928 0-1.664.288-2.208.864-.528.56-.792 1.368-.792 2.424V44h-3.36V30.704h3.36v1.656a4.555 4.555 0 0 1 1.704-1.344 5.28 5.28 0 0 1 2.304-.504Zm14.081-.024c.992 0 1.864.2 2.616.6.752.384 1.344.888 1.776 1.512v-1.896h3.384v13.392c0 1.232-.248 2.328-.744 3.288-.496.976-1.24 1.744-2.232 2.304-.992.576-2.192.864-3.6.864-1.888 0-3.44-.44-4.656-1.32-1.2-.88-1.88-2.08-2.04-3.6h3.336c.176.608.552 1.088 1.128 1.44.592.368 1.304.552 2.136.552.976 0 1.768-.296 2.376-.888.608-.576.912-1.456.912-2.64v-2.064c-.432.624-1.032 1.144-1.8 1.56-.752.416-1.616.624-2.592.624a5.71 5.71 0 0 1-3.072-.864c-.928-.576-1.664-1.384-2.208-2.424-.528-1.056-.792-2.264-.792-3.624 0-1.344.264-2.536.792-3.576.544-1.04 1.272-1.84 2.184-2.4.928-.56 1.96-.84 3.096-.84Zm4.392 6.864c0-.816-.16-1.512-.48-2.088-.32-.592-.752-1.04-1.296-1.344a3.397 3.397 0 0 0-1.752-.48c-.624 0-1.2.152-1.728.456-.528.304-.96.752-1.296 1.344-.32.576-.48 1.264-.48 2.064s.16 1.504.48 2.112c.336.592.768 1.048 1.296 1.368.544.32 1.12.48 1.728.48.624 0 1.208-.152 1.752-.456.544-.32.976-.768 1.296-1.344.32-.592.48-1.296.48-2.112Zm11.72-10.68c1.664 0 3 .456 4.008 1.368 1.024.896 1.536 2.136 1.536 3.72 0 1.568-.504 2.768-1.512 3.6-1.008.816-2.344 1.224-4.008 1.224l-.096 1.848h-2.952l-.12-4.08h1.08c1.392 0 2.464-.184 3.216-.552.752-.368 1.128-1.04 1.128-2.016 0-.704-.208-1.264-.624-1.68-.4-.416-.952-.624-1.656-.624-.736 0-1.312.2-1.728.6-.4.4-.6.952-.6 1.656h-3.168c-.016-.976.192-1.848.624-2.616s1.064-1.368 1.896-1.8c.848-.432 1.84-.648 2.976-.648Zm-1.56 17.496c-.608 0-1.112-.184-1.512-.552a1.925 1.925 0 0 1-.576-1.416c0-.56.192-1.024.576-1.392.4-.384.904-.576 1.512-.576.592 0 1.08.192 1.464.576.384.368.576.832.576 1.392 0 .56-.192 1.032-.576 1.416-.384.368-.872.552-1.464.552Z"/><path fill="#61625B" d="M33.096 62.848v1.184h-3.04V74H28.6v-9.968h-3.056v-1.184h7.552Zm5.736 2.224a3.71 3.71 0 0 1 1.792.432c.534.277.95.699 1.248 1.264.31.565.464 1.253.464 2.064V74h-1.44v-4.96c0-.875-.218-1.541-.656-2-.437-.47-1.034-.704-1.792-.704-.768 0-1.381.24-1.84.72-.448.48-.672 1.179-.672 2.096V74H34.48V62.16h1.456v4.32a2.879 2.879 0 0 1 1.184-1.04 3.911 3.911 0 0 1 1.712-.368Zm6.227-1.264a.958.958 0 0 1-.704-.288.958.958 0 0 1-.288-.704c0-.277.096-.512.288-.704a.958.958 0 0 1 .704-.288.89.89 0 0 1 .672.288.958.958 0 0 1 .288.704.958.958 0 0 1-.288.704.887.887 0 0 1-.672.288Zm.704 1.424V74h-1.456v-8.768h1.456Zm5.177 8.912c-.672 0-1.274-.112-1.808-.336-.533-.235-.954-.555-1.264-.96-.31-.416-.48-.89-.512-1.424h1.504c.043.437.245.795.608 1.072.373.277.859.416 1.456.416.555 0 .992-.123 1.312-.368.32-.245.48-.555.48-.928a.897.897 0 0 0-.512-.848c-.341-.192-.87-.379-1.584-.56a13.04 13.04 0 0 1-1.6-.512 3.039 3.039 0 0 1-1.056-.784c-.288-.352-.432-.81-.432-1.376 0-.448.134-.859.4-1.232.267-.373.645-.667 1.136-.88.49-.224 1.05-.336 1.68-.336.97 0 1.755.245 2.352.736.597.49.917 1.163.96 2.016h-1.456a1.494 1.494 0 0 0-.56-1.104c-.33-.277-.778-.416-1.344-.416-.523 0-.939.112-1.248.336-.31.224-.464.517-.464.88 0 .288.09.528.272.72.192.181.427.33.704.448.288.107.683.23 1.184.368.63.17 1.141.341 1.536.512.395.16.73.405 1.008.736.288.33.438.763.448 1.296 0 .48-.133.912-.4 1.296s-.645.688-1.136.912c-.48.213-1.035.32-1.664.32Zm9.457-10.336a.958.958 0 0 1-.704-.288.958.958 0 0 1-.288-.704c0-.277.096-.512.288-.704a.958.958 0 0 1 .704-.288c.267 0 .49.096.672.288a.958.958 0 0 1 .288.704.958.958 0 0 1-.288.704.887.887 0 0 1-.672.288Zm.704 1.424V74h-1.456v-8.768h1.456Zm5.178 8.912c-.672 0-1.275-.112-1.808-.336-.534-.235-.955-.555-1.264-.96-.31-.416-.48-.89-.512-1.424h1.504c.042.437.245.795.608 1.072.373.277.858.416 1.456.416.554 0 .992-.123 1.312-.368.32-.245.48-.555.48-.928 0-.384-.171-.667-.512-.848-.342-.192-.87-.379-1.584-.56a13.04 13.04 0 0 1-1.6-.512 3.039 3.039 0 0 1-1.056-.784c-.288-.352-.432-.81-.432-1.376 0-.448.133-.859.4-1.232.266-.373.645-.667 1.136-.88.49-.224 1.05-.336 1.68-.336.97 0 1.754.245 2.352.736.597.49.917 1.163.96 2.016h-1.456a1.494 1.494 0 0 0-.56-1.104c-.331-.277-.779-.416-1.344-.416-.523 0-.939.112-1.248.336-.31.224-.464.517-.464.88 0 .288.09.528.272.72.192.181.426.33.704.448.288.107.682.23 1.184.368.629.17 1.141.341 1.536.512.394.16.73.405 1.008.736.288.33.437.763.448 1.296 0 .48-.134.912-.4 1.296-.267.384-.646.688-1.136.912-.48.213-1.035.32-1.664.32Zm16.257-8.912-5.28 12.896h-1.504l1.728-4.224-3.536-8.672h1.616l2.752 7.104 2.72-7.104h1.504Zm4.88 8.912a4.534 4.534 0 0 1-2.24-.56A4.07 4.07 0 0 1 83.606 72c-.373-.693-.56-1.493-.56-2.4 0-.896.192-1.685.576-2.368a4.01 4.01 0 0 1 1.6-1.584c.672-.373 1.424-.56 2.256-.56.832 0 1.584.187 2.256.56.672.363 1.2.885 1.584 1.568.395.683.592 1.477.592 2.384 0 .907-.202 1.707-.608 2.4a4.118 4.118 0 0 1-1.616 1.584c-.682.373-1.44.56-2.272.56Zm0-1.28c.522 0 1.013-.123 1.471-.368a2.748 2.748 0 0 0 1.104-1.104c.288-.49.432-1.088.432-1.792s-.138-1.301-.416-1.792c-.277-.49-.64-.853-1.088-1.088a2.983 2.983 0 0 0-1.456-.368c-.533 0-1.024.123-1.472.368-.437.235-.79.597-1.056 1.088-.266.49-.4 1.088-.4 1.792 0 .715.128 1.317.384 1.808.267.49.619.859 1.056 1.104.438.235.918.352 1.44.352Zm13.778-7.632V74h-1.456v-1.296c-.278.448-.667.8-1.168 1.056a3.598 3.598 0 0 1-1.632.368c-.683 0-1.296-.139-1.84-.416a3.184 3.184 0 0 1-1.296-1.28c-.31-.565-.464-1.253-.464-2.064v-5.136h1.44v4.944c0 .864.218 1.53.656 2 .437.459 1.034.688 1.792.688.778 0 1.392-.24 1.84-.72.448-.48.672-1.179.672-2.096v-4.816h1.456Zm3.506 1.424a2.81 2.81 0 0 1 1.088-1.168c.48-.277 1.061-.416 1.744-.416v1.504h-.384c-1.632 0-2.448.885-2.448 2.656V74h-1.456v-8.768h1.456v1.424Zm9.418.192c.288-.501.715-.917 1.28-1.248.576-.341 1.243-.512 2-.512a4.06 4.06 0 0 1 2.112.56c.64.373 1.142.901 1.504 1.584.363.672.544 1.456.544 2.352 0 .885-.181 1.675-.544 2.368a3.999 3.999 0 0 1-1.504 1.616 3.973 3.973 0 0 1-2.112.576c-.746 0-1.408-.165-1.984-.496-.565-.341-.997-.763-1.296-1.264v5.776h-1.456V65.232h1.456v1.616Zm5.952 2.736c0-.661-.133-1.237-.4-1.728a2.747 2.747 0 0 0-1.088-1.12 2.946 2.946 0 0 0-1.488-.384c-.533 0-1.029.133-1.488.4-.448.256-.81.635-1.088 1.136-.266.49-.4 1.061-.4 1.712 0 .661.134 1.243.4 1.744.278.49.64.87 1.088 1.136.459.256.955.384 1.488.384.544 0 1.04-.128 1.488-.384a2.857 2.857 0 0 0 1.088-1.136c.267-.501.4-1.088.4-1.76Zm4.453-7.424V74h-1.456V62.16h1.456Zm1.529 7.424c0-.896.182-1.68.544-2.352a3.956 3.956 0 0 1 1.488-1.584 4.15 4.15 0 0 1 2.128-.56c.768 0 1.435.165 2 .496.566.33.987.747 1.264 1.248v-1.6h1.472V74h-1.472v-1.632c-.288.512-.72.939-1.296 1.28-.565.33-1.226.496-1.984.496a3.978 3.978 0 0 1-2.112-.576 4.045 4.045 0 0 1-1.488-1.616c-.362-.693-.544-1.483-.544-2.368Zm7.424.016c0-.661-.133-1.237-.4-1.728a2.747 2.747 0 0 0-1.088-1.12 2.854 2.854 0 0 0-1.488-.4c-.544 0-1.04.128-1.488.384-.448.256-.805.63-1.072 1.12-.266.49-.4 1.067-.4 1.728 0 .672.134 1.259.4 1.76.267.49.624.87 1.072 1.136.448.256.944.384 1.488.384s1.04-.128 1.488-.384a2.857 2.857 0 0 0 1.088-1.136c.267-.501.4-1.083.4-1.744Zm2.981 0c0-.907.181-1.696.544-2.368a3.92 3.92 0 0 1 1.504-1.584c.651-.373 1.392-.56 2.224-.56 1.077 0 1.963.261 2.656.784.704.523 1.168 1.248 1.392 2.176h-1.568a2.238 2.238 0 0 0-.88-1.264c-.427-.31-.96-.464-1.6-.464-.832 0-1.504.288-2.016.864-.512.565-.768 1.37-.768 2.416 0 1.056.256 1.872.768 2.448.512.576 1.184.864 2.016.864.64 0 1.173-.15 1.6-.448.427-.299.72-.725.88-1.28h1.568c-.235.896-.704 1.616-1.408 2.16-.704.533-1.584.8-2.64.8-.832 0-1.573-.187-2.224-.56A3.92 3.92 0 0 1 137.001 72c-.363-.683-.544-1.483-.544-2.4Zm17.855-.32c0 .277-.016.57-.048.88h-7.008c.053.864.346 1.541.88 2.032.544.48 1.2.72 1.968.72.629 0 1.152-.144 1.568-.432.426-.299.725-.693.896-1.184h1.568a3.81 3.81 0 0 1-1.408 2.064c-.704.523-1.579.784-2.624.784-.832 0-1.579-.187-2.24-.56A3.988 3.988 0 0 1 146.328 72c-.374-.693-.56-1.493-.56-2.4 0-.907.181-1.701.544-2.384a3.775 3.775 0 0 1 1.52-1.568c.661-.373 1.418-.56 2.272-.56.832 0 1.568.181 2.208.544.64.363 1.13.864 1.472 1.504.352.63.528 1.344.528 2.144Zm-1.504-.304c0-.555-.123-1.03-.368-1.424a2.324 2.324 0 0 0-1.008-.912 3.006 3.006 0 0 0-1.392-.32c-.736 0-1.366.235-1.888.704-.512.47-.806 1.12-.88 1.952h5.536Zm8.651-2.544V71.6c0 .427.091.73.272.912.181.17.496.256.944.256h1.072V74h-1.312c-.811 0-1.419-.187-1.824-.56-.405-.373-.608-.987-.608-1.84v-5.168h-1.136v-1.2h1.136v-2.208h1.456v2.208h2.288v1.2h-2.288Zm7.468 7.712a4.535 4.535 0 0 1-2.24-.56A4.072 4.072 0 0 1 165.119 72c-.373-.693-.56-1.493-.56-2.4 0-.896.192-1.685.576-2.368a4.011 4.011 0 0 1 1.6-1.584c.672-.373 1.424-.56 2.256-.56.832 0 1.584.187 2.256.56.672.363 1.2.885 1.584 1.568.395.683.592 1.477.592 2.384 0 .907-.202 1.707-.608 2.4a4.112 4.112 0 0 1-1.616 1.584c-.682.373-1.44.56-2.272.56Zm0-1.28c.523 0 1.014-.123 1.472-.368a2.744 2.744 0 0 0 1.104-1.104c.288-.49.432-1.088.432-1.792s-.138-1.301-.416-1.792c-.277-.49-.64-.853-1.088-1.088a2.982 2.982 0 0 0-1.456-.368c-.533 0-1.024.123-1.472.368-.437.235-.789.597-1.056 1.088-.266.49-.4 1.088-.4 1.792 0 .715.128 1.317.384 1.808.267.49.619.859 1.056 1.104a3 3 0 0 0 1.44.352Zm10.644-9.056a.958.958 0 0 1-.704-.288.989.989 0 0 1-.272-.704.99.99 0 0 1 .272-.704.958.958 0 0 1 .704-.288c.278 0 .507.096.688.288a.958.958 0 0 1 .288.704.958.958 0 0 1-.288.704.904.904 0 0 1-.688.288Zm.72 12.096c0 .779-.197 1.35-.592 1.712-.394.363-.97.544-1.728.544h-.848v-1.232h.608c.406 0 .688-.08.848-.24.171-.16.256-.432.256-.816v-10.64h1.456v10.672Zm5.881-1.76a4.535 4.535 0 0 1-2.24-.56A4.072 4.072 0 0 1 182.364 72c-.373-.693-.56-1.493-.56-2.4 0-.896.192-1.685.576-2.368a4.011 4.011 0 0 1 1.6-1.584c.672-.373 1.424-.56 2.256-.56.832 0 1.584.187 2.256.56.672.363 1.2.885 1.584 1.568.395.683.592 1.477.592 2.384 0 .907-.203 1.707-.608 2.4a4.118 4.118 0 0 1-1.616 1.584c-.683.373-1.44.56-2.272.56Zm0-1.28c.523 0 1.013-.123 1.472-.368a2.744 2.744 0 0 0 1.104-1.104c.288-.49.432-1.088.432-1.792s-.139-1.301-.416-1.792c-.277-.49-.64-.853-1.088-1.088a2.982 2.982 0 0 0-1.456-.368c-.533 0-1.024.123-1.472.368-.437.235-.789.597-1.056 1.088-.267.49-.4 1.088-.4 1.792 0 .715.128 1.317.384 1.808.267.49.619.859 1.056 1.104.437.235.917.352 1.44.352Zm13.778-7.632V74h-1.456v-1.296c-.277.448-.666.8-1.168 1.056a3.594 3.594 0 0 1-1.632.368c-.682 0-1.296-.139-1.84-.416a3.184 3.184 0 0 1-1.296-1.28c-.309-.565-.464-1.253-.464-2.064v-5.136h1.44v4.944c0 .864.219 1.53.656 2 .438.459 1.035.688 1.792.688.779 0 1.392-.24 1.84-.72.448-.48.672-1.179.672-2.096v-4.816h1.456Zm3.507 1.424a2.81 2.81 0 0 1 1.088-1.168c.48-.277 1.061-.416 1.744-.416v1.504h-.384c-1.632 0-2.448.885-2.448 2.656V74h-1.456v-8.768h1.456v1.424Zm8.376-1.584c1.067 0 1.931.325 2.592.976.662.64.992 1.568.992 2.784V74h-1.44v-4.96c0-.875-.218-1.541-.656-2-.437-.47-1.034-.704-1.792-.704-.768 0-1.381.24-1.84.72-.448.48-.672 1.179-.672 2.096V74h-1.456v-8.768h1.456v1.248a2.907 2.907 0 0 1 1.168-1.04 3.702 3.702 0 0 1 1.648-.368Zm5.011 4.512c0-.896.181-1.68.544-2.352a3.956 3.956 0 0 1 1.488-1.584 4.145 4.145 0 0 1 2.128-.56c.768 0 1.435.165 2 .496.565.33.987.747 1.264 1.248v-1.6h1.472V74h-1.472v-1.632c-.288.512-.72.939-1.296 1.28-.565.33-1.227.496-1.984.496a3.973 3.973 0 0 1-2.112-.576 4.045 4.045 0 0 1-1.488-1.616c-.363-.693-.544-1.483-.544-2.368Zm7.424.016c0-.661-.133-1.237-.4-1.728a2.754 2.754 0 0 0-1.088-1.12 2.854 2.854 0 0 0-1.488-.4c-.544 0-1.04.128-1.488.384-.448.256-.805.63-1.072 1.12-.267.49-.4 1.067-.4 1.728 0 .672.133 1.259.4 1.76.267.49.624.87 1.072 1.136.448.256.944.384 1.488.384s1.04-.128 1.488-.384a2.864 2.864 0 0 0 1.088-1.136c.267-.501.4-1.083.4-1.744Zm4.98-7.44V74h-1.456V62.16h1.456Zm5.387 7.424c0-.896.182-1.68.544-2.352a3.956 3.956 0 0 1 1.488-1.584 4.15 4.15 0 0 1 2.128-.56c.768 0 1.435.165 2 .496.566.33.987.747 1.264 1.248v-1.6h1.472V74h-1.472v-1.632c-.288.512-.72.939-1.296 1.28-.565.33-1.226.496-1.984.496a3.978 3.978 0 0 1-2.112-.576 4.045 4.045 0 0 1-1.488-1.616c-.362-.693-.544-1.483-.544-2.368Zm7.424.016c0-.661-.133-1.237-.4-1.728a2.747 2.747 0 0 0-1.088-1.12 2.854 2.854 0 0 0-1.488-.4c-.544 0-1.04.128-1.488.384-.448.256-.805.63-1.072 1.12-.266.49-.4 1.067-.4 1.728 0 .672.134 1.259.4 1.76.267.49.624.87 1.072 1.136.448.256.944.384 1.488.384s1.04-.128 1.488-.384a2.857 2.857 0 0 0 1.088-1.136c.267-.501.4-1.083.4-1.744Zm4.981-2.736c.299-.523.736-.95 1.312-1.28.576-.33 1.232-.496 1.968-.496.789 0 1.499.187 2.128.56a3.956 3.956 0 0 1 1.488 1.584c.363.672.544 1.456.544 2.352 0 .885-.181 1.675-.544 2.368a4.006 4.006 0 0 1-1.504 1.616 3.973 3.973 0 0 1-2.112.576c-.757 0-1.424-.165-2-.496-.565-.33-.992-.752-1.28-1.264V74h-1.456V62.16h1.456v4.704Zm5.952 2.72c0-.661-.133-1.237-.4-1.728a2.754 2.754 0 0 0-1.088-1.12 2.946 2.946 0 0 0-1.488-.384c-.533 0-1.029.133-1.488.4-.448.256-.811.635-1.088 1.136-.267.49-.4 1.061-.4 1.712 0 .661.133 1.243.4 1.744.277.49.64.87 1.088 1.136.459.256.955.384 1.488.384.544 0 1.04-.128 1.488-.384a2.864 2.864 0 0 0 1.088-1.136c.267-.501.4-1.088.4-1.76Zm6.821 4.56a4.532 4.532 0 0 1-2.24-.56A4.065 4.065 0 0 1 256.005 72c-.374-.693-.56-1.493-.56-2.4 0-.896.192-1.685.576-2.368a4.005 4.005 0 0 1 1.6-1.584c.672-.373 1.424-.56 2.256-.56.832 0 1.584.187 2.256.56.672.363 1.2.885 1.584 1.568.394.683.592 1.477.592 2.384 0 .907-.203 1.707-.608 2.4a4.125 4.125 0 0 1-1.616 1.584c-.683.373-1.44.56-2.272.56Zm0-1.28c.522 0 1.013-.123 1.472-.368a2.756 2.756 0 0 0 1.104-1.104c.288-.49.432-1.088.432-1.792s-.139-1.301-.416-1.792c-.278-.49-.64-.853-1.088-1.088a2.985 2.985 0 0 0-1.456-.368c-.534 0-1.024.123-1.472.368-.438.235-.79.597-1.056 1.088-.267.49-.4 1.088-.4 1.792 0 .715.128 1.317.384 1.808.266.49.618.859 1.056 1.104.437.235.917.352 1.44.352Zm13.778-7.632V74h-1.456v-1.296c-.277.448-.667.8-1.168 1.056a3.6 3.6 0 0 1-1.632.368c-.683 0-1.296-.139-1.84-.416a3.184 3.184 0 0 1-1.296-1.28c-.309-.565-.464-1.253-.464-2.064v-5.136h1.44v4.944c0 .864.219 1.53.656 2 .437.459 1.035.688 1.792.688.779 0 1.392-.24 1.84-.72.448-.48.672-1.179.672-2.096v-4.816h1.456Zm3.826 1.2V71.6c0 .427.091.73.272.912.182.17.496.256.944.256h1.072V74h-1.312c-.81 0-1.418-.187-1.824-.56-.405-.373-.608-.987-.608-1.84v-5.168h-1.136v-1.2h1.136v-2.208h1.456v2.208h2.288v1.2h-2.288Zm9.278 0V71.6c0 .427.091.73.272.912.181.17.496.256.944.256h1.072V74h-1.312c-.811 0-1.419-.187-1.824-.56-.405-.373-.608-.987-.608-1.84v-5.168h-1.136v-1.2h1.136v-2.208h1.456v2.208h2.288v1.2h-2.288Zm7.468 7.712a4.535 4.535 0 0 1-2.24-.56A4.072 4.072 0 0 1 290.355 72c-.373-.693-.56-1.493-.56-2.4 0-.896.192-1.685.576-2.368a4.011 4.011 0 0 1 1.6-1.584c.672-.373 1.424-.56 2.256-.56.832 0 1.584.187 2.256.56.672.363 1.2.885 1.584 1.568.395.683.592 1.477.592 2.384 0 .907-.203 1.707-.608 2.4a4.118 4.118 0 0 1-1.616 1.584c-.683.373-1.44.56-2.272.56Zm0-1.28c.523 0 1.013-.123 1.472-.368a2.744 2.744 0 0 0 1.104-1.104c.288-.49.432-1.088.432-1.792s-.139-1.301-.416-1.792c-.277-.49-.64-.853-1.088-1.088a2.982 2.982 0 0 0-1.456-.368c-.533 0-1.024.123-1.472.368-.437.235-.789.597-1.056 1.088-.267.49-.4 1.088-.4 1.792 0 .715.128 1.317.384 1.808.267.49.619.859 1.056 1.104.437.235.917.352 1.44.352Zm5.459-3.28c0-.896.181-1.68.544-2.352a3.942 3.942 0 0 1 1.488-1.584 4.175 4.175 0 0 1 2.144-.56c.682 0 1.317.16 1.904.48.586.31 1.034.72 1.344 1.232v-4.64h1.472V74h-1.472v-1.648c-.288.523-.715.955-1.28 1.296-.566.33-1.227.496-1.984.496a4.056 4.056 0 0 1-2.128-.576 4.03 4.03 0 0 1-1.488-1.616c-.363-.693-.544-1.483-.544-2.368Zm7.424.016c0-.661-.134-1.237-.4-1.728a2.76 2.76 0 0 0-1.088-1.12 2.854 2.854 0 0 0-1.488-.4c-.544 0-1.04.128-1.488.384-.448.256-.806.63-1.072 1.12-.267.49-.4 1.067-.4 1.728 0 .672.133 1.259.4 1.76.266.49.624.87 1.072 1.136.448.256.944.384 1.488.384s1.04-.128 1.488-.384a2.87 2.87 0 0 0 1.088-1.136c.266-.501.4-1.083.4-1.744Zm2.98-.016c0-.896.181-1.68.544-2.352a3.956 3.956 0 0 1 1.488-1.584 4.145 4.145 0 0 1 2.128-.56c.768 0 1.435.165 2 .496.565.33.987.747 1.264 1.248v-1.6h1.472V74h-1.472v-1.632c-.288.512-.72.939-1.296 1.28-.565.33-1.227.496-1.984.496a3.973 3.973 0 0 1-2.112-.576 4.045 4.045 0 0 1-1.488-1.616c-.363-.693-.544-1.483-.544-2.368Zm7.424.016c0-.661-.133-1.237-.4-1.728a2.754 2.754 0 0 0-1.088-1.12 2.854 2.854 0 0 0-1.488-.4c-.544 0-1.04.128-1.488.384-.448.256-.805.63-1.072 1.12-.267.49-.4 1.067-.4 1.728 0 .672.133 1.259.4 1.76.267.49.624.87 1.072 1.136.448.256.944.384 1.488.384s1.04-.128 1.488-.384a2.864 2.864 0 0 0 1.088-1.136c.267-.501.4-1.083.4-1.744Zm11.076-4.368-5.28 12.896h-1.504l1.728-4.224-3.536-8.672h1.616l2.752 7.104 2.72-7.104h1.504Z"/><path fill="#F0F1EA" d="M25 115c0-11.046 8.954-20 20-20h287c11.046 0 20 8.954 20 20v152c0 11.046-8.954 20-20 20H45c-11.046 0-20-8.954-20-20V115Z"/><path stroke="#0D593E" stroke-width="1.2" d="M41.6 111v18"/><path fill="#fff" d="M323.105 247c.922 0 1.805.366 2.457 1.017a3.477 3.477 0 0 1 1.017 2.457v6.947a3.474 3.474 0 0 1-6.947 0v-6.947a3.474 3.474 0 0 1 3.473-3.474Zm8.106 10.421c0 4.087-3.023 7.457-6.948 8.024V269h-2.316v-3.555c-3.925-.567-6.947-3.937-6.947-8.024h2.316a5.792 5.792 0 0 0 5.789 5.79 5.789 5.789 0 0 0 5.79-5.79h2.316Z"/><path fill="#000" d="M323.105 247c.922 0 1.805.366 2.457 1.017a3.477 3.477 0 0 1 1.017 2.457v6.947a3.474 3.474 0 0 1-6.947 0v-6.947a3.474 3.474 0 0 1 3.473-3.474Zm8.106 10.421c0 4.087-3.023 7.457-6.948 8.024V269h-2.316v-3.555c-3.925-.567-6.947-3.937-6.947-8.024h2.316a5.792 5.792 0 0 0 5.789 5.79 5.789 5.789 0 0 0 5.79-5.79h2.316Z"/><g clip-path="url(#b)" filter="url(#c)"><path fill="#EAEBE3" d="M0-56h375v54H0z"/></g></g><defs><clipPath id="a"><path fill="#fff" d="M0 0h375v309H0z"/></clipPath><clipPath id="b"><path fill="#fff" d="M0-56h375v54H0z"/></clipPath><filter id="c" width="399" height="78" x="-12" y="-68" color-interpolation-filters="sRGB" filterUnits="userSpaceOnUse"><feFlood flood-opacity="0" result="BackgroundImageFix"/><feColorMatrix in="SourceAlpha" result="hardAlpha" values="0 0 0 0 0 0 0 0 0 0 0 0 0 0 0 0 0 0 127 0"/><feOffset/><feGaussianBlur stdDeviation="6"/><feColorMatrix values="0 0 0 0 0 0 0 0 0 0 0 0 0 0 0 0 0 0 0.05 0"/><feBlend in2="BackgroundImageFix" result="effect1_dropShadow_91_3617"/><feBlend in="SourceGraphic" in2="effect1_dropShadow_91_3617" result="shape"/></filter></defs></svg>