<svg xmlns="http://www.w3.org/2000/svg" width="170" height="165" fill="none"><path fill="#F9BE70" d="M149.5 67.82a67.745 67.745 0 0 1-85.302 65.367A67.755 67.755 0 0 1 14.26 73.672 67.75 67.75 0 0 1 93.446 1.017c1.274.232 2.535.498 3.784.807 7.252 2.318 14.402 4.872 20.806 8.733a68.06 68.06 0 0 1 3.094 2.09A67.735 67.735 0 0 1 149.5 67.82Z"/><path fill="#AFDDC9" d="M84.962 110.757a.644.644 0 0 0 .51.118.665.665 0 0 0 .444-.293.962.962 0 0 0-.208-1.164.662.662 0 0 0-.518-.117.648.648 0 0 0-.44.289.99.99 0 0 0 .212 1.167Zm-7.734 1.396a.63.63 0 0 0 .51.118.654.654 0 0 0 .444-.293.96.96 0 0 0-.208-1.164.671.671 0 0 0-.519-.117.649.649 0 0 0-.438.291.986.986 0 0 0 .21 1.165Zm4.494-.83a.676.676 0 0 0 .522.121.689.689 0 0 0 .449-.294.887.887 0 0 0-.204-1.133.68.68 0 0 0-.524-.118.691.691 0 0 0-.45.292.769.769 0 0 0-.105.603.785.785 0 0 0 .312.529Z"/><path fill="#AFDDC9" d="M91.22 102.307 2.944 118.253l7.414 41.046a6.605 6.605 0 0 0 7.678 5.325l75.269-13.596a6.607 6.607 0 0 0 5.326-7.677l-7.413-41.044Zm-3.28 13.923-13.351 2.412-.089-.494 13.35-2.412.09.494Zm-3.74-6.95a1.47 1.47 0 0 1 1.93-.348 1.446 1.446 0 0 1 .351 1.959 1.36 1.36 0 0 1-.901.55 1.318 1.318 0 0 1-1.59-1.112 1.305 1.305 0 0 1 .21-1.049Zm-3.297.603a1.189 1.189 0 0 1 .823-.538.938.938 0 0 1 .904.297l-.233-1.289.664-.12.633 3.507-.663.12-.08-.441a.942.942 0 0 1-.743.629 1.178 1.178 0 0 1-.954-.222 1.54 1.54 0 0 1-.352-1.943h.001Zm-4.436.794a1.467 1.467 0 0 1 1.928-.348 1.303 1.303 0 0 1 .565.907 1.32 1.32 0 0 1-.609 1.416 1.369 1.369 0 0 1-.506.184 1.34 1.34 0 0 1-1.03-.201 1.33 1.33 0 0 1-.56-.911 1.3 1.3 0 0 1 .213-1.047h-.001Zm-.904-.884.092.512-.896.162.503 2.796-.658.12-.505-2.795-.89.161-.093-.512 2.447-.444Zm-58.875 49.291-6.72-37.205 7.72-1.394 6.723 37.204-7.723 1.395Zm10.134-1.831-6.718-37.205 7.723-1.395 6.72 37.205-7.725 1.395Zm10.136-1.831-6.72-37.205 7.722-1.394 6.72 37.204-7.722 1.395Zm10.137-1.831-6.719-37.205 7.72-1.394 6.722 37.204-7.723 1.395Zm10.136-1.831-6.719-37.204 7.722-1.395 6.72 37.204-7.723 1.395Zm10.136-1.831-6.72-37.205 7.72-1.394 6.721 37.204-7.721 1.395Zm8.106-26.396 13.35-2.412.09.495-13.35 2.412-.09-.495Zm.973 5.386 13.35-2.411.09.494-13.351 2.412-.09-.495Zm.973 5.386 13.35-2.411.089.494-13.35 2.412-.09-.495Zm1.062 5.879-.09-.495 13.35-2.412.09.495-13.35 2.412Z"/><path fill="#189E71" d="M20.429 107.83a1.152 1.152 0 0 0-.827-.143 1.089 1.089 0 0 0-.707.42 1.217 1.217 0 0 0-.229.821l2.246-.406a1.049 1.049 0 0 0-.483-.692Z"/><path fill="#189E71" d="M88.38 86.585a6.608 6.608 0 0 0-7.678-5.326L74.16 82.44l.713 3.95a3.385 3.385 0 1 1-3.306.712l-.734-4.061-16.596 2.998.713 3.95a3.384 3.384 0 1 1-3.306.712l-.734-4.061-16.597 2.998.714 3.95a3.383 3.383 0 1 1-3.307.711l-.733-4.06-16.597 2.995.714 3.95a3.384 3.384 0 1 1-3.307.712l-.734-4.06-5.627 1.017a6.608 6.608 0 0 0-5.33 7.676l2.84 15.721 88.275-15.945-2.84-15.721Zm-72.601 25.714-1.372.248-1.91-3.967-.436 4.391-1.372.248-2.779-5.678 1.286-.232 1.984 4.414.373-4.839 1.363-.247 1.968 4.371.251-4.773 1.295-.234-.651 6.298Zm3.506-1.909c.242.154.534.206.814.145a1.018 1.018 0 0 0 .833-.681l1.303-.236a2.116 2.116 0 0 1-.597 1.25c-.366.369-.842.61-1.356.687a2.289 2.289 0 0 1-1.81-.368 2.475 2.475 0 0 1-.972-1.661 2.452 2.452 0 0 1 .336-1.889 2.312 2.312 0 0 1 1.578-.971 2.401 2.401 0 0 1 1.827.338 2.328 2.328 0 0 1 .98 1.608c.03.155.046.312.05.47l-3.463.625c.068.28.238.524.478.684v-.001Zm5.35-.967c.241.154.535.207.815.145a1.018 1.018 0 0 0 .832-.681l1.304-.235a2.12 2.12 0 0 1-.598 1.249c-.366.369-.84.61-1.354.688a2.289 2.289 0 0 1-1.81-.369 2.486 2.486 0 0 1-.974-1.661 2.451 2.451 0 0 1 .336-1.889 2.324 2.324 0 0 1 1.577-.971 2.402 2.402 0 0 1 1.828.339 2.327 2.327 0 0 1 .98 1.607c.03.155.047.312.05.47l-3.461.625c.067.28.236.523.475.684v-.001Zm7.167-.02-1.986-1.686.358 1.981-1.206.218-1.147-6.344 1.21-.219.652 3.627 1.237-2.322 1.638-.296-1.676 2.782 2.532 1.967-1.612.292Z"/><path fill="#189E71" d="M25.78 106.864a1.159 1.159 0 0 0-.827-.144 1.093 1.093 0 0 0-.707.421 1.219 1.219 0 0 0-.229.82l2.247-.406a1.051 1.051 0 0 0-.484-.691Z"/><path fill="#0D593E" d="M14.268 102.083a1.692 1.692 0 0 1-1.384-.367 1.69 1.69 0 0 1-.58-.996l-.509-2.822a3.377 3.377 0 1 0 3.307-.711l.53 2.932a1.693 1.693 0 0 1-.75 1.723c-.187.12-.396.202-.614.241Z"/><path fill="#3A2082" d="M14.18 92.063a1.69 1.69 0 1 0-3.326.603l.212 1.173 3.327-.602-.213-1.174Z"/><path fill="#3A2082" d="M13.451 97.077a3.36 3.36 0 0 1 1.643.11l-.714-3.95-3.327.602.734 4.061a3.354 3.354 0 0 1 1.664-.823Z"/><path fill="#3A2082" d="M13.46 97.077a3.354 3.354 0 0 0-1.665.822l.51 2.822a1.69 1.69 0 1 0 3.325-.601l-.53-2.933a3.36 3.36 0 0 0-1.64-.11Z"/><path fill="#0D593E" d="M34.195 98.484a1.691 1.691 0 0 1-1.962-1.363l-.51-2.822a3.378 3.378 0 1 0 3.307-.711l.53 2.932a1.691 1.691 0 0 1-1.365 1.964Z"/><path fill="#3A2082" d="M34.1 88.464a1.69 1.69 0 1 0-3.327.603l.212 1.174 3.327-.603-.212-1.174Z"/><path fill="#3A2082" d="M33.379 93.477a3.36 3.36 0 0 1 1.642.11l-.714-3.95-3.326.603.733 4.06a3.362 3.362 0 0 1 1.665-.823Z"/><path fill="#3A2082" d="M33.387 93.478a3.363 3.363 0 0 0-1.664.822l.51 2.822a1.69 1.69 0 0 0 3.325-.601l-.528-2.933a3.361 3.361 0 0 0-1.643-.11Z"/><path fill="#0D593E" d="M54.122 94.885a1.69 1.69 0 0 1-1.963-1.363l-.51-2.822a3.378 3.378 0 1 0 3.307-.712l.53 2.933a1.69 1.69 0 0 1-1.364 1.964Z"/><path fill="#3A2082" d="M54.035 84.865a1.69 1.69 0 1 0-3.326.602l.211 1.175 3.327-.603-.212-1.174Z"/><path fill="#3A2082" d="M53.306 89.878a3.36 3.36 0 0 1 1.642.11l-.714-3.95-3.326.603.733 4.06a3.356 3.356 0 0 1 1.665-.823Z"/><path fill="#3A2082" d="M53.306 89.879a3.354 3.354 0 0 0-1.664.822l.51 2.821a1.69 1.69 0 1 0 3.326-.6l-.53-2.933a3.359 3.359 0 0 0-1.642-.11Z"/><path fill="#0D593E" d="M74.042 91.285a1.69 1.69 0 0 1-1.963-1.363l-.51-2.821a3.377 3.377 0 1 0 3.307-.712l.53 2.932a1.69 1.69 0 0 1-1.364 1.965Z"/><path fill="#3A2082" d="M73.947 81.265a1.69 1.69 0 1 0-3.327.603l.212 1.174 3.327-.603-.212-1.174Z"/><path fill="#3A2082" d="M73.225 86.279a3.366 3.366 0 0 1 1.643.11l-.714-3.95-3.327.603.734 4.06a3.362 3.362 0 0 1 1.664-.823Z"/><path fill="#3A2082" d="M73.234 86.28a3.362 3.362 0 0 0-1.664.821l.509 2.822a1.69 1.69 0 0 0 3.326-.601l-.53-2.932a3.367 3.367 0 0 0-1.641-.11Z"/><path fill="#B8B2D8" d="m17.689 120.484-7.721 1.395 6.72 37.204 7.72-1.394-6.72-37.205Zm10.139-1.831-7.721 1.394 6.72 37.205 7.721-1.395-6.72-37.204Zm10.132-1.83-7.722 1.394 6.72 37.205 7.722-1.395-6.72-37.204Zm10.139-1.832-7.721 1.395 6.72 37.204 7.721-1.395-6.72-37.204Zm10.139-1.83-7.72 1.395 6.72 37.204 7.72-1.395-6.72-37.204Zm10.14-1.832-7.721 1.395 6.72 37.204 7.721-1.394-6.72-37.205Z"/><path fill="#3A2082" d="m87.849 115.734-13.35 2.411.09.495 13.349-2.412-.09-.494Zm.976 5.386-13.35 2.411.09.495 13.35-2.411-.09-.495Zm.976 5.388-13.35 2.411.09.495 13.35-2.412-.09-.494Zm.969 5.384-13.35 2.411.09.495 13.35-2.412-.09-.494Zm.977 5.389-13.35 2.41.09.495 13.349-2.411-.09-.494ZM74.1 110.587l.504 2.795.664-.12-.505-2.796.895-.161-.092-.512-2.45.442.093.512.89-.16Zm2.71 2.048a1.36 1.36 0 0 0 1.03.201 1.388 1.388 0 0 0 .902-.55 1.324 1.324 0 0 0 .213-1.051 1.303 1.303 0 0 0-.565-.907 1.469 1.469 0 0 0-1.03-.196 1.47 1.47 0 0 0-.898.545 1.3 1.3 0 0 0-.213 1.046 1.327 1.327 0 0 0 .561.912Zm.206-1.647a.64.64 0 0 1 .44-.291.671.671 0 0 1 .518.117.963.963 0 0 1 .208 1.164.655.655 0 0 1-.444.293.63.63 0 0 1-.511-.118.985.985 0 0 1-.21-1.165Zm4.244.837a1.164 1.164 0 0 0 .955.222.946.946 0 0 0 .743-.629l.08.441.663-.12-.633-3.507-.664.12.233 1.29a.937.937 0 0 0-.904-.297 1.172 1.172 0 0 0-.823.537 1.54 1.54 0 0 0 .352 1.943h-.001Zm.252-1.633a.694.694 0 0 1 .724-.286c.09.02.174.058.25.111a.89.89 0 0 1 .204 1.133.673.673 0 0 1-.448.295.694.694 0 0 1-.523-.121.789.789 0 0 1-.312-.531.771.771 0 0 1 .106-.601h-.001Zm3.048 1.046a1.359 1.359 0 0 0 1.03.201 1.368 1.368 0 0 0 .901-.55 1.448 1.448 0 0 0-.352-1.959 1.464 1.464 0 0 0-1.928.348 1.3 1.3 0 0 0-.213 1.046 1.334 1.334 0 0 0 .562.914Zm.207-1.648a.64.64 0 0 1 .439-.29.67.67 0 0 1 .518.117.963.963 0 0 1 .208 1.164.653.653 0 0 1-.444.293.637.637 0 0 1-.51-.118.983.983 0 0 1-.211-1.166Z"/><path fill="#EAEBE3" d="m14.887 111.009-1.968-4.372-1.363.246-.373 4.839-1.984-4.413-1.286.232 2.78 5.678 1.37-.248.438-4.39 1.912 3.966 1.371-.248.65-6.297-1.294.234-.253 4.773Zm7.341-2.396a2.32 2.32 0 0 0-.98-1.608 2.4 2.4 0 0 0-1.829-.339 2.325 2.325 0 0 0-1.577.972 2.442 2.442 0 0 0-.336 1.888 2.486 2.486 0 0 0 .973 1.662 2.291 2.291 0 0 0 1.809.368c.514-.077.99-.319 1.356-.688.334-.338.544-.778.597-1.249l-1.303.235a1.014 1.014 0 0 1-.833.682 1.09 1.09 0 0 1-.814-.146 1.14 1.14 0 0 1-.477-.683l3.463-.626a2.972 2.972 0 0 0-.05-.468Zm-3.556.315a1.218 1.218 0 0 1 .229-.821c.171-.227.425-.378.707-.42.284-.057.579-.006.827.143a1.055 1.055 0 0 1 .483.692l-2.246.406Zm8.906-1.284a2.333 2.333 0 0 0-.98-1.607 2.383 2.383 0 0 0-1.828-.339 2.323 2.323 0 0 0-1.577.971 2.449 2.449 0 0 0-.336 1.889 2.484 2.484 0 0 0 .972 1.661 2.276 2.276 0 0 0 1.81.369 2.416 2.416 0 0 0 1.353-.688 2.12 2.12 0 0 0 .598-1.249l-1.303.235a1.012 1.012 0 0 1-.833.681c-.28.062-.573.01-.815-.145a1.15 1.15 0 0 1-.478-.684l3.465-.625a2.936 2.936 0 0 0-.048-.469Zm-3.555.316a1.218 1.218 0 0 1 .228-.82 1.09 1.09 0 0 1 .707-.421c.284-.058.58-.006.828.144a1.04 1.04 0 0 1 .483.691l-2.246.406Zm8.532-3.597-1.638.296-1.237 2.322-.654-3.627-1.209.219 1.146 6.344 1.209-.218-.358-1.981 1.987 1.686 1.612-.291-2.534-1.968 1.676-2.782Z"/><path fill="#FF7F00" d="m94.708 31.861 7.466-.544a1.585 1.585 0 0 1 1.697 1.466l.094 1.292a1.583 1.583 0 0 1-1.466 1.697l-7.466.544-.325-4.455Z"/><path fill="#3A2082" d="m95.153 37.891 7.467-.544a1.584 1.584 0 0 1 1.696 1.466l.094 1.292a1.582 1.582 0 0 1-1.465 1.697l-7.467.544-.325-4.455Z"/><path fill="#189E71" d="m95.614 44.319 7.467-.545a1.584 1.584 0 0 1 1.696 1.466l.094 1.293a1.587 1.587 0 0 1-1.466 1.696l-7.466.545-.325-4.456Z"/><path fill="#FF7F00" d="m63.056 19.255 33.094-2.413A2.01 2.01 0 0 1 98.3 18.7l3.599 49.345a3.19 3.19 0 0 1-2.946 3.409l-31.92 2.328-3.977-54.527Z"/><path fill="#FF7F00" d="M67.182 73.78a4.001 4.001 0 1 0 0-8.003 4.001 4.001 0 0 0 0 8.003Z"/><path fill="#fff" d="m61.798 16.997 34.709-2.53 3.833 52.554a1.982 1.982 0 0 1-1.83 2.118l-30.635 2.234a2.106 2.106 0 0 1-2.254-1.947l-3.823-52.428Z"/><path fill="#FFA23E" d="M101.557 63.336 98.152 16.64a3.926 3.926 0 0 0-4.201-3.63l-30.739 2.242 3.977 54.527 30.738-2.242a3.926 3.926 0 0 0 3.63-4.2Z"/><path fill="#FF7F00" d="M63.134 15.257a3.924 3.924 0 0 0-3.63 4.201l1.211 16.604 2.48 34.008 3.99-.291-3.976-54.527-.075.005Z"/><path fill="#EAEBE3" d="m94.583 42.579-24.271.784-1.921-16.905 25.644-.829.548 16.95Z"/><path fill="#0D593E" d="m74.259 37.957-1.177.086-.146-2.004-2.25-3.68 1.32-.096 1.444 2.656 1.035-2.837 1.319-.096-1.691 3.969.146 2.002Zm5.668-6.287.066.9-2.188.16.112 1.528 1.936-.141.066.904-1.936.142.117 1.61 2.188-.16.065.905-3.366.245-.426-5.843 3.366-.25Zm5.447 5.476-.456-1.066-2.27.165-.297 1.121-1.244.091 1.636-5.994 1.395-.1 2.48 5.694-1.244.09Zm-2.484-1.825 1.662-.12-1.012-2.37-.65 2.49Zm5.556-.732.17 2.321-1.178.085-.425-5.828 2.146-.156a2.218 2.218 0 0 1 1.593.391 1.635 1.635 0 0 1 .638 1.206 1.76 1.76 0 0 1-.259 1.052 1.724 1.724 0 0 1-1.005.727l1.66 2.288-1.393.1-1.563-2.218-.384.032Zm-.19-2.605.124 1.703.969-.07a.928.928 0 0 0 .659-.279.948.948 0 0 0-.09-1.244.93.93 0 0 0-.694-.18l-.968.07Z"/><path fill="#CC6202" d="m100.262 31.456-1.031.075.325 4.455 1.03-.075-.324-4.455Z"/><path fill="#0D0559" d="m100.699 37.486-1.03.075.324 4.456 1.031-.075-.325-4.456Z"/><path fill="#0D593E" d="m101.176 43.915-1.031.075.325 4.456 1.03-.075-.324-4.456Z"/><path fill="#3A2082" d="M162.206 28.191 139.275 23.3a7.119 7.119 0 0 0-8.447 5.477L118.707 85.59a7.118 7.118 0 0 0 5.477 8.447l22.93 4.892a7.119 7.119 0 0 0 8.447-5.477l12.121-56.815a7.119 7.119 0 0 0-5.476-8.447Z"/><path fill="#0D0559" d="m167.527 37.31-36.854-7.862-10.628 49.819 36.853 7.862 10.629-49.819Zm-30.249 55.365a3.83 3.83 0 0 1-3.688-4.873 3.835 3.835 0 0 1 3.439-2.782 3.83 3.83 0 0 1 2.658 6.8 3.841 3.841 0 0 1-2.409.855Zm-.007-7.161a3.329 3.329 0 1 0 3.263 4.024 3.333 3.333 0 0 0-.673-2.79 3.339 3.339 0 0 0-2.59-1.234Z"/><path fill="#EFCEA6" d="m134.714 50.649-2.253 10.558a4.253 4.253 0 0 0 .59 3.194 4.243 4.243 0 0 0 2.676 1.842L147.9 68.84a4.244 4.244 0 0 0 5.036-3.266l2.253-10.558-20.475-4.367Zm9.64 7.072a2.087 2.087 0 0 1-.66 1.186 1.918 1.918 0 0 1-1.018.492l-.01.047a2.068 2.068 0 0 1 .96 2.437 2.295 2.295 0 0 1-1.132 1.607 3.076 3.076 0 0 1-2.219.23 3.418 3.418 0 0 1-2.016-1.133 2.513 2.513 0 0 1-.452-2.157l1.604.343a1.307 1.307 0 0 0 .197 1.009c.223.3.554.502.922.562a1.294 1.294 0 0 0 1.021-.134c.288-.215.478-.536.529-.892a1.061 1.061 0 0 0-.244-1.02 2.587 2.587 0 0 0-1.333-.6l-.342-.072.289-1.357.343.073c1.116.238 1.753-.017 1.912-.763a1.013 1.013 0 0 0-.142-.832 1.271 1.271 0 0 0-.812-.47 1.103 1.103 0 0 0-.918.139 1.31 1.31 0 0 0-.48.636l-1.616-.344a2.35 2.35 0 0 1 1.203-1.624 3.211 3.211 0 0 1 2.19-.205 2.945 2.945 0 0 1 1.849 1.066 2.14 2.14 0 0 1 .375 1.776Zm2.818 7.42-1.698-.362 1.461-6.852-1.249-.266.325-1.521 2.95.629-1.789 8.373Z"/><path fill="#FF7F00" d="M155.53 53.403a4.241 4.241 0 0 0-3.266-5.036l-12.172-2.597a4.244 4.244 0 0 0-5.036 3.266l-.345 1.614 20.475 4.368.344-1.615Zm-7.787-1.903a2.512 2.512 0 0 1-1.118-.314l-.174-.09a2.106 2.106 0 0 0-1.259-.37 1.894 1.894 0 0 0-.213.056 1.591 1.591 0 0 1-.479.086 1.305 1.305 0 0 1-1.06-.821 1.741 1.741 0 0 1-.722.591 1.085 1.085 0 0 1-.936-.085.769.769 0 0 1-.381-.587c-.006-.2.037-.399.126-.578.034-.078.062-.157.083-.239a.256.256 0 0 0-.067-.224c.009.01-.033.06-.052.083l-1.508 1.806-.119-.48a11.474 11.474 0 0 1-.327-2.172 2.012 2.012 0 0 0-.945 1.484l-.502-.047a2.48 2.48 0 0 1 1.595-2.066l.33-.12.007.352c.014.658.087 1.314.217 1.96l.865-1.037a.7.7 0 0 1 .296-.233.473.473 0 0 1 .481.1.772.772 0 0 1 .218.704 1.983 1.983 0 0 1-.108.318.812.812 0 0 0-.09.345.272.272 0 0 0 .143.2.586.586 0 0 0 .488.047 1.82 1.82 0 0 0 .746-.776l.271-.418.175.466c.232.616.488.917.785.923a.935.935 0 0 0 .325-.066c.088-.028.178-.05.268-.069a2.503 2.503 0 0 1 1.58.42l.17.087c.334.17.954.413 1.336.123l.302.402a1.22 1.22 0 0 1-.746.24h-.001Z"/><path fill="#0D0559" d="M142.125 54.882a3.211 3.211 0 0 0-2.19.205 2.342 2.342 0 0 0-1.203 1.623l1.616.345c.09-.257.258-.48.481-.637a1.098 1.098 0 0 1 .917-.137c.321.047.611.215.812.469a1.022 1.022 0 0 1 .143.832c-.16.747-.797 1.002-1.913.763l-.343-.073-.289 1.357.343.073c.492.067.955.275 1.332.598a1.061 1.061 0 0 1 .245 1.02 1.358 1.358 0 0 1-.529.893 1.29 1.29 0 0 1-1.021.134 1.43 1.43 0 0 1-.922-.562 1.3 1.3 0 0 1-.198-1.01l-1.604-.342a2.521 2.521 0 0 0 .452 2.156c.52.6 1.232 1 2.014 1.133a3.075 3.075 0 0 0 2.219-.23 2.295 2.295 0 0 0 1.132-1.608 2.066 2.066 0 0 0-.959-2.436l.01-.048a1.912 1.912 0 0 0 1.017-.492c.346-.31.578-.727.66-1.185a2.127 2.127 0 0 0-.374-1.775 2.945 2.945 0 0 0-1.848-1.066Zm3.571 2.779 1.249.267-1.462 6.852 1.699.362 1.786-8.373-2.948-.629-.324 1.521Z"/><path fill="#fff" d="m146.856 50.737-.17-.088a2.504 2.504 0 0 0-1.58-.419c-.09.018-.18.041-.268.07a.935.935 0 0 1-.325.065c-.297-.006-.552-.307-.785-.923l-.175-.466-.271.418a1.825 1.825 0 0 1-.746.776.583.583 0 0 1-.488-.046.273.273 0 0 1-.143-.201.812.812 0 0 1 .09-.345c.045-.103.081-.209.108-.318a.763.763 0 0 0-.218-.703.469.469 0 0 0-.481-.1.7.7 0 0 0-.296.232l-.865 1.037a11.03 11.03 0 0 1-.217-1.96l-.007-.351-.33.12a2.483 2.483 0 0 0-1.595 2.065l.502.047a2.012 2.012 0 0 1 .945-1.484c.039.733.149 1.46.327 2.173l.119.48 1.508-1.807c.019-.023.061-.072.052-.083.028.03.049.066.06.105.012.038.014.08.007.12a1.547 1.547 0 0 1-.083.238 1.22 1.22 0 0 0-.126.578.764.764 0 0 0 .381.587 1.08 1.08 0 0 0 .936.085c.29-.128.54-.332.722-.591a1.303 1.303 0 0 0 1.06.821c.163-.004.325-.033.479-.086.07-.023.141-.041.213-.056.448-.014.889.115 1.259.37l.174.09c.343.19.725.298 1.118.314.269.006.533-.078.75-.239l-.302-.402c-.385.29-1.005.047-1.339-.123Z"/><path fill="#3A2082" d="m127.164 27.23-.5-.05a8.282 8.282 0 0 1 5.141-6.736l.18.47a7.77 7.77 0 0 0-4.821 6.317Zm-.021-7.414-.44-.243a4.863 4.863 0 0 1 2.202-2.052l.211.456a4.358 4.358 0 0 0-1.973 1.838Z"/></svg>