<svg xmlns="http://www.w3.org/2000/svg" width="136" height="167" fill="none"><path fill="#F9BE70" d="M135.701 68.65a67.747 67.747 0 0 1-44.61 63.607A67.75 67.75 0 1 1 79.647 1.847c1.273.232 2.534.498 3.783.808 7.252 2.318 14.402 4.871 20.806 8.733a67.977 67.977 0 0 1 3.094 2.089A67.735 67.735 0 0 1 135.7 68.65Z"/><path fill="#FF7F00" d="m80.95 157.011-8.066-.827c.678-6.6-1.491-13.609-6.448-20.867-.941.1-1.885.187-2.82.273-5.083.47-10.338.954-13.115 3.234-3.413 2.792-5.102 8.068-5.018 15.684l-8.107.087c-.108-10.201 2.579-17.617 7.987-22.042 4.263-3.498 10.266-4.34 15.832-4.878a41.713 41.713 0 0 1-3.162-6.485c-12.59.493-17.692-3.394-20.472-6.494-4.698-5.236-4.462-13.558.537-18.946 2.998-3.232 7.039-4.864 10.947-6.44 3.767-1.52 7.324-2.957 8.747-5.494.19-.34.792-1.487.528-1.987-.152-.286-1.195-1.789-6.802-3.072-4.065-.931-8.81-1.345-12.273-1.647-1.905-.167-3.41-.298-4.483-.48-4.233-.72-17.113-2.907-20.236-14.443-2.504-9.255 2.77-18.712 12.27-21.998 3.267-1.131 6.905-1.823 10.422-2.491 6.305-1.198 12.824-2.437 15.157-5.977 1.269-1.924 1.473-4.727.625-8.568a13.682 13.682 0 0 1 5.312-14.271A16.458 16.458 0 0 1 75.9 7.713c6.042 3.378 8.734 8.702 11.111 13.4 1.21 2.395 2.353 4.656 3.87 6.63 1.346 1.749 3.918 2.164 7.993 2.64 5.49.641 13.009 1.52 15.784 10.12 2.671 8.272-4.111 15.337-8.597 20.013-.566.59-1.106 1.15-1.593 1.68l-.181.198c-3.758 4.085-4.42 5.507-3.375 7.248 1.584 2.636 4.563 4.769 7.444 6.828.487.348.969.693 1.441 1.037a11.461 11.461 0 0 1 4.697 10.918 13.182 13.182 0 0 1-8.307 10.403c-5.854 2.233-12.559 1.688-19.043 1.16-10.879-.884-17.737-1.064-21.433 6.072a12.606 12.606 0 0 0-1.402 6.355l.17-.026c6.431-.982 15.239-2.326 20.357 3.278 2.083 2.28 2.817 5.04 2.066 7.773-.725 2.634-2.787 5.076-6.13 7.259a29.905 29.905 0 0 1-5.802 2.912c4.753 7.912 6.765 15.761 5.98 23.4Zm-14.534-36.719a42.365 42.365 0 0 0 3.71 6.291c.485-.106.947-.225 1.386-.356 3.342-1.01 7.082-3.598 7.535-4.838a1.995 1.995 0 0 0-.203-.257c-2.077-2.275-8.092-1.493-12.428-.84Zm1.64-106.48a8.28 8.28 0 0 0-4.912 1.576 5.57 5.57 0 0 0-2.231 6.017c1.345 6.094.763 10.928-1.772 14.778-4.221 6.402-12.452 7.967-20.41 9.48-3.382.642-6.576 1.249-9.287 2.187-4.726 1.635-8.679 6.357-7.093 12.219 1.222 4.516 5.467 7.159 13.766 8.568.75.127 2.178.252 3.833.396 11.02.962 22.07 2.45 25.537 9.007 1.071 2.027 1.832 5.361-.624 9.742-2.818 5.023-8.113 7.16-12.784 9.046-3.225 1.301-6.271 2.53-8.038 4.434-1.876 2.022-2.503 5.727-.446 8.019 2.873 3.201 7.92 3.924 12.634 3.863a20.469 20.469 0 0 1 2.28-10.817c6.364-12.286 19.074-11.254 29.288-10.423 5.841.477 11.358.923 15.499-.656a4.98 4.98 0 0 0 3.161-3.902 3.3 3.3 0 0 0-1.438-3.293c-.453-.33-.915-.66-1.383-.994-3.386-2.423-7.229-5.17-9.677-9.247-4.424-7.365 1.073-13.34 4.357-16.91l.18-.196c.524-.572 1.103-1.174 1.711-1.808 3.338-3.48 7.916-8.247 6.732-11.91-1.074-3.328-3.324-3.893-9.01-4.557-4.434-.518-9.948-1.162-13.477-5.75-1.982-2.575-3.354-5.288-4.68-7.913-2.12-4.191-3.95-7.812-7.83-9.98a7.981 7.981 0 0 0-3.886-.977Z"/><path fill="#8C694D" d="M100.172 165.153c0 .965-18.407 1.747-41.113 1.747s-41.113-.782-41.113-1.747c0-.965 18.407-1.745 41.113-1.745s41.113.781 41.113 1.745Z" opacity=".2"/><path fill="#fff" fill-rule="evenodd" d="M30.811 159.363h6.598v-6.2h8.132v11.424H25.588a5.224 5.224 0 0 1 5.223-5.224Zm56.866 0H81.08v-6.2h-8.13v11.424H92.9a5.224 5.224 0 0 0-5.223-5.224Z" clip-rule="evenodd"/><path fill="#D36B0D" d="m61.331 127.952 5.127 7.312-5.127.318v-7.63Zm4.97-7.67-8.147.954 10.83 3.576-2.683-4.53Z"/><path fill="#824A1D" d="M81.545 70.182a1.432 1.432 0 0 1-1.14-.565c-.015-.017-2.887-3.44-11.94-3.727-1.165-.037-2.12-.048-2.964-.06-3.936-.047-5.565-.069-14.031-2.307a1.43 1.43 0 1 1 .73-2.766c8.125 2.146 9.544 2.165 13.337 2.213.858.01 1.832.023 3.018.06 10.574.334 13.988 4.674 14.129 4.857a1.431 1.431 0 0 1-1.139 2.296Z"/><path fill="#020202" d="M121.774 32.999a.262.262 0 0 1-.217-.113.265.265 0 0 1-.032-.243 6.708 6.708 0 0 0-.495-5.557 9.706 9.706 0 0 0-5.984-4.692 20.32 20.32 0 0 0-5.33-.35c-3.013.071-5.858.137-8.424-2.13-2.926-2.584-2.558-4.365-1.097-7.547.234-.504.496-.995.784-1.47.65-1.105.749-1.274-.53-2.91-1.4-1.786-4.877-2.886-7.67-3.77a33.953 33.953 0 0 1-3.222-1.127.264.264 0 1 1 .214-.484c.822.365 1.962.726 3.168 1.107 3.012.954 6.426 2.033 7.926 3.948 1.443 1.842 1.309 2.246.57 3.503-.279.46-.532.935-.76 1.422-1.514 3.297-1.578 4.683.967 6.93 2.411 2.13 5.155 2.064 8.059 1.997 1.83-.12 3.669.002 5.468.365a10.272 10.272 0 0 1 6.325 4.96 7.172 7.172 0 0 1 .525 5.988.268.268 0 0 1-.245.173Zm-2.859-14.624h-.031a.263.263 0 0 1-.233-.293c.299-2.618-2.822-3.16-5.575-3.638-2.027-.352-3.778-.657-4.149-1.738-.238-.699.143-1.563 1.206-2.718a.269.269 0 0 1 .286-.07c.033.012.063.03.088.053a.269.269 0 0 1 .07.286.274.274 0 0 1-.053.088c-.892.972-1.26 1.71-1.097 2.194.267.784 1.952 1.077 3.736 1.387 2.836.492 6.366 1.106 6.011 4.22a.266.266 0 0 1-.259.229Zm-12.888 89.155c-2.505 0-5.068-.59-8.19-1.745a.263.263 0 0 1-.153-.339.264.264 0 0 1 .337-.157c6.714 2.484 10.784 2.289 17.424-.834 2.828-1.33 8.295-5.408 8.741-9.249.18-1.544-.473-2.919-1.941-4.085a.266.266 0 0 1-.043-.372.267.267 0 0 1 .372-.043c1.621 1.288 2.341 2.824 2.138 4.562-.499 4.285-6.418 8.432-9.041 9.666-3.708 1.744-6.634 2.596-9.644 2.596Zm7.745 5.409a36.171 36.171 0 0 1-5.711-.465.26.26 0 0 1-.173-.107.263.263 0 0 1 .06-.371.263.263 0 0 1 .198-.046c6.878 1.112 15.932.485 18.798-4.949a.265.265 0 0 1 .468.247c-2.23 4.23-7.952 5.691-13.64 5.691ZM34.346 83.548a.266.266 0 0 1-.085-.015 14.485 14.485 0 0 0-4.069-.542c-.62-.024-1.265-.048-1.889-.11-9.003-.86-14.581-3.642-18.651-9.299a.264.264 0 1 1 .429-.309c3.972 5.52 9.437 8.237 18.272 9.082.61.059 1.245.083 1.86.107a14.89 14.89 0 0 1 4.218.572.264.264 0 0 1-.085.516v-.002ZM12.093 127.42a.27.27 0 0 1-.196-.086c-3.246-3.577-4.452-7.893-3.397-12.154.7-2.689 2.16-5.121 4.207-7.001a5.119 5.119 0 0 1-2.184-1.97c-1.097-1.896-.532-4.292 1.59-6.746 3.824-4.421 8.739-4.941 14.947-4.362a.265.265 0 0 1-.048.527c-6.042-.564-10.82-.069-14.497 4.181-1.964 2.271-2.508 4.45-1.533 6.135a4.674 4.674 0 0 0 2.158 1.841 18.705 18.705 0 0 1 5.979-3.493c2.156-.782 3.753-.827 4.503-.129a1.347 1.347 0 0 1 .33 1.42c-.338 1.174-1.975 2.686-4.77 3.228a10.67 10.67 0 0 1-5.95-.396 13.965 13.965 0 0 0-4.215 6.893c-1.012 4.084.151 8.228 3.275 11.67a.265.265 0 0 1-.196.442h-.003Zm1.596-19.411c1.74.567 3.599.665 5.389.283 2.462-.477 4.059-1.798 4.362-2.856a.84.84 0 0 0-.182-.886c-.579-.54-2.06-.45-3.961.238a18.243 18.243 0 0 0-5.608 3.221Zm34.963-89.317a.264.264 0 0 1-.236-.143c-2.05-4.002-2.05-10.81-.004-15.176a.265.265 0 0 1 .48.225c-1.955 4.165-1.955 10.9-.004 14.71a.266.266 0 0 1-.107.35.264.264 0 0 1-.129.035v-.001Zm-6.992-6.04a.262.262 0 0 1-.221-.12 81.803 81.803 0 0 0-.855-1.252c-2.15-3.119-4.006-5.813-2.998-10.082a.264.264 0 0 1 .515.121c-.953 4.041.755 6.521 2.919 9.661.282.409.57.826.858 1.258a.264.264 0 0 1-.073.368.26.26 0 0 1-.146.046Z"/><path fill="#fff" d="M65.652 55.817a8.413 8.413 0 0 1-5.58-14.32 8.42 8.42 0 1 0 5.58 14.32Z"/><path fill="#6B4DBC" d="M58.212 50.47a8.416 8.416 0 0 0 7.44 5.349 8.44 8.44 0 0 0 2.044-3.4 5.261 5.261 0 0 1-6.843-4.168 1.72 1.72 0 1 1 .552-3.31 5.246 5.246 0 0 1 2.473-2.321 8.44 8.44 0 0 0-3.807-1.122 8.416 8.416 0 0 0-1.859 8.972Z"/><path fill="#000" d="M61.406 44.94a1.714 1.714 0 0 1-.552 3.31 5.26 5.26 0 0 0 6.841 4.168 8.398 8.398 0 0 0-3.814-9.799 5.245 5.245 0 0 0-2.475 2.322Z"/><path fill="#fff" d="M62.368 45.91a1.704 1.704 0 1 0-.982 2.234 1.718 1.718 0 0 0 .982-2.234Zm23.064 13.723a8.412 8.412 0 0 1-5.58-14.32 8.419 8.419 0 1 0 5.58 14.32Z"/><path fill="#6B4DBC" d="M77.991 54.284a8.417 8.417 0 0 0 7.44 5.35 8.44 8.44 0 0 0 2.044-3.401 5.262 5.262 0 0 1-6.843-4.167 1.721 1.721 0 1 1 .552-3.31 5.245 5.245 0 0 1 2.473-2.322 8.436 8.436 0 0 0-3.806-1.12 8.416 8.416 0 0 0-1.86 8.97Z"/><path fill="#000" d="M81.186 48.756a1.72 1.72 0 0 1-.02 3.203c-.17.064-.35.1-.531.107a5.263 5.263 0 0 0 6.842 4.167 8.399 8.399 0 0 0-3.815-9.799 5.246 5.246 0 0 0-2.476 2.322Z"/><path fill="#fff" d="M82.148 49.724a1.727 1.727 0 0 0-3.335.578 1.725 1.725 0 0 0 1.822 1.763 1.7 1.7 0 0 0 .532-.107 1.726 1.726 0 0 0 .981-2.234Z"/></svg>