<svg xmlns="http://www.w3.org/2000/svg" width="2130" height="211" fill="none"><g clip-path="url(#a)"><path fill="#189E71" d="m1500.38 208.198 12.46 22.285 12.46 22.28-25.54-.342-25.52-.352 13.07-21.939 13.07-21.932Z"/><path fill="#492991" d="M-19.475 212v-64.464H2201V212H-19.475Z"/><path fill="#fff" d="m562.255 57.602 24.119 31.587 30.311-23.46-24.118-31.588-30.312 23.46Z"/><path fill="#8C694D" d="m586.352 89.199 18.289-39.284 12.024 15.821-30.313 23.463Z" opacity=".2"/><path fill="#fff" d="m306.73 123.906 31.74-23.917-23.268-30.46-31.74 23.917 23.268 30.46Z"/><path fill="#8C694D" d="m338.479 100.011-39.167-18.539 15.898-11.924 23.269 30.463Z" opacity=".2"/><path fill="#189E71" d="m305.467 197.42 9.903 23.534 9.902 23.529-25.339-3.185-25.324-3.192 15.426-20.347 15.432-20.339Z"/><path fill="#fff" d="m1070.02 69.834-25.16 30.767 29.84 24.066 25.15-30.767-29.83-24.067Z"/><path fill="#8C694D" d="m1044.86 100.589 42.44 8.711-12.61 15.357-29.83-24.068Z" opacity=".2"/><path stroke="#B8B2D8" stroke-width="21.422" d="M1125.64 201.092c-6.81 4.869-20.45 15.579-39.92 21.422-20.86 6.256-47.71 3.895-69.14-13.633-21.418-17.527-35.05-27.264-62.315-32.133-27.914-4.985-67.188.974-93.479 11.685-26.291 10.711-37.976 33.107-39.923 50.635-1.948 17.527 10.711 35.054 34.081 33.107 23.369-1.948 61.345-33.107 82.768-71.083 21.422-37.976 23.369-64.27 11.684-82.769-8.139-12.886-35.054-17.529-55.503-13.635-42.844 8.16-64.267 28.241-109.059 41.872-32.081 9.763-57.45 9.183-66.214 2.924-8.764-6.26-17.527-14.606-17.527-34.083 5.518-45.44-21.422-122.689-173.326-68.16-189.879 68.16-227.66 184.835-185.984 212.276 39.93 26.291 92.512-13.632 75.958-54.529-12.166-30.059-82.82-88.869-209.354-13.633C136.33 234.2 92.512 278.992 8.77 269.254c-66.993-7.789-90.882-14.93-94.452-17.527m1210.352-49.663c7.79-5.843 21.26-13.352 37.58-25.485 23.77-17.674 58.98-45.326 102.64-55.336 46.72-10.711 78.73 8.78 99.35 27.265 18.47 16.554 67.86 20.518 95.4 13.632 42.84-10.711 70.1-35.054 57.45-59.398-8.14-15.646-43.82-33.107-111.98 0-21.09 10.246-64.27 40.899-93.5 81.34-25.54 35.337-22.36 62.047-7.77 78.355 33.1 37.003 115.05-8.67 133.39-18.5 54.53-29.212 114.8-59.201 155.8-81.797 47.72-26.291 100.31-39.92 150.94-15.579 50.63 24.341 21.54 71.166 23.36 90.558-5.19 22.395 1.37 61.149 69.15 37.002 67.77-24.147 116.51-79.52 132.42-104.189 16.88-26.615 58.82-75.366 91.53-57.449"/><path fill="#9087C1" d="m956.213 187.459-22.396-1.947 16.553 14.606 5.843-12.659Z"/><path stroke="#000" stroke-linecap="round" stroke-width="1.363" d="M757.57 70.61c1.947 2.597 6.816 8.764 10.711 12.659 3.895 3.895 10.062 8.764 12.659 10.711m-24.344-8.763 10.711 12.658m170.405-50.634c3.245 2.596 10.516 8.958 13.632 13.632 3.116 4.674 5.842 10.387 6.816 12.659m-72.057-1.948c7.79-.974 25.902-2.337 36.029 0 12.658 2.921 26.291 7.79 33.107 16.554 5.453 7.01 8.764 16.553 9.737 20.448m69.134 5.843c1.3 2.272 4.29 7.205 5.84 8.763m0-14.606 19.48 18.501m-232.725 37.976c-5.518 2.272-18.111 9.348-24.343 19.475-7.79 12.659-10.711 31.16-4.869 46.74 5.843 15.579 25.317 19.474 27.265 20.448 1.947.974 15.58 2.921 18.501 2.921m-65.241-37.002c-1.623 3.571-4.089 12.464-.973 19.475 3.895 8.764 11.566 10.996 13.632 11.685 2.921.974 7.79.974 9.737.974m688.696-121.12c4.65-3.741 14.73-14.091 17.84-25.568 3.89-14.346 1.45-32.917-8.56-46.207s-29.79-11.513-31.94-11.896c-2.14-.383-15.77 1.607-18.57 2.434m73.05 17.026c.54-3.884.39-13.112-4.58-18.954-6.22-7.303-14.21-7.273-16.38-7.35-3.08-.107-7.75 1.271-9.62 1.822M363.782 241.323c3.56 4.789 13.518 15.254 24.867 18.803 14.186 4.435 32.837 2.714 46.5-6.783 13.663-9.497 12.646-29.331 13.11-31.458.465-2.128-1.002-15.82-1.721-18.651m-19.81 72.339c3.86.695 13.087.897 19.116-3.848 7.535-5.932 7.812-13.917 7.971-16.089.225-3.071-.974-7.79-1.453-9.677"/><path fill="#189E71" d="m796.958 33.887-3.465 25.297-3.462 25.291-20.185-15.646-20.167-15.645 23.639-9.654 23.64-9.643Z"/><path fill="#8C694D" d="m749.673 53.19 43.316 9.684-2.965 21.608-40.351-31.292Z" opacity=".2"/><path fill="#189E71" d="m1612.4 89.7-9.81 18.549-9.82 18.546-11.16-17.777-11.15-17.77 20.97-.779 20.97-.77Z"/><path fill="#8C694D" d="m1570.45 91.25 30.7 19.704-8.39 15.843-22.31-35.547Z" opacity=".2"/><path fill="#189E71" d="m1126.18 124.434 17.67 18.438 17.66 18.433-24.81 6.086-24.79 6.074 7.13-24.519 7.14-24.512Z"/><path fill="#8C694D" d="m1111.92 173.474 34.51-27.912 15.08 15.753-49.59 12.159Z" opacity=".2"/><path fill="#189E71" d="m513.113 182.528 21.202 14.226 21.199 14.223-22.923 11.258-22.915 11.243 1.714-25.477 1.723-25.473Z"/><path fill="#8C694D" d="m509.684 233.485 27.73-34.657 18.108 12.156-45.838 22.501Z" opacity=".2"/><path fill="#FF7F00" d="m970.982 43.482 14.309 55.684 19.269-4.95-14.311-55.685-19.267 4.95Z"/><path fill="#D96C00" d="m985.281 99.178 12.136-32.8 7.133 27.849-19.269 4.951Z"/><path fill="#FF7F00" d="m662.643 108.713-43.288 37.836 13.091 14.978 43.289-37.836-13.092-14.978Z"/><path fill="#D96C00" d="m619.339 146.545 34.753-3.922-21.66 18.901-13.093-14.979Z"/><path fill="#FF7F00" d="m1595.15 191.488 14.31 55.684 19.27-4.951-14.31-55.684-19.27 4.951ZM1225.1 196.5l52.8-22.76-7.88-18.268-52.8 22.761 7.88 18.267Z"/><path fill="#D96C00" d="m1277.91 173.748-34.28-6.909 26.4-11.36 7.88 18.269Z"/><path fill="#9087C1" d="m725.436 164.09 7.79.973h5.843l13.343-.973-7.339-16.52-28.659 12.959 9.022 3.561Z"/><path fill="#fff" d="m708.206 169.204 16.136 36.319 34.925-15.792-16.136-36.319-34.925 15.792Z"/><path fill="#8C694D" d="m724.315 205.527 26.9-33.972 8.028 18.179-34.928 15.793Z" opacity=".2"/><path fill="#9087C1" d="m1685.54 144.614 6.82 2.887 4.87-2.887 14.32 1.914-7.34-16.52-29.38 14.606h10.71Z"/><path fill="#fff" d="m1667.34 151.642 16.14 36.319 34.92-15.792-16.13-36.319-34.93 15.792Z"/><path fill="#8C694D" d="m1683.45 187.966 26.9-33.972 8.03 18.178-34.93 15.794Z" opacity=".2"/><path fill="#FF7F00" d="m1064.45 178.387-21.53 48.95 16.94 7.449 21.53-48.949-16.94-7.45Z"/><path fill="#D96C00" d="m1042.89 227.338 27.72-17.017-10.78 24.467-16.94-7.45Z"/><path fill="#9087C1" d="m1387.7 95.66-6.8 16.495 16.41 7.141.98-.974 15.58-31.16s-14.61 6.816-16.56 6.816c-1.95 0-9.61 1.681-9.61 1.681Z"/><path fill="#FF7F00" d="m1400.49 59.319-21.53 48.95 16.94 7.449 21.53-48.95-16.94-7.45Z"/><path fill="#D96C00" d="m1378.93 108.27 27.73-17.017-10.79 24.467-16.94-7.45Z"/><path fill="#9087C1" d="m463.269 90.349 5.752-16.89-15.255-5.768-2.921 1.948-13.633 32.13s14.622-9.016 16.566-9.139c1.944-.122 9.491-2.281 9.491-2.281Z"/><path fill="#FF7F00" d="m452.779 127.421 18.415-50.205-17.372-6.371-18.415 50.205 17.372 6.371Z"/><path fill="#D96C00" d="m471.222 77.213-26.6 18.724 9.228-25.096 17.372 6.372Z"/><path stroke="#000" stroke-linecap="round" stroke-width="1.363" d="M352.782 79.194c-1.161-2.345-3.847-7.448-5.31-9.096m-.871 14.58-18.336-19.63M1894.74 194.483c-.22-2.608-.84-8.341-1.59-10.411m-6.17 13.237-9.83-24.998m-306.73-56.986 9.87 13.322m161.77-46.202c4.83 1.798 12.61 5.693 21.38 17.378 3.38 4.492 8.05 14.488 8.88 16.818m-71.78-6.583c7.83-.47 26.5.025 36.61 2.424 17.53 4.159 31.32 13.514 37.98 22.396 8.76 11.685 11.94 27.21 12.66 31.16M530.682 179.669l20.448 20.449m5.907-195.113c7.694-1.558 20.316-2.453 30.707-2.685 13.768-.307 31.989 1.652 42.538 5.113 33.024 10.834 42.472 24 43.736 27.811M164.803 237.888c-5.621 5.48-15.743 13.075-24.348 18.902-11.403 7.722-27.776 15.954-38.517 18.764-33.624 8.798-48.7 2.856-51.829.339"/></g><defs><clipPath id="a"><path fill="#fff" d="M0 0h2130v211H0z"/></clipPath></defs></svg>