<svg xmlns="http://www.w3.org/2000/svg" width="375" height="862" fill="none"><g clip-path="url(#a)"><path fill="#EAEBE3" d="M0 0h375v862H0z"/><path fill="#020202" d="M33 49.436v2.034h-5.238v3.222h4.014v1.998h-4.014V62h-2.52V49.436H33Zm3.899 4.14a3.567 3.567 0 0 1 1.26-1.242c.528-.3 1.128-.45 1.8-.45v2.646h-.666c-.792 0-1.392.186-1.8.558-.396.372-.594 1.02-.594 1.944V62h-2.52v-9.972h2.52v1.548Zm5.627-2.736c-.444 0-.816-.138-1.116-.414a1.444 1.444 0 0 1-.432-1.062c0-.42.144-.768.432-1.044.3-.288.672-.432 1.116-.432.444 0 .81.144 1.098.432.3.276.45.624.45 1.044 0 .42-.15.774-.45 1.062-.288.276-.654.414-1.098.414Zm1.242 1.188V62h-2.52v-9.972h2.52Zm1.434 4.95c0-1.008.198-1.902.594-2.682.408-.78.96-1.38 1.656-1.8.696-.42 1.47-.63 2.322-.63.648 0 1.266.144 1.854.432.588.276 1.056.648 1.404 1.116V48.68h2.556V62h-2.556v-1.476c-.312.492-.75.888-1.314 1.188-.564.3-1.218.45-1.962.45-.84 0-1.608-.216-2.304-.648-.696-.432-1.248-1.038-1.656-1.818-.396-.792-.594-1.698-.594-2.718Zm7.848.036c0-.612-.12-1.134-.36-1.566a2.463 2.463 0 0 0-.972-1.008 2.548 2.548 0 0 0-1.314-.36c-.468 0-.9.114-1.296.342-.396.228-.72.564-.972 1.008-.24.432-.36.948-.36 1.548 0 .6.12 1.128.36 1.584.252.444.576.786.972 1.026.408.24.84.36 1.296.36a2.65 2.65 0 0 0 1.314-.342c.408-.24.732-.576.972-1.008.24-.444.36-.972.36-1.584Zm3.943-.036c0-1.008.198-1.902.594-2.682.408-.78.954-1.38 1.638-1.8.696-.42 1.47-.63 2.322-.63.744 0 1.392.15 1.944.45.564.3 1.014.678 1.35 1.134v-1.422h2.538V62h-2.538v-1.458c-.324.468-.774.858-1.35 1.17-.564.3-1.218.45-1.962.45-.84 0-1.608-.216-2.304-.648-.684-.432-1.23-1.038-1.638-1.818-.396-.792-.594-1.698-.594-2.718Zm7.848.036c0-.612-.12-1.134-.36-1.566a2.463 2.463 0 0 0-.972-1.008 2.548 2.548 0 0 0-1.314-.36c-.468 0-.9.114-1.296.342-.396.228-.72.564-.972 1.008-.24.432-.36.948-.36 1.548 0 .6.12 1.128.36 1.584.252.444.576.786.972 1.026.408.24.84.36 1.296.36a2.65 2.65 0 0 0 1.314-.342c.408-.24.732-.576.972-1.008.24-.444.36-.972.36-1.584Zm14.132-4.986-6.174 14.688h-2.683l2.16-4.968-3.995-9.72h2.825l2.575 6.966 2.61-6.966h2.681Zm4.237-.828v-2.322h4.338V62h-2.592V51.2H83.21Zm6.456 1.134c.06-1.2.48-2.124 1.26-2.772.791-.66 1.83-.99 3.114-.99.875 0 1.625.156 2.25.468.623.3 1.091.714 1.403 1.242.325.516.487 1.104.487 1.764 0 .756-.199 1.398-.595 1.926-.383.516-.845.864-1.385 1.044v.072c.695.216 1.236.6 1.62 1.152.396.552.594 1.26.594 2.124 0 .72-.168 1.362-.505 1.926-.324.564-.81 1.008-1.458 1.332-.635.312-1.403.468-2.303.468-1.356 0-2.46-.342-3.313-1.026-.851-.684-1.301-1.692-1.35-3.024h2.448c.024.588.222 1.062.594 1.422.385.348.906.522 1.567.522.612 0 1.08-.168 1.404-.504.335-.348.503-.792.503-1.332 0-.72-.228-1.236-.684-1.548-.455-.312-1.163-.468-2.123-.468h-.523v-2.07h.522c1.704 0 2.556-.57 2.556-1.71 0-.516-.155-.918-.468-1.206-.3-.288-.738-.432-1.314-.432-.564 0-1.001.156-1.314.468-.3.3-.474.684-.522 1.152h-2.466Zm13.553 1.764v4.824c0 .336.078.582.234.738.168.144.444.216.828.216h1.17V62h-1.584c-2.124 0-3.186-1.032-3.186-3.096v-4.806h-1.188v-2.07h1.188v-2.466h2.538v2.466h2.232v2.07h-2.232Zm9.252-2.214c.756 0 1.428.168 2.016.504.588.324 1.044.81 1.368 1.458.336.636.504 1.404.504 2.304V62h-2.52v-5.508c0-.792-.198-1.398-.594-1.818-.396-.432-.936-.648-1.62-.648-.696 0-1.248.216-1.656.648-.396.42-.594 1.026-.594 1.818V62h-2.52V48.68h2.52v4.59a3.214 3.214 0 0 1 1.296-1.008 4.205 4.205 0 0 1 1.8-.378Zm14.15-2.448c1.32 0 2.478.258 3.474.774a5.446 5.446 0 0 1 2.322 2.214c.552.948.828 2.052.828 3.312 0 1.26-.276 2.364-.828 3.312-.54.936-1.314 1.662-2.322 2.178-.996.516-2.154.774-3.474.774h-4.392V49.436h4.392Zm-.09 10.422c1.32 0 2.34-.36 3.06-1.08.72-.72 1.08-1.734 1.08-3.042 0-1.308-.36-2.328-1.08-3.06-.72-.744-1.74-1.116-3.06-1.116h-1.782v8.298h1.782Zm17.462-3.06c0 .36-.024.684-.072.972h-7.29c.06.72.312 1.284.756 1.692.444.408.99.612 1.638.612.936 0 1.602-.402 1.998-1.206h2.718a4.588 4.588 0 0 1-1.656 2.376c-.816.612-1.818.918-3.006.918-.96 0-1.824-.21-2.592-.63a4.637 4.637 0 0 1-1.782-1.818c-.42-.78-.63-1.68-.63-2.7 0-1.032.21-1.938.63-2.718a4.396 4.396 0 0 1 1.764-1.8c.756-.42 1.626-.63 2.61-.63.948 0 1.794.204 2.538.612.756.408 1.338.99 1.746 1.746.42.744.63 1.602.63 2.574Zm-2.61-.72c-.012-.648-.246-1.164-.702-1.548-.456-.396-1.014-.594-1.674-.594-.624 0-1.152.192-1.584.576-.42.372-.678.894-.774 1.566h4.734Zm3.394.936c0-1.032.21-1.932.63-2.7a4.428 4.428 0 0 1 1.746-1.8c.744-.432 1.596-.648 2.556-.648 1.236 0 2.256.312 3.06.936.816.612 1.362 1.476 1.638 2.592h-2.718a1.923 1.923 0 0 0-.738-1.008c-.336-.252-.756-.378-1.26-.378-.72 0-1.29.264-1.71.792-.42.516-.63 1.254-.63 2.214 0 .948.21 1.686.63 2.214.42.516.99.774 1.71.774 1.02 0 1.686-.456 1.998-1.368h2.718c-.276 1.08-.822 1.938-1.638 2.574-.816.636-1.836.954-3.06.954-.96 0-1.812-.21-2.556-.63a4.58 4.58 0 0 1-1.746-1.8c-.42-.78-.63-1.686-.63-2.718Zm15.453 2.142a70.06 70.06 0 0 0 2.754-2.394 11.395 11.395 0 0 0 1.71-2.016c.456-.696.684-1.38.684-2.052 0-.612-.144-1.092-.432-1.44-.288-.348-.732-.522-1.332-.522-.6 0-1.062.204-1.386.612-.324.396-.492.942-.504 1.638h-2.448c.048-1.44.474-2.532 1.278-3.276.816-.744 1.848-1.116 3.096-1.116 1.368 0 2.418.366 3.15 1.098.732.72 1.098 1.674 1.098 2.862 0 .936-.252 1.83-.756 2.682a10.833 10.833 0 0 1-1.728 2.232 57.018 57.018 0 0 1-2.538 2.268h5.31v2.088h-8.892v-1.872l.936-.792Zm9.136-3.888c0-2.076.372-3.702 1.116-4.878.756-1.176 2.004-1.764 3.744-1.764 1.74 0 2.982.588 3.726 1.764.756 1.176 1.134 2.802 1.134 4.878 0 2.088-.378 3.726-1.134 4.914-.744 1.188-1.986 1.782-3.726 1.782s-2.988-.594-3.744-1.782c-.744-1.188-1.116-2.826-1.116-4.914Zm7.236 0c0-.888-.06-1.632-.18-2.232-.108-.612-.336-1.11-.684-1.494-.336-.384-.84-.576-1.512-.576s-1.182.192-1.53.576c-.336.384-.564.882-.684 1.494-.108.6-.162 1.344-.162 2.232 0 .912.054 1.68.162 2.304.108.612.336 1.11.684 1.494.348.372.858.558 1.53.558s1.182-.186 1.53-.558c.348-.384.576-.882.684-1.494.108-.624.162-1.392.162-2.304Zm4.784 3.888a70.06 70.06 0 0 0 2.754-2.394 11.395 11.395 0 0 0 1.71-2.016c.456-.696.684-1.38.684-2.052 0-.612-.144-1.092-.432-1.44-.288-.348-.732-.522-1.332-.522-.6 0-1.062.204-1.386.612-.324.396-.492.942-.504 1.638h-2.448c.048-1.44.474-2.532 1.278-3.276.816-.744 1.848-1.116 3.096-1.116 1.368 0 2.418.366 3.15 1.098.732.72 1.098 1.674 1.098 2.862 0 .936-.252 1.83-.756 2.682a10.833 10.833 0 0 1-1.728 2.232 57.018 57.018 0 0 1-2.538 2.268h5.31v2.088h-8.892v-1.872l.936-.792Zm9.172-6.822c.06-1.2.48-2.124 1.26-2.772.792-.66 1.83-.99 3.114-.99.876 0 1.626.156 2.25.468.624.3 1.092.714 1.404 1.242.324.516.486 1.104.486 1.764 0 .756-.198 1.398-.594 1.926-.384.516-.846.864-1.386 1.044v.072c.696.216 1.236.6 1.62 1.152.396.552.594 1.26.594 2.124 0 .72-.168 1.362-.504 1.926-.324.564-.81 1.008-1.458 1.332-.636.312-1.404.468-2.304.468-1.356 0-2.46-.342-3.312-1.026-.852-.684-1.302-1.692-1.35-3.024h2.448c.024.588.222 1.062.594 1.422.384.348.906.522 1.566.522.612 0 1.08-.168 1.404-.504.336-.348.504-.792.504-1.332 0-.72-.228-1.236-.684-1.548-.456-.312-1.164-.468-2.124-.468h-.522v-2.07h.522c1.704 0 2.556-.57 2.556-1.71 0-.516-.156-.918-.468-1.206-.3-.288-.738-.432-1.314-.432-.564 0-1.002.156-1.314.468-.3.3-.474.684-.522 1.152h-2.466Zm-92.574 62.498-3.776 7.28V126h-2.24v-3.888l-3.792-7.28h2.528l2.4 5.104 2.384-5.104h2.496Zm4.82 11.312c-.853 0-1.621-.187-2.304-.56a4.202 4.202 0 0 1-1.616-1.616c-.384-.693-.576-1.493-.576-2.4 0-.907.197-1.707.592-2.4a4.167 4.167 0 0 1 1.648-1.6c.693-.384 1.467-.576 2.32-.576.853 0 1.627.192 2.32.576a4.065 4.065 0 0 1 1.632 1.6c.405.693.608 1.493.608 2.4 0 .907-.208 1.707-.624 2.4a4.252 4.252 0 0 1-1.664 1.616c-.693.373-1.472.56-2.336.56Zm0-1.952c.405 0 .784-.096 1.136-.288.363-.203.651-.501.864-.896.213-.395.32-.875.32-1.44 0-.843-.224-1.488-.672-1.936a2.143 2.143 0 0 0-1.616-.688c-.64 0-1.179.229-1.616.688-.427.448-.64 1.093-.64 1.936s.208 1.493.624 1.952c.427.448.96.672 1.6.672Zm14.227-7.056V126h-2.256v-1.12a3.015 3.015 0 0 1-1.136.912c-.459.213-.96.32-1.504.32-.693 0-1.307-.144-1.84-.432a3.22 3.22 0 0 1-1.264-1.296c-.299-.576-.448-1.259-.448-2.048v-5.2h2.24v4.88c0 .704.176 1.248.528 1.632.352.373.832.56 1.44.56.619 0 1.104-.187 1.456-.56.352-.384.528-.928.528-1.632v-4.88h2.256Zm4.042 1.376a3.173 3.173 0 0 1 1.12-1.104c.469-.267 1.003-.4 1.6-.4v2.352h-.592c-.704 0-1.237.165-1.6.496-.352.331-.528.907-.528 1.728V126h-2.24v-8.864h2.24v1.376Zm16.489-3.68V126h-2.24v-4.752h-4.784V126h-2.24v-11.168h2.24v4.592h4.784v-4.592h2.24Zm2.933 1.248c-.395 0-.725-.123-.992-.368a1.284 1.284 0 0 1-.384-.944c0-.373.128-.683.384-.928.267-.256.597-.384.992-.384s.72.128.976.384c.267.245.4.555.4.928s-.133.688-.4.944c-.256.245-.581.368-.976.368Zm1.104 1.056V126h-2.24v-8.864h2.24Zm5.277-.144c.662 0 1.243.133 1.744.4a3.14 3.14 0 0 1 1.184 1.008v-1.264h2.256v8.928c0 .821-.165 1.552-.496 2.192a3.61 3.61 0 0 1-1.488 1.536c-.661.384-1.461.576-2.4.576-1.258 0-2.293-.293-3.104-.88-.8-.587-1.253-1.387-1.36-2.4h2.224c.118.405.368.725.752.96.395.245.87.368 1.424.368.651 0 1.179-.197 1.584-.592.406-.384.608-.971.608-1.76v-1.376c-.288.416-.688.763-1.2 1.04-.501.277-1.077.416-1.728.416a3.81 3.81 0 0 1-2.048-.576c-.618-.384-1.109-.923-1.472-1.616-.352-.704-.528-1.509-.528-2.416 0-.896.176-1.691.528-2.384.363-.693.848-1.227 1.456-1.6a3.922 3.922 0 0 1 2.064-.56Zm2.928 4.576c0-.544-.106-1.008-.32-1.392a2.185 2.185 0 0 0-.864-.896 2.266 2.266 0 0 0-1.168-.32c-.416 0-.8.101-1.152.304-.352.203-.64.501-.864.896-.213.384-.32.843-.32 1.376 0 .533.107 1.003.32 1.408.224.395.512.699.864.912.363.213.747.32 1.152.32a2.35 2.35 0 0 0 1.168-.304 2.32 2.32 0 0 0 .864-.896c.214-.395.32-.864.32-1.408Zm9.028-4.56c.672 0 1.269.149 1.792.448.523.288.928.72 1.216 1.296.299.565.448 1.248.448 2.048v5.2h-2.24v-4.896c0-.704-.176-1.243-.528-1.616-.352-.384-.832-.576-1.44-.576-.619 0-1.109.192-1.472.576-.352.373-.528.912-.528 1.616V126h-2.24v-11.84h2.24v4.08a2.854 2.854 0 0 1 1.152-.896 3.736 3.736 0 0 1 1.6-.336Zm8.57 9.136c-.725 0-1.376-.128-1.952-.384-.576-.267-1.035-.624-1.376-1.072a2.725 2.725 0 0 1-.544-1.488h2.256c.043.341.208.624.496.848.299.224.667.336 1.104.336.427 0 .757-.085.992-.256.245-.171.368-.389.368-.656 0-.288-.149-.501-.448-.64-.288-.149-.752-.309-1.392-.48a12.242 12.242 0 0 1-1.632-.496 2.902 2.902 0 0 1-1.088-.784c-.299-.352-.448-.827-.448-1.424 0-.491.139-.939.416-1.344.288-.405.693-.725 1.216-.96.533-.235 1.157-.352 1.872-.352 1.056 0 1.899.267 2.528.8.629.523.976 1.232 1.04 2.128h-2.144a1.124 1.124 0 0 0-.448-.832c-.256-.213-.603-.32-1.04-.32-.405 0-.72.075-.944.224a.72.72 0 0 0-.32.624c0 .299.149.528.448.688.299.149.763.304 1.392.464.64.16 1.168.325 1.584.496.416.171.773.437 1.072.8.309.352.469.821.48 1.408 0 .512-.144.971-.432 1.376-.277.405-.683.725-1.216.96-.523.224-1.136.336-1.84.336ZM97.984 411.832l-3.776 7.28V423h-2.24v-3.888l-3.792-7.28h2.528l2.4 5.104 2.384-5.104h2.496Zm4.82 11.312c-.853 0-1.621-.187-2.304-.56a4.202 4.202 0 0 1-1.616-1.616c-.384-.693-.576-1.493-.576-2.4 0-.907.197-1.707.592-2.4a4.167 4.167 0 0 1 1.648-1.6c.693-.384 1.467-.576 2.32-.576.853 0 1.627.192 2.32.576a4.065 4.065 0 0 1 1.632 1.6c.405.693.608 1.493.608 2.4 0 .907-.208 1.707-.624 2.4a4.252 4.252 0 0 1-1.664 1.616c-.693.373-1.472.56-2.336.56Zm0-1.952c.405 0 .784-.096 1.136-.288.363-.203.651-.501.864-.896.213-.395.32-.875.32-1.44 0-.843-.224-1.488-.672-1.936a2.143 2.143 0 0 0-1.616-.688c-.64 0-1.179.229-1.616.688-.427.448-.64 1.093-.64 1.936s.208 1.493.624 1.952c.427.448.96.672 1.6.672Zm14.227-7.056V423h-2.256v-1.12a3.015 3.015 0 0 1-1.136.912c-.459.213-.96.32-1.504.32-.693 0-1.307-.144-1.84-.432a3.22 3.22 0 0 1-1.264-1.296c-.299-.576-.448-1.259-.448-2.048v-5.2h2.24v4.88c0 .704.176 1.248.528 1.632.352.373.832.56 1.44.56.619 0 1.104-.187 1.456-.56.352-.384.528-.928.528-1.632v-4.88h2.256Zm4.042 1.376a3.173 3.173 0 0 1 1.12-1.104c.469-.267 1.003-.4 1.6-.4v2.352h-.592c-.704 0-1.237.165-1.6.496-.352.331-.528.907-.528 1.728V423h-2.24v-8.864h2.24v1.376Zm9.465 5.712h3.68V423h-5.92v-11.168h2.24v9.392Zm8.632 1.92c-.853 0-1.621-.187-2.304-.56a4.203 4.203 0 0 1-1.616-1.616c-.384-.693-.576-1.493-.576-2.4 0-.907.197-1.707.592-2.4a4.168 4.168 0 0 1 1.648-1.6c.693-.384 1.467-.576 2.32-.576.853 0 1.627.192 2.32.576a4.065 4.065 0 0 1 1.632 1.6c.405.693.608 1.493.608 2.4 0 .907-.208 1.707-.624 2.4a4.252 4.252 0 0 1-1.664 1.616c-.693.373-1.472.56-2.336.56Zm0-1.952c.405 0 .784-.096 1.136-.288.363-.203.651-.501.864-.896.213-.395.32-.875.32-1.44 0-.843-.224-1.488-.672-1.936a2.143 2.143 0 0 0-1.616-.688c-.64 0-1.179.229-1.616.688-.427.448-.64 1.093-.64 1.936s.208 1.493.624 1.952c.427.448.96.672 1.6.672Zm18.147-7.056L154.725 423h-2.416l-1.616-6.192-1.616 6.192h-2.432l-2.608-8.864h2.272l1.568 6.752 1.696-6.752h2.368l1.664 6.736 1.568-6.736h2.144Zm4.196 9.008c-.725 0-1.376-.128-1.952-.384-.576-.267-1.034-.624-1.376-1.072a2.733 2.733 0 0 1-.544-1.488h2.256c.043.341.208.624.496.848.299.224.667.336 1.104.336.427 0 .758-.085.992-.256.246-.171.368-.389.368-.656 0-.288-.149-.501-.448-.64-.288-.149-.752-.309-1.392-.48a12.242 12.242 0 0 1-1.632-.496 2.91 2.91 0 0 1-1.088-.784c-.298-.352-.448-.827-.448-1.424 0-.491.139-.939.416-1.344.288-.405.694-.725 1.216-.96.534-.235 1.158-.352 1.872-.352 1.056 0 1.899.267 2.528.8.63.523.976 1.232 1.04 2.128h-2.144a1.124 1.124 0 0 0-.448-.832c-.256-.213-.602-.32-1.04-.32-.405 0-.72.075-.944.224a.72.72 0 0 0-.32.624c0 .299.15.528.448.688.299.149.763.304 1.392.464.64.16 1.168.325 1.584.496.416.171.774.437 1.072.8.31.352.47.821.48 1.408 0 .512-.144.971-.432 1.376-.277.405-.682.725-1.216.96-.522.224-1.136.336-1.84.336ZM97.984 653.832l-3.776 7.28V665h-2.24v-3.888l-3.792-7.28h2.528l2.4 5.104 2.384-5.104h2.496Zm4.82 11.312c-.853 0-1.621-.187-2.304-.56a4.202 4.202 0 0 1-1.616-1.616c-.384-.693-.576-1.493-.576-2.4 0-.907.197-1.707.592-2.4a4.167 4.167 0 0 1 1.648-1.6c.693-.384 1.467-.576 2.32-.576.853 0 1.627.192 2.32.576a4.065 4.065 0 0 1 1.632 1.6c.405.693.608 1.493.608 2.4 0 .907-.208 1.707-.624 2.4a4.252 4.252 0 0 1-1.664 1.616c-.693.373-1.472.56-2.336.56Zm0-1.952c.405 0 .784-.096 1.136-.288.363-.203.651-.501.864-.896.213-.395.32-.875.32-1.44 0-.843-.224-1.488-.672-1.936a2.143 2.143 0 0 0-1.616-.688c-.64 0-1.179.229-1.616.688-.427.448-.64 1.093-.64 1.936s.208 1.493.624 1.952c.427.448.96.672 1.6.672Zm14.227-7.056V665h-2.256v-1.12a3.015 3.015 0 0 1-1.136.912c-.459.213-.96.32-1.504.32-.693 0-1.307-.144-1.84-.432a3.22 3.22 0 0 1-1.264-1.296c-.299-.576-.448-1.259-.448-2.048v-5.2h2.24v4.88c0 .704.176 1.248.528 1.632.352.373.832.56 1.44.56.619 0 1.104-.187 1.456-.56.352-.384.528-.928.528-1.632v-4.88h2.256Zm4.042 1.376a3.173 3.173 0 0 1 1.12-1.104c.469-.267 1.003-.4 1.6-.4v2.352h-.592c-.704 0-1.237.165-1.6.496-.352.331-.528.907-.528 1.728V665h-2.24v-8.864h2.24v1.376ZM137.85 665h-2.24l-5.072-7.664V665h-2.24v-11.184h2.24l5.072 7.68v-7.68h2.24V665Zm10.046-4.624c0 .32-.021.608-.064.864h-6.48c.053.64.277 1.141.672 1.504s.88.544 1.456.544c.832 0 1.424-.357 1.776-1.072h2.416a4.083 4.083 0 0 1-1.472 2.112c-.725.544-1.616.816-2.672.816-.853 0-1.621-.187-2.304-.56a4.124 4.124 0 0 1-1.584-1.616c-.373-.693-.56-1.493-.56-2.4 0-.917.187-1.723.56-2.416a3.905 3.905 0 0 1 1.568-1.6c.672-.373 1.445-.56 2.32-.56.843 0 1.595.181 2.256.544.672.363 1.189.88 1.552 1.552.373.661.56 1.424.56 2.288Zm-2.32-.64c-.011-.576-.219-1.035-.624-1.376-.405-.352-.901-.528-1.488-.528-.555 0-1.024.171-1.408.512-.373.331-.603.795-.688 1.392h4.208Zm11.915-3.6V665h-2.256v-1.12a3.015 3.015 0 0 1-1.136.912c-.459.213-.96.32-1.504.32-.693 0-1.307-.144-1.84-.432a3.22 3.22 0 0 1-1.264-1.296c-.299-.576-.448-1.259-.448-2.048v-5.2h2.24v4.88c0 .704.176 1.248.528 1.632.352.373.832.56 1.44.56.619 0 1.104-.187 1.456-.56.352-.384.528-.928.528-1.632v-4.88h2.256Zm4.41 1.84v4.288c0 .299.069.517.208.656.149.128.395.192.736.192h1.04V665h-1.408c-1.888 0-2.832-.917-2.832-2.752v-4.272h-1.056v-1.84h1.056v-2.192h2.256v2.192h1.984v1.84h-1.984Zm5.427-.464a3.181 3.181 0 0 1 1.12-1.104c.47-.267 1.003-.4 1.6-.4v2.352h-.592c-.704 0-1.237.165-1.6.496-.352.331-.528.907-.528 1.728V665h-2.24v-8.864h2.24v1.376Zm3.245 3.024c0-.896.176-1.691.528-2.384.363-.693.848-1.227 1.456-1.6a3.922 3.922 0 0 1 2.064-.56c.661 0 1.237.133 1.728.4.501.267.901.603 1.2 1.008v-1.264h2.256V665h-2.256v-1.296c-.288.416-.688.763-1.2 1.04-.501.267-1.083.4-1.744.4a3.807 3.807 0 0 1-2.048-.576c-.608-.384-1.093-.923-1.456-1.616-.352-.704-.528-1.509-.528-2.416Zm6.976.032c0-.544-.107-1.008-.32-1.392a2.185 2.185 0 0 0-.864-.896 2.269 2.269 0 0 0-1.168-.32c-.416 0-.8.101-1.152.304-.352.203-.64.501-.864.896-.213.384-.32.843-.32 1.376 0 .533.107 1.003.32 1.408.224.395.512.699.864.912.363.213.747.32 1.152.32.416 0 .805-.101 1.168-.304a2.32 2.32 0 0 0 .864-.896c.213-.395.32-.864.32-1.408Zm6.276-7.408V665h-2.24v-11.84h2.24Zm7.497 9.952h5.024V665h-7.616v-1.728l4.992-7.552h-4.992v-1.888h7.616v1.728l-5.024 7.552Zm10.459 2.032c-.853 0-1.621-.187-2.304-.56a4.203 4.203 0 0 1-1.616-1.616c-.384-.693-.576-1.493-.576-2.4 0-.907.197-1.707.592-2.4a4.168 4.168 0 0 1 1.648-1.6c.693-.384 1.467-.576 2.32-.576.853 0 1.627.192 2.32.576a4.065 4.065 0 0 1 1.632 1.6c.405.693.608 1.493.608 2.4 0 .907-.208 1.707-.624 2.4a4.252 4.252 0 0 1-1.664 1.616c-.693.373-1.472.56-2.336.56Zm0-1.952c.405 0 .784-.096 1.136-.288.363-.203.651-.501.864-.896.213-.395.32-.875.32-1.44 0-.843-.224-1.488-.672-1.936a2.143 2.143 0 0 0-1.616-.688c-.64 0-1.179.229-1.616.688-.427.448-.64 1.093-.64 1.936s.208 1.493.624 1.952c.427.448.96.672 1.6.672Zm10.771-7.184c1.056 0 1.91.336 2.56 1.008.651.661.976 1.589.976 2.784v5.2h-2.24v-4.896c0-.704-.176-1.243-.528-1.616-.352-.384-.832-.576-1.44-.576-.618 0-1.109.192-1.472.576-.352.373-.528.912-.528 1.616V665h-2.24v-8.864h2.24v1.104a3.042 3.042 0 0 1 1.136-.896c.47-.224.982-.336 1.536-.336Zm13.498 4.368c0 .32-.021.608-.064.864h-6.48c.054.64.278 1.141.672 1.504.395.363.88.544 1.456.544.832 0 1.424-.357 1.776-1.072h2.416a4.077 4.077 0 0 1-1.472 2.112c-.725.544-1.616.816-2.672.816-.853 0-1.621-.187-2.304-.56a4.124 4.124 0 0 1-1.584-1.616c-.373-.693-.56-1.493-.56-2.4 0-.917.187-1.723.56-2.416a3.911 3.911 0 0 1 1.568-1.6c.672-.373 1.446-.56 2.32-.56.843 0 1.595.181 2.256.544a3.75 3.75 0 0 1 1.552 1.552c.374.661.56 1.424.56 2.288Zm-2.32-.64c-.01-.576-.218-1.035-.624-1.376-.405-.352-.901-.528-1.488-.528-.554 0-1.024.171-1.408.512-.373.331-.602.795-.688 1.392h4.208Z"/><path fill="#000" d="M34.976 159.312V169h-1.274v-7.224L30.482 169h-.896l-3.234-7.238V169h-1.274v-9.688h1.372l3.584 8.008 3.584-8.008h1.358Zm5.099 9.814a3.963 3.963 0 0 1-1.96-.49 3.566 3.566 0 0 1-1.372-1.386c-.327-.607-.49-1.307-.49-2.1 0-.784.168-1.475.504-2.072a3.503 3.503 0 0 1 1.4-1.386c.588-.327 1.246-.49 1.974-.49s1.386.163 1.974.49a3.44 3.44 0 0 1 1.386 1.372c.345.597.518 1.293.518 2.086 0 .793-.178 1.493-.532 2.1a3.609 3.609 0 0 1-1.414 1.386 4.07 4.07 0 0 1-1.988.49Zm0-1.12a2.69 2.69 0 0 0 1.288-.322 2.41 2.41 0 0 0 .966-.966c.252-.429.378-.952.378-1.568 0-.616-.122-1.139-.364-1.568-.243-.429-.56-.747-.952-.952a2.606 2.606 0 0 0-1.274-.322c-.467 0-.896.107-1.288.322-.383.205-.691.523-.924.952-.234.429-.35.952-.35 1.568 0 .625.112 1.153.336 1.582.233.429.54.751.924.966.382.205.802.308 1.26.308Zm8.547 1.12a3.963 3.963 0 0 1-1.96-.49 3.566 3.566 0 0 1-1.372-1.386c-.327-.607-.49-1.307-.49-2.1 0-.784.168-1.475.504-2.072a3.503 3.503 0 0 1 1.4-1.386c.588-.327 1.246-.49 1.974-.49s1.386.163 1.974.49a3.44 3.44 0 0 1 1.386 1.372c.345.597.518 1.293.518 2.086 0 .793-.178 1.493-.532 2.1a3.61 3.61 0 0 1-1.414 1.386c-.598.327-1.26.49-1.988.49Zm0-1.12a2.69 2.69 0 0 0 1.288-.322 2.41 2.41 0 0 0 .966-.966c.252-.429.378-.952.378-1.568 0-.616-.122-1.139-.364-1.568-.243-.429-.56-.747-.952-.952a2.606 2.606 0 0 0-1.274-.322c-.467 0-.896.107-1.288.322-.383.205-.691.523-.924.952-.234.429-.35.952-.35 1.568 0 .625.112 1.153.336 1.582.233.429.541.751.924.966.382.205.802.308 1.26.308Zm4.725-2.87c0-.784.158-1.47.476-2.058a3.462 3.462 0 0 1 1.302-1.386 3.651 3.651 0 0 1 1.876-.49c.597 0 1.152.14 1.666.42.513.271.905.63 1.176 1.078v-4.06h1.288V169h-1.288v-1.442c-.252.457-.626.835-1.12 1.134-.495.289-1.074.434-1.736.434a3.55 3.55 0 0 1-1.862-.504 3.532 3.532 0 0 1-1.302-1.414c-.318-.607-.476-1.297-.476-2.072Zm6.496.014c0-.579-.117-1.083-.35-1.512a2.412 2.412 0 0 0-.952-.98 2.5 2.5 0 0 0-1.302-.35c-.476 0-.91.112-1.302.336a2.44 2.44 0 0 0-.938.98c-.234.429-.35.933-.35 1.512 0 .588.116 1.101.35 1.54.233.429.546.761.938.994.392.224.826.336 1.302.336.476 0 .91-.112 1.302-.336.401-.233.718-.565.952-.994.233-.439.35-.947.35-1.526Zm-28.997 59.68H26.59l-.784 2.17h-1.344l3.528-9.702h1.47L32.974 227H31.63l-.784-2.17Zm-.364-1.036-1.764-4.928-1.764 4.928h3.528Zm6.66-6.552c1.064 0 1.983.201 2.758.602a4.091 4.091 0 0 1 1.792 1.694c.42.737.63 1.605.63 2.604 0 .999-.21 1.867-.63 2.604-.411.728-1.008 1.288-1.792 1.68-.775.383-1.694.574-2.758.574h-3.038v-9.758h3.038Zm0 8.708c1.26 0 2.22-.331 2.884-.994.662-.672.994-1.61.994-2.814 0-1.213-.336-2.161-1.008-2.842-.663-.681-1.62-1.022-2.87-1.022h-1.764v7.672h1.764Zm13.97-8.708V227h-1.274v-4.424h-4.97V227h-1.274v-9.758h1.274v4.284h4.97v-4.284h1.274Zm4.805 0c1.064 0 1.984.201 2.758.602a4.091 4.091 0 0 1 1.792 1.694c.42.737.63 1.605.63 2.604 0 .999-.21 1.867-.63 2.604-.41.728-1.008 1.288-1.792 1.68-.774.383-1.694.574-2.758.574H52.88v-9.758h3.038Zm0 8.708c1.26 0 2.222-.331 2.884-.994.663-.672.994-1.61.994-2.814 0-1.213-.336-2.161-1.008-2.842-.662-.681-1.619-1.022-2.87-1.022h-1.764v7.672h1.764Zm9.301-2.8c0-.793.159-1.484.476-2.072a3.433 3.433 0 0 1 1.316-1.386c.57-.327 1.218-.49 1.946-.49.943 0 1.718.229 2.324.686.616.457 1.022 1.092 1.218 1.904h-1.372a1.958 1.958 0 0 0-.77-1.106c-.373-.271-.84-.406-1.4-.406-.728 0-1.316.252-1.764.756-.448.495-.672 1.199-.672 2.114 0 .924.224 1.638.672 2.142.448.504 1.036.756 1.764.756.56 0 1.027-.131 1.4-.392.374-.261.63-.635.77-1.12h1.372c-.205.784-.616 1.414-1.232 1.89-.616.467-1.386.7-2.31.7-.728 0-1.376-.163-1.946-.49a3.433 3.433 0 0 1-1.316-1.386c-.317-.597-.476-1.297-.476-2.1Zm11.918 3.976a3.963 3.963 0 0 1-1.96-.49 3.566 3.566 0 0 1-1.372-1.386c-.326-.607-.49-1.307-.49-2.1 0-.784.168-1.475.504-2.072a3.503 3.503 0 0 1 1.4-1.386c.588-.327 1.246-.49 1.974-.49s1.386.163 1.974.49a3.44 3.44 0 0 1 1.386 1.372c.345.597.518 1.293.518 2.086 0 .793-.177 1.493-.532 2.1a3.61 3.61 0 0 1-1.414 1.386 4.07 4.07 0 0 1-1.988.49Zm0-1.12c.458 0 .887-.107 1.288-.322a2.41 2.41 0 0 0 .966-.966c.252-.429.378-.952.378-1.568 0-.616-.121-1.139-.364-1.568-.242-.429-.56-.747-.952-.952a2.606 2.606 0 0 0-1.274-.322c-.466 0-.896.107-1.288.322-.383.205-.69.523-.924.952-.233.429-.35.952-.35 1.568 0 .625.112 1.153.336 1.582.234.429.541.751.924.966.383.205.803.308 1.26.308Zm8.94-6.818c.933 0 1.689.285 2.267.854.579.56.868 1.372.868 2.436V227h-1.26v-4.34c0-.765-.191-1.349-.574-1.75-.382-.411-.905-.616-1.568-.616-.672 0-1.208.21-1.61.63-.392.42-.588 1.031-.588 1.834V227h-1.274v-7.672h1.274v1.092a2.543 2.543 0 0 1 1.022-.91c.439-.215.92-.322 1.442-.322Zm6.362 1.19v4.522c0 .373.08.639.238.798.159.149.434.224.826.224h.938V227h-1.148c-.709 0-1.241-.163-1.596-.49-.354-.327-.532-.863-.532-1.61v-4.522h-.994v-1.05h.994v-1.932h1.274v1.932h2.002v1.05h-2.002Zm4.412.196c.224-.439.541-.779.952-1.022.42-.243.929-.364 1.526-.364v1.316h-.336c-1.428 0-2.142.775-2.142 2.324V227h-1.274v-7.672h1.274v1.246Zm6.887 6.552a3.963 3.963 0 0 1-1.96-.49 3.564 3.564 0 0 1-1.372-1.386c-.327-.607-.49-1.307-.49-2.1 0-.784.168-1.475.504-2.072a3.501 3.501 0 0 1 1.4-1.386c.588-.327 1.246-.49 1.974-.49s1.386.163 1.974.49a3.44 3.44 0 0 1 1.386 1.372c.345.597.518 1.293.518 2.086 0 .793-.178 1.493-.532 2.1a3.615 3.615 0 0 1-1.414 1.386c-.598.327-1.26.49-1.988.49Zm0-1.12a2.69 2.69 0 0 0 1.288-.322c.401-.215.723-.537.966-.966.252-.429.378-.952.378-1.568 0-.616-.122-1.139-.364-1.568-.243-.429-.56-.747-.952-.952a2.607 2.607 0 0 0-1.274-.322c-.467 0-.896.107-1.288.322-.383.205-.691.523-.924.952-.234.429-.35.952-.35 1.568 0 .625.112 1.153.336 1.582.233.429.541.751.924.966.382.205.802.308 1.26.308Zm6.475-9.366V227h-1.274v-10.36h1.274Zm-85.61 501.474c0-.952.215-1.806.644-2.562a4.68 4.68 0 0 1 1.75-1.792 4.886 4.886 0 0 1 2.478-.644c1.064 0 1.993.257 2.786.77.793.513 1.372 1.241 1.736 2.184H32.47a3.046 3.046 0 0 0-1.176-1.358c-.504-.317-1.11-.476-1.82-.476-.681 0-1.293.159-1.834.476-.541.317-.966.77-1.274 1.358-.308.579-.462 1.26-.462 2.044 0 .775.154 1.456.462 2.044a3.335 3.335 0 0 0 1.274 1.344 3.562 3.562 0 0 0 1.834.476c.71 0 1.316-.154 1.82-.462.513-.317.905-.77 1.176-1.358h1.526c-.364.933-.943 1.657-1.736 2.17-.793.504-1.722.756-2.786.756-.905 0-1.731-.21-2.478-.63a4.706 4.706 0 0 1-1.75-1.778c-.43-.756-.644-1.61-.644-2.562Zm12.156-5.474V723h-1.274v-10.36h1.274Zm1.288 6.496c0-.784.158-1.47.476-2.058a3.462 3.462 0 0 1 1.302-1.386c.56-.327 1.18-.49 1.862-.49.672 0 1.255.145 1.75.434.494.289.863.653 1.106 1.092v-1.4h1.288V723h-1.288v-1.428c-.252.448-.63.821-1.134 1.12-.495.289-1.074.434-1.736.434a3.477 3.477 0 0 1-1.848-.504 3.532 3.532 0 0 1-1.302-1.414c-.318-.607-.476-1.297-.476-2.072Zm6.496.014c0-.579-.117-1.083-.35-1.512a2.412 2.412 0 0 0-.952-.98 2.5 2.5 0 0 0-1.302-.35c-.476 0-.91.112-1.302.336a2.44 2.44 0 0 0-.938.98c-.234.429-.35.933-.35 1.512 0 .588.116 1.101.35 1.54.233.429.546.761.938.994.392.224.826.336 1.302.336.476 0 .91-.112 1.302-.336.401-.233.718-.565.952-.994.233-.439.35-.947.35-1.526Zm4.307-2.576c.224-.439.541-.779.952-1.022.42-.243.928-.364 1.526-.364v1.316h-.336c-1.428 0-2.142.775-2.142 2.324V723h-1.274v-7.672h1.274v1.246Zm4.198-2.492a.838.838 0 0 1-.616-.252.837.837 0 0 1-.252-.616c0-.243.084-.448.252-.616a.838.838 0 0 1 .616-.252c.234 0 .43.084.588.252a.837.837 0 0 1 .252.616.837.837 0 0 1-.252.616.777.777 0 0 1-.588.252Zm.616 1.246V723H52.39v-7.672h1.274Zm3.318 1.05v4.522c0 .373.079.639.238.798.158.149.434.224.826.224h.938V723h-1.148c-.71 0-1.242-.163-1.596-.49-.355-.327-.532-.863-.532-1.61v-4.522h-.994v-1.05h.994v-1.932h1.274v1.932h2.002v1.05H56.98Zm9.745-1.05-4.62 11.284H60.79l1.512-3.696-3.094-7.588h1.414l2.408 6.216 2.38-6.216h1.316Zm7.543 7.798a3.963 3.963 0 0 1-1.96-.49 3.566 3.566 0 0 1-1.372-1.386c-.326-.607-.49-1.307-.49-2.1 0-.784.168-1.475.504-2.072a3.503 3.503 0 0 1 1.4-1.386c.588-.327 1.246-.49 1.974-.49s1.386.163 1.974.49a3.44 3.44 0 0 1 1.386 1.372c.346.597.518 1.293.518 2.086 0 .793-.177 1.493-.532 2.1a3.61 3.61 0 0 1-1.414 1.386 4.07 4.07 0 0 1-1.988.49Zm0-1.12c.458 0 .887-.107 1.288-.322a2.41 2.41 0 0 0 .966-.966c.252-.429.378-.952.378-1.568 0-.616-.121-1.139-.364-1.568-.242-.429-.56-.747-.952-.952a2.606 2.606 0 0 0-1.274-.322c-.466 0-.896.107-1.288.322-.382.205-.69.523-.924.952-.233.429-.35.952-.35 1.568 0 .625.112 1.153.336 1.582.234.429.542.751.924.966.383.205.803.308 1.26.308Zm8.323-5.628h-1.61V723H79.71v-6.622h-.995v-1.05h.995v-.546c0-.859.219-1.484.657-1.876.448-.401 1.162-.602 2.142-.602v1.064c-.56 0-.956.112-1.19.336-.224.215-.335.574-.335 1.078v.546h1.61v1.05Zm13.628-1.19c.598 0 1.13.126 1.596.378.467.243.836.611 1.106 1.106.271.495.406 1.097.406 1.806V723h-1.26v-4.34c0-.765-.191-1.349-.574-1.75-.373-.411-.882-.616-1.526-.616-.662 0-1.19.215-1.582.644-.392.42-.588 1.031-.588 1.834V723h-1.26v-4.34c0-.765-.191-1.349-.574-1.75-.373-.411-.882-.616-1.526-.616-.662 0-1.19.215-1.582.644-.392.42-.588 1.031-.588 1.834V723h-1.274v-7.672h1.274v1.106a2.534 2.534 0 0 1 1.008-.924c.43-.215.901-.322 1.414-.322.644 0 1.214.145 1.708.434.495.289.864.714 1.106 1.274a2.52 2.52 0 0 1 1.064-1.26 3.131 3.131 0 0 1 1.652-.448Zm5.448-1.106a.837.837 0 0 1-.616-.252.837.837 0 0 1-.252-.616c0-.243.084-.448.252-.616a.837.837 0 0 1 .616-.252c.233 0 .429.084.588.252a.837.837 0 0 1 .252.616.837.837 0 0 1-.252.616.778.778 0 0 1-.588.252Zm.616 1.246V723h-1.274v-7.672h1.274Zm5.501-.14c.934 0 1.69.285 2.268.854.579.56.868 1.372.868 2.436V723h-1.26v-4.34c0-.765-.191-1.349-.574-1.75-.382-.411-.905-.616-1.568-.616-.672 0-1.208.21-1.61.63-.392.42-.588 1.031-.588 1.834V723h-1.274v-7.672h1.274v1.092a2.545 2.545 0 0 1 1.022-.91c.439-.215.92-.322 1.442-.322Zm4.334 3.948c0-.784.158-1.47.476-2.058a3.458 3.458 0 0 1 1.302-1.386 3.65 3.65 0 0 1 1.876-.49c.597 0 1.152.14 1.666.42.513.271.905.63 1.176 1.078v-4.06h1.288V723h-1.288v-1.442c-.252.457-.626.835-1.12 1.134-.495.289-1.074.434-1.736.434a3.548 3.548 0 0 1-1.862-.504 3.528 3.528 0 0 1-1.302-1.414c-.318-.607-.476-1.297-.476-2.072Zm6.496.014c0-.579-.117-1.083-.35-1.512a2.418 2.418 0 0 0-.952-.98 2.5 2.5 0 0 0-1.302-.35c-.476 0-.91.112-1.302.336a2.438 2.438 0 0 0-.938.98c-.234.429-.35.933-.35 1.512 0 .588.116 1.101.35 1.54.233.429.546.761.938.994.392.224.826.336 1.302.336.476 0 .91-.112 1.302-.336.401-.233.718-.565.952-.994.233-.439.35-.947.35-1.526Zm-88.021 52.092v1.036h-4.242v3.29h3.444v1.036h-3.444V781h-1.274v-9.758h5.516Zm4.477 9.884a3.963 3.963 0 0 1-1.96-.49 3.566 3.566 0 0 1-1.372-1.386c-.327-.607-.49-1.307-.49-2.1 0-.784.168-1.475.504-2.072a3.503 3.503 0 0 1 1.4-1.386c.588-.327 1.246-.49 1.974-.49s1.386.163 1.974.49a3.44 3.44 0 0 1 1.386 1.372c.345.597.518 1.293.518 2.086 0 .793-.178 1.493-.532 2.1a3.609 3.609 0 0 1-1.414 1.386 4.07 4.07 0 0 1-1.988.49Zm0-1.12a2.69 2.69 0 0 0 1.288-.322 2.41 2.41 0 0 0 .966-.966c.252-.429.378-.952.378-1.568 0-.616-.122-1.139-.364-1.568-.243-.429-.56-.747-.952-.952a2.606 2.606 0 0 0-1.274-.322c-.467 0-.896.107-1.288.322-.383.205-.691.523-.924.952-.234.429-.35.952-.35 1.568 0 .625.112 1.153.336 1.582.233.429.541.751.924.966.382.205.802.308 1.26.308Zm4.725-2.856c0-.793.158-1.484.476-2.072a3.432 3.432 0 0 1 1.316-1.386c.57-.327 1.218-.49 1.946-.49.942 0 1.717.229 2.324.686.616.457 1.022 1.092 1.218 1.904h-1.372a1.959 1.959 0 0 0-.77-1.106c-.374-.271-.84-.406-1.4-.406-.728 0-1.316.252-1.764.756-.448.495-.672 1.199-.672 2.114 0 .924.224 1.638.672 2.142.448.504 1.036.756 1.764.756.56 0 1.026-.131 1.4-.392.373-.261.63-.635.77-1.12h1.372c-.206.784-.616 1.414-1.232 1.89-.616.467-1.386.7-2.31.7-.728 0-1.377-.163-1.946-.49a3.432 3.432 0 0 1-1.316-1.386c-.318-.597-.476-1.297-.476-2.1Zm15.376-3.822V781h-1.274v-1.134c-.243.392-.584.7-1.022.924-.43.215-.906.322-1.428.322a3.49 3.49 0 0 1-1.61-.364 2.784 2.784 0 0 1-1.134-1.12c-.271-.495-.406-1.097-.406-1.806v-4.494h1.26v4.326c0 .756.191 1.339.574 1.75.382.401.905.602 1.568.602.681 0 1.218-.21 1.61-.63.392-.42.588-1.031.588-1.834v-4.214h1.274Zm4.459 7.798c-.588 0-1.116-.098-1.582-.294-.467-.205-.836-.485-1.106-.84a2.27 2.27 0 0 1-.448-1.246h1.316c.037.383.214.695.532.938.326.243.751.364 1.274.364.485 0 .868-.107 1.148-.322.28-.215.42-.485.42-.812a.787.787 0 0 0-.448-.742c-.299-.168-.76-.331-1.386-.49a11.403 11.403 0 0 1-1.4-.448 2.658 2.658 0 0 1-.924-.686c-.252-.308-.378-.709-.378-1.204 0-.392.116-.751.35-1.078.233-.327.564-.583.994-.77.43-.196.92-.294 1.47-.294.85 0 1.535.215 2.058.644.522.429.802 1.017.84 1.764h-1.274a1.309 1.309 0 0 0-.49-.966c-.29-.243-.682-.364-1.176-.364-.458 0-.822.098-1.092.294-.27.196-.406.453-.406.77 0 .252.08.462.238.63.168.159.373.289.616.392.252.093.597.201 1.036.322.55.149.998.299 1.344.448.345.14.64.355.882.644.252.289.382.667.392 1.134 0 .42-.117.798-.35 1.134-.234.336-.565.602-.994.798-.42.187-.906.28-1.456.28ZM30.216 469l-2.324-3.99h-1.54V469h-1.274v-9.758h3.15c.737 0 1.358.126 1.862.378.513.252.896.593 1.148 1.022.252.429.378.919.378 1.47 0 .672-.196 1.265-.588 1.778-.383.513-.961.854-1.736 1.022l2.45 4.088h-1.526Zm-3.864-5.012h1.876c.69 0 1.209-.168 1.554-.504.345-.345.518-.803.518-1.372 0-.579-.173-1.027-.518-1.344-.336-.317-.854-.476-1.554-.476h-1.876v3.696Zm13.836.882c0 .243-.014.499-.042.77h-6.132c.046.756.303 1.349.77 1.778.476.42 1.05.63 1.722.63.55 0 1.008-.126 1.372-.378.373-.261.634-.607.784-1.036h1.372a3.335 3.335 0 0 1-1.232 1.806c-.616.457-1.382.686-2.296.686-.728 0-1.382-.163-1.96-.49a3.497 3.497 0 0 1-1.344-1.386c-.327-.607-.49-1.307-.49-2.1 0-.793.158-1.489.476-2.086a3.308 3.308 0 0 1 1.33-1.372c.578-.327 1.24-.49 1.988-.49.728 0 1.372.159 1.932.476.56.317.989.756 1.288 1.316.308.551.462 1.176.462 1.876Zm-1.316-.266c0-.485-.108-.901-.322-1.246a2.023 2.023 0 0 0-.882-.798 2.626 2.626 0 0 0-1.218-.28c-.644 0-1.195.205-1.652.616-.448.411-.705.98-.77 1.708h4.844Zm5.305 4.522a4.052 4.052 0 0 1-1.582-.294c-.466-.205-.835-.485-1.106-.84a2.27 2.27 0 0 1-.448-1.246h1.316c.038.383.215.695.532.938.327.243.752.364 1.274.364.486 0 .868-.107 1.148-.322.28-.215.42-.485.42-.812a.786.786 0 0 0-.448-.742c-.298-.168-.76-.331-1.386-.49a11.408 11.408 0 0 1-1.4-.448 2.66 2.66 0 0 1-.924-.686c-.252-.308-.378-.709-.378-1.204 0-.392.117-.751.35-1.078.234-.327.565-.583.994-.77.43-.196.92-.294 1.47-.294.85 0 1.536.215 2.058.644.523.429.803 1.017.84 1.764h-1.274a1.308 1.308 0 0 0-.49-.966c-.29-.243-.681-.364-1.176-.364-.457 0-.821.098-1.092.294-.27.196-.406.453-.406.77 0 .252.08.462.238.63.168.159.374.289.616.392.252.093.598.201 1.036.322.55.149.999.299 1.344.448.346.14.64.355.882.644.252.289.383.667.392 1.134 0 .42-.116.798-.35 1.134-.233.336-.564.602-.994.798-.42.187-.905.28-1.456.28Zm5.745-6.748v4.522c0 .373.079.639.238.798.158.149.434.224.826.224h.938V469h-1.148c-.71 0-1.242-.163-1.596-.49-.355-.327-.532-.863-.532-1.61v-4.522h-.994v-1.05h.994v-1.932h1.274v1.932h2.002v1.05h-2.002Zm4.411-3.738V469H53.06v-10.36h1.274Zm8.764 6.23c0 .243-.014.499-.042.77h-6.132c.046.756.303 1.349.77 1.778.476.42 1.05.63 1.722.63.55 0 1.008-.126 1.372-.378.373-.261.634-.607.784-1.036h1.372a3.334 3.334 0 0 1-1.232 1.806c-.616.457-1.382.686-2.296.686-.728 0-1.382-.163-1.96-.49a3.499 3.499 0 0 1-1.344-1.386c-.327-.607-.49-1.307-.49-2.1 0-.793.158-1.489.476-2.086a3.309 3.309 0 0 1 1.33-1.372c.578-.327 1.24-.49 1.988-.49.728 0 1.372.159 1.932.476.56.317.989.756 1.288 1.316.308.551.462 1.176.462 1.876Zm-1.316-.266c0-.485-.108-.901-.322-1.246a2.023 2.023 0 0 0-.882-.798 2.626 2.626 0 0 0-1.218-.28c-.644 0-1.195.205-1.652.616-.448.411-.705.98-.77 1.708h4.844Zm5.305 4.522a4.052 4.052 0 0 1-1.582-.294c-.466-.205-.835-.485-1.106-.84a2.27 2.27 0 0 1-.448-1.246h1.316c.038.383.215.695.532.938.327.243.752.364 1.274.364.486 0 .868-.107 1.148-.322.28-.215.42-.485.42-.812a.786.786 0 0 0-.448-.742c-.298-.168-.76-.331-1.386-.49a11.408 11.408 0 0 1-1.4-.448 2.66 2.66 0 0 1-.924-.686c-.252-.308-.378-.709-.378-1.204 0-.392.117-.751.35-1.078.234-.327.565-.583.994-.77.43-.196.92-.294 1.47-.294.85 0 1.536.215 2.058.644.523.429.803 1.017.84 1.764h-1.274a1.308 1.308 0 0 0-.49-.966c-.29-.243-.681-.364-1.176-.364-.457 0-.821.098-1.092.294-.27.196-.406.453-.406.77 0 .252.08.462.238.63.168.159.374.289.616.392.252.093.598.201 1.036.322.55.149.999.299 1.344.448.346.14.64.355.882.644.252.289.383.667.392 1.134 0 .42-.116.798-.35 1.134-.233.336-.564.602-.994.798-.42.187-.905.28-1.456.28Zm6.907 0c-.588 0-1.116-.098-1.582-.294-.467-.205-.836-.485-1.106-.84a2.27 2.27 0 0 1-.448-1.246h1.316c.037.383.214.695.532.938.326.243.751.364 1.274.364.485 0 .868-.107 1.148-.322.28-.215.42-.485.42-.812a.786.786 0 0 0-.448-.742c-.299-.168-.761-.331-1.386-.49a11.408 11.408 0 0 1-1.4-.448 2.658 2.658 0 0 1-.924-.686c-.252-.308-.378-.709-.378-1.204 0-.392.116-.751.35-1.078.233-.327.564-.583.994-.77.429-.196.919-.294 1.47-.294.849 0 1.535.215 2.058.644.522.429.802 1.017.84 1.764h-1.274a1.308 1.308 0 0 0-.49-.966c-.29-.243-.682-.364-1.176-.364-.458 0-.822.098-1.092.294-.271.196-.406.453-.406.77a.88.88 0 0 0 .238.63c.168.159.373.289.616.392.252.093.597.201 1.036.322.55.149.998.299 1.344.448.345.14.639.355.882.644.252.289.382.667.392 1.134 0 .42-.117.798-.35 1.134-.234.336-.565.602-.994.798-.42.187-.906.28-1.456.28Zm7.928-7.938c.933 0 1.69.285 2.268.854.579.56.868 1.372.868 2.436V469h-1.26v-4.34c0-.765-.191-1.349-.574-1.75-.382-.411-.905-.616-1.568-.616-.672 0-1.209.21-1.61.63-.392.42-.588 1.031-.588 1.834V469h-1.274v-7.672h1.274v1.092a2.543 2.543 0 0 1 1.022-.91c.439-.215.92-.322 1.442-.322Zm11.81 3.682c0 .243-.015.499-.043.77h-6.132c.047.756.304 1.349.77 1.778.476.42 1.05.63 1.722.63.55 0 1.008-.126 1.372-.378.374-.261.635-.607.784-1.036h1.372a3.334 3.334 0 0 1-1.232 1.806c-.616.457-1.381.686-2.296.686-.728 0-1.381-.163-1.96-.49a3.499 3.499 0 0 1-1.344-1.386c-.326-.607-.49-1.307-.49-2.1 0-.793.159-1.489.476-2.086a3.31 3.31 0 0 1 1.33-1.372c.579-.327 1.242-.49 1.988-.49.728 0 1.372.159 1.932.476.56.317.99.756 1.288 1.316.308.551.462 1.176.462 1.876Zm-1.317-.266c0-.485-.107-.901-.322-1.246a2.022 2.022 0 0 0-.882-.798 2.626 2.626 0 0 0-1.218-.28c-.644 0-1.194.205-1.652.616-.448.411-.704.98-.77 1.708h4.844Zm5.306 4.522a4.052 4.052 0 0 1-1.582-.294c-.467-.205-.836-.485-1.106-.84a2.27 2.27 0 0 1-.448-1.246H95.9c.037.383.215.695.532.938.326.243.751.364 1.274.364.485 0 .868-.107 1.148-.322.28-.215.42-.485.42-.812a.787.787 0 0 0-.448-.742c-.299-.168-.76-.331-1.386-.49a11.403 11.403 0 0 1-1.4-.448 2.658 2.658 0 0 1-.924-.686c-.252-.308-.378-.709-.378-1.204 0-.392.117-.751.35-1.078.233-.327.565-.583.994-.77.43-.196.92-.294 1.47-.294.85 0 1.535.215 2.058.644.523.429.803 1.017.84 1.764h-1.274a1.309 1.309 0 0 0-.49-.966c-.29-.243-.682-.364-1.176-.364-.458 0-.822.098-1.092.294-.27.196-.406.453-.406.77 0 .252.08.462.238.63.168.159.373.289.616.392.252.093.597.201 1.036.322.55.149.998.299 1.344.448.345.14.64.355.882.644.252.289.383.667.392 1.134 0 .42-.117.798-.35 1.134-.234.336-.565.602-.994.798-.42.187-.906.28-1.456.28Zm6.906 0a4.052 4.052 0 0 1-1.582-.294c-.466-.205-.835-.485-1.106-.84a2.275 2.275 0 0 1-.448-1.246h1.316c.038.383.215.695.532.938.327.243.752.364 1.274.364.486 0 .868-.107 1.148-.322.28-.215.42-.485.42-.812a.786.786 0 0 0-.448-.742c-.298-.168-.76-.331-1.386-.49a11.425 11.425 0 0 1-1.4-.448 2.67 2.67 0 0 1-.924-.686c-.252-.308-.378-.709-.378-1.204 0-.392.117-.751.35-1.078.234-.327.565-.583.994-.77.43-.196.92-.294 1.47-.294.85 0 1.536.215 2.058.644.523.429.803 1.017.84 1.764h-1.274a1.307 1.307 0 0 0-.49-.966c-.289-.243-.681-.364-1.176-.364-.457 0-.821.098-1.092.294-.27.196-.406.453-.406.77 0 .252.08.462.238.63.168.159.374.289.616.392.252.093.598.201 1.036.322.551.149.999.299 1.344.448.346.14.64.355.882.644.252.289.383.667.392 1.134 0 .42-.116.798-.35 1.134-.233.336-.564.602-.994.798-.42.187-.905.28-1.456.28Zm-73.024 50.972c0 .812-.28 1.489-.84 2.03-.55.532-1.395.798-2.534.798h-1.876V527h-1.274v-9.758h3.15c1.101 0 1.937.266 2.506.798.579.532.868 1.218.868 2.058Zm-3.374 1.778c.71 0 1.232-.154 1.568-.462.336-.308.504-.747.504-1.316 0-1.204-.69-1.806-2.072-1.806h-1.876v3.584h1.876Zm5.823-1.302c.224-.439.542-.779.952-1.022.42-.243.93-.364 1.526-.364v1.316h-.336c-1.428 0-2.142.775-2.142 2.324V527h-1.274v-7.672h1.274v1.246Zm4.2-2.492a.838.838 0 0 1-.617-.252.837.837 0 0 1-.252-.616c0-.243.084-.448.252-.616a.838.838 0 0 1 .616-.252c.233 0 .43.084.588.252a.837.837 0 0 1 .252.616.837.837 0 0 1-.252.616.777.777 0 0 1-.588.252Zm.615 1.246V527h-1.274v-7.672h1.274Zm5.11 7.798a3.963 3.963 0 0 1-1.96-.49 3.566 3.566 0 0 1-1.373-1.386c-.326-.607-.49-1.307-.49-2.1 0-.784.168-1.475.504-2.072a3.503 3.503 0 0 1 1.4-1.386c.588-.327 1.246-.49 1.974-.49s1.386.163 1.974.49a3.44 3.44 0 0 1 1.386 1.372c.346.597.518 1.293.518 2.086 0 .793-.177 1.493-.532 2.1a3.609 3.609 0 0 1-1.414 1.386 4.07 4.07 0 0 1-1.988.49Zm0-1.12c.457 0 .886-.107 1.287-.322a2.41 2.41 0 0 0 .966-.966c.252-.429.378-.952.378-1.568 0-.616-.12-1.139-.364-1.568-.242-.429-.56-.747-.952-.952a2.606 2.606 0 0 0-1.274-.322c-.466 0-.896.107-1.288.322-.382.205-.69.523-.924.952-.233.429-.35.952-.35 1.568 0 .625.112 1.153.336 1.582.234.429.542.751.924.966.383.205.803.308 1.26.308Zm6.474-5.432c.224-.439.542-.779.953-1.022.42-.243.928-.364 1.526-.364v1.316h-.337c-1.428 0-2.142.775-2.142 2.324V527h-1.274v-7.672h1.274v1.246Zm4.2-2.492a.838.838 0 0 1-.617-.252.837.837 0 0 1-.252-.616c0-.243.084-.448.252-.616a.838.838 0 0 1 .616-.252c.233 0 .43.084.588.252a.837.837 0 0 1 .252.616.837.837 0 0 1-.252.616.776.776 0 0 1-.588.252Zm.615 1.246V527h-1.274v-7.672h1.274Zm3.317 1.05v4.522c0 .373.08.639.238.798.16.149.434.224.826.224h.938V527h-1.148c-.709 0-1.24-.163-1.596-.49-.354-.327-.532-.863-.532-1.61v-4.522h-.994v-1.05h.994v-1.932h1.274v1.932h2.002v1.05h-2.002Zm3.796-2.296a.838.838 0 0 1-.616-.252.837.837 0 0 1-.252-.616c0-.243.084-.448.252-.616a.838.838 0 0 1 .616-.252c.233 0 .43.084.588.252a.837.837 0 0 1 .252.616.837.837 0 0 1-.252.616.776.776 0 0 1-.588.252Zm.616 1.246V527H61.72v-7.672h1.274Zm4.48 7.798c-.589 0-1.116-.098-1.583-.294-.466-.205-.835-.485-1.106-.84a2.27 2.27 0 0 1-.448-1.246h1.316c.038.383.215.695.532.938.327.243.752.364 1.274.364.486 0 .868-.107 1.148-.322.28-.215.42-.485.42-.812a.787.787 0 0 0-.448-.742c-.298-.168-.76-.331-1.386-.49a11.403 11.403 0 0 1-1.4-.448 2.658 2.658 0 0 1-.924-.686c-.252-.308-.378-.709-.378-1.204 0-.392.117-.751.35-1.078.234-.327.565-.583.994-.77.43-.196.92-.294 1.47-.294.85 0 1.536.215 2.058.644.523.429.803 1.017.84 1.764H68.93a1.309 1.309 0 0 0-.49-.966c-.289-.243-.681-.364-1.176-.364-.457 0-.821.098-1.092.294-.27.196-.406.453-.406.77 0 .252.08.462.238.63.168.159.374.289.616.392.252.093.598.201 1.036.322.551.149.999.299 1.344.448.346.14.64.355.882.644.252.289.383.667.392 1.134 0 .42-.116.798-.35 1.134-.233.336-.564.602-.994.798-.42.187-.905.28-1.456.28Zm3.714-3.99c0-.784.159-1.47.476-2.058a3.462 3.462 0 0 1 1.302-1.386c.56-.327 1.18-.49 1.862-.49.672 0 1.255.145 1.75.434.495.289.863.653 1.106 1.092v-1.4h1.288V527h-1.288v-1.428c-.252.448-.63.821-1.134 1.12-.495.289-1.073.434-1.736.434a3.478 3.478 0 0 1-1.848-.504 3.532 3.532 0 0 1-1.302-1.414c-.317-.607-.476-1.297-.476-2.072Zm6.496.014c0-.579-.117-1.083-.35-1.512a2.412 2.412 0 0 0-.952-.98 2.5 2.5 0 0 0-1.302-.35c-.476 0-.91.112-1.302.336a2.44 2.44 0 0 0-.938.98c-.234.429-.35.933-.35 1.512 0 .588.117 1.101.35 1.54.233.429.546.761.938.994.392.224.826.336 1.302.336.476 0 .91-.112 1.302-.336.401-.233.718-.565.952-.994.233-.439.35-.947.35-1.526Zm4.587-2.772v4.522c0 .373.08.639.238.798.158.149.434.224.826.224h.938V527h-1.148c-.71 0-1.242-.163-1.596-.49-.355-.327-.532-.863-.532-1.61v-4.522h-.994v-1.05h.994v-1.932h1.274v1.932h2.002v1.05H82.27Zm3.795-2.296a.838.838 0 0 1-.616-.252.837.837 0 0 1-.252-.616c0-.243.084-.448.252-.616a.838.838 0 0 1 .616-.252c.234 0 .43.084.588.252a.837.837 0 0 1 .252.616.837.837 0 0 1-.252.616.777.777 0 0 1-.588.252Zm.616 1.246V527h-1.274v-7.672h1.274Zm5.11 7.798a3.963 3.963 0 0 1-1.96-.49 3.566 3.566 0 0 1-1.372-1.386c-.327-.607-.49-1.307-.49-2.1 0-.784.168-1.475.504-2.072a3.503 3.503 0 0 1 1.4-1.386c.588-.327 1.246-.49 1.974-.49s1.386.163 1.974.49a3.44 3.44 0 0 1 1.386 1.372c.345.597.518 1.293.518 2.086 0 .793-.178 1.493-.532 2.1a3.61 3.61 0 0 1-1.414 1.386c-.598.327-1.26.49-1.988.49Zm0-1.12a2.69 2.69 0 0 0 1.288-.322 2.41 2.41 0 0 0 .966-.966c.252-.429.378-.952.378-1.568 0-.616-.122-1.139-.364-1.568-.243-.429-.56-.747-.952-.952a2.606 2.606 0 0 0-1.274-.322c-.467 0-.896.107-1.288.322-.383.205-.691.523-.924.952-.234.429-.35.952-.35 1.568 0 .625.112 1.153.336 1.582.233.429.541.751.924.966.382.205.802.308 1.26.308Zm8.939-6.818c.933 0 1.689.285 2.268.854.578.56.868 1.372.868 2.436V527h-1.26v-4.34c0-.765-.192-1.349-.574-1.75-.383-.411-.906-.616-1.568-.616-.672 0-1.209.21-1.61.63-.392.42-.588 1.031-.588 1.834V527h-1.274v-7.672h1.274v1.092a2.543 2.543 0 0 1 1.022-.91 3.228 3.228 0 0 1 1.442-.322Zm-69.129 58.91c0 .812-.28 1.489-.84 2.03-.55.532-1.395.798-2.534.798h-1.876V585h-1.274v-9.758h3.15c1.101 0 1.937.266 2.506.798.579.532.868 1.218.868 2.058Zm-3.374 1.778c.71 0 1.232-.154 1.568-.462.336-.308.504-.747.504-1.316 0-1.204-.69-1.806-2.072-1.806h-1.876v3.584h1.876Zm11.353-2.548V585h-1.274v-1.134c-.242.392-.583.7-1.022.924a3.142 3.142 0 0 1-1.428.322 3.49 3.49 0 0 1-1.61-.364 2.784 2.784 0 0 1-1.134-1.12c-.27-.495-.406-1.097-.406-1.806v-4.494h1.26v4.326c0 .756.192 1.339.574 1.75.383.401.906.602 1.568.602.682 0 1.218-.21 1.61-.63.392-.42.588-1.031.588-1.834v-4.214h1.274Zm5.481-.14c.934 0 1.69.285 2.269.854.578.56.867 1.372.867 2.436V585h-1.26v-4.34c0-.765-.19-1.349-.574-1.75-.382-.411-.905-.616-1.567-.616-.672 0-1.21.21-1.61.63-.392.42-.588 1.031-.588 1.834V585h-1.274v-7.672h1.273v1.092a2.543 2.543 0 0 1 1.023-.91 3.227 3.227 0 0 1 1.441-.322Zm4.334 3.962c0-.793.158-1.484.476-2.072a3.432 3.432 0 0 1 1.316-1.386c.569-.327 1.218-.49 1.946-.49.942 0 1.717.229 2.324.686.616.457 1.022 1.092 1.218 1.904h-1.372a1.959 1.959 0 0 0-.77-1.106c-.374-.271-.84-.406-1.4-.406-.728 0-1.316.252-1.764.756-.448.495-.672 1.199-.672 2.114 0 .924.224 1.638.672 2.142.448.504 1.036.756 1.764.756.56 0 1.026-.131 1.4-.392.373-.261.63-.635.77-1.12h1.372c-.206.784-.616 1.414-1.232 1.89-.616.467-1.386.7-2.31.7-.728 0-1.377-.163-1.946-.49a3.432 3.432 0 0 1-1.316-1.386c-.318-.597-.476-1.297-.476-2.1Zm10.126-2.772v4.522c0 .373.079.639.238.798.158.149.434.224.826.224h.938V585h-1.148c-.71 0-1.242-.163-1.596-.49-.355-.327-.532-.863-.532-1.61v-4.522h-.994v-1.05h.994v-1.932h1.274v1.932h2.002v1.05h-2.002Zm9.941-1.05V585H68.19v-1.134c-.243.392-.583.7-1.022.924-.43.215-.905.322-1.428.322a3.49 3.49 0 0 1-1.61-.364 2.784 2.784 0 0 1-1.134-1.12c-.27-.495-.406-1.097-.406-1.806v-4.494h1.26v4.326c0 .756.191 1.339.574 1.75.383.401.905.602 1.568.602.681 0 1.218-.21 1.61-.63.392-.42.588-1.031.588-1.834v-4.214h1.274Zm1.267 3.808c0-.784.159-1.47.476-2.058a3.462 3.462 0 0 1 1.302-1.386c.56-.327 1.18-.49 1.862-.49.672 0 1.255.145 1.75.434.495.289.864.653 1.106 1.092v-1.4h1.288V585h-1.288v-1.428c-.252.448-.63.821-1.134 1.12-.495.289-1.073.434-1.736.434a3.477 3.477 0 0 1-1.848-.504 3.532 3.532 0 0 1-1.302-1.414c-.317-.607-.476-1.297-.476-2.072Zm6.496.014c0-.579-.117-1.083-.35-1.512a2.412 2.412 0 0 0-.952-.98 2.5 2.5 0 0 0-1.302-.35c-.476 0-.91.112-1.302.336a2.44 2.44 0 0 0-.938.98c-.233.429-.35.933-.35 1.512 0 .588.117 1.101.35 1.54.233.429.546.761.938.994.392.224.826.336 1.302.336.476 0 .91-.112 1.302-.336.401-.233.719-.565.952-.994.233-.439.35-.947.35-1.526Zm4.307-6.51V585H80.26v-10.36h1.274Zm2.421 1.442a.838.838 0 0 1-.616-.252.837.837 0 0 1-.252-.616c0-.243.084-.448.252-.616a.838.838 0 0 1 .616-.252c.234 0 .43.084.588.252a.837.837 0 0 1 .252.616.837.837 0 0 1-.252.616.776.776 0 0 1-.588.252Zm.616 1.246V585h-1.274v-7.672h1.274Zm3.318 1.05v4.522c0 .373.08.639.238.798.158.149.434.224.826.224h.938V585h-1.148c-.71 0-1.242-.163-1.596-.49-.355-.327-.532-.863-.532-1.61v-4.522h-.994v-1.05h.994v-1.932h1.274v1.932h2.002v1.05h-2.002Zm9.745-1.05-4.62 11.284h-1.316l1.512-3.696-3.094-7.588h1.414l2.408 6.216 2.38-6.216h1.316Zm-68.131-292.23c-.905 0-1.731-.21-2.478-.63a4.778 4.778 0 0 1-1.778-1.778c-.43-.765-.644-1.624-.644-2.576s.215-1.806.644-2.562a4.65 4.65 0 0 1 1.778-1.778 4.886 4.886 0 0 1 2.478-.644c.915 0 1.745.215 2.492.644a4.577 4.577 0 0 1 1.764 1.764c.43.756.644 1.615.644 2.576 0 .961-.215 1.82-.644 2.576a4.675 4.675 0 0 1-1.764 1.778c-.747.42-1.577.63-2.492.63Zm0-1.106c.681 0 1.293-.159 1.834-.476.55-.317.98-.77 1.288-1.358.317-.588.476-1.269.476-2.044 0-.784-.159-1.465-.476-2.044a3.316 3.316 0 0 0-1.274-1.358c-.541-.317-1.157-.476-1.848-.476-.69 0-1.307.159-1.848.476a3.41 3.41 0 0 0-1.288 1.358c-.308.579-.462 1.26-.462 2.044 0 .775.154 1.456.462 2.044a3.41 3.41 0 0 0 1.288 1.358c.55.317 1.167.476 1.848.476Zm7.448-5.418c.224-.439.541-.779.952-1.022.42-.243.928-.364 1.526-.364v1.316h-.336c-1.428 0-2.142.775-2.142 2.324V285h-1.274v-7.672h1.274v1.246Zm6.704-1.372c.663 0 1.242.145 1.736.434.505.289.878.653 1.12 1.092v-1.4h1.288v7.84c0 .7-.149 1.321-.448 1.862-.298.551-.727.98-1.288 1.288-.55.308-1.194.462-1.931.462-1.008 0-1.849-.238-2.52-.714a2.79 2.79 0 0 1-1.19-1.946h1.26c.14.467.429.84.867 1.12.44.289.966.434 1.582.434.7 0 1.27-.219 1.709-.658.447-.439.672-1.055.672-1.848v-1.61c-.253.448-.626.821-1.12 1.12-.495.299-1.074.448-1.736.448a3.55 3.55 0 0 1-1.863-.504 3.532 3.532 0 0 1-1.302-1.414c-.317-.607-.476-1.297-.476-2.072 0-.784.16-1.47.476-2.058a3.462 3.462 0 0 1 1.302-1.386 3.625 3.625 0 0 1 1.862-.49Zm2.856 3.948c0-.579-.116-1.083-.35-1.512a2.412 2.412 0 0 0-.951-.98 2.5 2.5 0 0 0-1.303-.35c-.475 0-.91.112-1.301.336a2.44 2.44 0 0 0-.938.98c-.234.429-.35.933-.35 1.512 0 .588.116 1.101.35 1.54.233.429.545.761.938.994.392.224.826.336 1.302.336.476 0 .91-.112 1.302-.336.4-.233.718-.565.951-.994.234-.439.35-.947.35-1.526Zm2.558-.014c0-.784.158-1.47.476-2.058a3.462 3.462 0 0 1 1.302-1.386c.56-.327 1.18-.49 1.862-.49.672 0 1.255.145 1.75.434.494.289.863.653 1.105 1.092v-1.4h1.288V285h-1.288v-1.428c-.252.448-.63.821-1.134 1.12-.494.289-1.073.434-1.736.434a3.477 3.477 0 0 1-1.847-.504 3.532 3.532 0 0 1-1.302-1.414c-.318-.607-.476-1.297-.476-2.072Zm6.495.014c0-.579-.116-1.083-.35-1.512a2.412 2.412 0 0 0-.952-.98 2.5 2.5 0 0 0-1.302-.35c-.476 0-.91.112-1.302.336a2.44 2.44 0 0 0-.938.98c-.233.429-.35.933-.35 1.512 0 .588.117 1.101.35 1.54.234.429.547.761.938.994.393.224.827.336 1.303.336.475 0 .91-.112 1.301-.336.402-.233.72-.565.953-.994.233-.439.35-.947.35-1.526Zm6.771-3.962c.934 0 1.69.285 2.268.854.58.56.868 1.372.868 2.436V285h-1.26v-4.34c0-.765-.19-1.349-.574-1.75-.382-.411-.905-.616-1.568-.616-.672 0-1.208.21-1.61.63-.392.42-.588 1.031-.588 1.834V285h-1.274v-7.672h1.274v1.092a2.543 2.543 0 0 1 1.022-.91c.44-.215.92-.322 1.442-.322Zm5.468-1.106a.838.838 0 0 1-.617-.252.837.837 0 0 1-.252-.616c0-.243.084-.448.252-.616a.838.838 0 0 1 .617-.252c.233 0 .429.084.587.252a.837.837 0 0 1 .252.616.837.837 0 0 1-.252.616.777.777 0 0 1-.587.252Zm.615 1.246V285h-1.273v-7.672h1.273Zm4.48 7.798c-.588 0-1.116-.098-1.582-.294-.467-.205-.836-.485-1.106-.84a2.27 2.27 0 0 1-.448-1.246h1.316c.037.383.214.695.532.938.327.243.751.364 1.274.364.485 0 .868-.107 1.148-.322.28-.215.42-.485.42-.812a.786.786 0 0 0-.448-.742c-.299-.168-.76-.331-1.386-.49a11.408 11.408 0 0 1-1.4-.448 2.658 2.658 0 0 1-.924-.686c-.252-.308-.378-.709-.378-1.204 0-.392.116-.751.35-1.078.233-.327.564-.583.994-.77.43-.196.92-.294 1.47-.294.85 0 1.535.215 2.058.644.522.429.802 1.017.84 1.764h-1.274a1.309 1.309 0 0 0-.49-.966c-.29-.243-.681-.364-1.176-.364-.457 0-.822.098-1.092.294-.27.196-.406.453-.406.77 0 .252.08.462.238.63.168.159.373.289.616.392.252.093.597.201 1.036.322.55.149.999.299 1.344.448.345.14.64.355.882.644.252.289.382.667.392 1.134 0 .42-.117.798-.35 1.134-.233.336-.565.602-.994.798-.42.187-.905.28-1.456.28Zm3.714-3.99c0-.784.159-1.47.476-2.058a3.463 3.463 0 0 1 1.302-1.386c.56-.327 1.18-.49 1.862-.49.672 0 1.256.145 1.75.434.495.289.864.653 1.106 1.092v-1.4h1.288V285h-1.288v-1.428c-.252.448-.63.821-1.134 1.12-.494.289-1.073.434-1.736.434a3.478 3.478 0 0 1-1.848-.504 3.534 3.534 0 0 1-1.302-1.414c-.317-.607-.476-1.297-.476-2.072Zm6.496.014c0-.579-.116-1.083-.35-1.512a2.411 2.411 0 0 0-.952-.98 2.5 2.5 0 0 0-1.302-.35c-.476 0-.91.112-1.302.336a2.44 2.44 0 0 0-.938.98c-.233.429-.35.933-.35 1.512 0 .588.117 1.101.35 1.54.234.429.546.761.938.994.392.224.826.336 1.302.336.476 0 .91-.112 1.302-.336.402-.233.719-.565.952-.994.234-.439.35-.947.35-1.526Zm4.587-2.772v4.522c0 .373.08.639.238.798.159.149.434.224.826.224h.938V285h-1.148c-.71 0-1.241-.163-1.596-.49-.355-.327-.532-.863-.532-1.61v-4.522h-.994v-1.05h.994v-1.932h1.274v1.932h2.002v1.05h-2.002Zm3.796-2.296a.838.838 0 0 1-.616-.252.837.837 0 0 1-.252-.616c0-.243.084-.448.252-.616a.838.838 0 0 1 .616-.252c.233 0 .43.084.588.252a.837.837 0 0 1 .252.616.837.837 0 0 1-.252.616.777.777 0 0 1-.588.252Zm.616 1.246V285h-1.274v-7.672h1.274Zm5.11 7.798a3.963 3.963 0 0 1-1.96-.49 3.566 3.566 0 0 1-1.373-1.386c-.327-.607-.49-1.307-.49-2.1 0-.784.168-1.475.504-2.072a3.503 3.503 0 0 1 1.4-1.386c.588-.327 1.246-.49 1.974-.49s1.386.163 1.974.49a3.44 3.44 0 0 1 1.386 1.372c.345.597.518 1.293.518 2.086 0 .793-.177 1.493-.532 2.1a3.606 3.606 0 0 1-1.414 1.386 4.07 4.07 0 0 1-1.988.49Zm0-1.12c.456 0 .886-.107 1.287-.322a2.41 2.41 0 0 0 .966-.966c.252-.429.378-.952.378-1.568 0-.616-.121-1.139-.364-1.568-.243-.429-.56-.747-.952-.952a2.606 2.606 0 0 0-1.274-.322c-.467 0-.896.107-1.288.322-.383.205-.69.523-.924.952-.233.429-.35.952-.35 1.568 0 .625.112 1.153.336 1.582.233.429.541.751.924.966.383.205.803.308 1.26.308Zm8.938-6.818c.934 0 1.69.285 2.268.854.579.56.868 1.372.868 2.436V285h-1.26v-4.34c0-.765-.191-1.349-.574-1.75-.382-.411-.905-.616-1.568-.616-.672 0-1.208.21-1.61.63-.392.42-.588 1.031-.588 1.834V285h-1.274v-7.672h1.274v1.092a2.545 2.545 0 0 1 1.022-.91c.439-.215.92-.322 1.442-.322Zm-79.802 56.054V343h-1.274v-9.758h1.274Zm10.99 1.946c.597 0 1.129.126 1.595.378.467.243.836.611 1.106 1.106.271.495.406 1.097.406 1.806V343h-1.26v-4.34c0-.765-.191-1.349-.574-1.75-.373-.411-.882-.616-1.526-.616-.662 0-1.19.215-1.582.644-.392.42-.588 1.031-.588 1.834V343h-1.26v-4.34c0-.765-.191-1.349-.574-1.75-.373-.411-.882-.616-1.526-.616-.662 0-1.19.215-1.582.644-.392.42-.588 1.031-.588 1.834V343h-1.274v-7.672h1.274v1.106a2.534 2.534 0 0 1 1.008-.924c.43-.215.901-.322 1.414-.322.644 0 1.214.145 1.708.434.495.289.864.714 1.106 1.274a2.52 2.52 0 0 1 1.064-1.26 3.131 3.131 0 0 1 1.652-.448Zm6.063 1.554c.252-.439.626-.803 1.12-1.092.504-.299 1.087-.448 1.75-.448a3.55 3.55 0 0 1 1.848.49c.56.327.999.789 1.316 1.386.318.588.476 1.274.476 2.058 0 .775-.158 1.465-.476 2.072a3.5 3.5 0 0 1-1.316 1.414 3.477 3.477 0 0 1-1.848.504c-.653 0-1.232-.145-1.736-.434-.495-.299-.873-.667-1.134-1.106v5.054h-1.274v-11.312h1.274v1.414Zm5.208 2.394c0-.579-.117-1.083-.35-1.512a2.411 2.411 0 0 0-.952-.98 2.578 2.578 0 0 0-1.302-.336c-.467 0-.9.117-1.302.35-.392.224-.71.555-.952.994-.233.429-.35.929-.35 1.498 0 .579.117 1.087.35 1.526.243.429.56.761.952.994.401.224.835.336 1.302.336.476 0 .91-.112 1.302-.336.401-.233.719-.565.952-.994.233-.439.35-.952.35-1.54Zm9.375-3.808V343h-1.274v-1.134c-.243.392-.583.7-1.022.924-.43.215-.905.322-1.428.322a3.49 3.49 0 0 1-1.61-.364 2.784 2.784 0 0 1-1.134-1.12c-.27-.495-.406-1.097-.406-1.806v-4.494h1.26v4.326c0 .756.191 1.339.574 1.75.383.401.905.602 1.568.602.681 0 1.218-.21 1.61-.63.392-.42.588-1.031.588-1.834v-4.214h1.274Zm3.017-2.688V343h-1.274v-10.36h1.274Zm4.48 10.486c-.588 0-1.116-.098-1.582-.294-.467-.205-.836-.485-1.106-.84a2.27 2.27 0 0 1-.448-1.246h1.316c.037.383.214.695.532.938.326.243.75.364 1.273.364.486 0 .868-.107 1.148-.322.28-.215.42-.485.42-.812a.787.787 0 0 0-.447-.742c-.3-.168-.761-.331-1.386-.49a11.403 11.403 0 0 1-1.4-.448 2.658 2.658 0 0 1-.925-.686c-.252-.308-.378-.709-.378-1.204 0-.392.117-.751.35-1.078.234-.327.565-.583.995-.77.429-.196.919-.294 1.47-.294.849 0 1.535.215 2.058.644.522.429.802 1.017.84 1.764H66.94a1.309 1.309 0 0 0-.49-.966c-.289-.243-.68-.364-1.175-.364-.458 0-.822.098-1.093.294-.27.196-.406.453-.406.77 0 .252.08.462.238.63.169.159.374.289.617.392.251.093.597.201 1.035.322.551.149 1 .299 1.344.448.346.14.64.355.882.644.252.289.383.667.392 1.134 0 .42-.116.798-.35 1.134-.233.336-.564.602-.993.798-.42.187-.906.28-1.457.28Zm4.848-9.044a.838.838 0 0 1-.616-.252.837.837 0 0 1-.252-.616c0-.243.084-.448.252-.616a.838.838 0 0 1 .616-.252c.233 0 .43.084.588.252a.837.837 0 0 1 .252.616.837.837 0 0 1-.252.616.776.776 0 0 1-.588.252Zm.616 1.246V343h-1.274v-7.672h1.274Zm4.62 6.496 2.38-6.496h1.357L76.296 343h-1.484l-3.01-7.672h1.372l2.394 6.496Zm5.24-7.742a.838.838 0 0 1-.615-.252.837.837 0 0 1-.252-.616c0-.243.084-.448.252-.616a.838.838 0 0 1 .616-.252c.233 0 .43.084.588.252a.837.837 0 0 1 .252.616.837.837 0 0 1-.252.616.777.777 0 0 1-.588.252Zm.617 1.246V343h-1.274v-7.672h1.274Zm3.317 1.05v4.522c0 .373.08.639.238.798.159.149.434.224.826.224h.938V343h-1.148c-.71 0-1.241-.163-1.596-.49-.355-.327-.532-.863-.532-1.61v-4.522h-.994v-1.05h.994v-1.932h1.274v1.932h2.002v1.05h-2.002Zm9.746-1.05-4.62 11.284h-1.316l1.512-3.696-3.094-7.588h1.414l2.408 6.216 2.38-6.216h1.316Zm224.459-174.126c.663 0 1.242.145 1.736.434.504.289.878.653 1.12 1.092v-1.4h1.288v7.84c0 .7-.149 1.321-.448 1.862-.298.551-.728.98-1.288 1.288-.55.308-1.194.462-1.932.462-1.008 0-1.848-.238-2.52-.714-.672-.476-1.068-1.125-1.19-1.946h1.26c.14.467.43.84.868 1.12.439.289.966.434 1.582.434.7 0 1.27-.219 1.708-.658.448-.439.672-1.055.672-1.848v-1.61c-.252.448-.625.821-1.12 1.12-.494.299-1.073.448-1.736.448a3.551 3.551 0 0 1-1.862-.504 3.542 3.542 0 0 1-1.302-1.414c-.317-.607-.476-1.297-.476-2.072 0-.784.159-1.47.476-2.058a3.471 3.471 0 0 1 1.302-1.386 3.625 3.625 0 0 1 1.862-.49Zm2.856 3.948c0-.579-.116-1.083-.35-1.512a2.405 2.405 0 0 0-.952-.98 2.5 2.5 0 0 0-1.302-.35c-.476 0-.91.112-1.302.336a2.444 2.444 0 0 0-.938.98c-.233.429-.35.933-.35 1.512 0 .588.117 1.101.35 1.54.234.429.546.761.938.994.392.224.826.336 1.302.336.476 0 .91-.112 1.302-.336.402-.233.719-.565.952-.994.234-.439.35-.947.35-1.526Zm4.307-2.576c.224-.439.541-.779.952-1.022.42-.243.929-.364 1.526-.364v1.316h-.336c-1.428 0-2.142.775-2.142 2.324V169h-1.274v-7.672h1.274v1.246Zm10.541 2.296c0 .243-.014.499-.042.77h-6.132c.046.756.303 1.349.77 1.778.476.42 1.05.63 1.722.63.55 0 1.008-.126 1.372-.378.373-.261.634-.607.784-1.036h1.372a3.338 3.338 0 0 1-1.232 1.806c-.616.457-1.382.686-2.296.686-.728 0-1.382-.163-1.96-.49a3.49 3.49 0 0 1-1.344-1.386c-.327-.607-.49-1.307-.49-2.1 0-.793.158-1.489.476-2.086a3.303 3.303 0 0 1 1.33-1.372c.578-.327 1.241-.49 1.988-.49.728 0 1.372.159 1.932.476.56.317.989.756 1.288 1.316.308.551.462 1.176.462 1.876Zm-1.316-.266c0-.485-.108-.901-.322-1.246a2.026 2.026 0 0 0-.882-.798 2.626 2.626 0 0 0-1.218-.28c-.644 0-1.195.205-1.652.616-.448.411-.705.98-.77 1.708h4.844Zm2.113.532c0-.784.159-1.47.476-2.058a3.471 3.471 0 0 1 1.302-1.386 3.625 3.625 0 0 1 1.862-.49c.672 0 1.256.145 1.75.434.495.289.864.653 1.106 1.092v-1.4h1.288V169h-1.288v-1.428c-.252.448-.63.821-1.134 1.12-.494.289-1.073.434-1.736.434a3.48 3.48 0 0 1-1.848-.504 3.542 3.542 0 0 1-1.302-1.414c-.317-.607-.476-1.297-.476-2.072Zm6.496.014c0-.579-.116-1.083-.35-1.512a2.405 2.405 0 0 0-.952-.98 2.5 2.5 0 0 0-1.302-.35c-.476 0-.91.112-1.302.336a2.444 2.444 0 0 0-.938.98c-.233.429-.35.933-.35 1.512 0 .588.117 1.101.35 1.54.234.429.546.761.938.994.392.224.826.336 1.302.336.476 0 .91-.112 1.302-.336.402-.233.719-.565.952-.994.234-.439.35-.947.35-1.526Zm4.587-2.772v4.522c0 .373.08.639.238.798.159.149.434.224.826.224h.938V169h-1.148c-.709 0-1.241-.163-1.596-.49-.354-.327-.532-.863-.532-1.61v-4.522h-.994v-1.05h.994v-1.932h1.274v1.932h2.002v1.05h-2.002Zm-27.898 56.824c.663 0 1.241.145 1.736.434.504.289.877.653 1.12 1.092v-1.4h1.288v7.84c0 .7-.149 1.321-.448 1.862a3.17 3.17 0 0 1-1.288 1.288c-.551.308-1.195.462-1.932.462-1.008 0-1.848-.238-2.52-.714a2.79 2.79 0 0 1-1.19-1.946h1.26c.14.467.429.84.868 1.12.439.289.966.434 1.582.434.7 0 1.269-.219 1.708-.658.448-.439.672-1.055.672-1.848v-1.61c-.252.448-.625.821-1.12 1.12-.495.299-1.073.448-1.736.448a3.551 3.551 0 0 1-1.862-.504 3.528 3.528 0 0 1-1.302-1.414c-.317-.607-.476-1.297-.476-2.072 0-.784.159-1.47.476-2.058a3.458 3.458 0 0 1 1.302-1.386 3.625 3.625 0 0 1 1.862-.49Zm2.856 3.948c0-.579-.117-1.083-.35-1.512a2.412 2.412 0 0 0-.952-.98 2.5 2.5 0 0 0-1.302-.35c-.476 0-.91.112-1.302.336a2.438 2.438 0 0 0-.938.98c-.233.429-.35.933-.35 1.512 0 .588.117 1.101.35 1.54.233.429.546.761.938.994.392.224.826.336 1.302.336.476 0 .91-.112 1.302-.336.401-.233.719-.565.952-.994.233-.439.35-.947.35-1.526Zm6.379 3.976a3.963 3.963 0 0 1-1.96-.49 3.564 3.564 0 0 1-1.372-1.386c-.327-.607-.49-1.307-.49-2.1 0-.784.168-1.475.504-2.072a3.501 3.501 0 0 1 1.4-1.386c.588-.327 1.246-.49 1.974-.49s1.386.163 1.974.49a3.44 3.44 0 0 1 1.386 1.372c.345.597.518 1.293.518 2.086 0 .793-.177 1.493-.532 2.1a3.609 3.609 0 0 1-1.414 1.386 4.07 4.07 0 0 1-1.988.49Zm0-1.12c.457 0 .887-.107 1.288-.322.401-.215.723-.537.966-.966.252-.429.378-.952.378-1.568 0-.616-.121-1.139-.364-1.568-.243-.429-.56-.747-.952-.952a2.607 2.607 0 0 0-1.274-.322c-.467 0-.896.107-1.288.322-.383.205-.691.523-.924.952-.233.429-.35.952-.35 1.568 0 .625.112 1.153.336 1.582.233.429.541.751.924.966.383.205.803.308 1.26.308Zm8.547 1.12a3.963 3.963 0 0 1-1.96-.49 3.564 3.564 0 0 1-1.372-1.386c-.327-.607-.49-1.307-.49-2.1 0-.784.168-1.475.504-2.072a3.501 3.501 0 0 1 1.4-1.386c.588-.327 1.246-.49 1.974-.49s1.386.163 1.974.49a3.44 3.44 0 0 1 1.386 1.372c.345.597.518 1.293.518 2.086 0 .793-.177 1.493-.532 2.1a3.609 3.609 0 0 1-1.414 1.386 4.07 4.07 0 0 1-1.988.49Zm0-1.12c.457 0 .887-.107 1.288-.322.401-.215.723-.537.966-.966.252-.429.378-.952.378-1.568 0-.616-.121-1.139-.364-1.568-.243-.429-.56-.747-.952-.952a2.607 2.607 0 0 0-1.274-.322c-.467 0-.896.107-1.288.322-.383.205-.691.523-.924.952-.233.429-.35.952-.35 1.568 0 .625.112 1.153.336 1.582.233.429.541.751.924.966.383.205.803.308 1.26.308Zm4.725-2.87c0-.784.159-1.47.476-2.058a3.458 3.458 0 0 1 1.302-1.386 3.65 3.65 0 0 1 1.876-.49c.597 0 1.153.14 1.666.42.513.271.905.63 1.176 1.078v-4.06h1.288V227h-1.288v-1.442a3.034 3.034 0 0 1-1.12 1.134c-.495.289-1.073.434-1.736.434a3.551 3.551 0 0 1-1.862-.504 3.528 3.528 0 0 1-1.302-1.414c-.317-.607-.476-1.297-.476-2.072Zm6.496.014c0-.579-.117-1.083-.35-1.512a2.412 2.412 0 0 0-.952-.98 2.5 2.5 0 0 0-1.302-.35c-.476 0-.91.112-1.302.336a2.438 2.438 0 0 0-.938.98c-.233.429-.35.933-.35 1.512 0 .588.117 1.101.35 1.54.233.429.546.761.938.994.392.224.826.336 1.302.336.476 0 .91-.112 1.302-.336.401-.233.719-.565.952-.994.233-.439.35-.947.35-1.526Zm-9.965 499.976a3.963 3.963 0 0 1-1.96-.49 3.564 3.564 0 0 1-1.372-1.386c-.327-.607-.49-1.307-.49-2.1 0-.784.168-1.475.504-2.072a3.501 3.501 0 0 1 1.4-1.386c.588-.327 1.246-.49 1.974-.49s1.386.163 1.974.49a3.44 3.44 0 0 1 1.386 1.372c.345.597.518 1.293.518 2.086 0 .793-.177 1.493-.532 2.1a3.609 3.609 0 0 1-1.414 1.386 4.07 4.07 0 0 1-1.988.49Zm0-1.12c.457 0 .887-.107 1.288-.322.401-.215.723-.537.966-.966.252-.429.378-.952.378-1.568 0-.616-.121-1.139-.364-1.568-.243-.429-.56-.747-.952-.952a2.607 2.607 0 0 0-1.274-.322c-.467 0-.896.107-1.288.322-.383.205-.691.523-.924.952-.233.429-.35.952-.35 1.568 0 .625.112 1.153.336 1.582.233.429.541.751.924.966.383.205.803.308 1.26.308Zm9.485.994-3.01-3.388V723h-1.274v-10.36h1.274v6.09l2.954-3.402h1.778l-3.612 3.822 3.626 3.85h-1.736Zm-9.485 58.126a3.963 3.963 0 0 1-1.96-.49 3.564 3.564 0 0 1-1.372-1.386c-.327-.607-.49-1.307-.49-2.1 0-.784.168-1.475.504-2.072a3.501 3.501 0 0 1 1.4-1.386c.588-.327 1.246-.49 1.974-.49s1.386.163 1.974.49a3.44 3.44 0 0 1 1.386 1.372c.345.597.518 1.293.518 2.086 0 .793-.177 1.493-.532 2.1a3.609 3.609 0 0 1-1.414 1.386 4.07 4.07 0 0 1-1.988.49Zm0-1.12c.457 0 .887-.107 1.288-.322.401-.215.723-.537.966-.966.252-.429.378-.952.378-1.568 0-.616-.121-1.139-.364-1.568-.243-.429-.56-.747-.952-.952a2.607 2.607 0 0 0-1.274-.322c-.467 0-.896.107-1.288.322-.383.205-.691.523-.924.952-.233.429-.35.952-.35 1.568 0 .625.112 1.153.336 1.582.233.429.541.751.924.966.383.205.803.308 1.26.308Zm9.485.994-3.01-3.388V781h-1.274v-10.36h1.274v6.09l2.954-3.402h1.778l-3.612 3.822 3.626 3.85h-1.736Zm-62.511-311.874c-.588 0-1.116-.098-1.582-.294-.467-.205-.836-.485-1.106-.84a2.267 2.267 0 0 1-.448-1.246h1.316c.037.383.214.695.532.938.326.243.751.364 1.274.364.485 0 .868-.107 1.148-.322.28-.215.42-.485.42-.812a.788.788 0 0 0-.448-.742c-.299-.168-.761-.331-1.386-.49a11.369 11.369 0 0 1-1.4-.448 2.652 2.652 0 0 1-.924-.686c-.252-.308-.378-.709-.378-1.204 0-.392.116-.751.35-1.078.233-.327.564-.583.994-.77.429-.196.919-.294 1.47-.294.849 0 1.535.215 2.058.644.522.429.802 1.017.84 1.764h-1.274a1.31 1.31 0 0 0-.49-.966c-.29-.243-.682-.364-1.176-.364-.458 0-.822.098-1.092.294-.271.196-.406.453-.406.77a.88.88 0 0 0 .238.63c.168.159.373.289.616.392.252.093.597.201 1.036.322.55.149.998.299 1.344.448.345.14.639.355.882.644.252.289.382.667.392 1.134 0 .42-.117.798-.35 1.134-.234.336-.565.602-.994.798-.42.187-.906.28-1.456.28Zm5.744-6.748v4.522c0 .373.079.639.238.798.159.149.434.224.826.224h.938V469h-1.148c-.709 0-1.241-.163-1.596-.49-.355-.327-.532-.863-.532-1.61v-4.522h-.994v-1.05h.994v-1.932h1.274v1.932h2.002v1.05h-2.002Zm4.412.196c.224-.439.541-.779.952-1.022.42-.243.928-.364 1.526-.364v1.316h-.336c-1.428 0-2.142.775-2.142 2.324V469h-1.274v-7.672h1.274v1.246Zm10.344-1.246V469h-1.274v-1.134c-.242.392-.583.7-1.022.924a3.142 3.142 0 0 1-1.428.322 3.49 3.49 0 0 1-1.61-.364 2.784 2.784 0 0 1-1.134-1.12c-.27-.495-.406-1.097-.406-1.806v-4.494h1.26v4.326c0 .756.192 1.339.574 1.75.383.401.906.602 1.568.602.682 0 1.218-.21 1.61-.63.392-.42.588-1.031.588-1.834v-4.214h1.274Zm4.907-.126c.663 0 1.242.145 1.736.434.504.289.878.653 1.12 1.092v-1.4h1.288v7.84c0 .7-.149 1.321-.448 1.862-.298.551-.728.98-1.288 1.288-.55.308-1.194.462-1.932.462-1.008 0-1.848-.238-2.52-.714-.672-.476-1.068-1.125-1.19-1.946h1.26c.14.467.43.84.868 1.12.439.289.966.434 1.582.434.7 0 1.27-.219 1.708-.658.448-.439.672-1.055.672-1.848v-1.61c-.252.448-.625.821-1.12 1.12-.494.299-1.073.448-1.736.448a3.551 3.551 0 0 1-1.862-.504 3.542 3.542 0 0 1-1.302-1.414c-.317-.607-.476-1.297-.476-2.072 0-.784.159-1.47.476-2.058a3.471 3.471 0 0 1 1.302-1.386 3.625 3.625 0 0 1 1.862-.49Zm2.856 3.948c0-.579-.116-1.083-.35-1.512a2.405 2.405 0 0 0-.952-.98 2.5 2.5 0 0 0-1.302-.35c-.476 0-.91.112-1.302.336a2.444 2.444 0 0 0-.938.98c-.233.429-.35.933-.35 1.512 0 .588.117 1.101.35 1.54.234.429.546.761.938.994.392.224.826.336 1.302.336.476 0 .91-.112 1.302-.336.402-.233.719-.565.952-.994.234-.439.35-.947.35-1.526Zm6.197-3.948c.663 0 1.242.145 1.736.434.504.289.878.653 1.12 1.092v-1.4h1.288v7.84c0 .7-.149 1.321-.448 1.862-.298.551-.728.98-1.288 1.288-.55.308-1.194.462-1.932.462-1.008 0-1.848-.238-2.52-.714-.672-.476-1.068-1.125-1.19-1.946h1.26c.14.467.43.84.868 1.12.439.289.966.434 1.582.434.7 0 1.27-.219 1.708-.658.448-.439.672-1.055.672-1.848v-1.61c-.252.448-.625.821-1.12 1.12-.494.299-1.073.448-1.736.448a3.551 3.551 0 0 1-1.862-.504 3.542 3.542 0 0 1-1.302-1.414c-.317-.607-.476-1.297-.476-2.072 0-.784.159-1.47.476-2.058a3.471 3.471 0 0 1 1.302-1.386 3.625 3.625 0 0 1 1.862-.49Zm2.856 3.948c0-.579-.116-1.083-.35-1.512a2.405 2.405 0 0 0-.952-.98 2.5 2.5 0 0 0-1.302-.35c-.476 0-.91.112-1.302.336a2.444 2.444 0 0 0-.938.98c-.233.429-.35.933-.35 1.512 0 .588.117 1.101.35 1.54.234.429.546.761.938.994.392.224.826.336 1.302.336.476 0 .91-.112 1.302-.336.402-.233.719-.565.952-.994.234-.439.35-.947.35-1.526Zm4.307-6.51V469h-1.274v-10.36h1.274Zm2.422 1.442a.837.837 0 0 1-.616-.252.837.837 0 0 1-.252-.616c0-.243.084-.448.252-.616a.837.837 0 0 1 .616-.252c.233 0 .429.084.588.252a.837.837 0 0 1 .252.616.837.837 0 0 1-.252.616.778.778 0 0 1-.588.252Zm.616 1.246V469h-1.274v-7.672h1.274Zm5.501-.14c.933 0 1.689.285 2.268.854.579.56.868 1.372.868 2.436V469h-1.26v-4.34c0-.765-.191-1.349-.574-1.75-.383-.411-.905-.616-1.568-.616-.672 0-1.209.21-1.61.63-.392.42-.588 1.031-.588 1.834V469h-1.274v-7.672h1.274v1.092a2.545 2.545 0 0 1 1.022-.91 3.231 3.231 0 0 1 1.442-.322Zm7.973.014c.663 0 1.241.145 1.736.434.504.289.877.653 1.12 1.092v-1.4h1.288v7.84c0 .7-.149 1.321-.448 1.862a3.17 3.17 0 0 1-1.288 1.288c-.551.308-1.195.462-1.932.462-1.008 0-1.848-.238-2.52-.714a2.79 2.79 0 0 1-1.19-1.946h1.26c.14.467.429.84.868 1.12.439.289.966.434 1.582.434.7 0 1.269-.219 1.708-.658.448-.439.672-1.055.672-1.848v-1.61c-.252.448-.625.821-1.12 1.12-.495.299-1.073.448-1.736.448a3.551 3.551 0 0 1-1.862-.504 3.528 3.528 0 0 1-1.302-1.414c-.317-.607-.476-1.297-.476-2.072 0-.784.159-1.47.476-2.058a3.458 3.458 0 0 1 1.302-1.386 3.625 3.625 0 0 1 1.862-.49Zm2.856 3.948c0-.579-.117-1.083-.35-1.512a2.412 2.412 0 0 0-.952-.98 2.5 2.5 0 0 0-1.302-.35c-.476 0-.91.112-1.302.336a2.438 2.438 0 0 0-.938.98c-.233.429-.35.933-.35 1.512 0 .588.117 1.101.35 1.54.233.429.546.761.938.994.392.224.826.336 1.302.336.476 0 .91-.112 1.302-.336.401-.233.719-.565.952-.994.233-.439.35-.947.35-1.526Zm-60.991 61.976c-.588 0-1.116-.098-1.582-.294-.467-.205-.836-.485-1.106-.84a2.267 2.267 0 0 1-.448-1.246h1.316c.037.383.214.695.532.938.326.243.751.364 1.274.364.485 0 .868-.107 1.148-.322.28-.215.42-.485.42-.812a.788.788 0 0 0-.448-.742c-.299-.168-.761-.331-1.386-.49a11.369 11.369 0 0 1-1.4-.448 2.652 2.652 0 0 1-.924-.686c-.252-.308-.378-.709-.378-1.204 0-.392.116-.751.35-1.078.233-.327.564-.583.994-.77.429-.196.919-.294 1.47-.294.849 0 1.535.215 2.058.644.522.429.802 1.017.84 1.764h-1.274a1.31 1.31 0 0 0-.49-.966c-.29-.243-.682-.364-1.176-.364-.458 0-.822.098-1.092.294-.271.196-.406.453-.406.77a.88.88 0 0 0 .238.63c.168.159.373.289.616.392.252.093.597.201 1.036.322.55.149.998.299 1.344.448.345.14.639.355.882.644.252.289.382.667.392 1.134 0 .42-.117.798-.35 1.134-.234.336-.565.602-.994.798-.42.187-.906.28-1.456.28Zm5.744-6.748v4.522c0 .373.079.639.238.798.159.149.434.224.826.224h.938V527h-1.148c-.709 0-1.241-.163-1.596-.49-.355-.327-.532-.863-.532-1.61v-4.522h-.994v-1.05h.994v-1.932h1.274v1.932h2.002v1.05h-2.002Zm4.412.196c.224-.439.541-.779.952-1.022.42-.243.928-.364 1.526-.364v1.316h-.336c-1.428 0-2.142.775-2.142 2.324V527h-1.274v-7.672h1.274v1.246Zm10.344-1.246V527h-1.274v-1.134c-.242.392-.583.7-1.022.924a3.142 3.142 0 0 1-1.428.322 3.49 3.49 0 0 1-1.61-.364 2.784 2.784 0 0 1-1.134-1.12c-.27-.495-.406-1.097-.406-1.806v-4.494h1.26v4.326c0 .756.192 1.339.574 1.75.383.401.906.602 1.568.602.682 0 1.218-.21 1.61-.63.392-.42.588-1.031.588-1.834v-4.214h1.274Zm4.907-.126c.663 0 1.242.145 1.736.434.504.289.878.653 1.12 1.092v-1.4h1.288v7.84c0 .7-.149 1.321-.448 1.862-.298.551-.728.98-1.288 1.288-.55.308-1.194.462-1.932.462-1.008 0-1.848-.238-2.52-.714-.672-.476-1.068-1.125-1.19-1.946h1.26c.14.467.43.84.868 1.12.439.289.966.434 1.582.434.7 0 1.27-.219 1.708-.658.448-.439.672-1.055.672-1.848v-1.61c-.252.448-.625.821-1.12 1.12-.494.299-1.073.448-1.736.448a3.551 3.551 0 0 1-1.862-.504 3.542 3.542 0 0 1-1.302-1.414c-.317-.607-.476-1.297-.476-2.072 0-.784.159-1.47.476-2.058a3.471 3.471 0 0 1 1.302-1.386 3.625 3.625 0 0 1 1.862-.49Zm2.856 3.948c0-.579-.116-1.083-.35-1.512a2.405 2.405 0 0 0-.952-.98 2.5 2.5 0 0 0-1.302-.35c-.476 0-.91.112-1.302.336a2.444 2.444 0 0 0-.938.98c-.233.429-.35.933-.35 1.512 0 .588.117 1.101.35 1.54.234.429.546.761.938.994.392.224.826.336 1.302.336.476 0 .91-.112 1.302-.336.402-.233.719-.565.952-.994.234-.439.35-.947.35-1.526Zm6.197-3.948c.663 0 1.242.145 1.736.434.504.289.878.653 1.12 1.092v-1.4h1.288v7.84c0 .7-.149 1.321-.448 1.862-.298.551-.728.98-1.288 1.288-.55.308-1.194.462-1.932.462-1.008 0-1.848-.238-2.52-.714-.672-.476-1.068-1.125-1.19-1.946h1.26c.14.467.43.84.868 1.12.439.289.966.434 1.582.434.7 0 1.27-.219 1.708-.658.448-.439.672-1.055.672-1.848v-1.61c-.252.448-.625.821-1.12 1.12-.494.299-1.073.448-1.736.448a3.551 3.551 0 0 1-1.862-.504 3.542 3.542 0 0 1-1.302-1.414c-.317-.607-.476-1.297-.476-2.072 0-.784.159-1.47.476-2.058a3.471 3.471 0 0 1 1.302-1.386 3.625 3.625 0 0 1 1.862-.49Zm2.856 3.948c0-.579-.116-1.083-.35-1.512a2.405 2.405 0 0 0-.952-.98 2.5 2.5 0 0 0-1.302-.35c-.476 0-.91.112-1.302.336a2.444 2.444 0 0 0-.938.98c-.233.429-.35.933-.35 1.512 0 .588.117 1.101.35 1.54.234.429.546.761.938.994.392.224.826.336 1.302.336.476 0 .91-.112 1.302-.336.402-.233.719-.565.952-.994.234-.439.35-.947.35-1.526Zm4.307-6.51V527h-1.274v-10.36h1.274Zm2.422 1.442a.837.837 0 0 1-.616-.252.837.837 0 0 1-.252-.616c0-.243.084-.448.252-.616a.837.837 0 0 1 .616-.252c.233 0 .429.084.588.252a.837.837 0 0 1 .252.616.837.837 0 0 1-.252.616.778.778 0 0 1-.588.252Zm.616 1.246V527h-1.274v-7.672h1.274Zm5.501-.14c.933 0 1.689.285 2.268.854.579.56.868 1.372.868 2.436V527h-1.26v-4.34c0-.765-.191-1.349-.574-1.75-.383-.411-.905-.616-1.568-.616-.672 0-1.209.21-1.61.63-.392.42-.588 1.031-.588 1.834V527h-1.274v-7.672h1.274v1.092a2.545 2.545 0 0 1 1.022-.91 3.231 3.231 0 0 1 1.442-.322Zm7.973.014c.663 0 1.241.145 1.736.434.504.289.877.653 1.12 1.092v-1.4h1.288v7.84c0 .7-.149 1.321-.448 1.862a3.17 3.17 0 0 1-1.288 1.288c-.551.308-1.195.462-1.932.462-1.008 0-1.848-.238-2.52-.714a2.79 2.79 0 0 1-1.19-1.946h1.26c.14.467.429.84.868 1.12.439.289.966.434 1.582.434.7 0 1.269-.219 1.708-.658.448-.439.672-1.055.672-1.848v-1.61c-.252.448-.625.821-1.12 1.12-.495.299-1.073.448-1.736.448a3.551 3.551 0 0 1-1.862-.504 3.528 3.528 0 0 1-1.302-1.414c-.317-.607-.476-1.297-.476-2.072 0-.784.159-1.47.476-2.058a3.458 3.458 0 0 1 1.302-1.386 3.625 3.625 0 0 1 1.862-.49Zm2.856 3.948c0-.579-.117-1.083-.35-1.512a2.412 2.412 0 0 0-.952-.98 2.5 2.5 0 0 0-1.302-.35c-.476 0-.91.112-1.302.336a2.438 2.438 0 0 0-.938.98c-.233.429-.35.933-.35 1.512 0 .588.117 1.101.35 1.54.233.429.546.761.938.994.392.224.826.336 1.302.336.476 0 .91-.112 1.302-.336.401-.233.719-.565.952-.994.233-.439.35-.947.35-1.526Zm-29.655 55.592c.252-.439.626-.803 1.12-1.092.504-.299 1.088-.448 1.75-.448.682 0 1.298.163 1.848.49.56.327.999.789 1.316 1.386.318.588.476 1.274.476 2.058 0 .775-.158 1.465-.476 2.072a3.498 3.498 0 0 1-1.316 1.414 3.474 3.474 0 0 1-1.848.504c-.653 0-1.232-.145-1.736-.434-.494-.299-.872-.667-1.134-1.106v5.054h-1.274v-11.312h1.274v1.414Zm5.208 2.394c0-.579-.116-1.083-.35-1.512a2.405 2.405 0 0 0-.952-.98 2.578 2.578 0 0 0-1.302-.336c-.466 0-.9.117-1.302.35a2.51 2.51 0 0 0-.952.994c-.233.429-.35.929-.35 1.498 0 .579.117 1.087.35 1.526.243.429.56.761.952.994.402.224.836.336 1.302.336.476 0 .91-.112 1.302-.336.402-.233.719-.565.952-.994.234-.439.35-.952.35-1.54Zm5.917 3.99a3.965 3.965 0 0 1-1.96-.49 3.57 3.57 0 0 1-1.372-1.386c-.326-.607-.49-1.307-.49-2.1 0-.784.168-1.475.504-2.072a3.508 3.508 0 0 1 1.4-1.386c.588-.327 1.246-.49 1.974-.49s1.386.163 1.974.49a3.44 3.44 0 0 1 1.386 1.372c.346.597.518 1.293.518 2.086 0 .793-.177 1.493-.532 2.1a3.602 3.602 0 0 1-1.414 1.386 4.07 4.07 0 0 1-1.988.49Zm0-1.12c.458 0 .887-.107 1.288-.322.402-.215.724-.537.966-.966.252-.429.378-.952.378-1.568 0-.616-.121-1.139-.364-1.568-.242-.429-.56-.747-.952-.952a2.605 2.605 0 0 0-1.274-.322c-.466 0-.896.107-1.288.322-.382.205-.69.523-.924.952-.233.429-.35.952-.35 1.568 0 .625.112 1.153.336 1.582.234.429.542.751.924.966.383.205.803.308 1.26.308Zm8.547 1.12a3.965 3.965 0 0 1-1.96-.49 3.57 3.57 0 0 1-1.372-1.386c-.326-.607-.49-1.307-.49-2.1 0-.784.168-1.475.504-2.072a3.508 3.508 0 0 1 1.4-1.386c.588-.327 1.246-.49 1.974-.49s1.386.163 1.974.49a3.44 3.44 0 0 1 1.386 1.372c.346.597.518 1.293.518 2.086 0 .793-.177 1.493-.532 2.1a3.602 3.602 0 0 1-1.414 1.386 4.07 4.07 0 0 1-1.988.49Zm0-1.12c.458 0 .887-.107 1.288-.322.402-.215.724-.537.966-.966.252-.429.378-.952.378-1.568 0-.616-.121-1.139-.364-1.568-.242-.429-.56-.747-.952-.952a2.605 2.605 0 0 0-1.274-.322c-.466 0-.896.107-1.288.322-.382.205-.69.523-.924.952-.233.429-.35.952-.35 1.568 0 .625.112 1.153.336 1.582.234.429.542.751.924.966.383.205.803.308 1.26.308Zm6.475-5.432c.224-.439.542-.779.952-1.022.42-.243.929-.364 1.526-.364v1.316h-.336c-1.428 0-2.142.775-2.142 2.324V585h-1.274v-7.672h1.274v1.246Zm-23.495-301.372c.663 0 1.241.145 1.736.434.504.289.877.653 1.12 1.092v-1.4h1.288v7.84c0 .7-.149 1.321-.448 1.862a3.17 3.17 0 0 1-1.288 1.288c-.551.308-1.195.462-1.932.462-1.008 0-1.848-.238-2.52-.714a2.79 2.79 0 0 1-1.19-1.946h1.26c.14.467.429.84.868 1.12.439.289.966.434 1.582.434.7 0 1.269-.219 1.708-.658.448-.439.672-1.055.672-1.848v-1.61c-.252.448-.625.821-1.12 1.12-.495.299-1.073.448-1.736.448a3.551 3.551 0 0 1-1.862-.504 3.528 3.528 0 0 1-1.302-1.414c-.317-.607-.476-1.297-.476-2.072 0-.784.159-1.47.476-2.058a3.458 3.458 0 0 1 1.302-1.386 3.625 3.625 0 0 1 1.862-.49Zm2.856 3.948c0-.579-.117-1.083-.35-1.512a2.412 2.412 0 0 0-.952-.98 2.5 2.5 0 0 0-1.302-.35c-.476 0-.91.112-1.302.336a2.438 2.438 0 0 0-.938.98c-.233.429-.35.933-.35 1.512 0 .588.117 1.101.35 1.54.233.429.546.761.938.994.392.224.826.336 1.302.336.476 0 .91-.112 1.302-.336.401-.233.719-.565.952-.994.233-.439.35-.947.35-1.526Zm6.379 3.976a3.963 3.963 0 0 1-1.96-.49 3.564 3.564 0 0 1-1.372-1.386c-.327-.607-.49-1.307-.49-2.1 0-.784.168-1.475.504-2.072a3.501 3.501 0 0 1 1.4-1.386c.588-.327 1.246-.49 1.974-.49s1.386.163 1.974.49a3.44 3.44 0 0 1 1.386 1.372c.345.597.518 1.293.518 2.086 0 .793-.177 1.493-.532 2.1a3.609 3.609 0 0 1-1.414 1.386 4.07 4.07 0 0 1-1.988.49Zm0-1.12c.457 0 .887-.107 1.288-.322.401-.215.723-.537.966-.966.252-.429.378-.952.378-1.568 0-.616-.121-1.139-.364-1.568-.243-.429-.56-.747-.952-.952a2.607 2.607 0 0 0-1.274-.322c-.467 0-.896.107-1.288.322-.383.205-.691.523-.924.952-.233.429-.35.952-.35 1.568 0 .625.112 1.153.336 1.582.233.429.541.751.924.966.383.205.803.308 1.26.308Zm8.547 1.12a3.963 3.963 0 0 1-1.96-.49 3.564 3.564 0 0 1-1.372-1.386c-.327-.607-.49-1.307-.49-2.1 0-.784.168-1.475.504-2.072a3.501 3.501 0 0 1 1.4-1.386c.588-.327 1.246-.49 1.974-.49s1.386.163 1.974.49a3.44 3.44 0 0 1 1.386 1.372c.345.597.518 1.293.518 2.086 0 .793-.177 1.493-.532 2.1a3.609 3.609 0 0 1-1.414 1.386 4.07 4.07 0 0 1-1.988.49Zm0-1.12c.457 0 .887-.107 1.288-.322.401-.215.723-.537.966-.966.252-.429.378-.952.378-1.568 0-.616-.121-1.139-.364-1.568-.243-.429-.56-.747-.952-.952a2.607 2.607 0 0 0-1.274-.322c-.467 0-.896.107-1.288.322-.383.205-.691.523-.924.952-.233.429-.35.952-.35 1.568 0 .625.112 1.153.336 1.582.233.429.541.751.924.966.383.205.803.308 1.26.308Zm4.725-2.87c0-.784.159-1.47.476-2.058a3.458 3.458 0 0 1 1.302-1.386 3.65 3.65 0 0 1 1.876-.49c.597 0 1.153.14 1.666.42.513.271.905.63 1.176 1.078v-4.06h1.288V285h-1.288v-1.442a3.034 3.034 0 0 1-1.12 1.134c-.495.289-1.073.434-1.736.434a3.551 3.551 0 0 1-1.862-.504 3.528 3.528 0 0 1-1.302-1.414c-.317-.607-.476-1.297-.476-2.072Zm6.496.014c0-.579-.117-1.083-.35-1.512a2.412 2.412 0 0 0-.952-.98 2.5 2.5 0 0 0-1.302-.35c-.476 0-.91.112-1.302.336a2.438 2.438 0 0 0-.938.98c-.233.429-.35.933-.35 1.512 0 .588.117 1.101.35 1.54.233.429.546.761.938.994.392.224.826.336 1.302.336.476 0 .91-.112 1.302-.336.401-.233.719-.565.952-.994.233-.439.35-.947.35-1.526Zm-29.003 54.052c.663 0 1.241.145 1.736.434.504.289.877.653 1.12 1.092v-1.4h1.288v7.84c0 .7-.149 1.321-.448 1.862a3.17 3.17 0 0 1-1.288 1.288c-.551.308-1.195.462-1.932.462-1.008 0-1.848-.238-2.52-.714a2.79 2.79 0 0 1-1.19-1.946h1.26c.14.467.429.84.868 1.12.439.289.966.434 1.582.434.7 0 1.269-.219 1.708-.658.448-.439.672-1.055.672-1.848v-1.61c-.252.448-.625.821-1.12 1.12-.495.299-1.073.448-1.736.448a3.551 3.551 0 0 1-1.862-.504 3.528 3.528 0 0 1-1.302-1.414c-.317-.607-.476-1.297-.476-2.072 0-.784.159-1.47.476-2.058a3.458 3.458 0 0 1 1.302-1.386 3.625 3.625 0 0 1 1.862-.49Zm2.856 3.948c0-.579-.117-1.083-.35-1.512a2.412 2.412 0 0 0-.952-.98 2.5 2.5 0 0 0-1.302-.35c-.476 0-.91.112-1.302.336a2.438 2.438 0 0 0-.938.98c-.233.429-.35.933-.35 1.512 0 .588.117 1.101.35 1.54.233.429.546.761.938.994.392.224.826.336 1.302.336.476 0 .91-.112 1.302-.336.401-.233.719-.565.952-.994.233-.439.35-.947.35-1.526Zm6.379 3.976a3.963 3.963 0 0 1-1.96-.49 3.564 3.564 0 0 1-1.372-1.386c-.327-.607-.49-1.307-.49-2.1 0-.784.168-1.475.504-2.072a3.501 3.501 0 0 1 1.4-1.386c.588-.327 1.246-.49 1.974-.49s1.386.163 1.974.49a3.44 3.44 0 0 1 1.386 1.372c.345.597.518 1.293.518 2.086 0 .793-.177 1.493-.532 2.1a3.609 3.609 0 0 1-1.414 1.386 4.07 4.07 0 0 1-1.988.49Zm0-1.12c.457 0 .887-.107 1.288-.322.401-.215.723-.537.966-.966.252-.429.378-.952.378-1.568 0-.616-.121-1.139-.364-1.568-.243-.429-.56-.747-.952-.952a2.607 2.607 0 0 0-1.274-.322c-.467 0-.896.107-1.288.322-.383.205-.691.523-.924.952-.233.429-.35.952-.35 1.568 0 .625.112 1.153.336 1.582.233.429.541.751.924.966.383.205.803.308 1.26.308Zm8.547 1.12a3.963 3.963 0 0 1-1.96-.49 3.564 3.564 0 0 1-1.372-1.386c-.327-.607-.49-1.307-.49-2.1 0-.784.168-1.475.504-2.072a3.501 3.501 0 0 1 1.4-1.386c.588-.327 1.246-.49 1.974-.49s1.386.163 1.974.49a3.44 3.44 0 0 1 1.386 1.372c.345.597.518 1.293.518 2.086 0 .793-.177 1.493-.532 2.1a3.609 3.609 0 0 1-1.414 1.386 4.07 4.07 0 0 1-1.988.49Zm0-1.12c.457 0 .887-.107 1.288-.322.401-.215.723-.537.966-.966.252-.429.378-.952.378-1.568 0-.616-.121-1.139-.364-1.568-.243-.429-.56-.747-.952-.952a2.607 2.607 0 0 0-1.274-.322c-.467 0-.896.107-1.288.322-.383.205-.691.523-.924.952-.233.429-.35.952-.35 1.568 0 .625.112 1.153.336 1.582.233.429.541.751.924.966.383.205.803.308 1.26.308Zm4.725-2.87c0-.784.159-1.47.476-2.058a3.458 3.458 0 0 1 1.302-1.386 3.65 3.65 0 0 1 1.876-.49c.597 0 1.153.14 1.666.42.513.271.905.63 1.176 1.078v-4.06h1.288V343h-1.288v-1.442a3.034 3.034 0 0 1-1.12 1.134c-.495.289-1.073.434-1.736.434a3.551 3.551 0 0 1-1.862-.504 3.528 3.528 0 0 1-1.302-1.414c-.317-.607-.476-1.297-.476-2.072Zm6.496.014c0-.579-.117-1.083-.35-1.512a2.412 2.412 0 0 0-.952-.98 2.5 2.5 0 0 0-1.302-.35c-.476 0-.91.112-1.302.336a2.438 2.438 0 0 0-.938.98c-.233.429-.35.933-.35 1.512 0 .588.117 1.101.35 1.54.233.429.546.761.938.994.392.224.826.336 1.302.336.476 0 .91-.112 1.302-.336.401-.233.719-.565.952-.994.233-.439.35-.947.35-1.526Z"/><rect width="327" height="12" x="24" y="239" fill="#DEDFD8" rx="6"/><rect width="327" height="12" x="24" y="735" fill="#DEDFD8" rx="6"/><rect width="327" height="12" x="24" y="793" fill="#DEDFD8" rx="6"/><rect width="327" height="12" x="24" y="481" fill="#DEDFD8" rx="6"/><rect width="327" height="12" x="24" y="539" fill="#DEDFD8" rx="6"/><rect width="327" height="12" x="24" y="597" fill="#DEDFD8" rx="6"/><rect width="327" height="12" x="24" y="297" fill="#DEDFD8" rx="6"/><rect width="327" height="12" x="24" y="355" fill="#DEDFD8" rx="6"/><rect width="327" height="12" x="24" y="181" fill="#189E71" rx="6"/><rect width="261" height="12" x="24" y="239" fill="#189E71" rx="6"/><rect width="196" height="12" x="24" y="735" fill="#6B4DBC" rx="6"/><rect width="196" height="12" x="24" y="793" fill="#6B4DBC" rx="6"/><rect width="131" height="12" x="24" y="481" fill="#FFA23E" rx="6"/><rect width="131" height="12" x="24" y="539" fill="#FFA23E" rx="6"/><rect width="65" height="12" x="24" y="597" fill="#FFA23E" rx="6"/><rect width="261" height="12" x="24" y="297" fill="#189E71" rx="6"/><rect width="261" height="12" x="24" y="355" fill="#189E71" rx="6"/><circle cx="50" cy="117" r="26" fill="#FBFBFB"/><circle cx="33.479" cy="128.507" r="2.882" stroke="#189E71" stroke-width="2.328"/><circle cx="43.19" cy="113.127" r="2.882" stroke="#189E71" stroke-width="2.328"/><circle cx="56.138" cy="120.412" r="2.882" stroke="#189E71" stroke-width="2.328"/><path stroke="#000" stroke-width="1.667" d="m32.925 129.418 10.265-16.289 12.948 7.688 11.735-17.399m0 0-6.88 3.237m6.88-3.237v7.283"/><path fill="#006B4B" fill-rule="evenodd" d="M36.307 125.614a4.04 4.04 0 0 0-1.406-.895l-1.307 2.075c.607.04 1.128.395 1.4.904l1.313-2.084Zm5.473-8.692a4.061 4.061 0 0 1-1.409-.891l1.312-2.077a1.72 1.72 0 0 0 1.41.889l-1.313 2.079Zm4.389-1.056c.376-.409.669-.895.852-1.432l-2.114-1.255a1.718 1.718 0 0 1-.851 1.433l2.113 1.254Zm6.038 3.586a4.032 4.032 0 0 1 .725-1.508l2.037 1.21a1.714 1.714 0 0 0-.507 1.637l-2.255-1.339Zm6.993-1.685a4.063 4.063 0 0 0-1.328-1.011l-1.338 1.985a1.722 1.722 0 0 1 1.24 1.142l1.426-2.116Z" clip-rule="evenodd"/><circle cx="26" cy="26" r="26" fill="#FBFBFB" transform="matrix(1 0 0 -1 24 443)"/><circle cx="4.046" cy="4.046" r="2.882" stroke="#FFA23E" stroke-width="2.328" transform="matrix(1 0 0 -1 29.433 409.539)"/><circle cx="4.046" cy="4.046" r="2.882" stroke="#FFA23E" stroke-width="2.328" transform="matrix(1 0 0 -1 39.144 424.919)"/><circle cx="4.046" cy="4.046" r="2.882" stroke="#FFA23E" stroke-width="2.328" transform="matrix(1 0 0 -1 52.092 417.634)"/><path stroke="#000" stroke-width="1.667" d="m32.925 404.582 10.265 16.289 12.948-7.688 11.735 17.399m0 0-6.88-3.237m6.88 3.237v-7.283"/><path fill="#D36B0D" fill-rule="evenodd" d="M36.307 408.386a4.04 4.04 0 0 1-1.406.895l-1.307-2.075a1.717 1.717 0 0 0 1.4-.904l1.313 2.084Zm5.473 8.692a4.061 4.061 0 0 0-1.409.891l1.312 2.077a1.718 1.718 0 0 1 1.41-.889l-1.313-2.079Zm4.389 1.056c.376.409.669.895.852 1.432l-2.114 1.255a1.718 1.718 0 0 0-.851-1.433l2.113-1.254Zm6.038-3.586c.136.557.386 1.068.725 1.508l2.037-1.21a1.714 1.714 0 0 1-.507-1.637l-2.255 1.339Zm6.993 1.685a4.063 4.063 0 0 1-1.328 1.011l-1.338-1.985a1.722 1.722 0 0 0 1.24-1.142l1.426 2.116Z" clip-rule="evenodd"/><circle cx="26" cy="26" r="26" fill="#FBFBFB" transform="matrix(1 0 0 -1 24 685)"/><circle cx="4.046" cy="4.046" r="2.882" stroke="#6B4DBC" stroke-width="2.328" transform="matrix(1 0 0 -1 27.105 662.823)"/><circle cx="4.046" cy="4.046" r="2.882" stroke="#6B4DBC" stroke-width="2.328" transform="matrix(1 0 0 -1 48.06 662.823)"/><path stroke="#000" stroke-width="1.667" d="m30.209 658.871 41.941.002m0 0-6.51 3.925m6.51-3.925-6.058-4.043"/><path fill="#3A2082" d="M35.13 658.039a4.076 4.076 0 0 1-.04 1.667h-2.494a1.71 1.71 0 0 0 .107-1.667h2.427Z"/><path fill="#3A2082" fill-rule="evenodd" d="M48.127 658.039a4.076 4.076 0 0 0 .04 1.667h2.494a1.716 1.716 0 0 1-.107-1.667h-2.427Zm7.958 0a4.075 4.075 0 0 1-.04 1.667h-2.494a1.71 1.71 0 0 0 .107-1.667h2.427Z" clip-rule="evenodd"/></g><defs><clipPath id="a"><path fill="#fff" d="M0 0h375v862H0z"/></clipPath></defs></svg>