<svg xmlns="http://www.w3.org/2000/svg" width="145" height="91" fill="none"><path fill="#AFDDC9" d="m6.816 22.619-3.913 56.5 134.419-13.5-10.977-40-119.53-3Z"/><path fill="#FFA23E" d="M73.583 15.005c-14.588 0-26.403 11.826-26.403 26.403 0 4.807 1.304 9.518 3.791 13.631L38.164 67.834l.048.048C36.837 69.185 36 71.051 36 73.143c0 4.054 3.228 7.223 7.282 7.223 2.069 0 3.922-.825 5.238-2.176l.035.035L61.77 65.013a26.35 26.35 0 0 0 11.826 2.798c14.588 0 26.403-11.826 26.403-26.402 0-14.577-11.827-26.403-26.415-26.403Zm.156 42.426c-9.112 0-16.502-7.39-16.502-16.502 0-9.112 7.39-16.501 16.502-16.501 9.111 0 16.501 7.39 16.501 16.501 0 9.112-7.378 16.502-16.501 16.502Z"/><path fill="#E58E32" d="M84.177 17.252c-13.344-5.883-28.925.156-34.808 13.5-1.95 4.39-4.496 14.254 1.602 24.275 0 0-9.28-22.744 11.049-35.024 10.678-6.446 22.157-2.75 22.157-2.75Z"/><path fill="#FF7F00" d="M81.487 62.346c-11.934 2.798-17.434-1.364-22.397-4.281L48.376 68.683l-3.503 3.456C40.1 76.133 36 71.05 36 73.143c0 4.054 3.228 7.223 7.282 7.223 2.069 0 3.922-.825 5.238-2.177l.035.036L61.77 65.012a26.349 26.349 0 0 0 11.826 2.798c14.588 0 26.188-11.826 26.403-26.403.095-6.194-2.81-13.093-5.322-15.748 0 0 2.189 3.683 3.05 7.617 1.435 6.613.43 10.702-.694 14.41-2.092 6.851-8.31 12.974-15.521 14.66h-.024Z"/></svg>