<svg xmlns="http://www.w3.org/2000/svg" width="136" height="167" fill="none"><path fill="#F9BE70" d="M135.5 68.65a67.753 67.753 0 0 1-85.302 65.368A67.75 67.75 0 0 1 79.446 1.848c1.274.231 2.535.497 3.784.807 7.252 2.318 14.402 4.871 20.806 8.733a67.977 67.977 0 0 1 3.094 2.089A67.735 67.735 0 0 1 135.5 68.65Z"/><path fill="#020202" d="M117.708 36.407a.19.19 0 0 1-.136-.058.218.218 0 0 1-.062-.142c-.144-2.808-.515-5.646-.874-8.39-.508-3.883-1.034-7.901-.927-11.922a.224.224 0 0 1 .064-.145.199.199 0 0 1 .141-.06.2.2 0 0 1 .18.136.225.225 0 0 1 .013.082c-.106 3.984.418 7.984.923 11.851.359 2.753.733 5.6.877 8.425a.22.22 0 0 1-.05.152.195.195 0 0 1-.137.07l-.012.001Z"/><path fill="#020202" d="M105.904 28.748h-.08a.196.196 0 0 1-.136-.065.222.222 0 0 1 0-.293.196.196 0 0 1 .136-.065h.079c3.726 0 7.462-.586 11.076-1.154 3.538-.554 7.197-1.13 10.81-1.144.051.002.1.026.135.065a.219.219 0 0 1 0 .294.192.192 0 0 1-.135.065c-3.585.013-7.229.585-10.753 1.138-3.627.57-7.378 1.16-11.132 1.16Z"/><path fill="#020202" d="M110.504 39.089a.19.19 0 0 1-.107-.033.205.205 0 0 1-.087-.132.209.209 0 0 1-.002-.083.21.21 0 0 1 .028-.077 61.016 61.016 0 0 0 3.331-6.86c.805-1.853 1.639-3.77 2.602-5.575.552-1.034 1.575-2.203 2.658-3.442 1.636-1.872 3.325-3.804 3.625-5.493a.208.208 0 0 1 .083-.136.19.19 0 0 1 .276.055.229.229 0 0 1 .032.158c-.319 1.81-2.05 3.79-3.724 5.704-1.066 1.22-2.074 2.372-2.603 3.363-.955 1.79-1.785 3.697-2.588 5.543a61.301 61.301 0 0 1-3.355 6.91.2.2 0 0 1-.073.072.187.187 0 0 1-.096.026Z"/><path fill="#020202" d="M124.914 32.961a.19.19 0 0 1-.116-.04c-1.753-1.352-4.105-3.029-6.596-4.804-4.05-2.887-8.639-6.158-11.419-8.608a.209.209 0 0 1-.071-.143.215.215 0 0 1 .105-.207.19.19 0 0 1 .22.025c2.764 2.435 7.345 5.7 11.387 8.582 2.494 1.777 4.849 3.456 6.607 4.81a.212.212 0 0 1 .072.107.23.23 0 0 1-.001.13.21.21 0 0 1-.072.105.192.192 0 0 1-.116.04v.003ZM23.906 96.974a.19.19 0 0 1-.045-.006c-3.65-.909-7.439-1.165-11.103-1.414-2.608-.177-5.307-.36-7.94-.776a.193.193 0 0 1-.13-.083.217.217 0 0 1-.037-.157.22.22 0 0 1 .078-.139.192.192 0 0 1 .148-.039c2.617.413 5.306.595 7.906.772 3.68.25 7.487.507 11.169 1.424a.2.2 0 0 1 .116.085.222.222 0 0 1-.03.279.193.193 0 0 1-.132.054Z"/><path fill="#020202" d="M12.004 107.281a.194.194 0 0 1-.111-.036.215.215 0 0 1-.085-.135.22.22 0 0 1 0-.082c.707-3.737.91-7.648 1.107-11.43.204-3.922.415-7.977 1.181-11.916a.218.218 0 0 1 .086-.134.192.192 0 0 1 .15-.03.194.194 0 0 1 .125.091.22.22 0 0 1 .029.159c-.76 3.907-.97 7.947-1.174 11.854-.197 3.797-.402 7.723-1.113 11.489a.215.215 0 0 1-.07.122.191.191 0 0 1-.125.048Z"/><path fill="#020202" d="M21.124 103.795a.214.214 0 0 1-.075-.016c-1.603-.696-3.08-2.896-4.508-5.023-.91-1.356-1.77-2.635-2.575-3.386-1.458-1.355-3.05-2.6-4.59-3.808a56.947 56.947 0 0 1-5.69-4.88.218.218 0 0 1-.061-.148c0-.056.02-.11.056-.15a.193.193 0 0 1 .139-.065.192.192 0 0 1 .141.058 56.725 56.725 0 0 0 5.651 4.844c1.546 1.212 3.145 2.464 4.615 3.83.842.783 1.715 2.083 2.64 3.459 1.395 2.08 2.835 4.228 4.335 4.877a.2.2 0 0 1 .1.095.226.226 0 0 1 .02.142.213.213 0 0 1-.069.122.198.198 0 0 1-.126.049h-.003Z"/><path fill="#020202" d="M6.58 102.975a.196.196 0 0 1-.111-.038.21.21 0 0 1-.073-.097.226.226 0 0 1-.008-.124.21.21 0 0 1 .058-.107c1.595-1.555 3.61-3.667 5.743-5.905 3.473-3.64 7.41-7.77 10.224-10.175a.19.19 0 0 1 .28.032.221.221 0 0 1-.03.298c-2.8 2.392-6.729 6.512-10.194 10.147-2.136 2.24-4.154 4.355-5.754 5.915a.19.19 0 0 1-.135.054Z"/><path fill="#8B694E" d="M68.093 161.885H61.61v-1.095a446.7 446.7 0 0 0-9.092 0v1.095H36.435c0-.187.01-.374.028-.56-4.31.293-6.932.678-6.932 1.1 0 .915 12.321 1.659 27.522 1.659 8.981 0 16.956-.26 21.98-.661v-1.197l.05-.795a117.76 117.76 0 0 0-1.592-.116c.019.189.029.38.03.57h-9.428Z" opacity=".2"/><path fill="#338C69" d="M61.586 152.428h.028v-1.393h6.812v1.393h.002v-14.879h-6.842v14.879Zm-9.062 0h.006v-16.099h-6.843v14.706h6.837v1.393ZM57.058 1.185c-16.264 0-29.495 12.556-29.495 27.99 0 7.778 3.282 15.005 9.241 20.349l.062.054c2.702 2.31 4.66 5.411 6.371 8.417.431.674.697 1.452.774 2.263.058-.052.113-.107.17-.158h6.658a12.57 12.57 0 0 0-1.75-5.874c-1.933-3.394-4.383-7.268-7.902-10.29-2.372-2.09-4.242-4.75-5.456-7.761h-.468a.212.212 0 0 1-.165-.067.253.253 0 0 1 0-.346.212.212 0 0 1 .165-.067h.294a19.072 19.072 0 0 1-1.151-6.52c0-11.422 10.162-20.714 22.653-20.714 12.491 0 22.652 9.291 22.652 20.714a19.068 19.068 0 0 1-1.153 6.522h1.176a.22.22 0 0 1 .154.073.249.249 0 0 1 .064.167.248.248 0 0 1-.064.166.22.22 0 0 1-.154.074h-1.353c-1.172 2.913-2.96 5.5-5.224 7.56a14.74 14.74 0 0 1-.24.22c-5.482 4.885-8.544 10.55-8.78 16.145h6.075l.072.067c.282-.303.552-.604.805-.902.688-4.203 4.059-7.807 6.22-9.733.13-.116.25-.227.357-.327 5.73-5.31 8.886-12.424 8.886-20.031 0-15.434-13.231-27.99-29.494-27.99Z"/><path fill="#000" d="M61.617 151.035v10.851h15.91c0-.191-.01-.381-.03-.571-.237-2.471-1.997-4.39-4.135-4.39H68.43v-5.89h-6.812Zm-15.751 10.85h6.655v-10.852h-6.902v5.889h-5.015c-2.142 0-3.904 1.924-4.138 4.403a5.85 5.85 0 0 0-.029.56h9.429Z"/><path fill="#824B1F" d="M63.295 48.245a.922.922 0 0 0 .26-.251.986.986 0 0 0 .166-.713.996.996 0 0 0-.12-.352.939.939 0 0 0-.238-.276.847.847 0 0 0-1.002-.045c-.025.017-2.636 1.678-5.462 1.678-2.842 0-5.927-1.69-5.957-1.708a.852.852 0 0 0-.683-.059.917.917 0 0 0-.524.469c-.11.223-.132.484-.062.725s.226.443.435.562c.141.079 3.5 1.925 6.791 1.925 3.323 0 6.272-1.875 6.396-1.955Z"/><path fill="#fff" d="m52.607 68.204-10.496-5.909a.221.221 0 0 1-.045-.04 21.91 21.91 0 0 0-1.224 1.574c-7.697 9.262-24.522 33.933-4.096 52.836v19.663h19.31V77.832l-.923-1.684.924-1.196V63.259l-3.45 4.945ZM44.15 78.43h7.585v14.204H39.88V78.429h2.425v-5.56h1.846l-.002 5.56Zm-5.471 41.408a.202.202 0 0 1-.114-.035.225.225 0 0 1-.078-.094.24.24 0 0 1 .029-.24l9.905-12.636a.207.207 0 0 1-.113-.059L35.511 92.896a.233.233 0 0 1-.06-.16c0-.06.023-.116.063-.158a.205.205 0 0 1 .3.003l.72.782v-9.638c0-.06.022-.117.062-.16a.206.206 0 0 1 .15-.066c.056 0 .11.024.15.066.04.043.062.1.062.16V93.82l11.652 12.637c.02.021.035.046.046.074l1.03-1.313a.21.21 0 0 1 .143-.081.206.206 0 0 1 .155.051.234.234 0 0 1 .028.317l-11.17 14.249a.204.204 0 0 1-.164.082Zm17.798-57.186v11.752l5.002-6.477-3.532-7.384-1.47 2.11Z"/><path fill="#fff" d="m52.471 67.58 5.217-7.48h-13.51c-.058.05-.113.106-.17.158a21.182 21.182 0 0 0-1.633 1.638l10.096 5.684Zm11.664-7.48h-5.924l3.581 7.488.334-.188c1.465-1.137 5.398-4.272 8.156-7.231-.025-.022-.047-.046-.072-.067l-6.075-.002Zm-7.658 77.449h21.168v-9.054l-4.6-9.482.456-1.776-8.664-11.053a.24.24 0 0 1-.024-.249.21.21 0 0 1 .125-.11.203.203 0 0 1 .226.072l8.476 10.811 3.572-13.945.154-10.808-15.12-2.836-1.652-3.014a1.73 1.73 0 0 1-.584.187v1.184a.255.255 0 0 1-.066.171.227.227 0 0 1-.162.072.217.217 0 0 1-.161-.072.245.245 0 0 1-.067-.171v-1.184a1.786 1.786 0 0 1-.996-.48 1.977 1.977 0 0 1-.561-.999 2.066 2.066 0 0 1 .073-1.16 1.93 1.93 0 0 1 .68-.91l-2.269-4.14-.004 58.946Zm3.529-13.294v.5a.249.249 0 0 1-.067.171.22.22 0 0 1-.161.072.22.22 0 0 1-.162-.072.249.249 0 0 1-.067-.171v-.5a1.803 1.803 0 0 1-1.148-.645 2.022 2.022 0 0 1-.46-1.291c0-.476.164-.935.46-1.292a1.802 1.802 0 0 1 1.148-.644v-1.526c0-.064.024-.126.067-.171a.22.22 0 0 1 .323 0 .249.249 0 0 1 .067.171v1.526a1.8 1.8 0 0 1 1.148.644c.296.357.46.816.46 1.292 0 .475-.163.935-.46 1.291a1.804 1.804 0 0 1-1.148.645Zm0-9.491v.672a.249.249 0 0 1-.067.171.22.22 0 0 1-.323 0 .249.249 0 0 1-.067-.171v-.671a1.806 1.806 0 0 1-1.148-.645 2.025 2.025 0 0 1-.459-1.291c0-.476.163-.935.46-1.292a1.806 1.806 0 0 1 1.147-.645v-1.352c0-.064.024-.126.067-.171a.22.22 0 0 1 .323 0 .249.249 0 0 1 .067.171v1.352c.444.059.852.289 1.148.645.296.357.459.816.459 1.292 0 .475-.163.934-.46 1.291a1.806 1.806 0 0 1-1.147.645v-.001Zm0-9.49v.841a.251.251 0 0 1-.067.172.224.224 0 0 1-.161.071.224.224 0 0 1-.162-.071.251.251 0 0 1-.067-.172v-.841a1.806 1.806 0 0 1-1.147-.645 2.026 2.026 0 0 1-.46-1.291c0-.476.164-.935.46-1.291a1.801 1.801 0 0 1 1.147-.645v-1.183a.25.25 0 0 1 .067-.172.22.22 0 0 1 .323 0 .25.25 0 0 1 .067.172v1.183c.444.059.852.288 1.148.645.295.356.459.815.459 1.291 0 .475-.164.934-.46 1.291a1.806 1.806 0 0 1-1.147.645Zm-.457-13.362v-1.013a.25.25 0 0 1 .067-.172.222.222 0 0 1 .162-.07c.06 0 .118.025.161.07a.25.25 0 0 1 .067.172v1.013a1.8 1.8 0 0 1 1.148.644c.296.357.46.816.46 1.291 0 .476-.164.935-.46 1.292a1.803 1.803 0 0 1-1.148.644v1.012a.25.25 0 0 1-.067.172.222.222 0 0 1-.161.071.222.222 0 0 1-.162-.071.25.25 0 0 1-.067-.172v-1.012a1.803 1.803 0 0 1-1.148-.644 2.023 2.023 0 0 1-.46-1.292c0-.475.164-.934.46-1.29a1.803 1.803 0 0 1 1.148-.645Zm-19.213-9.975a.214.214 0 0 1 .083-.018h.72a.216.216 0 0 1 .162.071.256.256 0 0 1 0 .343.227.227 0 0 1-.161.071h-.72a.214.214 0 0 1-.083-.017v9.76h10.942v-9.742h-.492a.221.221 0 0 1-.161-.071.25.25 0 0 1-.067-.172.25.25 0 0 1 .067-.171.221.221 0 0 1 .161-.071h.492v-3.005H40.338l-.002 3.022Zm7.694-.018h1.379a.216.216 0 0 1 .161.071.256.256 0 0 1 0 .343.227.227 0 0 1-.161.071H48.03a.217.217 0 0 1-.161-.07.245.245 0 0 1-.067-.172.256.256 0 0 1 .067-.172.228.228 0 0 1 .161-.071Zm-2.756 0h1.378a.217.217 0 0 1 .162.071.245.245 0 0 1 .067.172.256.256 0 0 1-.067.171.226.226 0 0 1-.162.071h-1.378a.217.217 0 0 1-.161-.07.245.245 0 0 1-.067-.172.256.256 0 0 1 .067-.172.228.228 0 0 1 .161-.071Zm-2.756 0h1.378a.217.217 0 0 1 .161.071.245.245 0 0 1 .067.172.258.258 0 0 1-.067.171.228.228 0 0 1-.161.071h-1.378a.221.221 0 0 1-.161-.07.25.25 0 0 1-.067-.172.25.25 0 0 1 .067-.172.221.221 0 0 1 .161-.071Z"/><path fill="#020202" d="M56.063 136.329v1.22c0 .059.022.117.062.159.04.042.093.066.15.066.056 0 .11-.024.15-.066a.235.235 0 0 0 .061-.159V78.603l-.423-.771v58.497Zm-6.057-30.823a.235.235 0 0 0-.028-.317.202.202 0 0 0-.298.029l-1.03 1.314a.221.221 0 0 0-.045-.074L36.952 93.821V83.725a.233.233 0 0 0-.062-.16.206.206 0 0 0-.15-.066.206.206 0 0 0-.15.066.233.233 0 0 0-.062.16v9.638l-.72-.782a.201.201 0 0 0-.299-.003.226.226 0 0 0-.064.158.238.238 0 0 0 .06.16l12.797 13.877c.03.031.07.052.112.059l-9.904 12.636a.235.235 0 0 0 .027.317.202.202 0 0 0 .299-.029l11.17-14.25Zm15.158.391a.203.203 0 0 0-.298-.03.226.226 0 0 0-.076.153.237.237 0 0 0 .048.164l8.664 11.053.136-.529-8.474-10.811Z"/><path fill="#fff" d="M58.367 84.357a1.57 1.57 0 0 0 .172.724c.114.222.28.41.48.546a1.335 1.335 0 0 0 1.358.087l-1.413-2.58a1.476 1.476 0 0 0-.438.535 1.577 1.577 0 0 0-.159.688Z"/><path fill="#020202" d="M57.945 84.357c.001.475.165.934.46 1.29.297.357.705.586 1.148.645v1.184a.25.25 0 0 0 .067.172.222.222 0 0 0 .323 0 .25.25 0 0 0 .067-.172v-1.184c.203-.027.4-.09.583-.187l-.214-.391c-.319.16-.682.186-1.019.075a1.428 1.428 0 0 1-.8-.676 1.581 1.581 0 0 1-.159-1.073c.075-.366.276-.689.564-.905l-.215-.392c-.248.178-.45.42-.59.7a2.057 2.057 0 0 0-.215.914Z"/><path fill="#fff" d="M58.367 93.847c0 .297.083.588.238.835.156.247.376.44.634.554.259.114.543.143.817.085.274-.057.526-.2.724-.41.197-.21.332-.479.387-.77a1.593 1.593 0 0 0-.08-.869 1.487 1.487 0 0 0-.521-.674 1.354 1.354 0 0 0-.785-.254c-.375 0-.734.16-1 .441a1.554 1.554 0 0 0-.414 1.062Z"/><path fill="#020202" d="M59.553 95.783v1.013a.25.25 0 0 0 .067.171c.043.046.1.071.161.071.06 0 .119-.025.162-.07a.25.25 0 0 0 .067-.172v-1.013a1.803 1.803 0 0 0 1.148-.644c.296-.357.46-.816.46-1.291 0-.476-.164-.935-.46-1.292a1.803 1.803 0 0 0-1.148-.644v-1.013a.25.25 0 0 0-.067-.172.222.222 0 0 0-.162-.07.222.222 0 0 0-.161.07.25.25 0 0 0-.067.172v1.013a1.803 1.803 0 0 0-1.148.644c-.296.357-.46.816-.46 1.292 0 .475.164.934.46 1.29.296.357.704.587 1.148.645Zm.228-3.438c.28 0 .553.088.786.253.232.165.413.4.52.674.107.275.135.577.08.869-.054.291-.189.56-.386.77a1.39 1.39 0 0 1-.724.41 1.336 1.336 0 0 1-.817-.085 1.436 1.436 0 0 1-.634-.554 1.572 1.572 0 0 1 .177-1.896c.265-.281.624-.44.998-.44v-.001Z"/><path fill="#fff" d="M59.78 104.841c.781 0 1.414-.673 1.414-1.503 0-.83-.633-1.503-1.413-1.503-.781 0-1.414.673-1.414 1.503 0 .83.633 1.503 1.414 1.503Z"/><path fill="#020202" d="M60.009 101.402v-1.183a.251.251 0 0 0-.067-.172.224.224 0 0 0-.162-.071.224.224 0 0 0-.161.071.251.251 0 0 0-.067.172v1.183a1.806 1.806 0 0 0-1.148.645c-.295.356-.459.816-.459 1.291s.164.935.46 1.291c.295.357.703.586 1.147.645v.842c0 .064.024.126.067.171a.22.22 0 0 0 .323 0 .249.249 0 0 0 .067-.171v-.842a1.801 1.801 0 0 0 1.147-.645c.296-.356.46-.816.46-1.291s-.164-.935-.46-1.291a1.806 1.806 0 0 0-1.147-.645Zm-1.642 1.936c0-.297.083-.588.238-.835a1.44 1.44 0 0 1 .635-.554 1.34 1.34 0 0 1 .816-.085c.274.058.526.201.724.411.197.21.332.478.387.77.054.291.026.593-.08.868a1.483 1.483 0 0 1-.521.674 1.349 1.349 0 0 1-.786.254 1.376 1.376 0 0 1-.999-.441 1.556 1.556 0 0 1-.414-1.064v.002Z"/><path fill="#fff" d="M61.194 112.829a1.57 1.57 0 0 0-.238-.835 1.433 1.433 0 0 0-.635-.554 1.333 1.333 0 0 0-.816-.085 1.384 1.384 0 0 0-.724.411c-.197.21-.332.478-.387.769-.054.292-.026.594.08.869.108.274.289.509.521.674.233.165.506.253.786.253.374 0 .733-.159.998-.44.265-.282.414-.664.415-1.062Z"/><path fill="#020202" d="M60.009 110.892v-1.352a.249.249 0 0 0-.067-.171.22.22 0 0 0-.323 0 .249.249 0 0 0-.066.171v1.352a1.806 1.806 0 0 0-1.148.645c-.296.357-.46.816-.46 1.291 0 .476.164.935.46 1.292.295.356.704.585 1.148.644v.672c0 .064.024.126.066.172a.224.224 0 0 0 .162.071c.06 0 .118-.026.161-.071a.253.253 0 0 0 .067-.172v-.671a1.802 1.802 0 0 0 1.148-.645c.296-.357.46-.816.46-1.291 0-.476-.164-.935-.46-1.291a1.802 1.802 0 0 0-1.148-.645v-.001Zm-1.642 1.937c0-.298.083-.588.239-.835.155-.248.376-.44.634-.554.258-.114.542-.143.816-.085.275.058.526.201.724.411.198.21.332.478.387.769.054.292.026.594-.08.869a1.489 1.489 0 0 1-.521.674 1.355 1.355 0 0 1-.785.253c-.375 0-.734-.159-1-.44a1.556 1.556 0 0 1-.414-1.062Z"/><path fill="#fff" d="M61.194 122.319a1.57 1.57 0 0 0-.238-.835 1.44 1.44 0 0 0-.634-.554 1.34 1.34 0 0 0-.817-.085 1.39 1.39 0 0 0-.724.411c-.197.21-.332.478-.387.77-.054.291-.026.593.08.868.108.275.289.509.521.674.233.166.506.254.786.254.374-.001.733-.159.998-.441.265-.282.414-.663.415-1.062Z"/><path fill="#020202" d="M60.01 120.383v-1.526a.249.249 0 0 0-.067-.171.22.22 0 0 0-.323 0 .249.249 0 0 0-.066.171v1.526a1.802 1.802 0 0 0-1.15.644 2.031 2.031 0 0 0-.459 1.292c0 .475.164.935.46 1.291.296.357.705.586 1.148.645v.5c0 .064.025.126.067.172a.224.224 0 0 0 .162.071c.06 0 .118-.026.161-.071a.253.253 0 0 0 .067-.172v-.5a1.803 1.803 0 0 0 1.148-.645c.297-.356.46-.816.46-1.291a2.02 2.02 0 0 0-.46-1.292 1.802 1.802 0 0 0-1.148-.644Zm-1.642 1.936c0-.297.083-.588.238-.835a1.44 1.44 0 0 1 .635-.554 1.34 1.34 0 0 1 .816-.085c.274.058.526.201.724.411.198.21.332.478.387.769.054.292.026.594-.08.869a1.488 1.488 0 0 1-.521.674 1.356 1.356 0 0 1-.785.254 1.375 1.375 0 0 1-.999-.441 1.556 1.556 0 0 1-.415-1.062ZM58.214 60.1l-.012-.025a.253.253 0 0 0-.09-.17.224.224 0 0 0-.17-.045.22.22 0 0 0-.149.095l-.1.145-5.217 7.48-10.096-5.686-.054-.03a.219.219 0 0 0-.309.101.254.254 0 0 0 .05.289.224.224 0 0 0 .045.04l10.497 5.909 3.45-4.946V74.95l.423-.547V62.65l1.47-2.11 3.533 7.385.062-.08s.217-.164.583-.448l-.334.188-3.582-7.485Z"/><path fill="#338C69" d="M44.15 72.868h-1.845v5.56h1.845v-5.56Z"/><path fill="#020202" d="M48.025 82.404h1.379a.217.217 0 0 0 .16-.07.245.245 0 0 0 .068-.172.257.257 0 0 0-.067-.172.227.227 0 0 0-.161-.071h-1.379a.216.216 0 0 0-.161.071.245.245 0 0 0-.067.172.257.257 0 0 0 .067.171.216.216 0 0 0 .161.071Zm-2.758 0h1.378a.216.216 0 0 0 .162-.07.255.255 0 0 0 0-.343.227.227 0 0 0-.162-.072h-1.378a.217.217 0 0 0-.161.071.245.245 0 0 0-.067.172.257.257 0 0 0 .067.171.217.217 0 0 0 .161.071Zm-2.75 0h1.378a.216.216 0 0 0 .161-.07.245.245 0 0 0 .067-.172.255.255 0 0 0-.067-.172.227.227 0 0 0-.16-.071h-1.379a.221.221 0 0 0-.161.071.25.25 0 0 0-.067.172.25.25 0 0 0 .067.171c.043.046.1.071.161.071Z"/><path fill="#020202" d="M39.875 78.428v14.204h11.856V78.428H39.875Zm11.398.486v3.005h-.492a.222.222 0 0 0-.161.07.25.25 0 0 0-.067.172.25.25 0 0 0 .067.172c.042.046.1.071.16.071h.495v9.742H40.333v-9.76a.214.214 0 0 0 .083.018h.72a.216.216 0 0 0 .16-.07.256.256 0 0 0 0-.343.227.227 0 0 0-.16-.072h-.721a.214.214 0 0 0-.083.018v-3.023h10.94Zm-2.148-33.85c1.925-.003 3.794-.693 5.306-1.96 1.513-1.265 2.582-3.035 3.037-5.024.489 2.15 1.696 4.04 3.397 5.315 1.7 1.274 3.78 1.849 5.849 1.616 2.07-.234 3.989-1.259 5.4-2.884 1.412-1.626 2.22-3.742 2.275-5.954h5.346a.22.22 0 0 0 .154-.073.249.249 0 0 0 0-.333.22.22 0 0 0-.154-.073H74.39c-.055-2.213-.863-4.328-2.275-5.954-1.412-1.626-3.33-2.65-5.4-2.884-2.07-.233-4.148.341-5.849 1.616-1.7 1.275-2.908 3.164-3.397 5.315-.49-2.151-1.697-4.04-3.397-5.315-1.701-1.275-3.78-1.849-5.85-1.616-2.069.233-3.988 1.258-5.4 2.884-1.411 1.626-2.22 3.741-2.274 5.954h-5.282a.214.214 0 0 0-.165.067.253.253 0 0 0 0 .346.224.224 0 0 0 .165.066h5.282c.06 2.378.99 4.636 2.592 6.297 1.602 1.66 3.75 2.59 5.986 2.594ZM65.81 27.32c2.108.003 4.133.879 5.644 2.443 1.511 1.563 2.39 3.692 2.45 5.933h-.531a.22.22 0 0 0-.154.073.248.248 0 0 0 0 .333.22.22 0 0 0 .154.074h.531a8.984 8.984 0 0 1-1.474 4.718 8.196 8.196 0 0 1-3.68 3.066 7.647 7.647 0 0 1-4.662.392A7.983 7.983 0 0 1 60 41.939a8.811 8.811 0 0 1-2.153-4.414 9.12 9.12 0 0 1 .5-4.943 8.514 8.514 0 0 1 2.985-3.826 7.759 7.759 0 0 1 4.477-1.434v-.002Zm-16.686 0a7.76 7.76 0 0 1 4.478 1.433 8.516 8.516 0 0 1 2.986 3.827c.62 1.56.794 3.28.5 4.945a8.812 8.812 0 0 1-2.153 4.414 7.983 7.983 0 0 1-4.09 2.414 7.648 7.648 0 0 1-4.661-.393 8.198 8.198 0 0 1-3.682-3.066 8.985 8.985 0 0 1-1.473-4.72h.596a.224.224 0 0 0 .165-.067.241.241 0 0 0 .07-.173.255.255 0 0 0-.07-.173.223.223 0 0 0-.165-.067h-.596c.06-2.24.94-4.369 2.45-5.932 1.512-1.563 3.536-2.44 5.645-2.442Z"/><path fill="#fff" d="M47.776 42.712a7.315 7.315 0 0 1-.288-3.908 7.043 7.043 0 0 1 1.759-3.445 6.388 6.388 0 0 1 3.24-1.87 6.128 6.128 0 0 1 3.675.306 6.924 6.924 0 0 0-1.843-2.785 6.355 6.355 0 0 0-2.87-1.51 6.123 6.123 0 0 0-3.2.13 6.43 6.43 0 0 0-2.752 1.741 7.011 7.011 0 0 0-1.637 2.927 7.334 7.334 0 0 0-.123 3.403 7.089 7.089 0 0 0 1.42 3.051 6.514 6.514 0 0 0 2.62 1.96Z"/><path fill="#4BA07C" d="M49.245 35.359a7.047 7.047 0 0 0-1.76 3.445 7.32 7.32 0 0 0 .289 3.908 6.152 6.152 0 0 0 3.037.414 4.418 4.418 0 0 1-.944-1.947 4.58 4.58 0 0 1 .077-2.19 4.368 4.368 0 0 1 1.079-1.867 3.998 3.998 0 0 1 1.801-1.063c-.001-.196.036-.39.109-.57.073-.18.18-.342.315-.476.135-.133.294-.236.468-.3a1.255 1.255 0 0 1 1.067.09c.163.093.305.22.419.375a1.5 1.5 0 0 1 .264 1.103c.395.185.761.436 1.083.743a7.327 7.327 0 0 0-.39-3.229 6.13 6.13 0 0 0-3.674-.306 6.39 6.39 0 0 0-3.24 1.87Z"/><path fill="#000" d="M55.1 37.051a1.308 1.308 0 0 1-.68.387 1.257 1.257 0 0 1-.767-.078 1.35 1.35 0 0 1-.598-.518 1.478 1.478 0 0 1-.227-.783 3.998 3.998 0 0 0-1.802 1.063 4.37 4.37 0 0 0-1.078 1.867 4.58 4.58 0 0 0-.077 2.19 4.41 4.41 0 0 0 .944 1.947c1.466-.17 2.834-.868 3.878-1.978a7.076 7.076 0 0 0 1.86-4.123 4.036 4.036 0 0 0-1.084-.744 1.438 1.438 0 0 1-.37.77Z"/><path fill="#fff" d="M55.092 37.051c.186-.198.313-.45.364-.724a1.498 1.498 0 0 0-.076-.817 1.4 1.4 0 0 0-.49-.635 1.275 1.275 0 0 0-.74-.239c-.262 0-.52.083-.738.239a1.4 1.4 0 0 0-.49.635 1.5 1.5 0 0 0-.076.817c.051.274.178.526.364.724.123.133.269.238.43.31a1.252 1.252 0 0 0 1.021 0 1.32 1.32 0 0 0 .431-.31Zm8.278 5.662a7.315 7.315 0 0 1-.29-3.909 7.043 7.043 0 0 1 1.76-3.445 6.387 6.387 0 0 1 3.24-1.87 6.128 6.128 0 0 1 3.675.306 6.924 6.924 0 0 0-1.843-2.784 6.354 6.354 0 0 0-2.87-1.51 6.124 6.124 0 0 0-3.2.13 6.431 6.431 0 0 0-2.752 1.741 7.01 7.01 0 0 0-1.636 2.927 7.331 7.331 0 0 0-.123 3.402 7.091 7.091 0 0 0 1.42 3.052 6.515 6.515 0 0 0 2.618 1.96Z"/><path fill="#4BA07C" d="M64.838 35.359a7.045 7.045 0 0 0-1.758 3.445 7.318 7.318 0 0 0 .288 3.908 6.152 6.152 0 0 0 3.037.414 4.417 4.417 0 0 1-.944-1.947 4.58 4.58 0 0 1 .077-2.19 4.37 4.37 0 0 1 1.078-1.867 3.999 3.999 0 0 1 1.802-1.063 1.49 1.49 0 0 1 .108-.57c.073-.18.18-.342.316-.476.134-.133.294-.235.468-.3a1.256 1.256 0 0 1 1.067.09c.163.093.305.22.418.375.114.154.196.332.241.522a1.5 1.5 0 0 1 .023.581c.396.185.762.436 1.084.744a7.328 7.328 0 0 0-.39-3.23 6.13 6.13 0 0 0-3.675-.306 6.39 6.39 0 0 0-3.24 1.87Z"/><path fill="#000" d="M70.693 37.051a1.309 1.309 0 0 1-.68.387 1.257 1.257 0 0 1-.767-.078 1.35 1.35 0 0 1-.597-.518 1.48 1.48 0 0 1-.228-.783 3.998 3.998 0 0 0-1.801 1.063 4.368 4.368 0 0 0-1.079 1.867 4.58 4.58 0 0 0-.077 2.19 4.42 4.42 0 0 0 .944 1.947c1.467-.17 2.835-.868 3.878-1.978a7.077 7.077 0 0 0 1.86-4.123 4.03 4.03 0 0 0-1.084-.744 1.437 1.437 0 0 1-.369.77Z"/><path fill="#fff" d="M70.694 37.051c.186-.198.312-.45.363-.724a1.498 1.498 0 0 0-.076-.817 1.4 1.4 0 0 0-.49-.635 1.275 1.275 0 0 0-.739-.239c-.263 0-.52.083-.739.239a1.4 1.4 0 0 0-.49.635c-.1.258-.127.542-.076.817.052.274.178.526.364.724.123.133.27.238.431.31a1.252 1.252 0 0 0 1.02 0 1.32 1.32 0 0 0 .432-.31Z"/><path fill="#fff" fill-rule="evenodd" d="M103.704 97.227c2.539 1.922 2.497 4.551 1.427 7.441-1.039 2.803-3.8 8.269-6.662 9.451-3.302 1.364-2.792-4.507-2.51-6.996.343-3.011 5.212-11.708 9.243-8.986" clip-rule="evenodd"/><path fill="#8B694E" d="M111.55 165.04c0 .772-11.618 1.397-25.95 1.397-14.331 0-25.952-.624-25.952-1.397 0-.772 11.618-1.395 25.952-1.395 14.334 0 25.95.624 25.95 1.395Z" opacity=".2"/><path fill="#FF7F00" d="m82.495 155.465-6.097-.026c.012-3.213.402-6.336.78-9.356.369-2.956.716-5.748.723-8.542.008-3.929-1.427-6.697-3.242-10.201a57.427 57.427 0 0 1-2.624-5.56c-2.124-5.405-.142-10.766 1.607-15.497.712-1.925 1.384-3.744 1.728-5.401.069-.332.14-.661.212-.988.703-3.237.831-4.388-.356-5.617l-.158-.163-.134-.186c-.443-.616-1.793-.517-3.648-.308-.7.078-1.422.16-2.137.173-3.927.082-7.674-1.612-10.58-4.772a19.236 19.236 0 0 1-3.835-6.394 20.135 20.135 0 0 1-1.185-7.479c.301-7.407 6.224-10.188 10.549-12.22l.628-.295c2.52-1.193 3.597-1.842 4.112-3.482.243-.772.436-1.547.642-2.367.528-2.112 1.127-4.505 2.664-6.83 2.775-4.198 5.944-5.215 8.113-5.33 3.433-.182 6.959 1.74 9.934 5.409 3.99 4.916 7.317 6.388 11.866 5.25 4.643-1.161 8.082-.516 10.222 1.92 2.12 2.412 2.499 6.035 1.127 10.77-.953 3.285-2.122 9.5.756 14.217.387.576.823 1.113 1.304 1.603 1.493 1.633 4.271 4.672 1.748 9.48-2.07 3.944-6.329 4.637-9.146 5.097l-.389.064c-2.983.492-5.578 1.45-7.309 2.699-2.444 1.762-2.535 3.608-2.343 5.021.226 1.653.872 3.367 1.556 5.181 1.737 4.609 4.117 10.921-2.515 16.324-2.618 2.132-2.851 3.122-2.86 3.375-.01.24.136 1.191 2.377 3.332 2.968 2.837 3.528 6.618 1.663 11.241-1.12 2.776-1.111 5.423-1.099 8.774.002.352.002.709.003 1.071h-6.097c0-.353 0-.702-.002-1.046-.014-3.776-.028-7.343 1.592-11.356 1.087-2.694.41-3.341-.135-3.862-2.116-2.021-4.528-4.804-4.395-8.408.135-3.651 2.874-6.336 5.245-8.267 2.816-2.294 2.344-4.043.564-8.766-.75-1.99-1.6-4.245-1.93-6.663-1.055-7.728 4.459-13.357 14.747-15.056l.403-.065c1.84-.3 4.13-.673 4.746-1.848a2.4 2.4 0 0 0 .228-.557 9.005 9.005 0 0 0-1.024-1.245 16.73 16.73 0 0 1-2.047-2.592c-4.228-6.931-2.735-15.29-1.467-19.658.813-2.803.516-4.125.245-4.435-.281-.32-1.557-.738-4.372-.035-8.891 2.225-14.46-3.116-17.877-7.326-1.698-2.094-3.53-3.243-5.017-3.17-1.182.062-2.335.931-3.427 2.582-.913 1.381-1.306 2.952-1.76 4.771-.22.88-.449 1.791-.75 2.753-1.416 4.51-4.742 6.085-7.414 7.35l-.645.304c-6.328 2.971-6.837 4.463-6.922 6.567a13.34 13.34 0 0 0 .792 4.882 12.75 12.75 0 0 0 2.498 4.182c1.215 1.32 3.252 2.884 6.097 2.822.457-.01 1.021-.073 1.62-.139 2.568-.288 6.423-.72 8.984 2.62 3.568 3.846 2.6 8.299 1.89 11.562-.064.306-.133.615-.197.925-.447 2.155-1.24 4.301-2.007 6.377-1.454 3.931-2.826 7.645-1.656 10.625A52.262 52.262 0 0 0 80 124.211c1.972 3.805 4.01 7.739 3.999 13.344-.006 3.215-.398 6.35-.776 9.381-.37 2.947-.718 5.731-.728 8.529Z"/><path fill="#824B1F" d="M88.202 84.762c-3.3-.05-6.59-.378-9.84-.982a.898.898 0 0 1-.578-.399 1.006 1.006 0 0 1-.144-.716.964.964 0 0 1 .374-.615.858.858 0 0 1 .674-.154c3.144.579 6.325.897 9.514.951 4.532 0 10.27-1.872 10.327-1.89a.852.852 0 0 1 .686.068.94.94 0 0 1 .44.563c.07.243.048.505-.063.73a.916.916 0 0 1-.53.468c-.246.081-6.061 1.976-10.86 1.976Z"/><path fill="#fff" fill-rule="evenodd" d="M71.583 160.409h4.961v-4.958h6.114v9.134H67.656a4.4 4.4 0 0 1 .3-1.598c.197-.507.486-.967.85-1.355a3.917 3.917 0 0 1 1.275-.905 3.72 3.72 0 0 1 1.502-.318Zm30.57 0h-4.961v-4.958h-6.114v9.134h15.002c0-1.108-.414-2.17-1.15-2.953a3.815 3.815 0 0 0-2.777-1.223Z" clip-rule="evenodd"/><path fill="#020202" d="M105.004 126.479a.187.187 0 0 1-.106-.033.205.205 0 0 1-.074-.088.223.223 0 0 1 .026-.226c2.17-2.82 1.725-5.61.918-8.964a.22.22 0 0 1-.008-.085.231.231 0 0 1 .025-.081.204.204 0 0 1 .124-.102.202.202 0 0 1 .081-.004.211.211 0 0 1 .075.03.218.218 0 0 1 .057.06c.016.023.026.05.032.078.806 3.353 1.288 6.369-.995 9.337a.212.212 0 0 1-.069.058.197.197 0 0 1-.086.02Zm4.779-2.542h-.011a.193.193 0 0 1-.137-.069.222.222 0 0 1-.051-.153 13.109 13.109 0 0 0-.236-3.249.231.231 0 0 1 .028-.16.203.203 0 0 1 .125-.092.2.2 0 0 1 .15.029.217.217 0 0 1 .086.134c.221 1.103.303 2.234.244 3.36a.217.217 0 0 1-.061.143.193.193 0 0 1-.137.057Z"/><path fill="#fff" d="M99.344 68.715a5.99 5.99 0 0 0-2.116-1.456 6.81 6.81 0 0 1 .27 3.638 6.555 6.555 0 0 1-1.639 3.207 5.945 5.945 0 0 1-3.016 1.742 5.704 5.704 0 0 1-3.421-.286 6.472 6.472 0 0 0 1.48 2.363 5.986 5.986 0 0 0 2.294 1.454 5.706 5.706 0 0 0 2.66.262 5.827 5.827 0 0 0 2.505-.982 6.272 6.272 0 0 0 1.864-2.033 6.798 6.798 0 0 0 .544-5.508 6.486 6.486 0 0 0-1.425-2.401Z"/><path fill="#6B4DBC" d="M95.867 74.105a6.558 6.558 0 0 0 1.637-3.208 6.814 6.814 0 0 0-.268-3.638 5.73 5.73 0 0 0-2.827-.385c.338.4.596.867.76 1.375a1.168 1.168 0 0 1 1.025.273c.142.123.256.278.334.453a1.386 1.386 0 0 1 .004 1.124 1.32 1.32 0 0 1-.33.456c-.14.124-.305.213-.482.262a1.169 1.169 0 0 1-.541.019 4.054 4.054 0 0 1-.999 1.66 3.72 3.72 0 0 1-1.62.955 3.559 3.559 0 0 1-1.853.021 3.708 3.708 0 0 1-1.64-.918 6.827 6.827 0 0 0 .363 3.006 5.707 5.707 0 0 0 3.421.285 5.947 5.947 0 0 0 3.016-1.74Z"/><path fill="#000" d="M94.264 72.404c.413-.44.725-.977.91-1.568a1.227 1.227 0 0 1-.722-.453 1.37 1.37 0 0 1-.286-.837 1.37 1.37 0 0 1 .28-.839c.182-.237.436-.399.718-.458a4.06 4.06 0 0 0-.76-1.375 5.896 5.896 0 0 0-3.61 1.841 6.588 6.588 0 0 0-1.731 3.839 3.654 3.654 0 0 0 2.628 1.027 3.678 3.678 0 0 0 2.573-1.177Z"/><path fill="#fff" d="M94.53 70.473c.174.184.395.31.635.36.24.052.49.025.716-.074.226-.1.42-.269.556-.486.136-.216.208-.47.208-.731 0-.26-.072-.516-.208-.732a1.26 1.26 0 0 0-.556-.486 1.17 1.17 0 0 0-.716-.075c-.24.051-.461.177-.634.36a1.315 1.315 0 0 0-.272.428 1.381 1.381 0 0 0 0 1.01c.063.16.156.305.272.426Zm-10.022-1.758a5.986 5.986 0 0 0-2.116-1.456 6.81 6.81 0 0 1 .269 3.638 6.555 6.555 0 0 1-1.638 3.207 5.946 5.946 0 0 1-3.016 1.742 5.705 5.705 0 0 1-3.421-.286 6.474 6.474 0 0 0 1.48 2.363 5.986 5.986 0 0 0 2.294 1.454 5.704 5.704 0 0 0 2.66.262 5.827 5.827 0 0 0 2.505-.981 6.267 6.267 0 0 0 1.864-2.034 6.707 6.707 0 0 0 .859-2.688 6.812 6.812 0 0 0-.315-2.82 6.498 6.498 0 0 0-1.425-2.401Z"/><path fill="#6B4DBC" d="M81.023 74.105a6.56 6.56 0 0 0 1.637-3.208 6.814 6.814 0 0 0-.268-3.638 5.728 5.728 0 0 0-2.827-.385c.338.4.596.867.76 1.375.18-.038.364-.033.541.014.178.047.343.136.484.259.142.123.256.277.334.453a1.388 1.388 0 0 1 .005 1.124c-.078.176-.19.331-.331.456-.14.124-.305.213-.482.262a1.168 1.168 0 0 1-.541.019 4.055 4.055 0 0 1-.998 1.66 3.721 3.721 0 0 1-1.62.955 3.559 3.559 0 0 1-1.854.021 3.708 3.708 0 0 1-1.639-.918 6.829 6.829 0 0 0 .362 3.006 5.708 5.708 0 0 0 3.421.285 5.95 5.95 0 0 0 3.016-1.74Z"/><path fill="#000" d="M79.42 72.405c.413-.441.725-.978.91-1.57a1.226 1.226 0 0 1-.722-.451 1.369 1.369 0 0 1-.286-.837 1.37 1.37 0 0 1 .28-.84c.182-.236.436-.398.718-.458a4.063 4.063 0 0 0-.76-1.375 5.894 5.894 0 0 0-3.61 1.84 6.586 6.586 0 0 0-1.731 3.84 3.653 3.653 0 0 0 2.628 1.027 3.678 3.678 0 0 0 2.573-1.176Z"/><path fill="#fff" d="M79.695 70.473c.173.184.394.31.634.36.24.052.49.025.716-.074.226-.1.42-.269.556-.486a1.378 1.378 0 0 0 0-1.464 1.26 1.26 0 0 0-.556-.484 1.17 1.17 0 0 0-.716-.076 1.23 1.23 0 0 0-.634.36 1.316 1.316 0 0 0-.271.428 1.379 1.379 0 0 0 0 1.01c.063.16.155.305.27.426Z"/><path fill="#338C69" d="M101.397 107.22h-5.648a3.318 3.318 0 0 1-2.419-1.066 3.757 3.757 0 0 1-1.002-2.572c0-.965.36-1.89 1.002-2.572a3.318 3.318 0 0 1 2.42-1.066h5.647c.908 0 1.778.383 2.419 1.066a3.755 3.755 0 0 1 1.002 2.572c0 .965-.36 1.89-1.002 2.572a3.316 3.316 0 0 1-2.419 1.066Z"/><path fill="#8B694E" d="M68.414 137.549h-6.812v2.045h6.812v-2.045Zm-15.891-1.284h-6.812v3.33h6.812v-3.33Z" opacity=".2"/></svg>