<svg xmlns="http://www.w3.org/2000/svg" width="260" height="401" fill="none"><g clip-path="url(#a)"><path fill="#00845C" d="M0 0h260v400.766H0z"/><path fill="#fff" d="M23.451 34.775v7.732h-1.01v-3.505h-3.937v3.505h-1.01v-7.732h1.01v3.395h3.938v-3.395h1.01Zm4.093 7.832c-.57 0-1.088-.13-1.554-.388a2.822 2.822 0 0 1-1.087-1.098c-.259-.481-.388-1.036-.388-1.664 0-.622.133-1.169.4-1.642a2.78 2.78 0 0 1 1.109-1.098 3.166 3.166 0 0 1 1.564-.389c.577 0 1.098.13 1.564.389.466.251.832.613 1.098 1.087.274.473.41 1.024.41 1.653 0 .628-.14 1.183-.42 1.664-.274.473-.648.84-1.121 1.098a3.229 3.229 0 0 1-1.575.388Zm0-.887c.362 0 .702-.085 1.02-.255.318-.17.573-.426.765-.766.2-.34.3-.754.3-1.242s-.096-.903-.288-1.243a1.851 1.851 0 0 0-.755-.754 2.068 2.068 0 0 0-1.01-.255c-.369 0-.71.085-1.02.255a1.803 1.803 0 0 0-.732.754c-.185.34-.277.755-.277 1.243 0 .495.088.913.266 1.253.185.34.429.596.732.766.303.162.636.244.998.244Zm12.26-5.292-1.898 6.08h-1.042l-1.465-4.826-1.464 4.825h-1.043l-1.908-6.079h1.032l1.398 5.103 1.508-5.103h1.032l1.475 5.114 1.376-5.114h.998Zm3.914-.987a.664.664 0 0 1-.488-.2.664.664 0 0 1-.2-.488c0-.192.067-.355.2-.488a.664.664 0 0 1 .488-.2c.185 0 .34.067.466.2.133.133.2.296.2.488a.664.664 0 0 1-.2.488.616.616 0 0 1-.466.2Zm.488.987v6.08h-1.01v-6.08h1.01Zm3.59 6.18a3.21 3.21 0 0 1-1.254-.234 2.178 2.178 0 0 1-.876-.665 1.799 1.799 0 0 1-.355-.988h1.043c.03.304.17.551.422.744.258.192.595.288 1.009.288.385 0 .688-.085.91-.255a.78.78 0 0 0 .332-.644.623.623 0 0 0-.355-.587c-.236-.134-.602-.263-1.098-.389a9.037 9.037 0 0 1-1.11-.355 2.106 2.106 0 0 1-.731-.543c-.2-.244-.3-.562-.3-.954 0-.311.093-.596.278-.855.184-.258.447-.462.787-.61.34-.155.729-.233 1.165-.233.673 0 1.217.17 1.63.51.415.34.637.807.666 1.398h-1.01a1.036 1.036 0 0 0-.387-.765c-.23-.192-.54-.288-.932-.288-.363 0-.651.077-.866.233a.72.72 0 0 0-.321.61.7.7 0 0 0 .188.499c.133.126.296.23.488.31.2.074.474.16.821.256a7.88 7.88 0 0 1 1.065.355c.274.11.507.28.7.51.199.23.302.529.31.898 0 .333-.093.633-.278.899a1.883 1.883 0 0 1-.787.632 2.817 2.817 0 0 1-1.154.222Zm11.272-6.18-3.661 8.941h-1.043l1.198-2.928-2.451-6.013h1.12l1.908 4.926 1.886-4.926h1.043Zm3.383 6.18a3.13 3.13 0 0 1-1.553-.39 2.822 2.822 0 0 1-1.087-1.097c-.26-.481-.389-1.036-.389-1.664 0-.622.133-1.169.4-1.642a2.78 2.78 0 0 1 1.109-1.098 3.166 3.166 0 0 1 1.564-.389c.577 0 1.098.13 1.564.389.466.251.832.613 1.099 1.087.273.473.41 1.024.41 1.653 0 .628-.14 1.183-.421 1.664-.274.473-.648.84-1.121 1.098a3.229 3.229 0 0 1-1.575.388Zm0-.888c.362 0 .702-.085 1.02-.255.318-.17.574-.426.766-.766.2-.34.3-.754.3-1.242s-.097-.903-.29-1.243a1.851 1.851 0 0 0-.753-.754 2.068 2.068 0 0 0-1.01-.255c-.37 0-.71.085-1.02.255a1.804 1.804 0 0 0-.733.754c-.185.34-.277.755-.277 1.243 0 .495.089.913.266 1.253.185.34.43.596.732.766.304.162.636.244.999.244Zm9.553-5.292v6.08h-1.01v-.9a1.994 1.994 0 0 1-.81.733c-.34.17-.717.255-1.131.255-.473 0-.899-.096-1.276-.288a2.207 2.207 0 0 1-.898-.888c-.215-.392-.322-.869-.322-1.43v-3.562h.998v3.428c0 .6.152 1.061.455 1.387.303.318.718.477 1.243.477.54 0 .965-.167 1.275-.5.311-.332.466-.817.466-1.453v-3.339h1.01Zm2.43.988a1.95 1.95 0 0 1 .755-.81c.333-.193.736-.289 1.21-.289v1.043h-.267c-1.131 0-1.697.614-1.697 1.842v3.305h-1.01v-6.079h1.01v.988ZM27.733 50.9v2.508h-6.456v3.971h4.948v2.463h-4.948v6.545h-3.106V50.901h9.562Zm7.66 15.687c-1.182 0-2.247-.259-3.194-.777a5.825 5.825 0 0 1-2.24-2.24c-.533-.962-.8-2.071-.8-3.328 0-1.258.274-2.367.821-3.328a5.78 5.78 0 0 1 2.286-2.22c.96-.532 2.033-.798 3.217-.798 1.183 0 2.255.266 3.217.799a5.632 5.632 0 0 1 2.263 2.218c.562.962.843 2.071.843 3.329 0 1.257-.289 2.366-.865 3.328a5.896 5.896 0 0 1-2.308 2.24c-.961.518-2.041.777-3.24.777Zm0-2.707a3.23 3.23 0 0 0 1.576-.4 3.036 3.036 0 0 0 1.198-1.242c.296-.547.444-1.213.444-1.996 0-1.169-.31-2.064-.932-2.685-.606-.636-1.353-.954-2.24-.954-.888 0-1.635.318-2.242.954-.591.621-.887 1.516-.887 2.684 0 1.169.288 2.071.865 2.707.592.621 1.331.932 2.219.932Zm7.892-3.639c0-1.272.26-2.38.777-3.328a5.459 5.459 0 0 1 2.152-2.218c.917-.533 1.967-.799 3.15-.799 1.524 0 2.781.385 3.772 1.154 1.006.754 1.68 1.82 2.02 3.195h-3.35c-.178-.533-.481-.947-.91-1.243-.415-.31-.932-.466-1.553-.466-.888 0-1.59.326-2.108.977-.518.636-.777 1.545-.777 2.729 0 1.168.259 2.078.777 2.729.517.636 1.22.954 2.108.954 1.257 0 2.078-.563 2.462-1.687h3.35c-.34 1.331-1.013 2.39-2.019 3.173-1.005.784-2.263 1.176-3.771 1.176-1.184 0-2.234-.259-3.15-.777a5.647 5.647 0 0 1-2.153-2.218c-.518-.962-.776-2.078-.776-3.35Zm25.75-6.145v12.291h-3.129v-1.553c-.4.533-.924.954-1.575 1.265a4.884 4.884 0 0 1-2.086.444c-.961 0-1.811-.2-2.551-.6-.74-.414-1.324-1.013-1.753-1.797-.414-.798-.621-1.745-.621-2.84v-7.21h3.106v6.767c0 .976.244 1.73.732 2.263.488.518 1.154.776 1.997.776.858 0 1.53-.258 2.019-.776.488-.533.732-1.287.732-2.263v-6.767h3.128Zm7.768 12.49c-1.006 0-1.908-.177-2.707-.532-.799-.37-1.435-.865-1.908-1.486a3.782 3.782 0 0 1-.754-2.063h3.128c.06.473.288.865.688 1.175.414.311.924.466 1.53.466.592 0 1.05-.118 1.376-.355.34-.236.51-.54.51-.91 0-.399-.207-.694-.62-.887-.4-.207-1.044-.429-1.931-.665-.917-.222-1.671-.452-2.263-.688a4.022 4.022 0 0 1-1.509-1.087c-.414-.488-.621-1.147-.621-1.975 0-.68.192-1.301.577-1.864.4-.562.961-1.005 1.686-1.33.74-.326 1.605-.489 2.596-.489 1.464 0 2.633.37 3.505 1.11.873.724 1.354 1.708 1.442 2.95h-2.973c-.044-.488-.25-.872-.62-1.153-.356-.296-.836-.444-1.443-.444-.562 0-.998.103-1.309.31a.997.997 0 0 0-.444.866c0 .414.207.732.622.954.414.207 1.057.421 1.93.643.887.222 1.62.451 2.196.688a3.749 3.749 0 0 1 1.487 1.11c.429.487.65 1.138.665 1.952 0 .71-.2 1.346-.599 1.908-.384.562-.946 1.006-1.686 1.331-.725.31-1.575.466-2.551.466Zm11.713-16.218c1.538 0 2.773.422 3.705 1.265.946.828 1.42 1.975 1.42 3.439 0 1.45-.466 2.559-1.398 3.328-.932.754-2.167 1.132-3.705 1.132l-.089 1.708H85.72l-.11-3.772h.998c1.286 0 2.277-.17 2.973-.51.695-.34 1.042-.962 1.042-1.864 0-.65-.192-1.168-.577-1.553-.37-.384-.88-.577-1.53-.577-.68 0-1.213.185-1.598.555-.37.37-.555.88-.555 1.53h-2.928c-.015-.901.177-1.708.577-2.417.4-.71.983-1.265 1.752-1.664.784-.4 1.702-.6 2.752-.6Zm-1.443 16.175c-.562 0-1.027-.17-1.397-.51a1.78 1.78 0 0 1-.533-1.31c0-.517.178-.946.533-1.287.37-.355.835-.532 1.397-.532.548 0 .999.177 1.354.532.355.34.532.77.532 1.287 0 .518-.177.954-.532 1.31-.355.34-.806.51-1.354.51Zm24.952-12.561a6.937 6.937 0 0 0-11.838 4.905 6.933 6.933 0 0 0 6.933 6.934c1.84 0 3.604-.73 4.905-2.029a6.945 6.945 0 0 0 0-9.81Zm-.751 9.06a5.877 5.877 0 0 1-8.311-8.31 5.877 5.877 0 0 1 10.031 4.154 5.884 5.884 0 0 1-1.72 4.156Z"/><path fill="#fff" d="M107.118 56.502a.529.529 0 0 0-.531.53v5.655a.53.53 0 1 0 1.061 0v-5.655a.532.532 0 0 0-.53-.53Zm0-2.012a.529.529 0 0 0-.375.904.53.53 0 1 0 .375-.905Z"/><path fill="#189E71" d="M125.746 245.957c25.002 0 45.271-20.061 45.271-44.807 0-24.746-20.269-44.807-45.271-44.807-25.003 0-45.272 20.061-45.272 44.807 0 24.746 20.269 44.807 45.272 44.807Z"/><path fill="#fff" d="M125.746 245.957c25.002 0 45.271-20.061 45.271-44.807 0-24.746-20.269-44.807-45.271-44.807-25.003 0-45.272 20.061-45.272 44.807 0 24.746 20.269 44.807 45.272 44.807Z" opacity=".3"/><path fill="#3A2082" d="m112.681 157.885-6.693 4.198 12.261 19.146 6.693-4.198-12.261-19.146Z"/><path fill="#666" d="m118.248 181.229.568-13.775 6.125 9.577-6.693 4.198Z" opacity=".2" style="mix-blend-mode:multiply"/><path fill="#fff" d="M127.309 218.15c-7.399 0-15.285-3.085-22.377-9.111-1.669-1.418-4.199-2.636-11.34-1.964-.873.084-1.31.267-3.6 1.509a51.542 51.542 0 0 1-7.265 3.397c-7.022 2.575-12.744 1.844-17.342 1.255-1.323-.17-2.572-.329-3.842-.414a12.477 12.477 0 0 1-4.662-1.243 12.366 12.366 0 0 1-3.827-2.914 12.17 12.17 0 0 1-3.033-8.882 12.202 12.202 0 0 1 4.2-8.402 12.456 12.456 0 0 1 8.974-3.002c2.032.134 3.8.36 5.361.56 3.462.443 4.392.502 5.575.068a28.71 28.71 0 0 0 3.956-1.901c2.988-1.622 7.08-3.841 13.154-4.417 7.987-.755 19.768-.768 29.815 7.76 2.938 2.496 5.376 3.22 6.152 3.247 2.636-2.141 3.751-8.358 4.645-13.366.049-.27.116-.811.182-1.335.548-4.342 2.001-15.878 13.435-18.85 8.628-2.24 16.833 2.833 23.426 6.913 1.031.64 2.443 1.512 2.932 1.75 4.592 2.181 14.071 6.685 20.488 5.779a7.436 7.436 0 0 0-.171-.576c-1.992-5.803-9.354-13.705-24.042-18.487-15.734-5.121-33.946-3.48-50.015-2.033a12.462 12.462 0 0 1-9.044-2.787 12.21 12.21 0 0 1-4.403-8.301 12.163 12.163 0 0 1 2.816-8.951 12.414 12.414 0 0 1 8.387-4.358c17.548-1.582 39.386-3.551 59.993 3.158 9.516 3.098 32.439 12.6 39.744 33.875 2.627 7.647 2.042 15.25-1.646 21.408-3.526 5.889-9.575 9.842-17.033 11.132-12.511 2.171-24.598-2.458-35.795-7.778a57.08 57.08 0 0 1-5.329-3.056l-.13-.081c-1.552 8.051-4.374 18.541-13.436 25.434a24.286 24.286 0 0 1-14.903 4.964Z"/><path fill="#EAEBE3" d="m188.788 192.637.983 10.27.98 10.268-9.48-4.293-9.474-4.293 8.496-5.978 8.495-5.974Z"/><path fill="#666" d="m171.798 204.588 18.117-.187.836 8.773-18.953-8.586Z" opacity=".2" style="mix-blend-mode:multiply"/><path fill="#FF7F00" d="m180.79 142.982-14.957 5.199 5.251 14.801 14.958-5.199-5.252-14.801Z"/><path fill="#666" d="m171.085 162.981 11.16-15.886 3.797 10.687-14.957 5.199Z" opacity=".2" style="mix-blend-mode:multiply"/><path fill="#666" d="M178.536 255.84c0 .5-3.583.906-8.003.906s-8.003-.406-8.003-.906 3.582-.907 8.003-.907 8.003.407 8.003.907Zm-49.962 3.903c0 .5-3.583.906-8.004.906-4.42 0-8.002-.406-8.002-.906s3.582-.907 8.002-.907c4.421 0 8.004.407 8.004.907Zm69.514 0c0 .652-4.666 1.181-10.422 1.181s-10.421-.529-10.421-1.181c0-.651 4.665-1.18 10.421-1.18 5.756 0 10.422.529 10.422 1.18Zm-6.712-6.934c0 .673-27.292 1.217-60.967 1.217-33.674 0-60.967-.545-60.967-1.217 0-.671 27.292-1.216 60.967-1.216 33.676 0 60.967.544 60.967 1.216Z" opacity=".2"/><path fill="#000" d="m155.711 187.896-7.114-5.228 4.097 16.642 3.017-11.414Zm36.596-13.361s5.659-.934 2.855-8.828l-3.611 6.507.756 2.321Z" opacity=".15" style="mix-blend-mode:multiply"/><path fill="#fff" d="M187.995 236.26c-3.12 0-6.187-.609-8.372-2.284a7.332 7.332 0 0 1-2.768-4.407c-2.853 1.124-5.996 1.537-8.428.404-2.514-1.172-5.198-4.485-3.704-13.618a.155.155 0 0 1 .064-.105.139.139 0 0 1 .058-.026.161.161 0 0 1 .197.182c-1.156 7.073.061 11.665 3.523 13.278 1.781.832 5.015.794 8.234-.394a11.817 11.817 0 0 1-.059-3.557c.281-2.327 1.972-5.233 3.949-5.684.851-.192 2.134-.019 3.395 1.921.566.871.206 2.112-1.014 3.487a16.852 16.852 0 0 1-5.909 3.987 7.036 7.036 0 0 0 2.66 4.278c4.666 3.576 13.509 2.162 17.986.431a.16.16 0 0 1 .123.003.153.153 0 0 1 .085.088.163.163 0 0 1-.002.122.182.182 0 0 1-.036.051.17.17 0 0 1-.053.033 29.348 29.348 0 0 1-9.929 1.81Zm-6.755-15.953a2.09 2.09 0 0 0-.479.055c-1.845.419-3.432 3.187-3.701 5.408a11.545 11.545 0 0 0 .048 3.402 14.87 14.87 0 0 0 5.719-3.925c1.116-1.261 1.466-2.363.986-3.103-.79-1.221-1.656-1.837-2.573-1.837Zm-82.11-49.64h-.011c-2.924-.22-4.942-1.052-6.168-2.542-2.1-2.549-1.566-6.675-1.001-11.043.5-3.879 1.019-7.889-.14-11.32-5.113 1.844-8.43 5.542-11.94 9.455-1.43 1.595-2.911 3.245-4.52 4.757l-.267.249-.005-.365c-.065-4.328.96-8.145 1.953-11.836a51.266 51.266 0 0 0 1.783-8.59c-6.166 1.722-10.743 5.339-15.586 9.166a251.34 251.34 0 0 1-2.801 2.192.155.155 0 0 1-.057.031c-.02.007-.043.009-.064.007a.189.189 0 0 1-.062-.019.161.161 0 0 1-.082-.164.158.158 0 0 1 .066-.107 269.32 269.32 0 0 0 2.798-2.19c4.928-3.894 9.583-7.572 15.927-9.286l.224-.061-.02.228a50.31 50.31 0 0 1-1.81 8.875c-.96 3.564-1.95 7.246-1.946 11.379 1.496-1.429 2.886-2.978 4.231-4.48 3.574-3.984 6.949-7.746 12.228-9.602l.153-.054.054.152c1.252 3.536.72 7.645.207 11.619-.555 4.298-1.08 8.358.93 10.8 1.169 1.419 3.112 2.212 5.943 2.426a.162.162 0 0 1 .113.051.16.16 0 0 1 .028.176.163.163 0 0 1-.153.093l-.004.003Zm102.294 32.431a.163.163 0 0 1-.161-.136.17.17 0 0 1 .023-.11.164.164 0 0 1 .09-.067l.169-.051c5.91-1.78 15.801-4.758 16.533-11.974a.147.147 0 0 1 .017-.061.187.187 0 0 1 .04-.049.167.167 0 0 1 .229.025.16.16 0 0 1 .036.117c-.754 7.425-10.774 10.446-16.76 12.248l-.169.051a.242.242 0 0 1-.047.007Zm6.789 1.599a.16.16 0 0 1-.164-.157.158.158 0 0 1 .045-.114.167.167 0 0 1 .114-.049c3.233-.114 7.491-2.719 9.585-5.066a.162.162 0 0 1 .278.097.158.158 0 0 1-.036.114c-2.186 2.45-6.455 5.057-9.816 5.175h-.006Z"/><path fill="#F1F2F2" d="M109.147 215.649c-2.429 0-5.827-.307-8.249-1.765a5.543 5.543 0 0 1-1.84-1.626 5.478 5.478 0 0 1-.949-2.253.16.16 0 0 1 .134-.179.16.16 0 0 1 .185.127 5.18 5.18 0 0 0 .9 2.125 5.246 5.246 0 0 0 1.737 1.532c4.318 2.599 12.452 1.724 15.651.704 1.446-.461 3.06-1.146 4.768-1.87 5.87-2.49 13.176-5.593 18.602-1.311a.156.156 0 0 1 .059.107.159.159 0 0 1-.142.177.153.153 0 0 1-.064-.005.176.176 0 0 1-.056-.029c-5.272-4.161-12.178-1.23-18.272 1.355-1.715.727-3.335 1.415-4.796 1.881a27.116 27.116 0 0 1-7.648 1.03h-.02Z"/><path fill="#fff" d="M102.233 219.895a7.633 7.633 0 0 1-1.246-.099c-2.07-.344-3.983-1.62-6.395-4.27a.158.158 0 0 1 .017-.219.162.162 0 0 1 .222.006c4.87 5.346 7.38 4.682 12.881 3.228.841-.221 1.786-.472 2.807-.717a.166.166 0 0 1 .063-.003.167.167 0 0 1 .105.064.158.158 0 0 1 .006.177.161.161 0 0 1-.099.072 120.82 120.82 0 0 0-2.8.715c-2.218.589-3.949 1.046-5.561 1.046ZM48.03 207.821a.166.166 0 0 1-.069-.015.178.178 0 0 1-.056-.044c-3.47-4.212-5.03-11.02-1.293-15.88a.161.161 0 0 1 .226-.032.158.158 0 0 1 .033.224c-3.633 4.729-2.101 11.369 1.293 15.484a.161.161 0 0 1 .02.17.164.164 0 0 1-.145.092l-.008.001Zm-6.467-1.921a.16.16 0 0 1-.1-.035c-1.795-1.417-2.329-3.3-1.674-5.924a.159.159 0 0 1 .074-.099.16.16 0 0 1 .122-.018.159.159 0 0 1 .118.193c-.62 2.489-.123 4.268 1.561 5.598a.158.158 0 0 1-.008.255.157.157 0 0 1-.093.03Zm86.986-68.477a12.21 12.21 0 0 0-3.273-5.09 12.39 12.39 0 0 0-5.333-2.923 12.494 12.494 0 0 0-6.097-.044 12.396 12.396 0 0 0-5.376 2.845 12.435 12.435 0 0 1 6.499 2.631 12.236 12.236 0 0 1 4.004 5.709c.749 2.246.824 4.659.216 6.946a12.217 12.217 0 0 1-3.64 5.943 12.47 12.47 0 0 0 6.03-.882 12.338 12.338 0 0 0 4.871-3.627 12.166 12.166 0 0 0 2.528-5.49c.367-2.01.219-4.079-.43-6.018h.001Z"/><path fill="#6B4DBC" d="M118.973 140.551a12.238 12.238 0 0 0-4.004-5.708 12.428 12.428 0 0 0-6.498-2.632 12.258 12.258 0 0 0-3.264 4.783 7.813 7.813 0 0 1 5.694.645 7.68 7.68 0 0 1 3.683 4.346 7.584 7.584 0 0 1-.347 5.662 7.704 7.704 0 0 1-4.187 3.873 12.48 12.48 0 0 0 5.497 1.92 12.22 12.22 0 0 0 3.641-5.942c.608-2.288.533-4.7-.215-6.947Z"/><path fill="#000" d="M114.581 141.987a7.686 7.686 0 0 0-3.683-4.344 7.815 7.815 0 0 0-5.691-.648 12.096 12.096 0 0 0-.16 8.106 12.24 12.24 0 0 0 5.003 6.42 7.706 7.706 0 0 0 4.183-3.874 7.593 7.593 0 0 0 .348-5.66Z"/><path fill="#fff" d="M111.682 140.644c1.4 0 2.535-1.123 2.535-2.509s-1.135-2.509-2.535-2.509c-1.4 0-2.535 1.123-2.535 2.509s1.135 2.509 2.535 2.509ZM17.945 335.355c.712 0 1.336.139 1.873.417.544.278.961.676 1.253 1.194.297.511.446 1.106.446 1.786 0 .679-.149 1.275-.446 1.786a2.967 2.967 0 0 1-1.253 1.174c-.537.279-1.161.418-1.873.418h-2.368v-6.775h2.368Zm-.049 5.62c.712 0 1.262-.194 1.65-.583.389-.388.583-.935.583-1.64 0-.705-.194-1.255-.582-1.65-.389-.401-.939-.602-1.65-.602h-.961v4.475h.96Zm5.045-4.863a.855.855 0 0 1-.602-.224.777.777 0 0 1-.233-.572c0-.227.077-.414.233-.563a.837.837 0 0 1 .602-.233c.24 0 .436.078.592.233a.732.732 0 0 1 .242.563.76.76 0 0 1-.242.572.82.82 0 0 1-.592.224Zm.67.64v5.378h-1.36v-5.378h1.36Zm3.117 5.465c-.44 0-.835-.077-1.184-.233a2.162 2.162 0 0 1-.835-.65c-.2-.272-.31-.573-.33-.903h1.369a.752.752 0 0 0 .3.515c.182.136.405.204.67.204.26 0 .46-.052.602-.156a.467.467 0 0 0 .223-.398c0-.174-.09-.304-.271-.388-.175-.091-.457-.188-.845-.291a7.504 7.504 0 0 1-.99-.301 1.761 1.761 0 0 1-.66-.476c-.181-.213-.272-.501-.272-.864 0-.297.084-.569.253-.815.174-.246.42-.44.737-.582.324-.143.702-.214 1.136-.214.64 0 1.152.162 1.534.485.381.317.592.748.63 1.291h-1.3a.682.682 0 0 0-.272-.504c-.155-.13-.366-.195-.631-.195-.246 0-.437.046-.573.136a.437.437 0 0 0-.194.379c0 .181.09.32.272.417.181.091.463.185.845.282.388.097.708.197.96.301.253.103.47.265.65.485.189.214.285.498.292.854 0 .311-.087.589-.262.835-.168.246-.414.44-.738.582-.317.136-.689.204-1.116.204Zm4.53-4.348v2.601c0 .181.043.314.127.398.09.078.24.116.446.116h.631v1.146h-.854c-1.145 0-1.718-.557-1.718-1.67v-2.591h-.64v-1.117h.64v-1.329h1.369v1.329h1.203v1.117H31.26Zm3.258-.282c.175-.285.401-.508.68-.67.284-.161.608-.242.97-.242v1.427h-.36c-.426 0-.75.1-.97.301-.213.2-.32.55-.32 1.048v2.679h-1.359v-5.378h1.359v.835Zm1.933 1.835c0-.544.107-1.026.32-1.447.22-.42.515-.744.884-.97a2.37 2.37 0 0 1 1.252-.34c.401 0 .75.081 1.048.243.304.161.547.365.728.611v-.767h1.369v5.378h-1.37v-.786a2.065 2.065 0 0 1-.728.631 2.228 2.228 0 0 1-1.058.242c-.453 0-.867-.116-1.242-.349a2.5 2.5 0 0 1-.884-.981c-.213-.427-.32-.915-.32-1.465Zm4.232.019c0-.33-.065-.611-.194-.844a1.326 1.326 0 0 0-.524-.544 1.378 1.378 0 0 0-.709-.194c-.252 0-.485.061-.699.184a1.419 1.419 0 0 0-.524.544c-.13.233-.194.511-.194.835 0 .323.065.608.194.854.136.239.31.424.524.553.22.13.453.194.7.194.252 0 .488-.061.708-.184.22-.13.395-.311.524-.544a1.77 1.77 0 0 0 .194-.854Zm2.064 0c0-.556.113-1.042.34-1.456.226-.42.54-.744.941-.971.401-.232.86-.349 1.378-.349.667 0 1.217.168 1.65.505.44.33.735.796.884 1.398h-1.466a1.036 1.036 0 0 0-.398-.544 1.1 1.1 0 0 0-.68-.204c-.388 0-.695.142-.922.427-.226.278-.34.676-.34 1.194 0 .511.114.909.34 1.194.227.278.534.417.923.417.55 0 .909-.245 1.077-.737h1.466c-.15.582-.444 1.045-.884 1.388-.44.343-.99.514-1.65.514a2.76 2.76 0 0 1-1.378-.339 2.473 2.473 0 0 1-.942-.971c-.226-.421-.34-.909-.34-1.466Zm7.488-1.572v2.601c0 .181.042.314.126.398.09.078.24.116.446.116h.631v1.146h-.854c-1.145 0-1.718-.557-1.718-1.67v-2.591h-.64v-1.117h.64v-1.329h1.369v1.329h1.203v1.117h-1.203Zm6.897 1.456c0 .194-.013.369-.04.524h-3.93c.032.388.168.692.407.912.24.22.534.33.884.33.504 0 .864-.217 1.077-.65h1.466a2.47 2.47 0 0 1-.893 1.281c-.44.33-.98.495-1.621.495a2.87 2.87 0 0 1-1.398-.339 2.5 2.5 0 0 1-.96-.981c-.227-.42-.34-.906-.34-1.456 0-.556.113-1.045.34-1.466.225-.42.543-.744.95-.97.408-.227.877-.34 1.408-.34a2.8 2.8 0 0 1 1.368.33c.408.22.722.534.942.942.227.401.34.863.34 1.388Zm-1.408-.389c-.006-.349-.132-.627-.378-.834a1.327 1.327 0 0 0-.903-.321 1.24 1.24 0 0 0-.854.311c-.227.201-.366.482-.418.844h2.553Zm1.767.486c0-.544.107-1.026.32-1.447.22-.42.518-.744.894-.97a2.37 2.37 0 0 1 1.252-.34c.35 0 .683.078 1 .233.317.149.569.349.757.602v-2.553h1.378v7.183h-1.378v-.796a1.847 1.847 0 0 1-.709.641 2.229 2.229 0 0 1-1.058.242c-.453 0-.867-.116-1.242-.349a2.474 2.474 0 0 1-.893-.981c-.214-.427-.32-.915-.32-1.465Zm4.232.019c0-.33-.064-.611-.194-.844a1.326 1.326 0 0 0-.524-.544 1.378 1.378 0 0 0-.709-.194c-.252 0-.485.061-.698.184a1.42 1.42 0 0 0-.524.544c-.13.233-.195.511-.195.835 0 .323.065.608.194.854.136.239.311.424.525.553.22.13.453.194.699.194.252 0 .488-.061.708-.184.22-.13.395-.311.524-.544.13-.239.194-.524.194-.854Zm144.311-4.086v1.096h-2.825v1.738h2.165v1.077h-2.165v2.864h-1.359v-6.775h4.184Zm3.068 6.862c-.517 0-.983-.113-1.397-.339a2.548 2.548 0 0 1-.981-.981c-.233-.42-.349-.906-.349-1.456 0-.55.12-1.035.359-1.456.246-.42.579-.744 1-.971.42-.232.89-.349 1.407-.349.518 0 .987.117 1.408.349.42.227.75.551.99.971.246.421.369.906.369 1.456 0 .55-.127 1.036-.379 1.456a2.579 2.579 0 0 1-1.009.981 2.948 2.948 0 0 1-1.418.339Zm0-1.184a1.333 1.333 0 0 0 1.214-.718c.129-.24.194-.531.194-.874 0-.511-.136-.903-.408-1.174a1.298 1.298 0 0 0-.98-.418c-.388 0-.715.139-.981.418-.258.271-.388.663-.388 1.174 0 .511.126.906.379 1.184.259.272.582.408.97.408Zm3.17-1.592c0-.556.113-1.042.34-1.456.226-.42.54-.744.941-.971a2.707 2.707 0 0 1 1.379-.349c.666 0 1.216.168 1.65.505.44.33.734.796.883 1.398h-1.466a1.03 1.03 0 0 0-.398-.544 1.098 1.098 0 0 0-.679-.204c-.388 0-.696.142-.922.427-.227.278-.34.676-.34 1.194 0 .511.113.909.34 1.194.226.278.534.417.922.417.55 0 .909-.245 1.077-.737h1.466c-.149.582-.443 1.045-.883 1.388-.44.343-.99.514-1.65.514-.518 0-.977-.113-1.379-.339a2.47 2.47 0 0 1-.941-.971c-.227-.421-.34-.909-.34-1.466Zm10.982-2.689v5.378h-1.368v-.68a1.837 1.837 0 0 1-.689.554 2.148 2.148 0 0 1-.913.194 2.32 2.32 0 0 1-1.116-.262 1.955 1.955 0 0 1-.767-.786c-.181-.35-.272-.764-.272-1.243v-3.155h1.359v2.961c0 .427.107.757.321.99.213.226.504.34.873.34.375 0 .67-.114.883-.34.214-.233.321-.563.321-.99v-2.961h1.368Zm3.116 5.465c-.44 0-.835-.077-1.184-.233a2.166 2.166 0 0 1-.835-.65c-.2-.272-.31-.573-.33-.903h1.369a.752.752 0 0 0 .301.515c.181.136.404.204.669.204.259 0 .46-.052.602-.156a.467.467 0 0 0 .224-.398c0-.174-.091-.304-.272-.388-.175-.091-.456-.188-.845-.291a7.523 7.523 0 0 1-.99-.301 1.766 1.766 0 0 1-.66-.476c-.181-.213-.272-.501-.272-.864 0-.297.084-.569.253-.815.174-.246.42-.44.737-.582.324-.143.703-.214 1.136-.214.641 0 1.152.162 1.534.485.382.317.592.748.631 1.291h-1.301a.68.68 0 0 0-.272-.504c-.155-.13-.365-.195-.631-.195-.246 0-.437.046-.572.136a.437.437 0 0 0-.195.379c0 .181.091.32.272.417.181.091.463.185.845.282.388.097.708.197.961.301.252.103.469.265.65.485.188.214.285.498.291.854 0 .311-.087.589-.262.835-.168.246-.414.44-.738.582-.317.136-.689.204-1.116.204Zm7.948-2.892c0 .194-.013.369-.039.524h-3.931c.032.388.168.692.407.912.24.22.534.33.884.33.504 0 .864-.217 1.077-.65h1.466a2.469 2.469 0 0 1-.893 1.281c-.44.33-.981.495-1.621.495a2.87 2.87 0 0 1-1.398-.339 2.498 2.498 0 0 1-.961-.981c-.226-.42-.34-.906-.34-1.456 0-.556.114-1.045.34-1.466.227-.42.544-.744.951-.97.408-.227.877-.34 1.408-.34.511 0 .967.11 1.368.33.408.22.722.534.942.942.227.401.34.863.34 1.388Zm-1.408-.389c-.006-.349-.132-.627-.378-.834a1.328 1.328 0 0 0-.903-.321c-.336 0-.621.104-.854.311-.227.201-.366.482-.418.844h2.553Zm1.767.486c0-.544.107-1.026.321-1.447.22-.42.517-.744.893-.97a2.37 2.37 0 0 1 1.252-.34c.349 0 .683.078 1 .233.317.149.569.349.757.602v-2.553h1.378v7.183h-1.378v-.796a1.847 1.847 0 0 1-.709.641 2.229 2.229 0 0 1-1.058.242c-.453 0-.867-.116-1.242-.349a2.47 2.47 0 0 1-.893-.981c-.214-.427-.321-.915-.321-1.465Zm4.232.019c0-.33-.064-.611-.194-.844a1.323 1.323 0 0 0-.524-.544 1.377 1.377 0 0 0-.708-.194c-.253 0-.486.061-.699.184a1.409 1.409 0 0 0-.524.544c-.13.233-.195.511-.195.835 0 .323.065.608.195.854.135.239.31.424.524.553.22.13.453.194.699.194.252 0 .488-.061.708-.184.22-.13.395-.311.524-.544.13-.239.194-.524.194-.854ZM24.516 315.903v2.291h-8.23v-2.291h8.23Zm215.43 3.792h-3.669v3.767h-2.563v-3.767h-3.669v-2.368h3.669v-3.766h2.563v3.766h3.669v2.368Z"/><rect width="226.6" height="2.773" x="14.907" y="299.307" fill="#DDDED6" fill-opacity=".4" rx="1.387"/><g filter="url(#b)"><path fill="#fff" fill-rule="evenodd" d="M24.613 309.475c5.361 0 9.707-4.363 9.707-9.744 0-5.382-4.346-9.745-9.707-9.745-5.36 0-9.706 4.363-9.706 9.745 0 5.381 4.346 9.744 9.706 9.744Z" clip-rule="evenodd"/></g><path fill="#DDDED6" fill-opacity=".15" d="M95.333 367.486c0-6.126 4.967-11.093 11.094-11.093h47.146c6.127 0 11.094 4.967 11.094 11.093 0 6.127-4.967 11.094-11.094 11.094h-47.146c-6.127 0-11.094-4.967-11.094-11.094Z"/><path fill="#fff" d="M123.002 370.554c-.473 0-.9-.081-1.282-.242a2.105 2.105 0 0 1-.893-.699 1.838 1.838 0 0 1-.339-1.078h1.456c.019.279.116.499.291.66.181.162.427.243.737.243.318 0 .567-.074.748-.223a.758.758 0 0 0 .272-.602.688.688 0 0 0-.185-.495 1.224 1.224 0 0 0-.466-.301 6.18 6.18 0 0 0-.757-.252 9.125 9.125 0 0 1-1.077-.379 1.99 1.99 0 0 1-.709-.573c-.194-.258-.291-.601-.291-1.029 0-.401.1-.75.301-1.048.2-.298.482-.524.844-.679a3.02 3.02 0 0 1 1.243-.243c.699 0 1.265.171 1.698.514.44.337.683.809.728 1.418h-1.494a.76.76 0 0 0-.301-.573c-.181-.155-.424-.233-.728-.233-.266 0-.479.068-.641.204-.155.136-.233.333-.233.592 0 .181.058.333.175.456.123.117.272.214.446.291.182.072.434.156.757.253.441.129.8.259 1.078.388s.518.324.718.582c.201.259.301.599.301 1.02 0 .362-.094.698-.281 1.009-.188.311-.463.56-.825.747-.363.182-.793.272-1.291.272Zm6.476-.068-1.825-2.29v2.29h-1.359v-7.183h1.359v4.087l1.806-2.281h1.766l-2.368 2.698 2.388 2.679h-1.767Zm2.891-6.018a.856.856 0 0 1-.602-.223.78.78 0 0 1-.233-.573c0-.226.078-.414.233-.563a.838.838 0 0 1 .602-.233c.24 0 .437.078.592.233a.733.733 0 0 1 .243.563.762.762 0 0 1-.243.573.818.818 0 0 1-.592.223Zm.67.641v5.377h-1.359v-5.377h1.359Zm2.419.776c.174-.246.414-.449.718-.611a2.189 2.189 0 0 1 1.058-.253 2.329 2.329 0 0 1 2.126 1.311c.22.414.33.896.33 1.446 0 .55-.11 1.039-.33 1.466a2.41 2.41 0 0 1-.884.98c-.368.233-.783.35-1.242.35-.395 0-.744-.081-1.048-.243a2.255 2.255 0 0 1-.728-.611v3.329h-1.359v-7.94h1.359v.776Zm2.844 1.893a1.63 1.63 0 0 0-.204-.835 1.379 1.379 0 0 0-1.922-.533 1.406 1.406 0 0 0-.524.543c-.13.24-.194.521-.194.845 0 .323.064.605.194.844.136.239.31.424.524.553.22.123.453.185.699.185.252 0 .485-.065.699-.194.22-.13.394-.314.524-.554a1.7 1.7 0 0 0 .204-.854Z"/></g><defs><clipPath id="a"><path fill="#fff" d="M0 0h260v400.747H0z"/></clipPath><filter id="b" width="37.44" height="37.515" x="5.893" y="285.133" color-interpolation-filters="sRGB" filterUnits="userSpaceOnUse"><feFlood flood-opacity="0" result="BackgroundImageFix"/><feColorMatrix in="SourceAlpha" result="hardAlpha" values="0 0 0 0 0 0 0 0 0 0 0 0 0 0 0 0 0 0 127 0"/><feOffset dy="4.16"/><feGaussianBlur stdDeviation="4.507"/><feColorMatrix values="0 0 0 0 0 0 0 0 0 0 0 0 0 0 0 0 0 0 0.12 0"/><feBlend in2="BackgroundImageFix" result="effect1_dropShadow_91_7873"/><feColorMatrix in="SourceAlpha" result="hardAlpha" values="0 0 0 0 0 0 0 0 0 0 0 0 0 0 0 0 0 0 127 0"/><feOffset dy=".347"/><feGaussianBlur stdDeviation="1.387"/><feColorMatrix values="0 0 0 0 0 0 0 0 0 0 0 0 0 0 0 0 0 0 0.12 0"/><feBlend in2="effect1_dropShadow_91_7873" result="effect2_dropShadow_91_7873"/><feBlend in="SourceGraphic" in2="effect2_dropShadow_91_7873" result="shape"/></filter></defs></svg>