<svg xmlns="http://www.w3.org/2000/svg" width="375" height="598" fill="none"><path fill="#EAEBE3" d="M0 0h375v598H0z"/><path fill="#EFCEA6" d="M35.153 216.171c-7.828-2.658-12.019-11.158-9.36-18.986 2.657-7.828 11.157-12.019 18.985-9.361 7.828 2.658 12.019 11.158 9.361 18.986-2.658 7.828-11.158 12.019-18.986 9.361Z"/><path fill="#8C694D" d="M31.73 224.534c0 .228 3.652.412 8.157.412 4.506 0 8.158-.184 8.158-.412 0-.228-3.652-.413-8.158-.413-4.505 0-8.157.185-8.157.413Z" opacity=".2"/><path fill="#824A1D" d="M40.068 201.656c1.549 0 3.132-.819 3.199-.854a.337.337 0 0 0-.056-.622.335.335 0 0 0-.258.023c-.014.007-1.505.776-2.885.776-1.373 0-2.642-.758-2.654-.766a.344.344 0 0 0-.256-.039.333.333 0 0 0-.254.277.34.34 0 0 0 .16.34c.058.036 1.444.865 3.004.865Z"/><path fill="#FF7F00" d="M36.574 222.045h1.916v-5.996c-.007-.336-.048-1.481-.278-2.108a2.479 2.479 0 0 0-.723-.992 2.306 2.306 0 0 1-.224-.225 3.37 3.37 0 0 1-.736-2.1c0-.732.234-1.367.809-2.194.84-1.21.877-2.345.114-3.469-.574-.847-1.301-1.813-2.344-2.565-1.283-.969-1.99-2.247-1.99-3.6 0-2.814 3.038-5.103 6.77-5.103 3.734 0 6.77 2.289 6.77 5.103 0 1.325-.68 2.584-1.915 3.546l-.073.056c-1.834 1.372-2.762 3.002-2.617 4.591.064.705.36 1.205.622 1.646.059.099.118.199.176.304.262.523.4 1.1.4 1.685a3.4 3.4 0 0 1-.83 2.213c-.07.081-.136.15-.197.214-.287.304-.612.648-.78 1.376-.157.676-.157 1.489-.157 1.974v5.644h1.916v-5.644c0-.377 0-1.079.107-1.542.052-.221.086-.257.307-.491.075-.08.157-.167.245-.268a5.272 5.272 0 0 0 1.305-3.475 5.67 5.67 0 0 0-.636-2.606c-.067-.124-.138-.243-.207-.361-.216-.363-.339-.582-.363-.843-.111-1.216 1.114-2.327 1.854-2.88l.11-.085c1.707-1.328 2.65-3.124 2.65-5.054 0-3.87-3.897-7.019-8.686-7.019-4.79 0-8.687 3.149-8.687 7.019 0 1.944 1.006 3.817 2.76 5.137l.018.013c.802.576 1.38 1.346 1.886 2.091.274.403.324.687-.102 1.3-.536.772-1.15 1.843-1.15 3.288 0 1.198.408 2.361 1.156 3.298.128.155.267.299.417.433a.956.956 0 0 1 .226.247c.08.219.148.951.16 1.476v5.966Z"/><path fill="#fff" fill-rule="evenodd" d="M44.761 223.165h-1.56v-1.466h-1.92v2.7h4.715a1.236 1.236 0 0 0-1.235-1.234Zm-9.749 0h1.56v-1.466h1.921v2.7h-4.716a1.232 1.232 0 0 1 1.235-1.234Z" clip-rule="evenodd"/><path fill="#fff" d="M40.406 197.705a1.985 1.985 0 0 1 1.835-1.984c.33-.026.663.032.966.168a1.986 1.986 0 0 0-.859 2.899c.21.322.508.577.859.733a1.98 1.98 0 0 1-1.895-.146 1.99 1.99 0 0 1-.906-1.67Z"/><path fill="#6B4DBC" d="M42.028 197.703a1.993 1.993 0 0 1 1.18-1.816c.289.129.543.326.741.573a1.255 1.255 0 0 0-.908.471.403.403 0 0 0-.452.06.41.41 0 0 0 .183.702v.01a1.246 1.246 0 0 0 1.178 1.243 1.993 1.993 0 0 1-.742.573 1.987 1.987 0 0 1-1.18-1.816Z"/><path fill="#000" d="M42.772 197.704v-.011a.407.407 0 0 0 .268-.761 1.233 1.233 0 0 1 .909-.471 1.984 1.984 0 0 1 0 2.486 1.245 1.245 0 0 1-1.177-1.243Z"/><path fill="#fff" d="M43.269 197.298a.408.408 0 1 1-.817 0 .408.408 0 0 1 .817 0Zm-7.669.407a1.984 1.984 0 0 1 .906-1.67 1.98 1.98 0 0 1 1.895-.146 1.987 1.987 0 0 0 0 3.632 1.98 1.98 0 0 1-1.895-.146 1.99 1.99 0 0 1-.906-1.67Z"/><path fill="#6B4DBC" d="M37.221 197.703a1.992 1.992 0 0 1 1.18-1.816c.289.129.543.326.742.573a1.254 1.254 0 0 0-.909.471.403.403 0 0 0-.452.06.41.41 0 0 0 .183.702v.01a1.246 1.246 0 0 0 1.178 1.243 1.994 1.994 0 0 1-.742.573 1.987 1.987 0 0 1-1.18-1.816Z"/><path fill="#000" d="M37.965 197.704v-.011a.402.402 0 0 0 .474-.261.406.406 0 0 0-.206-.5 1.233 1.233 0 0 1 .909-.471 1.985 1.985 0 0 1 0 2.486 1.244 1.244 0 0 1-1.177-1.243Z"/><path fill="#fff" d="M38.462 197.298a.408.408 0 1 1-.408-.407.412.412 0 0 1 .408.407Z"/><path fill="#EFCEA6" d="M24.275 277.985a14.988 14.988 0 0 0 9.868 14.07A14.982 14.982 0 0 0 54.19 279.28a14.986 14.986 0 0 0-17.516-16.071c-.282.052-.56.11-.837.179-1.604.513-3.186 1.077-4.602 1.931a14.978 14.978 0 0 0-6.96 12.666Z"/><path fill="#8C694D" d="M29.126 300.507c0 .229 3.662.414 8.179.414s8.179-.185 8.179-.414c0-.228-3.662-.413-8.18-.413-4.516 0-8.178.185-8.178.413Z" opacity=".2"/><path fill="#824A1D" d="M38.709 275.622c1.052-.019 2.1-.145 3.127-.374a.338.338 0 1 0-.154-.66c-.977.216-1.973.335-2.973.356-1.425 0-4.326-.792-4.355-.8a.34.34 0 0 0-.18.654c.123.033 3.02.824 4.535.824Z"/><path fill="#FF7F00" d="M40.622 298.089c.34-1.579-.18-3.132-.683-4.635-.75-2.242-1.14-3.679.279-4.925.333-.294.855-.513 1.408-.745 1.182-.498 2.653-1.116 2.981-2.879.23-1.23-.204-2.277-.587-3.201-.267-.647-.52-1.257-.503-1.833.022-.729.91-1.184 2.163-1.748.382-.163.755-.346 1.119-.547 1.985-1.153 3.182-2.933 3.282-4.885a5.438 5.438 0 0 0-1.608-4.196c-1.526-1.546-4.124-2.483-6.618-2.387-4.654.18-10.41 1.176-11.4 4.9-1.014 3.815 1.678 7.164 4.913 8.567.379.407.575.76.556 1.006-.038.479-.9 1.107-1.661 1.661-1.337.972-3 2.183-2.799 4.204.144 1.431.66 2.753 1.158 4.032.284.728.551 1.414.748 2.105.422 1.487.48 3.14.535 4.739l.02.546 1.92-.073-.02-.54c-.06-1.713-.12-3.485-.607-5.197-.222-.779-.519-1.541-.806-2.278-.473-1.211-.919-2.356-1.036-3.526-.086-.86.743-1.531 2.017-2.458 1.15-.837 2.34-1.703 2.447-3.065.069-.877-.336-1.742-1.238-2.645l-.137-.137-.18-.073c-2.541-1.035-4.721-3.557-3.972-6.375.522-1.962 4.117-3.26 9.617-3.473 1.95-.076 4.03.654 5.178 1.816a3.518 3.518 0 0 1 1.055 2.748c-.09 1.767-1.497 2.84-2.328 3.322-.251.146-.587.297-.942.457-1.366.614-3.236 1.455-3.295 3.443-.03.987.33 1.857.648 2.624.32.775.598 1.445.473 2.115-.132.711-.752 1.003-1.836 1.459-.671.282-1.364.573-1.933 1.074-2.448 2.152-1.552 4.828-.832 6.978.441 1.315.857 2.556.627 3.62l1.877.405Z"/><path fill="#fff" fill-rule="evenodd" d="M42.193 299.129h-1.564v-1.469h-1.927v2.708h4.728a1.237 1.237 0 0 0-1.237-1.239Zm-9.777 0h1.564v-1.469h1.927v2.708h-4.729a1.238 1.238 0 0 1 1.238-1.239Z" clip-rule="evenodd"/><path fill="#020202" d="M43.387 287.992a.069.069 0 0 0 .025-.005.058.058 0 0 0 .02-.014 6.28 6.28 0 0 1 1.176-.88c.5-.316 1.016-.642 1.426-1.145.846-1.036.932-1.739.806-2.923a.069.069 0 0 0-.007-.024.059.059 0 0 0-.016-.018.05.05 0 0 0-.022-.012.068.068 0 0 0-.024-.002.092.092 0 0 0-.024.007.073.073 0 0 0-.019.016.07.07 0 0 0-.01.022.06.06 0 0 0-.003.024c.125 1.171.045 1.823-.778 2.831-.397.486-.905.808-1.396 1.119a6.339 6.339 0 0 0-1.199.898.062.062 0 0 0 .045.106Zm3.568-1.503c.657 0 1.076-.654 1.307-1.013a.065.065 0 0 0 .008-.048.062.062 0 0 0-.027-.039.065.065 0 0 0-.047-.009.065.065 0 0 0-.04.028c-.316.493-.702 1.014-1.296.951a.051.051 0 0 0-.025.002.06.06 0 0 0-.038.03.06.06 0 0 0-.007.023c0 .008 0 .017.003.025a.056.056 0 0 0 .01.021.057.057 0 0 0 .02.016.064.064 0 0 0 .023.007.996.996 0 0 0 .11.006ZM30.73 289.65c.01 0 .02-.003.03-.008a.068.068 0 0 0 .022-.02.062.062 0 0 0 .006-.059c-1.137-2.73-1.927-6.324.766-7.946a.068.068 0 0 0 .028-.039.066.066 0 0 0-.007-.048.061.061 0 0 0-.039-.028.05.05 0 0 0-.024-.001.062.062 0 0 0-.023.008c-2.77 1.669-1.973 5.327-.817 8.102a.063.063 0 0 0 .058.039Zm-2.374-5.765a.058.058 0 0 0 .023-.004.077.077 0 0 0 .02-.013.074.074 0 0 0 .015-.02.067.067 0 0 0 .005-.024.057.057 0 0 0-.004-.024c-.181-.466-.145-.929.11-1.418a.058.058 0 0 0 .007-.024.06.06 0 0 0-.002-.024.06.06 0 0 0-.012-.022.058.058 0 0 0-.019-.016.066.066 0 0 0-.024-.007.101.101 0 0 0-.024.003.08.08 0 0 0-.022.012.08.08 0 0 0-.015.02 1.775 1.775 0 0 0-.116 1.521.063.063 0 0 0 .058.04Z"/><path fill="#fff" d="M38.954 272.113a1.993 1.993 0 0 1 2.808-1.822 1.997 1.997 0 0 0-.86 2.907c.21.323.508.579.86.736a1.99 1.99 0 0 1-1.9-.147 1.99 1.99 0 0 1-.908-1.674Z"/><path fill="#6B4DBC" d="M40.58 272.114a1.992 1.992 0 0 1 1.183-1.821c.29.13.545.327.744.575a1.239 1.239 0 0 0-.91.472.4.4 0 0 0-.336-.012.407.407 0 0 0 .066.776v.01a1.25 1.25 0 0 0 1.18 1.246 2.003 2.003 0 0 1-.744.575 1.996 1.996 0 0 1-1.183-1.821Z"/><path fill="#000" d="M41.326 272.113v-.01a.405.405 0 0 0 .475-.262.408.408 0 0 0-.206-.502 1.239 1.239 0 0 1 .911-.472 1.992 1.992 0 0 1 0 2.492 1.245 1.245 0 0 1-1.18-1.246Z"/><path fill="#fff" d="M41.824 271.702a.411.411 0 0 1-.297.401.416.416 0 0 1-.466-.177.415.415 0 0 1 .274-.626.406.406 0 0 1 .26.037.407.407 0 0 1 .228.365Zm-7.69.411a1.992 1.992 0 0 1 1.84-1.99 1.99 1.99 0 0 1 .969.168 1.997 1.997 0 0 0-.861 2.907c.21.323.509.579.86.736a1.99 1.99 0 0 1-1.899-.147 1.99 1.99 0 0 1-.909-1.674Z"/><path fill="#6B4DBC" d="M35.76 272.114a1.994 1.994 0 0 1 1.183-1.821c.29.13.545.327.744.575a1.244 1.244 0 0 0-.911.472.4.4 0 0 0-.335-.012.408.408 0 0 0 .066.776v.01a1.25 1.25 0 0 0 1.18 1.246 2.003 2.003 0 0 1-.744.575 1.995 1.995 0 0 1-1.183-1.821Z"/><path fill="#000" d="M36.506 272.113v-.01a.405.405 0 0 0 .475-.262.407.407 0 0 0-.206-.502 1.251 1.251 0 0 1 .911-.472 1.992 1.992 0 0 1 0 2.492 1.246 1.246 0 0 1-1.18-1.246Z"/><path fill="#fff" d="M37.005 271.702a.411.411 0 0 1-.297.401.416.416 0 0 1-.467-.178.412.412 0 0 1 .275-.625.406.406 0 0 1 .26.037.408.408 0 0 1 .228.365Z"/><path fill="#EFCEA6" d="M23.614 353.977A15.155 15.155 0 0 0 42.697 368.6a15.157 15.157 0 0 0-6.543-29.568 14.03 14.03 0 0 0-.847.181c-1.622.518-3.221 1.09-4.654 1.953a15.152 15.152 0 0 0-7.039 12.811Z"/><path fill="#8C694D" d="M31.253 376.82c0 .232 3.702.419 8.268.419 4.567 0 8.268-.187 8.268-.419 0-.231-3.702-.418-8.268-.418-4.567 0-8.268.187-8.268.418Z" opacity=".2"/><path fill="#FF7F00" d="m40.51 373.948 1.942-.008a21.873 21.873 0 0 0-.248-2.802c-.118-.886-.229-1.723-.23-2.56-.003-1.177.454-2.007 1.032-3.056.31-.54.588-1.096.836-1.667.676-1.62.045-3.226-.512-4.643a11.444 11.444 0 0 1-.55-1.618l-.068-.297c-.224-.97-.265-1.314.113-1.682l.05-.049.044-.056c.141-.185.57-.155 1.161-.093.223.024.454.048.682.053a4.586 4.586 0 0 0 3.37-1.43 5.715 5.715 0 0 0 1.6-4.157c-.096-2.219-1.983-3.052-3.36-3.661l-.201-.088c-.803-.358-1.146-.552-1.31-1.044-.078-.231-.14-.463-.205-.708-.168-.633-.359-1.35-.849-2.047-.884-1.258-1.893-1.563-2.585-1.597-1.093-.054-2.217.521-3.165 1.621-1.27 1.473-2.33 1.914-3.78 1.573-1.48-.348-2.576-.155-3.257.575-.675.723-.796 1.809-.359 3.227.304.984.676 2.847-.241 4.26a3.448 3.448 0 0 1-.416.48c-.475.489-1.36 1.4-.556 2.841.66 1.182 2.017 1.389 2.915 1.526l.123.019c1.003.156 3.31.694 3.075 2.313-.072.496-.278 1.009-.496 1.553-.553 1.381-1.312 3.272.801 4.891.834.639.909.935.912 1.011.003.072-.044.357-.758.999-.946.85-1.124 1.983-.53 3.368.357.831.355 1.624.35 2.627v.322h1.942v-.314c.005-1.131.01-2.2-.507-3.402-.346-.807-.13-1.001.043-1.157.675-.605 1.443-1.439 1.4-2.519-.042-1.094-.915-1.899-1.67-2.477-.898-.688-.747-1.212-.18-2.627.239-.596.51-1.272.615-1.996.336-2.315-1.42-4.002-4.699-4.511l-.127-.02c-.587-.089-1.317-.201-1.513-.553a.741.741 0 0 1-.073-.167 2.69 2.69 0 0 1 .326-.373 5.1 5.1 0 0 0 .652-.777c1.347-2.076.871-4.581.468-5.889-.259-.84-.164-1.237-.078-1.329.09-.096.496-.221 1.393-.01 2.834.665 4.608-.934 5.696-2.196.54-.627 1.125-.974 1.598-.949.378.018.745.278 1.092.773.291.414.416.885.562 1.43.07.264.142.536.239.824.451 1.353 1.51 1.824 2.362 2.203l.206.092c2.015.89 2.177 1.336 2.204 1.967a3.786 3.786 0 0 1-1.047 2.716c-.388.396-1.038.866-1.944.846-.144-.003-.325-.022-.516-.042-.818-.087-2.046-.216-2.862.785-1.136 1.151-.828 2.485-.602 3.463l.063.277c.163.653.377 1.292.64 1.911.463 1.178.9 2.291.527 3.184-.221.506-.47.999-.745 1.478-.628 1.14-1.277 2.318-1.274 3.997.021.942.104 1.881.248 2.812.131.846.208 1.699.23 2.554Z"/><path fill="#824A1D" d="M38.532 352.737a19.864 19.864 0 0 0 3.145-.295.343.343 0 0 0-.124-.674c-.998.173-2.008.268-3.021.284-1.433 0-3.256-.558-3.274-.564a.344.344 0 0 0-.429.226.342.342 0 0 0 .226.429c.079.024 1.938.594 3.477.594Z"/><path fill="#fff" fill-rule="evenodd" d="M43.986 375.431h-1.581v-1.486h-1.948v2.737h4.78a1.254 1.254 0 0 0-1.251-1.251Zm-9.74 0h1.581v-1.486h1.948v2.737h-4.78a1.252 1.252 0 0 1 1.251-1.251Z" clip-rule="evenodd"/><path fill="#020202" d="M33.337 365.267a.06.06 0 0 0 .034-.01.06.06 0 0 0 .023-.026.064.064 0 0 0 .006-.035.06.06 0 0 0-.014-.032c-.692-.846-.55-1.682-.293-2.686a.063.063 0 0 0-.007-.048.057.057 0 0 0-.016-.019.062.062 0 0 0-.022-.011.068.068 0 0 0-.048.007.066.066 0 0 0-.03.039c-.257 1.004-.41 1.908.318 2.798a.063.063 0 0 0 .049.023Zm-1.523-.763h.003a.096.096 0 0 0 .024-.006.074.074 0 0 0 .02-.015.07.07 0 0 0 .013-.021.068.068 0 0 0 .003-.025 3.695 3.695 0 0 1 .075-.973.064.064 0 0 0-.096-.067.062.062 0 0 0-.028.04c-.07.331-.096.669-.077 1.007 0 .016.008.031.02.042a.065.065 0 0 0 .043.018Zm-3.047-19.575h.002a.066.066 0 0 0 .024-.005.077.077 0 0 0 .02-.015.063.063 0 0 0 .017-.045c-.029-.823.22-1.438.74-1.827.897-.671 2.366-.526 3.442-.167a.062.062 0 0 0 .048-.004.064.064 0 0 0 .032-.036.066.066 0 0 0-.003-.049.066.066 0 0 0-.037-.032c-1.106-.369-2.622-.514-3.558.187-.555.415-.821 1.065-.79 1.932 0 .017.007.032.019.044a.064.064 0 0 0 .044.017Zm-.229-2.513h.002a.098.098 0 0 0 .024-.006.077.077 0 0 0 .02-.015.063.063 0 0 0 .017-.045 1.336 1.336 0 0 1 .393-.989 1.598 1.598 0 0 1 1.142-.469.05.05 0 0 0 .024-.004.058.058 0 0 0 .021-.013.07.07 0 0 0 .015-.02.066.066 0 0 0-.013-.07.059.059 0 0 0-.02-.014.067.067 0 0 0-.024-.005 1.72 1.72 0 0 0-1.235.506 1.45 1.45 0 0 0-.43 1.083.065.065 0 0 0 .063.061Zm15.524 28.839a.06.06 0 0 0 .039-.013.062.062 0 0 0 .022-.033.065.065 0 0 0-.002-.041.063.063 0 0 0-.026-.031c-.773-.462-1.194-1.085-1.216-1.802-.03-.963.686-2.089 1.822-2.867.172-.118.352-.234.525-.346.754-.487 1.535-.99 1.997-1.846.489-.905.619-1.675.396-2.353-.254-.773-.959-1.41-2.218-2.004a.044.044 0 0 0-.024-.008.057.057 0 0 0-.026.002.066.066 0 0 0-.038.033.063.063 0 0 0-.002.051.063.063 0 0 0 .036.036c1.225.578 1.909 1.191 2.151 1.929.212.643.085 1.381-.387 2.254-.446.827-1.212 1.321-1.953 1.799-.175.113-.355.229-.529.348-1.189.815-1.908 1.955-1.876 2.976.023.762.465 1.421 1.277 1.907a.06.06 0 0 0 .032.009Z"/><path fill="#020202" d="M45.066 368.463a.068.068 0 0 0 .024-.005l.08-.033c1.453-.601 3.262-1.35 3.84-2.975a.063.063 0 0 0-.087-.08.06.06 0 0 0-.02.016.06.06 0 0 0-.012.022c-.56 1.571-2.34 2.307-3.77 2.9l-.08.033a.065.065 0 0 0-.03.029.062.062 0 0 0 .015.078.06.06 0 0 0 .04.015Z"/><path fill="#fff" d="M41.272 348.436a.413.413 0 1 1 0-.826.413.413 0 0 1 0 .826Z"/><path fill="#fff" d="M39.846 347.703c.2-.2.44-.356.706-.457a2.014 2.014 0 0 0 2.603 2.604 2.015 2.015 0 0 1-2.981.971 2.024 2.024 0 0 1-.908-1.481 2.014 2.014 0 0 1 .58-1.637Z"/><path fill="#6B4DBC" d="M41.008 349.393a2.015 2.015 0 0 1-.457-2.147c.3-.114.624-.156.943-.121a1.27 1.27 0 0 0-.273.492.408.408 0 0 0-.456.242.416.416 0 0 0 .137.498.407.407 0 0 0 .354.063 1.259 1.259 0 0 0 1.486.771c.199-.05.382-.147.534-.284.035.319-.006.643-.12.943a2.02 2.02 0 0 1-2.148-.457Z"/><path fill="#000" d="M41.541 348.86a1.252 1.252 0 0 1-.285-.441.403.403 0 0 0 .29-.297.414.414 0 0 0-.326-.505c.053-.183.147-.351.274-.492a2.014 2.014 0 0 1 1.782 1.781 1.264 1.264 0 0 1-1.735-.046Z"/><path fill="#fff" d="M41.437 348.315a.42.42 0 0 1-.584 0 .412.412 0 0 1 .062-.636.417.417 0 0 1 .46 0 .41.41 0 0 1 .175.424.413.413 0 0 1-.113.212Zm-6.351-.612c.2-.2.441-.356.706-.457a2.016 2.016 0 0 0 2.603 2.604 2.015 2.015 0 0 1-2.146 1.278 2.023 2.023 0 0 1-1.456-.945 2.014 2.014 0 0 1 .293-2.48Z"/><path fill="#6B4DBC" d="M36.248 349.393a2.014 2.014 0 0 1-.457-2.147c.3-.114.624-.156.943-.121-.127.142-.221.31-.274.492a.409.409 0 0 0-.456.242.416.416 0 0 0 .137.498.408.408 0 0 0 .354.063 1.26 1.26 0 0 0 2.02.487c.035.319-.006.643-.12.943a2.018 2.018 0 0 1-2.147-.457Z"/><path fill="#000" d="M36.782 348.86a1.253 1.253 0 0 1-.285-.441.403.403 0 0 0 .29-.297.41.41 0 0 0-.127-.408.415.415 0 0 0-.2-.097c.054-.183.148-.351.275-.492a2.012 2.012 0 0 1 1.782 1.781c-.24.216-.554.331-.877.322a1.258 1.258 0 0 1-.858-.368Z"/><path fill="#fff" d="M36.678 348.315a.42.42 0 0 1-.584 0 .412.412 0 0 1 .062-.636.417.417 0 0 1 .46 0 .41.41 0 0 1 .175.424.413.413 0 0 1-.113.212Z"/><path fill="#EFCEA6" d="M23.953 430.667a14.91 14.91 0 0 0 9.82 14.002 14.909 14.909 0 0 0 16.519-4.431 14.911 14.911 0 0 0-5.112-23.098 14.915 14.915 0 0 0-8.888-1.178c-.28.051-.558.11-.833.178-1.596.51-3.17 1.072-4.58 1.922a14.913 14.913 0 0 0-6.926 12.605Z"/><path fill="#FF7F00" d="m34.83 451.223 1.901-.195c-.16-1.556.352-3.208 1.52-4.919.222.023.445.044.665.064 1.199.111 2.438.225 3.092.762.805.659 1.203 1.902 1.183 3.698l1.911.02c.026-2.404-.608-4.153-1.883-5.196-1.005-.824-2.42-1.023-3.732-1.15.292-.487.542-.998.745-1.529 2.968.117 4.171-.8 4.827-1.53 1.107-1.235 1.051-3.197-.127-4.467-.707-.762-1.66-1.147-2.58-1.518-.889-.358-1.727-.697-2.063-1.295-.045-.08-.186-.351-.124-.468.036-.068.282-.422 1.603-.725.959-.219 2.077-.317 2.894-.388.449-.039.803-.07 1.056-.113.998-.17 4.035-.685 4.77-3.405.591-2.182-.652-4.411-2.892-5.186-.77-.266-1.627-.429-2.457-.587-1.486-.282-3.023-.575-3.573-1.409-.299-.454-.347-1.114-.147-2.02a3.224 3.224 0 0 0-1.252-3.364 3.877 3.877 0 0 0-4.147-.276c-1.424.797-2.059 2.052-2.619 3.159-.285.565-.555 1.098-.912 1.563-.317.412-.924.51-1.884.623-1.295.151-3.067.358-3.721 2.385-.63 1.95.969 3.616 2.026 4.718.134.139.261.271.376.396l.043.047c.885.963 1.041 1.298.795 1.709-.373.621-1.075 1.124-1.755 1.609-.114.082-.228.163-.34.245a2.695 2.695 0 0 0-1.107 2.573 3.106 3.106 0 0 0 1.959 2.453c1.38.526 2.96.398 4.489.273 2.564-.208 4.181-.251 5.053 1.432.239.462.353.978.33 1.498l-.04-.006c-1.516-.232-3.593-.549-4.8.772-.49.538-.663 1.189-.486 1.833.17.621.657 1.196 1.445 1.711.43.278.888.508 1.368.687-1.12 1.865-1.595 3.715-1.41 5.516Zm3.426-8.656a10.047 10.047 0 0 1-.874 1.483 4.488 4.488 0 0 1-.327-.084c-.788-.238-1.67-.848-1.776-1.141a.504.504 0 0 1 .047-.06c.49-.537 1.908-.352 2.93-.198Zm-.386-25.102a1.95 1.95 0 0 1 1.158.372 1.31 1.31 0 0 1 .526 1.418c-.318 1.437-.18 2.576.417 3.484.995 1.509 2.936 1.878 4.812 2.234.797.152 1.55.295 2.189.516 1.114.386 2.046 1.499 1.672 2.881-.288 1.064-1.289 1.687-3.245 2.02-.177.03-.514.059-.904.093-2.597.227-5.202.577-6.02 2.123-.252.478-.432 1.264.148 2.297.664 1.184 1.912 1.688 3.013 2.132.76.307 1.478.597 1.895 1.046.442.476.59 1.35.105 1.89-.677.755-1.867.925-2.978.911a4.824 4.824 0 0 0-.538-2.55c-1.5-2.897-4.496-2.653-6.904-2.458-1.377.113-2.678.218-3.654-.154a1.174 1.174 0 0 1-.745-.92.776.776 0 0 1 .339-.776l.326-.235c.798-.571 1.704-1.218 2.281-2.18 1.043-1.736-.253-3.144-1.027-3.986l-.042-.046c-.124-.135-.26-.277-.404-.426-.787-.821-1.866-1.944-1.587-2.808.254-.784.784-.918 2.124-1.074 1.046-.122 2.345-.274 3.177-1.356.468-.607.791-1.246 1.104-1.865.5-.988.93-1.842 1.846-2.353.28-.153.596-.233.916-.23Z"/><path fill="#8C694D" d="M30.298 453.142c0 .227 4.34.412 9.692.412 5.353 0 9.693-.185 9.693-.412 0-.228-4.34-.412-9.693-.412-5.352 0-9.692.185-9.692.412Z" opacity=".2"/><path fill="#fff" fill-rule="evenodd" d="M46.65 451.778h-1.556v-1.462h-1.917v2.693h4.704a1.235 1.235 0 0 0-.76-1.137 1.23 1.23 0 0 0-.471-.094Zm-13.406 0h1.555v-1.462h1.917v2.693h-4.703a1.235 1.235 0 0 1 .76-1.137c.15-.062.31-.094.471-.094Z" clip-rule="evenodd"/><path fill="#D36B0D" d="m39.455 444.375-1.209 1.724 1.209.075v-1.799Zm-1.172-1.809 1.92.225-2.552.843.632-1.068Z"/><path fill="#824A1D" d="M34.69 430.754a.34.34 0 0 0 .268-.133c.004-.004.681-.811 2.815-.879.275-.009.5-.011.699-.014.928-.011 1.312-.016 3.308-.544a.335.335 0 0 0 .245-.413.337.337 0 0 0-.418-.239c-1.915.506-2.25.511-3.143.522a30.61 30.61 0 0 0-.712.014c-2.493.079-3.298 1.102-3.33 1.145a.336.336 0 0 0 .268.541Z"/><path fill="#020202" d="M25.206 421.987c.01 0 .02-.003.029-.007a.06.06 0 0 0 .022-.02.058.058 0 0 0 .01-.027.063.063 0 0 0-.002-.03 1.585 1.585 0 0 1 .116-1.31 2.288 2.288 0 0 1 1.41-1.106 4.78 4.78 0 0 1 1.257-.083c.71.017 1.381.033 1.986-.502.69-.609.603-1.029.259-1.779a3.674 3.674 0 0 0-.185-.347c-.153-.26-.177-.3.125-.685.33-.421 1.15-.681 1.808-.889.258-.076.511-.165.76-.266a.068.068 0 0 0 .034-.034.066.066 0 0 0 .004-.024.057.057 0 0 0-.005-.024.064.064 0 0 0-.015-.021.077.077 0 0 0-.02-.013.097.097 0 0 0-.025-.004.095.095 0 0 0-.024.006 7.976 7.976 0 0 1-.746.261c-.71.225-1.515.479-1.869.931-.34.434-.309.529-.134.825.065.109.125.221.179.336.357.777.372 1.104-.228 1.633-.568.502-1.215.487-1.9.471a4.933 4.933 0 0 0-1.289.086 2.426 2.426 0 0 0-1.491 1.169 1.7 1.7 0 0 0-.124 1.412.059.059 0 0 0 .023.029c.01.008.022.012.035.012Zm.674-3.447h.007a.062.062 0 0 0 .055-.069c-.07-.617.666-.745 1.315-.857.477-.083.89-.155.978-.41.056-.165-.034-.368-.285-.641a.055.055 0 0 0-.02-.014.05.05 0 0 0-.023-.006.066.066 0 0 0-.045.016.078.078 0 0 0-.014.02.065.065 0 0 0 .01.069c.21.229.297.403.259.517-.063.185-.46.254-.88.327-.67.116-1.502.26-1.418.994a.07.07 0 0 0 .02.039.06.06 0 0 0 .041.015Zm3.038 21.022c.59 0 1.195-.139 1.93-.412a.059.059 0 0 0 .035-.032.062.062 0 0 0 .002-.047.061.061 0 0 0-.032-.035.065.065 0 0 0-.047-.003c-1.583.586-2.543.54-4.108-.196-.666-.314-1.955-1.275-2.06-2.181-.043-.364.11-.688.457-.963a.062.062 0 0 0 .01-.087.064.064 0 0 0-.042-.024.064.064 0 0 0-.046.014c-.382.303-.551.665-.504 1.075.118 1.01 1.513 1.988 2.132 2.279.874.411 1.564.612 2.273.612Zm-1.825 1.271a8.55 8.55 0 0 0 1.346-.109.066.066 0 0 0 .04-.025.065.065 0 0 0 .012-.047.065.065 0 0 0-.026-.041.06.06 0 0 0-.046-.011c-1.622.262-3.756.115-4.432-1.166a.061.061 0 0 0-.036-.029.058.058 0 0 0-.047.005.06.06 0 0 0-.03.035.064.064 0 0 0 .003.047c.526.997 1.875 1.341 3.216 1.341Zm18.723-6.93a.068.068 0 0 0 .02-.003c.313-.088.635-.131.96-.128.146-.006.298-.011.445-.026 2.122-.203 3.437-.858 4.397-2.192a.062.062 0 0 0-.013-.089.05.05 0 0 0-.023-.01.07.07 0 0 0-.025-.001.066.066 0 0 0-.023.01.053.053 0 0 0-.017.017c-.937 1.302-2.225 1.942-4.308 2.141-.144.014-.294.02-.438.025a3.518 3.518 0 0 0-.995.135.067.067 0 0 0-.033.027.063.063 0 0 0 .013.08.06.06 0 0 0 .04.015v-.001Zm5.246 10.344a.056.056 0 0 0 .026-.006.05.05 0 0 0 .02-.015c.766-.843 1.05-1.86.801-2.865a3.404 3.404 0 0 0-.991-1.65c.213-.101.392-.263.514-.465.259-.447.126-1.011-.375-1.59-.9-1.042-2.06-1.165-3.523-1.028a.064.064 0 0 0-.041.022.064.064 0 0 0-.014.045.07.07 0 0 0 .022.042c.012.01.028.016.044.015 1.425-.133 2.551-.016 3.418.986.463.535.591 1.049.361 1.446-.12.194-.298.345-.508.434a4.418 4.418 0 0 0-1.41-.824c-.508-.184-.885-.195-1.061-.03a.317.317 0 0 0-.078.335c.08.277.465.633 1.124.761.467.103.953.07 1.403-.094.484.432.83.998.994 1.625.238.963-.036 1.94-.773 2.751a.062.062 0 0 0-.01.068.06.06 0 0 0 .023.027c.01.006.022.01.034.01Zm-.376-4.576c-.41.133-.848.156-1.27.066-.58-.112-.957-.424-1.029-.673a.2.2 0 0 1 .043-.209c.137-.127.486-.106.934.056.483.173.93.43 1.322.76Zm-8.242-21.053a.062.062 0 0 0 .055-.034c.484-.943.484-2.548.001-3.577a.06.06 0 0 0-.035-.031.063.063 0 0 0-.047.003.06.06 0 0 0-.032.034.063.063 0 0 0 .001.047c.461.981.461 2.569.001 3.467a.063.063 0 0 0 .003.061.062.062 0 0 0 .053.03Zm1.649-1.426a.06.06 0 0 0 .052-.028c.067-.101.134-.199.201-.295.507-.736.944-1.371.707-2.377a.064.064 0 0 0-.029-.038.063.063 0 0 0-.093.067c.225.952-.178 1.537-.688 2.277a20.94 20.94 0 0 0-.202.297.054.054 0 0 0-.01.022.063.063 0 0 0 .061.075Z"/><path fill="#fff" d="M38.436 427.371a1.989 1.989 0 0 0 1.754-1.261 1.985 1.985 0 0 0-.439-2.115 1.984 1.984 0 1 1-.478 3.881 1.99 1.99 0 0 1-.837-.505Z"/><path fill="#6B4DBC" d="M40.19 426.107a1.985 1.985 0 0 1-1.754 1.261 1.987 1.987 0 0 1-.482-.802 1.236 1.236 0 0 0 1.419-.486c.1-.149.166-.318.195-.496a.401.401 0 0 0 .325-.134.405.405 0 0 0-.456-.646 1.232 1.232 0 0 0-.582-.547 1.98 1.98 0 0 1 .897-.265 1.984 1.984 0 0 1 .438 2.115Z"/><path fill="#000" d="M39.437 424.801a.405.405 0 0 0-.12.68.399.399 0 0 0 .25.1 1.237 1.237 0 0 1-1.083 1.037c-.178.02-.359.002-.53-.054a1.98 1.98 0 0 1 .9-2.31c.25.113.455.305.583.547Z"/><path fill="#fff" d="M39.21 425.032a.397.397 0 0 1 .146-.18.398.398 0 0 1 .444-.007.404.404 0 0 1 .179.407.402.402 0 0 1-.671.222.405.405 0 0 1-.097-.442Zm-5.437 3.233a1.98 1.98 0 0 0 1.754-1.261 1.982 1.982 0 0 0-.438-2.115 1.984 1.984 0 1 1-1.316 3.376Z"/><path fill="#6B4DBC" d="M35.528 427.005a1.984 1.984 0 0 1-1.754 1.261 1.985 1.985 0 0 1-.482-.801 1.251 1.251 0 0 0 1.033-.119 1.237 1.237 0 0 0 .58-.864.4.4 0 0 0 .413-.291.405.405 0 0 0-.543-.489 1.237 1.237 0 0 0-.583-.547c.274-.158.581-.249.897-.264a1.982 1.982 0 0 1 .439 2.114Z"/><path fill="#000" d="M34.774 425.704a.401.401 0 0 0-.255.379.41.41 0 0 0 .26.376c.04.015.082.023.125.025a1.24 1.24 0 0 1-1.613.982 1.98 1.98 0 0 1 .9-2.31c.25.113.455.305.583.548Z"/><path fill="#fff" d="M34.547 425.929a.409.409 0 0 1 .556-.221.404.404 0 0 1 .176.571.41.41 0 0 1-.634.091.406.406 0 0 1-.098-.441Z"/><path fill="#EFCEA6" d="M34.87 526.046c-7.93-2.697-12.173-11.313-9.475-19.243 2.697-7.931 11.313-12.173 19.243-9.476 7.931 2.697 12.173 11.313 9.476 19.244-2.697 7.93-11.313 12.173-19.244 9.475Z"/><path fill="#8C694D" d="M32.66 534.52c0 .231 3.7.418 8.266.418 4.565 0 8.266-.187 8.266-.418 0-.231-3.7-.418-8.266-.418-4.565 0-8.266.187-8.266.418Z" opacity=".2"/><path fill="#FF7F00" d="M39.225 532.45c.614-2.404-.13-4.673-1.99-6.07a21.002 21.002 0 0 0-.559-.402c-1.313-.928-1.555-1.209-1.133-2.079a.996.996 0 0 1 .765-.599c1.2 1.547 3.317 2.297 5.325 1.836.743-.185 1.47-.43 2.172-.733 1.205-.487 2.157-.872 3.529-.511 1.246.328 1.813 1.281 2.635 2.81l.14.26 1.708-.924-.137-.255c-.81-1.504-1.726-3.209-3.851-3.768-1.995-.526-3.396.04-4.75.587a12.33 12.33 0 0 1-1.879.642 3.45 3.45 0 0 1-2.104-.181c1.614-.339 3.228-.859 4.192-2.276a4.16 4.16 0 0 0 .57-3.573 5.79 5.79 0 0 0-.646-1.448c1.651-.151 3.51-.339 5.11-1.503.9-.653 1.41-1.402 1.517-2.227.177-1.357-.758-2.506-1.582-3.521-1.327-1.632-1.436-2.032-.729-2.67.542-.49 1.233-.809 1.965-1.147.918-.424 1.958-.904 2.795-1.801.976-1.044 1.645-3.071 1.079-4.655-.375-1.048-1.22-1.711-2.38-1.865-2.327-.311-4.036 1.315-5.544 2.749-1.643 1.562-2.783 2.547-4.258 2.16a13.729 13.729 0 0 0 2.019-4.634c.143-.61.528-2.681-.528-3.715-.284-.277-.914-.702-1.955-.434-1.964.507-3.368 2.418-3.576 4.87-.143 1.686.3 3.216 1.179 4.294-.55.505-1.258.993-2.091 1.207-.743.191-1.18-.044-2.024-.551-.295-.177-.63-.378-1.003-.557-1.698-.813-2.788-.174-3.287.279-1.302 1.184-1.478 3.637-.894 5.23.352.959.93 1.893 1.544 2.883.284.459.547.893.78 1.305a4.936 4.936 0 0 0-1.533.85c-1.274 1.051-1.814 3.023-1.284 4.688.33 1.034 1.05 1.683 1.978 1.78 1.312.138 2.601-.852 3.198-1.9.742-1.305.763-2.602.434-3.84 1.452.068 3.06.516 4.395 1.118.25.114.491.244.723.389a5.973 5.973 0 0 0-1.869 1.191c-1.456 1.368-2.515 3.616-1.949 5.796-.638.229-1.234.668-1.645 1.517-1.181 2.436.589 3.685 1.76 4.512.172.121.348.246.512.369 1.23.924 1.695 2.395 1.276 4.037l1.88.48Zm1.79-16.406a4.61 4.61 0 0 1 .975 1.697 2.218 2.218 0 0 1-.308 1.953c-.623.915-1.91 1.247-3.07 1.486-.4.066-.804.097-1.21.091-.378-1.154-.13-2.758 1.317-4.117.66-.618 1.431-.928 2.296-1.11Zm-8.836-2.809c.322.966.327 1.831-.159 2.685-.322.567-.968.966-1.307.93-.131-.014-.243-.162-.33-.438-.29-.91.004-2.053.67-2.602a3.14 3.14 0 0 1 1.126-.575Zm18.254-14.953c.1-.001.2.006.298.019.438.059.68.236.808.594.285.798-.126 2.094-.67 2.677-.577.618-1.36.98-2.19 1.363-.832.384-1.692.781-2.453 1.469-1.218 1.101-1.179 2.258-.931 3.035.268.84.871 1.582 1.455 2.301.578.71 1.232 1.516 1.163 2.044-.044.343-.422.682-.732.908-1.198.87-2.674 1.005-4.237 1.148a35.5 35.5 0 0 0-1.246.127 9.314 9.314 0 0 0-2.363-1.579c-1.73-.78-3.949-1.379-5.972-1.291-.355-.689-.762-1.347-1.144-1.963-.56-.903-1.088-1.756-1.37-2.528-.38-1.034-.19-2.612.377-3.126.1-.091.368-.335 1.142.036.29.139.558.299.841.469.912.549 1.946 1.169 3.508.768 1.117-.288 2.196-.933 3.157-1.883l.018.008c3.006 1.347 5.16-.701 6.89-2.346 1.215-1.155 2.367-2.25 3.651-2.25Zm-9.094-3.922c.12.229.17 1.017-.026 1.849-.325 1.4-.9 2.73-1.696 3.926-.454-.744-.611-1.726-.537-2.599.104-1.228.723-2.791 2.126-3.153a.673.673 0 0 1 .133-.023Z"/><path fill="#D36B0D" d="m41.73 517.126-.666-1.239h1.847l-1.18 1.239Zm-4.69 6.935-.776-.828 2.307-.21-1.532 1.038Zm-4.657-9.773-.209-1.085h1.656l-1.447 1.085Zm6.43-10.459-.063-1.77 1.063.799-1 .971Z"/><path fill="#fff" fill-rule="evenodd" d="m53.71 526.584-1.435.66-.62-1.349-1.77.813 1.143 2.486 1.77-.814 2.572-1.181a1.25 1.25 0 0 0-1.66-.615Zm-17.938 6.549h1.58v-1.485h1.947v2.736H34.52a1.245 1.245 0 0 1 .367-.884 1.25 1.25 0 0 1 .885-.367Z" clip-rule="evenodd"/><path fill="#020202" d="M34.78 498.68a.063.063 0 0 0 .043-.017.061.061 0 0 0 .02-.04c.245-2.245 1.256-4.803 2.577-6.517a.063.063 0 0 0-.012-.089.066.066 0 0 0-.047-.013.065.065 0 0 0-.042.025c-1.334 1.731-2.355 4.314-2.602 6.58 0 .008 0 .017.003.025a.055.055 0 0 0 .011.021.067.067 0 0 0 .043.024l.007.001Zm-.609-3.273h.01a.063.063 0 0 0 .041-.024.066.066 0 0 0 .012-.047c-.073-.536.258-1.038.55-1.481l.05-.075a.066.066 0 0 0 .01-.023.063.063 0 0 0-.01-.049.07.07 0 0 0-.017-.018.052.052 0 0 0-.024-.009.054.054 0 0 0-.025 0 .067.067 0 0 0-.023.011.065.065 0 0 0-.017.018l-.05.075c-.304.462-.649.985-.57 1.568.003.015.01.029.022.039.011.01.026.015.041.015Zm16.98 20.255a.063.063 0 0 0 .045-.019.062.062 0 0 0 .019-.044v-.193c0-.695 0-1.154.326-1.734.079-.141.147-.246.206-.339.193-.258.297-.57.298-.891.056-.874-.352-1.407-.784-1.972-.116-.152-.235-.307-.346-.472l.227-.025c.675-.068 1.805-.184 1.823-.809.018-.619-1.264-1.123-1.81-1.338l-.132-.052a.06.06 0 0 0-.048.001.06.06 0 0 0-.033.034.062.062 0 0 0 0 .047.063.063 0 0 0 .033.035l.133.053c.432.17 1.745.686 1.73 1.216-.015.514-1.075.622-1.709.687-.132.014-.247.025-.333.039l-.096.015.053.082c.13.2.27.385.407.564.417.545.811 1.061.758 1.887 0 .299-.097.591-.278.83-.06.095-.13.202-.21.346-.343.609-.343 1.107-.343 1.796v.192a.07.07 0 0 0 .005.025.07.07 0 0 0 .014.02.06.06 0 0 0 .02.014.067.067 0 0 0 .025.005Zm1.219.073a.063.063 0 0 0 .054-.03c.082-.123.178-.238.285-.341a1.32 1.32 0 0 0 .332-.455.504.504 0 0 0-.031-.322c-.043-.135-.083-.262-.004-.381.234-.353.644-.408 1.006-.457.28-.037.524-.07.602-.253.084-.194-.048-.511-.44-1.059a.064.064 0 0 0-.042-.022.061.061 0 0 0-.045.011.063.063 0 0 0-.017.085c.35.487.49.793.428.935-.05.117-.26.145-.503.178-.37.05-.829.112-1.095.513-.111.169-.056.346-.011.489a.415.415 0 0 1 .033.239 1.24 1.24 0 0 1-.303.412 2.143 2.143 0 0 0-.303.362.06.06 0 0 0-.001.064c.005.01.013.019.023.024a.06.06 0 0 0 .032.009v-.001Zm-22.805-3.805a.06.06 0 0 0 .04-.015.06.06 0 0 0 .022-.037c.146-.771-.378-1.882-.933-3.059-.79-1.673-1.605-3.402-.46-4.166.184-.123.435-.162.678-.201.454-.072.97-.153 1.046-.824.075-.658-.905-1.232-1.62-1.652a5.985 5.985 0 0 1-.678-.438c-.45-.314-1.5-1.05-1.43-1.523a.247.247 0 0 1 .118-.176c.531-.354 2.482.143 3.315.354.161.041.278.071.346.085.016.003.033 0 .047-.009a.064.064 0 0 0 .018-.088.061.061 0 0 0-.04-.027c-.065-.014-.186-.045-.34-.084-.921-.234-2.838-.722-3.416-.337a.382.382 0 0 0-.173.263c-.082.55.935 1.262 1.482 1.645l.184.131c.116.087.295.192.502.313.647.379 1.625.952 1.56 1.527-.067.576-.472.64-.941.714-.257.041-.522.083-.728.22-1.237.825-.397 2.605.415 4.327.546 1.157 1.062 2.25.924 2.981a.066.066 0 0 0 .01.048.09.09 0 0 0 .017.017.064.064 0 0 0 .023.009.049.049 0 0 0 .012.002Zm-2.741.225c.005 0 .01 0 .015-.002a.061.061 0 0 0 .048-.052.059.059 0 0 0-.002-.024 6.892 6.892 0 0 1-.135-.929 5.937 5.937 0 0 0-.17-1.061 2.946 2.946 0 0 0-.323-.651c-.152-.253-.295-.491-.335-.739-.055-.349.084-.603.218-.849.12-.22.233-.428.206-.686-.064-.618-.737-1.202-1.277-1.672-.332-.288-.675-.586-.623-.707.063-.147.67-.165 1.8-.052a.076.076 0 0 0 .026-.001.066.066 0 0 0 .041-.03.063.063 0 0 0 .005-.051.064.064 0 0 0-.013-.023.05.05 0 0 0-.02-.015.058.058 0 0 0-.026-.006c-1.491-.148-1.85-.056-1.93.129-.088.205.224.476.656.852.524.455 1.176 1.022 1.235 1.59.023.219-.081.409-.192.612-.137.252-.294.538-.231.93.043.272.2.532.35.784.129.194.233.402.31.621.087.34.142.688.166 1.038.025.318.07.634.139.946a.062.062 0 0 0 .062.048Zm20.603 18.052c.914 0 1.72-.657 2.2-1.154a.062.062 0 0 0 .018-.045.065.065 0 0 0-.02-.045.063.063 0 0 0-.044-.017.062.062 0 0 0-.045.019c-.66.684-1.964 1.685-3.274.697a2.124 2.124 0 0 1-.319-.301c.555-.306 1.05-.838.885-1.542-.056-.239-.093-.378-.204-.446-.11-.067-.272-.045-.567.027-.518.126-.683.422-.73.648-.083.407.137.895.423 1.27-.13.063-.264.114-.403.153-1.102.308-2.23.153-2.875-.395-.477-.405-.677-.989-.594-1.735a.063.063 0 0 0 0-.026.061.061 0 0 0-.03-.041.071.071 0 0 0-.025-.008.075.075 0 0 0-.026.002.066.066 0 0 0-.038.034.063.063 0 0 0-.006.025c-.087.779.134 1.418.638 1.846.675.574 1.85.739 2.991.42.155-.044.305-.102.45-.173.105.127.224.242.354.343.352.282.79.438 1.24.444Zm-.974-2.748a.203.203 0 0 1 .105.023c.068.041.1.166.147.366.15.643-.321 1.133-.843 1.414-.288-.369-.483-.832-.41-1.188.057-.277.27-.462.636-.551a1.74 1.74 0 0 1 .365-.064Z"/><path fill="#824A1D" d="M36.185 512.552c.05 0 .098-.011.143-.032a.338.338 0 0 0 .197-.362c-.11-.729.459-1.707 2.423-2.067a2.95 2.95 0 0 1 1.18.013c.591.1 1.203.203 2.715-.451a.34.34 0 0 0 .178-.45.343.343 0 0 0-.45-.179c-1.326.574-1.791.495-2.33.404a3.615 3.615 0 0 0-1.417-.011c-2.447.448-3.133 1.812-2.978 2.844a.343.343 0 0 0 .34.291Z"/><path fill="#fff" d="M36.875 509.865c-.252.128-.53.201-.812.215a2.014 2.014 0 0 0-1.665-3.283 2.01 2.01 0 0 1 1.568-.746 2.02 2.02 0 0 1 1.567.75 2.007 2.007 0 0 1 .402 1.689 2.017 2.017 0 0 1-1.06 1.375Z"/><path fill="#6B4DBC" d="M36.296 507.897a2.013 2.013 0 0 1-.233 2.181 2.016 2.016 0 0 1-.934-.178 1.259 1.259 0 0 0 .28-1.966.412.412 0 0 0-.49-.556.41.41 0 0 0-.24.182 1.251 1.251 0 0 0-.689.094c.066-.315.206-.609.408-.859a2.023 2.023 0 0 1 1.898 1.102Z"/><path fill="#000" d="M34.678 507.56a.41.41 0 0 0 .326.624.408.408 0 0 0 .404-.25 1.264 1.264 0 0 1-.279 1.967 2.015 2.015 0 0 1-1.139-2.247 1.26 1.26 0 0 1 .688-.094Z"/><path fill="#fff" d="M35.005 508.19a.421.421 0 0 1-.373-.571.417.417 0 0 1 .42-.266.417.417 0 0 1 .356.581.415.415 0 0 1-.403.256Zm6.399.273a2 2 0 0 1-.812.214 2.013 2.013 0 0 0-1.665-3.283 2.018 2.018 0 0 1 3.527.803 2.015 2.015 0 0 1-1.05 2.266Z"/><path fill="#6B4DBC" d="M40.825 506.495a2.014 2.014 0 0 1-.233 2.181 2.016 2.016 0 0 1-.934-.178 1.27 1.27 0 0 0 .618-.915 1.262 1.262 0 0 0-.339-1.051.412.412 0 0 0-.73-.375 1.26 1.26 0 0 0-.688.094 2.03 2.03 0 0 1 .408-.858 2.015 2.015 0 0 1 1.898 1.102Z"/><path fill="#000" d="M39.208 506.158a.41.41 0 0 0 .49.6.405.405 0 0 0 .24-.226 1.26 1.26 0 0 1-.28 1.966 2.01 2.01 0 0 1-1.139-2.246c.216-.096.455-.128.689-.094Z"/><path fill="#fff" d="M39.535 506.787a.414.414 0 0 1-.388-.31.42.42 0 1 1 .388.31Z"/><path stroke="#C4C6BD" stroke-dasharray="2 2" d="M71.5 187v348"/><rect width="13" height="348" x="84.5" y="187" fill="#189E71" rx="6.5"/><path stroke="#C4C6BD" stroke-dasharray="2 2" d="M111.5 187v348"/><rect width="13" height="271" x="124.5" y="264" fill="#189E71" rx="6.5"/><path stroke="#C4C6BD" stroke-dasharray="2 2" d="M151.5 187v348"/><rect width="13" height="118" x="164.5" y="417" fill="#FFA23E" rx="6.5"/><path stroke="#C4C6BD" stroke-dasharray="2 2" d="M191.5 187v348"/><rect width="13" height="118" x="204.5" y="417" fill="#FFA23E" rx="6.5"/><path stroke="#C4C6BD" stroke-dasharray="2 2" d="M231.5 187v348"/><rect width="13" height="42" x="244.5" y="493" fill="#FFA23E" rx="6.5"/><path stroke="#C4C6BD" stroke-dasharray="2 2" d="M271.5 187v348"/><rect width="13" height="195" x="284.5" y="340" fill="#6B4DBC" rx="6.5"/><path stroke="#C4C6BD" stroke-dasharray="2 2" d="M311.5 187v348"/><rect width="13" height="42" x="324.5" y="493" fill="#FFA23E" rx="6.5"/><path fill="#000" d="M87.4 547.312V557h-1.274v-7.224L82.906 557h-.896l-3.234-7.238V557h-1.274v-9.688h1.372l3.584 8.008 3.584-8.008H87.4Zm5.098 9.814a3.964 3.964 0 0 1-1.96-.49 3.566 3.566 0 0 1-1.372-1.386c-.326-.607-.49-1.307-.49-2.1 0-.784.168-1.475.504-2.072a3.504 3.504 0 0 1 1.4-1.386c.588-.327 1.246-.49 1.974-.49s1.386.163 1.974.49a3.44 3.44 0 0 1 1.386 1.372c.346.597.518 1.293.518 2.086 0 .793-.177 1.493-.532 2.1a3.608 3.608 0 0 1-1.414 1.386 4.07 4.07 0 0 1-1.988.49Zm0-1.12c.458 0 .887-.107 1.288-.322.402-.215.724-.537.966-.966.252-.429.378-.952.378-1.568 0-.616-.121-1.139-.364-1.568-.242-.429-.56-.747-.952-.952a2.606 2.606 0 0 0-1.274-.322c-.466 0-.896.107-1.288.322-.382.205-.69.523-.924.952-.233.429-.35.952-.35 1.568 0 .625.112 1.153.336 1.582.234.429.542.751.924.966.383.205.803.308 1.26.308Zm8.939-6.818c.934 0 1.69.285 2.268.854.579.56.868 1.372.868 2.436V557h-1.26v-4.34c0-.765-.191-1.349-.574-1.75-.382-.411-.905-.616-1.568-.616-.672 0-1.208.21-1.61.63-.392.42-.588 1.031-.588 1.834V557H97.7v-7.672h1.274v1.092a2.543 2.543 0 0 1 1.022-.91c.439-.215.92-.322 1.442-.322Zm24.45-1.946v1.036h-2.66V557h-1.274v-8.722h-2.674v-1.036h6.608Zm7.964 2.086V557h-1.274v-1.134c-.243.392-.584.7-1.022.924-.43.215-.906.322-1.428.322a3.488 3.488 0 0 1-1.61-.364 2.784 2.784 0 0 1-1.134-1.12c-.271-.495-.406-1.097-.406-1.806v-4.494h1.26v4.326c0 .756.191 1.339.574 1.75.382.401.905.602 1.568.602.681 0 1.218-.21 1.61-.63.392-.42.588-1.031.588-1.834v-4.214h1.274Zm8.743 3.542c0 .243-.014.499-.042.77h-6.132c.046.756.303 1.349.77 1.778.476.42 1.05.63 1.722.63.55 0 1.008-.126 1.372-.378.373-.261.634-.607.784-1.036h1.372a3.338 3.338 0 0 1-1.232 1.806c-.616.457-1.382.686-2.296.686-.728 0-1.382-.163-1.96-.49a3.49 3.49 0 0 1-1.344-1.386c-.327-.607-.49-1.307-.49-2.1 0-.793.158-1.489.476-2.086a3.303 3.303 0 0 1 1.33-1.372c.578-.327 1.241-.49 1.988-.49.728 0 1.372.159 1.932.476.56.317.989.756 1.288 1.316.308.551.462 1.176.462 1.876Zm-1.316-.266c0-.485-.108-.901-.322-1.246a2.026 2.026 0 0 0-.882-.798 2.626 2.626 0 0 0-1.218-.28c-.644 0-1.195.205-1.652.616-.448.411-.705.98-.77 1.708h4.844Zm27.572-5.362L166.022 557h-1.428l-2.268-7.854-2.352 7.854-1.414.014-2.73-9.772h1.358l2.128 8.274 2.352-8.274h1.428l2.24 8.246 2.142-8.246h1.372Zm7.986 5.628c0 .243-.014.499-.042.77h-6.132c.046.756.303 1.349.77 1.778.476.42 1.05.63 1.722.63.55 0 1.008-.126 1.372-.378.373-.261.634-.607.784-1.036h1.372a3.338 3.338 0 0 1-1.232 1.806c-.616.457-1.382.686-2.296.686-.728 0-1.382-.163-1.96-.49a3.49 3.49 0 0 1-1.344-1.386c-.327-.607-.49-1.307-.49-2.1 0-.793.158-1.489.476-2.086a3.303 3.303 0 0 1 1.33-1.372c.578-.327 1.241-.49 1.988-.49.728 0 1.372.159 1.932.476.56.317.989.756 1.288 1.316.308.551.462 1.176.462 1.876Zm-1.316-.266c0-.485-.108-.901-.322-1.246a2.026 2.026 0 0 0-.882-.798 2.626 2.626 0 0 0-1.218-.28c-.644 0-1.195.205-1.652.616-.448.411-.705.98-.77 1.708h4.844Zm2.113.532c0-.784.159-1.47.476-2.058a3.471 3.471 0 0 1 1.302-1.386 3.653 3.653 0 0 1 1.876-.49c.598 0 1.153.14 1.666.42.514.271.906.63 1.176 1.078v-4.06h1.288V557h-1.288v-1.442a3.034 3.034 0 0 1-1.12 1.134c-.494.289-1.073.434-1.736.434a3.551 3.551 0 0 1-1.862-.504 3.542 3.542 0 0 1-1.302-1.414c-.317-.607-.476-1.297-.476-2.072Zm6.496.014c0-.579-.116-1.083-.35-1.512a2.405 2.405 0 0 0-.952-.98 2.5 2.5 0 0 0-1.302-.35c-.476 0-.91.112-1.302.336a2.444 2.444 0 0 0-.938.98c-.233.429-.35.933-.35 1.512 0 .588.117 1.101.35 1.54.234.429.546.761.938.994.392.224.826.336 1.302.336.476 0 .91-.112 1.302-.336.402-.233.719-.565.952-.994.234-.439.35-.947.35-1.526Zm21.621-5.908v1.036h-2.66V557h-1.274v-8.722h-2.674v-1.036h6.608Zm4.968 1.946c.579 0 1.101.126 1.568.378.467.243.831.611 1.092 1.106.271.495.406 1.097.406 1.806V557h-1.26v-4.34c0-.765-.191-1.349-.574-1.75-.383-.411-.905-.616-1.568-.616-.672 0-1.209.21-1.61.63-.392.42-.588 1.031-.588 1.834V557h-1.274v-10.36h1.274v3.78a2.52 2.52 0 0 1 1.036-.91 3.416 3.416 0 0 1 1.498-.322Zm11.543.14V557h-1.274v-1.134c-.243.392-.583.7-1.022.924a3.142 3.142 0 0 1-1.428.322 3.49 3.49 0 0 1-1.61-.364 2.784 2.784 0 0 1-1.134-1.12c-.271-.495-.406-1.097-.406-1.806v-4.494h1.26v4.326c0 .756.191 1.339.574 1.75.383.401.905.602 1.568.602.681 0 1.218-.21 1.61-.63.392-.42.588-1.031.588-1.834v-4.214h1.274Zm27.88-2.086v1.036h-4.242v3.29h3.444v1.036h-3.444V557h-1.274v-9.758h5.516Zm2.404 3.332c.224-.439.542-.779.952-1.022.42-.243.929-.364 1.526-.364v1.316h-.336c-1.428 0-2.142.775-2.142 2.324V557h-1.274v-7.672h1.274v1.246Zm4.199-2.492a.837.837 0 0 1-.616-.252.837.837 0 0 1-.252-.616c0-.243.084-.448.252-.616a.837.837 0 0 1 .616-.252c.233 0 .429.084.588.252a.837.837 0 0 1 .252.616.837.837 0 0 1-.252.616.778.778 0 0 1-.588.252Zm.616 1.246V557h-1.274v-7.672h1.274Zm26.831 7.77c-.644 0-1.222-.112-1.736-.336a2.97 2.97 0 0 1-1.19-.952 2.48 2.48 0 0 1-.448-1.414h1.358c.047.457.234.845.56 1.162.336.308.822.462 1.456.462.607 0 1.083-.149 1.428-.448.355-.308.532-.7.532-1.176 0-.373-.102-.677-.308-.91a1.965 1.965 0 0 0-.77-.532 12.087 12.087 0 0 0-1.246-.392c-.644-.168-1.162-.336-1.554-.504a2.582 2.582 0 0 1-.994-.784c-.27-.364-.406-.849-.406-1.456 0-.532.136-1.003.406-1.414a2.654 2.654 0 0 1 1.134-.952c.495-.224 1.06-.336 1.694-.336.915 0 1.662.229 2.24.686.588.457.92 1.064.994 1.82h-1.4c-.046-.373-.242-.7-.588-.98-.345-.289-.802-.434-1.372-.434-.532 0-.966.14-1.302.42-.336.271-.504.653-.504 1.148 0 .355.098.644.294.868.206.224.453.397.742.518.299.112.714.243 1.246.392.644.177 1.162.355 1.554.532a2.51 2.51 0 0 1 1.008.798c.28.355.42.84.42 1.456 0 .476-.126.924-.378 1.344-.252.42-.625.761-1.12 1.022-.494.261-1.078.392-1.75.392Zm4.239-3.962c0-.784.159-1.47.476-2.058a3.458 3.458 0 0 1 1.302-1.386 3.625 3.625 0 0 1 1.862-.49c.672 0 1.255.145 1.75.434.495.289.863.653 1.106 1.092v-1.4h1.288V557h-1.288v-1.428c-.252.448-.63.821-1.134 1.12-.495.289-1.073.434-1.736.434a3.48 3.48 0 0 1-1.848-.504 3.528 3.528 0 0 1-1.302-1.414c-.317-.607-.476-1.297-.476-2.072Zm6.496.014c0-.579-.117-1.083-.35-1.512a2.412 2.412 0 0 0-.952-.98 2.5 2.5 0 0 0-1.302-.35c-.476 0-.91.112-1.302.336a2.438 2.438 0 0 0-.938.98c-.233.429-.35.933-.35 1.512 0 .588.117 1.101.35 1.54.233.429.546.761.938.994.392.224.826.336 1.302.336.476 0 .91-.112 1.302-.336.401-.233.719-.565.952-.994.233-.439.35-.947.35-1.526Zm4.587-2.772v4.522c0 .373.079.639.238.798.159.149.434.224.826.224h.938V557h-1.148c-.709 0-1.241-.163-1.596-.49-.355-.327-.532-.863-.532-1.61v-4.522h-.994v-1.05h.994v-1.932h1.274v1.932h2.002v1.05h-2.002Zm23.004 6.72c-.644 0-1.223-.112-1.736-.336-.504-.233-.901-.551-1.19-.952a2.466 2.466 0 0 1-.448-1.414h1.358c.046.457.233.845.56 1.162.336.308.821.462 1.456.462.606 0 1.082-.149 1.428-.448.354-.308.532-.7.532-1.176 0-.373-.103-.677-.308-.91a1.973 1.973 0 0 0-.77-.532 12.167 12.167 0 0 0-1.246-.392c-.644-.168-1.162-.336-1.554-.504a2.575 2.575 0 0 1-.994-.784c-.271-.364-.406-.849-.406-1.456 0-.532.135-1.003.406-1.414.27-.411.648-.728 1.134-.952.494-.224 1.059-.336 1.694-.336.914 0 1.661.229 2.24.686.588.457.919 1.064.994 1.82h-1.4c-.047-.373-.243-.7-.588-.98-.346-.289-.803-.434-1.372-.434-.532 0-.966.14-1.302.42-.336.271-.504.653-.504 1.148 0 .355.098.644.294.868.205.224.452.397.742.518.298.112.714.243 1.246.392.644.177 1.162.355 1.554.532a2.51 2.51 0 0 1 1.008.798c.28.355.42.84.42 1.456 0 .476-.126.924-.378 1.344-.252.42-.626.761-1.12 1.022-.495.261-1.078.392-1.75.392Zm11.518-7.77V557h-1.274v-1.134c-.242.392-.583.7-1.022.924a3.142 3.142 0 0 1-1.428.322 3.49 3.49 0 0 1-1.61-.364 2.784 2.784 0 0 1-1.134-1.12c-.27-.495-.406-1.097-.406-1.806v-4.494h1.26v4.326c0 .756.192 1.339.574 1.75.383.401.906.602 1.568.602.682 0 1.218-.21 1.61-.63.392-.42.588-1.031.588-1.834v-4.214h1.274Zm5.481-.14c.934 0 1.69.285 2.268.854.579.56.868 1.372.868 2.436V557h-1.26v-4.34c0-.765-.191-1.349-.574-1.75-.382-.411-.905-.616-1.568-.616-.672 0-1.208.21-1.61.63-.392.42-.588 1.031-.588 1.834V557h-1.274v-7.672h1.274v1.092a2.545 2.545 0 0 1 1.022-.91c.439-.215.92-.322 1.442-.322ZM32.946 134.606h-5.004L27.114 137h-2.646l4.518-12.582h2.934L36.438 137h-2.664l-.828-2.394Zm-.684-2.016-1.818-5.256-1.818 5.256h3.636Zm10.257-8.154c1.32 0 2.478.258 3.474.774a5.446 5.446 0 0 1 2.322 2.214c.552.948.828 2.052.828 3.312 0 1.26-.276 2.364-.828 3.312-.54.936-1.314 1.662-2.322 2.178-.996.516-2.154.774-3.474.774h-4.392v-12.564h4.392Zm-.09 10.422c1.32 0 2.34-.36 3.06-1.08.72-.72 1.08-1.734 1.08-3.042 0-1.308-.36-2.328-1.08-3.06-.72-.744-1.74-1.116-3.06-1.116h-1.782v8.298h1.782Zm19.022-10.422V137h-2.52v-5.346H53.55V137h-2.52v-12.564h2.52v5.166h5.382v-5.166h2.52Zm6.872 0c1.32 0 2.479.258 3.475.774a5.446 5.446 0 0 1 2.322 2.214c.551.948.828 2.052.828 3.312 0 1.26-.276 2.364-.828 3.312-.54.936-1.315 1.662-2.323 2.178-.995.516-2.153.774-3.474.774h-4.391v-12.564h4.391Zm-.09 10.422c1.32 0 2.34-.36 3.06-1.08.72-.72 1.08-1.734 1.08-3.042 0-1.308-.36-2.328-1.08-3.06-.72-.744-1.74-1.116-3.06-1.116h-1.782v8.298h1.783Zm16.706 2.304c-.816 0-1.548-.144-2.196-.432-.648-.3-1.164-.702-1.548-1.206a3.069 3.069 0 0 1-.612-1.674h2.538c.048.384.234.702.558.954.336.252.75.378 1.242.378.48 0 .852-.096 1.116-.288.276-.192.414-.438.414-.738 0-.324-.168-.564-.504-.72-.324-.168-.846-.348-1.566-.54-.744-.18-1.356-.366-1.836-.558a3.263 3.263 0 0 1-1.224-.882c-.336-.396-.504-.93-.504-1.602 0-.552.156-1.056.468-1.512.324-.456.78-.816 1.368-1.08.6-.264 1.302-.396 2.106-.396 1.188 0 2.136.3 2.844.9.708.588 1.098 1.386 1.17 2.394H86.36a1.265 1.265 0 0 0-.504-.936c-.288-.24-.678-.36-1.17-.36-.456 0-.81.084-1.062.252a.81.81 0 0 0-.36.702c0 .336.168.594.504.774.336.168.858.342 1.566.522.72.18 1.314.366 1.782.558.468.192.87.492 1.206.9.348.396.528.924.54 1.584 0 .576-.162 1.092-.486 1.548-.312.456-.768.816-1.368 1.08-.588.252-1.278.378-2.07.378Zm5.345-5.148c0-1.032.21-1.932.63-2.7a4.428 4.428 0 0 1 1.745-1.8c.744-.432 1.596-.648 2.556-.648 1.236 0 2.257.312 3.06.936.816.612 1.362 1.476 1.638 2.592h-2.718a1.923 1.923 0 0 0-.737-1.008c-.337-.252-.757-.378-1.26-.378-.72 0-1.29.264-1.71.792-.42.516-.63 1.254-.63 2.214 0 .948.21 1.686.63 2.214.42.516.99.774 1.71.774 1.02 0 1.686-.456 1.998-1.368h2.718c-.276 1.08-.823 1.938-1.639 2.574-.816.636-1.836.954-3.06.954-.96 0-1.812-.21-2.556-.63a4.58 4.58 0 0 1-1.746-1.8c-.42-.78-.63-1.686-.63-2.718Zm15.904 5.148c-.96 0-1.824-.21-2.592-.63a4.726 4.726 0 0 1-1.818-1.818c-.432-.78-.648-1.68-.648-2.7 0-1.02.222-1.92.666-2.7a4.69 4.69 0 0 1 1.854-1.8c.78-.432 1.65-.648 2.61-.648s1.83.216 2.61.648c.78.42 1.392 1.02 1.836 1.8.456.78.684 1.68.684 2.7 0 1.02-.234 1.92-.702 2.7a4.783 4.783 0 0 1-1.872 1.818c-.78.42-1.656.63-2.628.63Zm0-2.196c.456 0 .882-.108 1.278-.324.408-.228.732-.564.972-1.008.24-.444.36-.984.36-1.62 0-.948-.252-1.674-.756-2.178a2.413 2.413 0 0 0-1.818-.774c-.72 0-1.326.258-1.818.774-.48.504-.72 1.23-.72 2.178s.234 1.68.702 2.196c.48.504 1.08.756 1.8.756Zm9.57-6.39a3.567 3.567 0 0 1 1.26-1.242c.528-.3 1.128-.45 1.8-.45v2.646h-.666c-.792 0-1.392.186-1.8.558-.396.372-.594 1.02-.594 1.944V137h-2.52v-9.972h2.52v1.548Zm14.027 3.222c0 .36-.024.684-.072.972h-7.29c.06.72.312 1.284.756 1.692.444.408.99.612 1.638.612.936 0 1.602-.402 1.998-1.206h2.718a4.588 4.588 0 0 1-1.656 2.376c-.816.612-1.818.918-3.006.918-.96 0-1.824-.21-2.592-.63a4.637 4.637 0 0 1-1.782-1.818c-.42-.78-.63-1.68-.63-2.7 0-1.032.21-1.938.63-2.718a4.396 4.396 0 0 1 1.764-1.8c.756-.42 1.626-.63 2.61-.63.948 0 1.794.204 2.538.612.756.408 1.338.99 1.746 1.746.42.744.63 1.602.63 2.574Zm-2.61-.72c-.012-.648-.246-1.164-.702-1.548-.456-.396-1.014-.594-1.674-.594-.624 0-1.152.192-1.584.576-.42.372-.678.894-.774 1.566h4.734Zm8.266 6.084c-.816 0-1.548-.144-2.196-.432-.648-.3-1.164-.702-1.548-1.206a3.069 3.069 0 0 1-.612-1.674h2.538c.048.384.234.702.558.954.336.252.75.378 1.242.378.48 0 .852-.096 1.116-.288.276-.192.414-.438.414-.738 0-.324-.168-.564-.504-.72-.324-.168-.846-.348-1.566-.54-.744-.18-1.356-.366-1.836-.558a3.263 3.263 0 0 1-1.224-.882c-.336-.396-.504-.93-.504-1.602 0-.552.156-1.056.468-1.512.324-.456.78-.816 1.368-1.08.6-.264 1.302-.396 2.106-.396 1.188 0 2.136.3 2.844.9.708.588 1.098 1.386 1.17 2.394h-2.412a1.265 1.265 0 0 0-.504-.936c-.288-.24-.678-.36-1.17-.36-.456 0-.81.084-1.062.252a.81.81 0 0 0-.36.702c0 .336.168.594.504.774.336.168.858.342 1.566.522.72.18 1.314.366 1.782.558.468.192.87.492 1.206.9.348.396.528.924.54 1.584 0 .576-.162 1.092-.486 1.548-.312.456-.768.816-1.368 1.08-.588.252-1.278.378-2.07.378Zm14.709 0c-.96 0-1.824-.21-2.592-.63a4.726 4.726 0 0 1-1.818-1.818c-.432-.78-.648-1.68-.648-2.7 0-1.02.222-1.92.666-2.7a4.69 4.69 0 0 1 1.854-1.8c.78-.432 1.65-.648 2.61-.648s1.83.216 2.61.648c.78.42 1.392 1.02 1.836 1.8.456.78.684 1.68.684 2.7 0 1.02-.234 1.92-.702 2.7a4.783 4.783 0 0 1-1.872 1.818c-.78.42-1.656.63-2.628.63Zm0-2.196c.456 0 .882-.108 1.278-.324.408-.228.732-.564.972-1.008.24-.444.36-.984.36-1.62 0-.948-.252-1.674-.756-2.178a2.413 2.413 0 0 0-1.818-.774c-.72 0-1.326.258-1.818.774-.48.504-.72 1.23-.72 2.178s.234 1.68.702 2.196c.48.504 1.08.756 1.8.756Zm11.209-.288 2.52-7.65h2.682l-3.69 9.972h-3.06l-3.672-9.972h2.7l2.52 7.65Zm15.887-2.88c0 .36-.024.684-.072.972h-7.29c.06.72.312 1.284.756 1.692.444.408.99.612 1.638.612.936 0 1.602-.402 1.998-1.206h2.718a4.588 4.588 0 0 1-1.656 2.376c-.816.612-1.818.918-3.006.918-.96 0-1.824-.21-2.592-.63a4.637 4.637 0 0 1-1.782-1.818c-.42-.78-.63-1.68-.63-2.7 0-1.032.21-1.938.63-2.718a4.396 4.396 0 0 1 1.764-1.8c.756-.42 1.626-.63 2.61-.63.948 0 1.794.204 2.538.612.756.408 1.338.99 1.746 1.746.42.744.63 1.602.63 2.574Zm-2.61-.72c-.012-.648-.246-1.164-.702-1.548-.456-.396-1.014-.594-1.674-.594-.624 0-1.152.192-1.584.576-.42.372-.678.894-.774 1.566h4.734Zm6.97-2.502a3.567 3.567 0 0 1 1.26-1.242c.528-.3 1.128-.45 1.8-.45v2.646H184c-.792 0-1.392.186-1.8.558-.396.372-.594 1.02-.594 1.944V137h-2.52v-9.972h2.52v1.548Zm11.98.522v4.824c0 .336.078.582.234.738.168.144.444.216.828.216h1.17V137h-1.584c-2.124 0-3.186-1.032-3.186-3.096v-4.806h-1.188v-2.07h1.188v-2.466h2.538v2.466h2.232v2.07h-2.232Zm9.661-2.214c.756 0 1.428.168 2.016.504.588.324 1.044.81 1.368 1.458.336.636.504 1.404.504 2.304V137h-2.52v-5.508c0-.792-.198-1.398-.594-1.818-.396-.432-.936-.648-1.62-.648-.696 0-1.248.216-1.656.648-.396.42-.594 1.026-.594 1.818V137h-2.52v-13.32h2.52v4.59a3.214 3.214 0 0 1 1.296-1.008 4.205 4.205 0 0 1 1.8-.378Zm15.554 4.914c0 .36-.024.684-.072.972h-7.29c.06.72.312 1.284.756 1.692.444.408.99.612 1.638.612.936 0 1.602-.402 1.998-1.206h2.718a4.588 4.588 0 0 1-1.656 2.376c-.816.612-1.818.918-3.006.918-.96 0-1.824-.21-2.592-.63a4.637 4.637 0 0 1-1.782-1.818c-.42-.78-.63-1.68-.63-2.7 0-1.032.21-1.938.63-2.718a4.396 4.396 0 0 1 1.764-1.8c.756-.42 1.626-.63 2.61-.63.948 0 1.794.204 2.538.612.756.408 1.338.99 1.746 1.746.42.744.63 1.602.63 2.574Zm-2.61-.72c-.012-.648-.246-1.164-.702-1.548-.456-.396-1.014-.594-1.674-.594-.624 0-1.152.192-1.584.576-.42.372-.678.894-.774 1.566h4.734Zm11.259-7.398V137h-2.52v-13.32h2.52Zm1.841 8.298c0-1.008.198-1.902.594-2.682.408-.78.954-1.38 1.638-1.8.696-.42 1.47-.63 2.322-.63.744 0 1.392.15 1.944.45.564.3 1.014.678 1.35 1.134v-1.422h2.538V137h-2.538v-1.458c-.324.468-.774.858-1.35 1.17-.564.3-1.218.45-1.962.45-.84 0-1.608-.216-2.304-.648-.684-.432-1.23-1.038-1.638-1.818-.396-.792-.594-1.698-.594-2.718Zm7.848.036c0-.612-.12-1.134-.36-1.566a2.463 2.463 0 0 0-.972-1.008 2.548 2.548 0 0 0-1.314-.36c-.468 0-.9.114-1.296.342-.396.228-.72.564-.972 1.008-.24.432-.36.948-.36 1.548 0 .6.12 1.128.36 1.584.252.444.576.786.972 1.026.408.24.84.36 1.296.36a2.65 2.65 0 0 0 1.314-.342c.408-.24.732-.576.972-1.008.24-.444.36-.972.36-1.584Zm8.815 5.148c-.816 0-1.548-.144-2.196-.432-.648-.3-1.164-.702-1.548-1.206a3.069 3.069 0 0 1-.612-1.674h2.538c.048.384.234.702.558.954.336.252.75.378 1.242.378.48 0 .852-.096 1.116-.288.276-.192.414-.438.414-.738 0-.324-.168-.564-.504-.72-.324-.168-.846-.348-1.566-.54-.744-.18-1.356-.366-1.836-.558a3.263 3.263 0 0 1-1.224-.882c-.336-.396-.504-.93-.504-1.602 0-.552.156-1.056.468-1.512.324-.456.78-.816 1.368-1.08.6-.264 1.302-.396 2.106-.396 1.188 0 2.136.3 2.844.9.708.588 1.098 1.386 1.17 2.394h-2.412a1.265 1.265 0 0 0-.504-.936c-.288-.24-.678-.36-1.17-.36-.456 0-.81.084-1.062.252a.81.81 0 0 0-.36.702c0 .336.168.594.504.774.336.168.858.342 1.566.522.72.18 1.314.366 1.782.558.468.192.87.492 1.206.9.348.396.528.924.54 1.584 0 .576-.162 1.092-.486 1.548-.312.456-.768.816-1.368 1.08-.588.252-1.278.378-2.07.378Zm8.927-8.064v4.824c0 .336.078.582.234.738.168.144.444.216.828.216h1.17V137h-1.584c-2.124 0-3.186-1.032-3.186-3.096v-4.806h-1.188v-2.07h1.188v-2.466h2.538v2.466h2.232v2.07h-2.232Zm16.398-3.312L266.491 137h-2.556l4.824-10.926h-6.156v-2.16h8.676v1.872Zm5.438 6.192c0-1.008.198-1.902.594-2.682.408-.78.96-1.38 1.656-1.8.696-.42 1.47-.63 2.322-.63.648 0 1.266.144 1.854.432.588.276 1.056.648 1.404 1.116v-4.734h2.556V137h-2.556v-1.476c-.312.492-.75.888-1.314 1.188-.564.3-1.218.45-1.962.45-.84 0-1.608-.216-2.304-.648-.696-.432-1.248-1.038-1.656-1.818-.396-.792-.594-1.698-.594-2.718Zm7.848.036c0-.612-.12-1.134-.36-1.566a2.463 2.463 0 0 0-.972-1.008 2.548 2.548 0 0 0-1.314-.36c-.468 0-.9.114-1.296.342-.396.228-.72.564-.972 1.008-.24.432-.36.948-.36 1.548 0 .6.12 1.128.36 1.584.252.444.576.786.972 1.026.408.24.84.36 1.296.36a2.65 2.65 0 0 0 1.314-.342c.408-.24.732-.576.972-1.008.24-.444.36-.972.36-1.584Zm4.351-.036c0-1.008.198-1.902.594-2.682.408-.78.954-1.38 1.638-1.8.696-.42 1.47-.63 2.322-.63.744 0 1.392.15 1.944.45.564.3 1.014.678 1.35 1.134v-1.422h2.538V137h-2.538v-1.458c-.324.468-.774.858-1.35 1.17-.564.3-1.218.45-1.962.45-.84 0-1.608-.216-2.304-.648-.684-.432-1.23-1.038-1.638-1.818-.396-.792-.594-1.698-.594-2.718Zm7.848.036c0-.612-.12-1.134-.36-1.566a2.463 2.463 0 0 0-.972-1.008 2.548 2.548 0 0 0-1.314-.36c-.468 0-.9.114-1.296.342-.396.228-.72.564-.972 1.008-.24.432-.36.948-.36 1.548 0 .6.12 1.128.36 1.584.252.444.576.786.972 1.026.408.24.84.36 1.296.36a2.65 2.65 0 0 0 1.314-.342c.408-.24.732-.576.972-1.008.24-.444.36-.972.36-1.584Zm14.539-4.986-6.174 14.688h-2.682l2.16-4.968-3.996-9.72h2.826l2.574 6.966 2.61-6.966h2.682Zm5.175 10.134c-.816 0-1.548-.144-2.196-.432-.648-.3-1.164-.702-1.548-1.206a3.069 3.069 0 0 1-.612-1.674h2.538c.048.384.234.702.558.954.336.252.75.378 1.242.378.48 0 .852-.096 1.116-.288.276-.192.414-.438.414-.738 0-.324-.168-.564-.504-.72-.324-.168-.846-.348-1.566-.54-.744-.18-1.356-.366-1.836-.558a3.263 3.263 0 0 1-1.224-.882c-.336-.396-.504-.93-.504-1.602 0-.552.156-1.056.468-1.512.324-.456.78-.816 1.368-1.08.6-.264 1.302-.396 2.106-.396 1.188 0 2.136.3 2.844.9.708.588 1.098 1.386 1.17 2.394H317.9a1.265 1.265 0 0 0-.504-.936c-.288-.24-.678-.36-1.17-.36-.456 0-.81.084-1.062.252a.81.81 0 0 0-.36.702c0 .336.168.594.504.774.336.168.858.342 1.566.522.72.18 1.314.366 1.782.558.468.192.87.492 1.206.9.348.396.528.924.54 1.584 0 .576-.162 1.092-.486 1.548-.312.456-.768.816-1.368 1.08-.588.252-1.278.378-2.07.378Z"/><g clip-path="url(#a)"><path stroke="#C4C6BD" d="M24 61.602h327"/><path fill="#006B4B" d="M58.313 55.102a6.51 6.51 0 0 1-3.24-.828 6.202 6.202 0 0 1-2.34-2.286c-.575-.984-.863-2.094-.863-3.33 0-1.224.288-2.322.864-3.294a6.162 6.162 0 0 1 2.34-2.304 6.51 6.51 0 0 1 3.24-.828c1.188 0 2.267.276 3.24.828a6.033 6.033 0 0 1 2.322 2.304c.575.972.864 2.07.864 3.294 0 1.236-.288 2.346-.864 3.33a6.07 6.07 0 0 1-2.322 2.286 6.51 6.51 0 0 1-3.24.828Zm0-2.25c.756 0 1.422-.168 1.998-.504a3.577 3.577 0 0 0 1.35-1.476c.325-.636.486-1.374.486-2.214 0-.84-.161-1.572-.486-2.196-.324-.636-.773-1.122-1.35-1.458-.575-.336-1.242-.504-1.998-.504s-1.428.168-2.016.504c-.575.336-1.025.822-1.35 1.458-.324.624-.486 1.356-.486 2.196 0 .84.163 1.578.486 2.214a3.577 3.577 0 0 0 1.35 1.476c.589.336 1.26.504 2.017.504Zm12.051-.198 2.52-7.65h2.682l-3.69 9.972h-3.06l-3.672-9.972h2.7l2.52 7.65Zm15.48-2.88c0 .36-.024.684-.072.972h-7.29c.06.72.312 1.284.756 1.692.444.408.99.612 1.638.612.936 0 1.602-.402 1.998-1.206h2.718a4.588 4.588 0 0 1-1.656 2.376c-.816.612-1.818.918-3.006.918-.96 0-1.824-.21-2.592-.63a4.637 4.637 0 0 1-1.782-1.818c-.42-.78-.63-1.68-.63-2.7 0-1.032.21-1.938.63-2.718a4.396 4.396 0 0 1 1.764-1.8c.756-.42 1.626-.63 2.61-.63.948 0 1.794.204 2.538.612.756.408 1.338.99 1.746 1.746.42.744.63 1.602.63 2.574Zm-2.61-.72c-.012-.648-.246-1.164-.702-1.548-.456-.396-1.014-.594-1.674-.594-.624 0-1.152.192-1.584.576-.42.372-.678.894-.774 1.566h4.734Zm6.561-2.502a3.567 3.567 0 0 1 1.26-1.242c.528-.3 1.128-.45 1.8-.45v2.646h-.666c-.792 0-1.392.186-1.8.558-.396.372-.594 1.02-.594 1.944v4.968h-2.52v-9.972h2.52v1.548Zm8.507 6.102 2.52-7.65h2.682l-3.69 9.972h-3.06l-3.672-9.972h2.7l2.52 7.65Zm7.488-8.838c-.444 0-.816-.138-1.116-.414a1.444 1.444 0 0 1-.432-1.062c0-.42.144-.768.432-1.044.3-.288.672-.432 1.116-.432.444 0 .81.144 1.098.432.3.276.45.624.45 1.044 0 .42-.15.774-.45 1.062-.288.276-.654.414-1.098.414Zm1.242 1.188v9.972h-2.52v-9.972h2.52Zm11.352 4.77c0 .36-.024.684-.072.972h-7.29c.06.72.312 1.284.756 1.692.444.408.99.612 1.638.612.936 0 1.602-.402 1.998-1.206h2.718a4.588 4.588 0 0 1-1.656 2.376c-.816.612-1.818.918-3.006.918-.96 0-1.824-.21-2.592-.63a4.637 4.637 0 0 1-1.782-1.818c-.42-.78-.63-1.68-.63-2.7 0-1.032.21-1.938.63-2.718a4.396 4.396 0 0 1 1.764-1.8c.756-.42 1.626-.63 2.61-.63.948 0 1.794.204 2.538.612.756.408 1.338.99 1.746 1.746.42.744.63 1.602.63 2.574Zm-2.61-.72c-.012-.648-.246-1.164-.702-1.548-.456-.396-1.014-.594-1.674-.594-.624 0-1.152.192-1.584.576-.42.372-.678.894-.774 1.566h4.734Zm17.865-4.05-2.916 9.972h-2.718l-1.818-6.966-1.818 6.966h-2.736l-2.934-9.972h2.556l1.764 7.596 1.908-7.596h2.664l1.872 7.578 1.764-7.578h2.412Z"/><path fill="#82847B" d="M249.662 42.43c1.368 0 2.55.258 3.546.774 1.008.504 1.776 1.23 2.304 2.178.54.948.81 2.064.81 3.348 0 1.284-.27 2.4-.81 3.348-.528.936-1.296 1.656-2.304 2.16-.996.492-2.178.738-3.546.738h-3.906V42.43h3.906Zm0 11.196c1.62 0 2.856-.426 3.708-1.278.852-.864 1.278-2.07 1.278-3.618 0-1.56-.432-2.778-1.296-3.654-.852-.876-2.082-1.314-3.69-1.314h-2.268v9.864h2.268Zm7.8-3.618c0-1.008.204-1.89.612-2.646a4.446 4.446 0 0 1 1.674-1.782c.72-.42 1.518-.63 2.394-.63.864 0 1.614.186 2.25.558.636.372 1.11.84 1.422 1.404v-1.8h1.656v9.864h-1.656V53.14c-.324.576-.81 1.056-1.458 1.44-.636.372-1.38.558-2.232.558-.876 0-1.668-.216-2.376-.648-.708-.432-1.266-1.038-1.674-1.818-.408-.78-.612-1.668-.612-2.664Zm8.352.018c0-.744-.15-1.392-.45-1.944a3.098 3.098 0 0 0-1.224-1.26 3.211 3.211 0 0 0-1.674-.45c-.612 0-1.17.144-1.674.432a3.134 3.134 0 0 0-1.206 1.26c-.3.552-.45 1.2-.45 1.944 0 .756.15 1.416.45 1.98.3.552.702.978 1.206 1.278a3.314 3.314 0 0 0 1.674.432c.612 0 1.17-.144 1.674-.432.516-.3.924-.726 1.224-1.278.3-.564.45-1.218.45-1.962Zm4.862-6.516c-.312 0-.576-.108-.792-.324a1.077 1.077 0 0 1-.324-.792c0-.312.108-.576.324-.792.216-.216.48-.324.792-.324.3 0 .552.108.756.324.216.216.324.48.324.792 0 .312-.108.576-.324.792a.998.998 0 0 1-.756.324Zm.792 1.602v9.864h-1.638v-9.864h1.638Zm4.022-3.456v13.32h-1.638v-13.32h1.638Zm10.88 3.456-5.94 14.508h-1.692l1.944-4.752-3.978-9.756h1.818l3.096 7.992 3.06-7.992h1.692Z"/><rect width="153" height="2.757" x="24" y="60.724" fill="#006B4B" rx="1.379"/></g><defs><clipPath id="a"><path fill="#fff" d="M24 37.976h327V63.48H24z"/></clipPath></defs></svg>