<svg xmlns="http://www.w3.org/2000/svg" width="145" height="91" fill="none"><path fill="#AFDDC9" d="m6.816 21.421-3.913 56.5 134.419-13.5-10.977-40-119.53-3Z"/><g clip-path="url(#a)"><path fill="#FFA23E" d="M104.206 7.8c-.25-.25-.55-.45-.89-.59a2.684 2.684 0 0 0-2.08 0c-.33.14-.63.34-.89.59l-17.87 17.88-1.83-1.84a10.956 10.956 0 0 0-7.72-3.19c-2.89 0-5.67 1.15-7.72 3.19l-7.95 7.95-2.16-2.17c-.51-.51-1.21-.8-1.93-.8s-1.42.29-1.93.8-.8 1.21-.8 1.93.29 1.42.8 1.93l2.17 2.16-7.95 7.95a11.01 11.01 0 0 0-2.37 3.54c-.55 1.32-.83 2.74-.83 4.18a10.898 10.898 0 0 0 3.2 7.72l1.84 1.83-17.9 17.89c-.25.25-.45.55-.59.89a2.684 2.684 0 0 0 0 2.08c.14.33.34.63.59.89.51.51 1.21.8 1.93.8.36 0 .71-.07 1.04-.21.33-.14.63-.34.89-.59l17.87-17.88 1.83 1.84a11.01 11.01 0 0 0 3.54 2.37c1.32.55 2.74.83 4.18.83a10.898 10.898 0 0 0 7.72-3.2l7.95-7.95 2.16 2.17c.25.25.55.45.89.59a2.684 2.684 0 0 0 2.08 0c.33-.14.63-.34.89-.59.25-.25.45-.55.59-.89a2.684 2.684 0 0 0 0-2.08 2.94 2.94 0 0 0-.59-.89l-2.17-2.16 7.95-7.95a11.01 11.01 0 0 0 2.37-3.54c.55-1.32.83-2.74.83-4.18a10.898 10.898 0 0 0-3.2-7.72l-1.84-1.83 17.88-17.87c.25-.25.45-.55.59-.89a2.684 2.684 0 0 0 0-2.08 2.94 2.94 0 0 0-.59-.89l.02-.02Zm-19.9 35.15-7.95 7.94-15.24-15.24 7.95-7.95a5.465 5.465 0 0 1 3.86-1.6c1.45 0 2.83.57 3.86 1.6l7.52 7.5c.51.51.91 1.11 1.19 1.77.28.66.42 1.38.42 2.09s-.14 1.43-.42 2.09c-.28.66-.68 1.27-1.19 1.77v.03Zm-31.01-29.63c-.23-.69-.18-1.44.15-2.08.32-.65.89-1.14 1.58-1.37.69-.23 1.44-.18 2.08.15.65.32 1.14.89 1.37 1.58l2.73 8.19c.11.34.16.7.13 1.06-.03.36-.12.71-.28 1.03-.16.32-.38.61-.65.84-.27.23-.59.41-.93.53-.69.23-1.44.18-2.08-.15-.32-.16-.61-.38-.84-.65-.23-.27-.41-.59-.53-.93l-2.73-8.19v-.01Zm-21.83 20.11c.11-.34.29-.65.53-.93.23-.27.52-.49.84-.65.32-.16.67-.26 1.03-.28.36-.03.72.02 1.06.13l8.19 2.73c.34.11.65.29.93.53.27.23.49.52.65.84.16.32.26.67.28 1.03.03.36-.02.72-.13 1.06-.11.34-.29.65-.53.92-.23.27-.52.49-.84.65-.32.16-.67.26-1.03.28-.36.03-.72-.02-1.06-.13l-8.19-2.73c-.34-.11-.65-.29-.93-.53-.27-.23-.49-.52-.65-.84-.16-.32-.26-.67-.28-1.03-.03-.36.02-.72.13-1.06v.01Zm70.67 23.56c-.11.34-.29.65-.53.93-.23.27-.52.49-.84.65-.32.16-.67.26-1.03.28-.36.03-.72-.02-1.06-.13l-8.19-2.73c-.69-.23-1.25-.72-1.58-1.37a2.69 2.69 0 0 1-.15-2.08 2.735 2.735 0 0 1 3.45-1.73l8.19 2.73c.34.11.65.29.93.53.27.23.49.52.65.84.16.32.26.67.28 1.03.03.36-.02.72-.13 1.06l.01-.01Zm-21.83 20.1c.23.69.18 1.44-.15 2.08-.33.64-.89 1.14-1.58 1.37-.69.23-1.44.18-2.08-.15a2.71 2.71 0 0 1-1.37-1.58l-2.73-8.19c-.23-.69-.18-1.44.15-2.08.32-.65.89-1.14 1.58-1.37.69-.23 1.44-.18 2.08.15.65.32 1.14.89 1.37 1.58l2.73 8.19Z"/><path fill="#FFA23E" d="m76.356 58.61 2.16 2.17c.51.51 1.21.8 1.93.8s1.42-.29 1.93-.8.8-1.21.8-1.93-.29-1.42-.8-1.93l-2.17-2.16 7.95-7.95a11.01 11.01 0 0 0 2.37-3.54c.55-1.32.83-2.74.83-4.18a10.898 10.898 0 0 0-3.2-7.72l-1.84-1.83 17.88-17.87c.25-.25.45-.55.59-.89a2.684 2.684 0 0 0 0-2.08 2.94 2.94 0 0 0-.59-.89c-.51-.51-1.21-.8-1.93-.8-.36 0-.71.07-1.04.21-.33.14-.63.34-.89.59l-17.87 17.88-1.83-1.84a11.01 11.01 0 0 0-3.54-2.37c-1.32-.55-2.74-.83-4.18-.83a10.898 10.898 0 0 0-7.72 3.2l-7.95 7.95-2.16-2.17c-.25-.25-.55-.45-.89-.59a2.684 2.684 0 0 0-2.08 0c-.33.14-.63.34-.89.59-.25.25-.45.55-.59.89a2.684 2.684 0 0 0 0 2.08c.14.33.34.63.59.89l2.17 2.16 22.96 22.96Z"/><path fill="#FF7F00" d="m57.246 31.8-2.16-2.17c-.51-.51-1.21-.8-1.93-.8s-1.42.29-1.93.8-.8 1.21-.8 1.93.29 1.42.8 1.93l2.17 2.16-7.95 7.95a11.01 11.01 0 0 0-2.37 3.54c-.55 1.32-.83 2.74-.83 4.18a10.898 10.898 0 0 0 3.2 7.72l1.84 1.83-17.89 17.88c-.25.25-.45.55-.59.89a2.684 2.684 0 0 0 0 2.08c.14.33.34.63.59.89.51.51 1.21.8 1.93.8.36 0 .71-.07 1.04-.21.33-.14.63-.34.89-.59l17.87-17.88 1.83 1.84a11.01 11.01 0 0 0 3.54 2.37c1.32.55 2.74.83 4.18.83a10.898 10.898 0 0 0 7.72-3.2l7.95-7.95 2.16 2.17c.25.25.55.45.89.59a2.684 2.684 0 0 0 2.08 0c.33-.14.63-.34.89-.59.25-.25.45-.55.59-.89a2.684 2.684 0 0 0 0-2.08 2.94 2.94 0 0 0-.59-.89l-2.17-2.16-22.96-22.96.01-.01Z"/><path fill="#7F3F00" d="m47.276 60.88-17.88 17.87c-.25.25-.45.55-.59.89a2.684 2.684 0 0 0 0 2.08c.14.33.34.63.59.89.51.51 1.21.8 1.93.8.36 0 .71-.07 1.04-.21.33-.14.63-.34.89-.59l17.87-17.88 1.83 1.84a11.01 11.01 0 0 0 3.54 2.37c1.32.55 2.74.83 4.18.83a10.898 10.898 0 0 0 7.72-3.2l7.95-7.95 2.16 2.17c.25.25.55.45.89.59a2.684 2.684 0 0 0 2.08 0c.33-.14.63-.34.89-.59.25-.25.45-.55.59-.89a2.684 2.684 0 0 0 0-2.08 2.94 2.94 0 0 0-.59-.89l-2.17-2.16-3.86-3.86c-2.07 2.22-9.97 9.07-14.28 10.1-7.13 1.71-14.79-.12-14.79-.12l.01-.01Zm37.76-19c-2.73 3.49-6.46 6.95-8.68 9.02l3.91 3.86 7.95-7.95a11.01 11.01 0 0 0 2.37-3.54c.55-1.32.83-2.74.83-4.18a10.898 10.898 0 0 0-3.2-7.72s.8 5.44-3.18 10.52v-.01Z" opacity=".2"/></g><defs><clipPath id="a"><path fill="#fff" d="M28.596 7h76.41v76.41h-76.41z"/></clipPath></defs></svg>