<svg xmlns="http://www.w3.org/2000/svg" width="1024" height="1024" fill="none"><g clip-path="url(#a)"><rect width="1024" height="1024" fill="#F9BE70" rx="512"/><path fill="#F9BE70" d="M713.703 1211.53c336.927-114.4 517.317-480.281 402.917-817.208C1002.21 57.394 636.336-122.997 299.408-8.593-37.52 105.812-217.91 471.688-103.506 808.616 10.898 1145.54 376.775 1325.93 713.703 1211.53Z"/><path fill="#824A1D" d="M502.15 586.792c-66.665 0-134.815-35.247-137.682-36.746a14.553 14.553 0 0 1-6.159-19.641 14.557 14.557 0 0 1 19.641-6.159c.64.335 64.802 33.437 124.2 33.437 59.116 0 113.696-32.656 114.239-32.991a14.558 14.558 0 0 1 21.929 10.246c.29 1.889.204 3.817-.252 5.673a14.55 14.55 0 0 1-6.594 8.979c-2.508 1.524-62.162 37.202-129.322 37.202Z"/><path fill="#FF7F00" d="M652.558 1464.35h-82.477v-258.1c.296-14.46 2.038-63.73 11.959-90.73a106.618 106.618 0 0 1 31.118-42.69 98.586 98.586 0 0 0 9.626-9.7 144.955 144.955 0 0 0 31.675-90.383c0-31.496-10.076-58.859-34.79-94.45-36.159-52.057-37.774-100.912-4.934-149.311 24.719-36.44 56.031-78.042 100.912-110.407 55.211-41.684 85.611-96.706 85.611-154.958 0-121.095-130.721-219.62-291.399-219.62s-291.393 98.525-291.393 219.62c0 57.054 29.288 111.26 82.476 152.634 1.179.932 2.11 1.655 3.124 2.426 78.945 59.068 118.902 129.211 112.648 197.613-2.765 30.342-15.525 51.873-26.79 70.862-2.513 4.245-5.075 8.553-7.544 13.055a162.678 162.678 0 0 0-17.247 72.555 146.459 146.459 0 0 0 35.731 95.244c3.047 3.48 5.876 6.46 8.481 9.22 12.342 13.06 26.334 27.86 33.597 59.19 6.743 29.11 6.739 64.09 6.739 85v242.92h-82.477v-242.92c0-16.24 0-46.47-4.609-66.37-2.212-9.54-3.672-11.09-13.186-21.15-3.251-3.44-6.792-7.18-10.581-11.53a226.893 226.893 0 0 1-56.172-149.589 244.05 244.05 0 0 1 27.382-112.163c2.911-5.337 5.953-10.465 8.942-15.525 9.276-15.646 14.555-25.044 15.598-36.294 4.788-52.358-47.929-100.151-79.779-123.977-1.587-1.179-3.183-2.426-4.76-3.658-73.452-57.142-114.05-134.466-114.05-217.529 0-166.578 167.718-302.096 373.87-302.096 206.152 0 373.899 135.533 373.899 302.111 0 83.679-43.315 164.273-118.829 221.114l-.742.548c-34.529 24.801-59.427 57.913-81.191 90.001-11.774 17.354-13.929 29.551 4.42 55.968 23.059 33.209 49.525 79.298 49.525 141.495a227.692 227.692 0 0 1-49.802 141.964 169.28 169.28 0 0 1-17.95 18.64 41.52 41.52 0 0 0-9.703 10.62c-3.469 9.44-6.404 40.95-6.899 63.56l-.029 256.79Z"/><path fill="#fff" d="M316.329 418.353a85.574 85.574 0 0 0 122.043 75.85 85.589 85.589 0 0 1-39.34-124.05 85.584 85.584 0 0 1 36.341-32.277 85.586 85.586 0 0 0-81.413 7.857 85.576 85.576 0 0 0-37.631 72.62Z"/><path fill="#6B4DBC" d="M386.16 417.011a85.62 85.62 0 0 0 52.247 77.19 85.821 85.821 0 0 0 31.458-25.293 53.483 53.483 0 0 1-39.48-19.516 17.313 17.313 0 0 1-7.725 2.026 17.538 17.538 0 0 1-4.478-34.58l-.008-.441a53.592 53.592 0 0 1 49.644-54.456 85.82 85.82 0 0 0-32.406-24.067 85.62 85.62 0 0 0-49.252 79.137Z"/><path fill="#000" d="m418.139 416.398.009.442a17.5 17.5 0 0 1 12.183 32.554 53.48 53.48 0 0 0 39.48 19.516 85.436 85.436 0 0 0-2.052-106.967 53.598 53.598 0 0 0-49.62 54.455Z"/><path fill="#fff" d="M439.902 433.532a17.554 17.554 0 0 0-34.829-2.753 17.561 17.561 0 0 0 1.195 10.121 17.564 17.564 0 0 0 6.617 7.751 17.561 17.561 0 0 0 9.808 2.768 17.756 17.756 0 0 0 17.209-17.887Zm84.21-4.309a85.567 85.567 0 0 0 130.692 59.719 85.587 85.587 0 0 1-22.851-154.677 85.564 85.564 0 0 0-103.568 52.978 85.577 85.577 0 0 0-4.273 41.98Z"/><path fill="#6B4DBC" d="M593.153 419.026a85.618 85.618 0 0 0 61.637 69.92 85.86 85.86 0 0 0 27.992-29.088 53.483 53.483 0 0 1-41.646-14.337 17.313 17.313 0 0 1-7.405 2.992 17.535 17.535 0 0 1-19.535-12.906 17.543 17.543 0 0 1 10.702-20.825l-.064-.436a53.587 53.587 0 0 1 42.317-60.326 85.865 85.865 0 0 0-35.207-19.751 85.614 85.614 0 0 0-38.791 84.757Z"/><path fill="#000" d="m624.832 414.347.064.437a17.496 17.496 0 0 1 21.805 8.145 17.499 17.499 0 0 1-5.586 22.597 53.487 53.487 0 0 0 41.646 14.337 85.458 85.458 0 0 0-15.636-105.838 53.591 53.591 0 0 0-42.293 60.322Z"/><path fill="#fff" d="M648.562 428.579a17.553 17.553 0 1 0-14.799 19.93 17.76 17.76 0 0 0 14.799-19.93Z"/></g><defs><clipPath id="a"><rect width="1024" height="1024" fill="#fff" rx="512"/></clipPath></defs></svg>