<svg width="145" height="91" viewBox="0 0 145 91" fill="none" xmlns="http://www.w3.org/2000/svg">
<path d="M12.3048 25.021L2.1958 68.136L140.305 70.521L118.805 19.521L12.3048 25.021Z" fill="#F5DFFF"/>
<mask id="mask0_107_3109" style="mask-type:luminance" maskUnits="userSpaceOnUse" x="37" y="13" width="65" height="65">
<path d="M37 13H102V78H37V13Z" fill="white"/>
</mask>
<g mask="url(#mask0_107_3109)">
<path d="M60.9802 76.8501C63.7502 77.6101 66.6202 78.0001 69.4902 78.0001H69.9502C71.5912 77.9765 73.1999 77.5399 74.6277 76.7307C76.0556 75.9215 77.2567 74.7658 78.1202 73.3701C78.9863 71.9788 79.4863 70.391 79.5737 68.7544C79.6611 67.1179 79.3331 65.4858 78.6202 64.0101L77.9802 62.6601C76.5102 59.6001 77.6602 56.8201 79.2402 55.2501C80.8202 53.6801 83.6002 52.5201 86.6502 53.9901L87.9902 54.6401C89.4702 55.3501 91.1002 55.6801 92.7402 55.6001C94.3802 55.5101 95.9702 55.0101 97.3602 54.1501C98.7597 53.29 99.919 52.0899 100.73 50.6615C101.541 49.233 101.978 47.6227 102 45.9801C102.04 42.9501 101.65 39.9301 100.85 37.0101C97.4802 24.5501 86.7002 15.0301 74.0502 13.3101C63.8202 11.9201 53.7702 15.2701 46.5202 22.5201C39.2702 29.7701 35.9102 39.8001 37.3102 50.0501C39.0302 62.7101 48.5502 73.4801 60.9802 76.8501ZM80.8702 26.0001C82.1602 26.0001 83.4002 26.5101 84.3202 27.4301C85.2402 28.3501 85.7502 29.5801 85.7502 30.8801C85.7497 32.1742 85.2353 33.4152 84.3203 34.3302C83.4052 35.2453 82.1643 35.7596 80.8702 35.7601C79.5761 35.7596 78.3352 35.2453 77.4201 34.3302C76.505 33.4152 75.9907 32.1742 75.9902 30.8801C75.9907 29.586 76.505 28.3451 77.4201 27.43C78.3352 26.515 79.5761 26.0007 80.8702 26.0001ZM64.6202 22.7501C65.9102 22.7501 67.1502 23.2601 68.0702 24.1801C68.9902 25.1001 69.5002 26.3301 69.5002 27.6301C69.4997 28.9242 68.9853 30.1652 68.0703 31.0802C67.1552 31.9953 65.9143 32.5096 64.6202 32.5101C63.3202 32.5101 62.0902 32.0001 61.1702 31.0801C60.716 30.6279 60.3558 30.0902 60.1103 29.4981C59.8649 28.9059 59.7391 28.2711 59.7402 27.6301C59.7407 26.336 60.255 25.0951 61.1701 24.18C62.0851 23.265 63.3261 22.7507 64.6202 22.7501ZM59.7402 56.8901C59.7397 58.1842 59.2253 59.4252 58.3103 60.3402C57.3952 61.2553 56.1543 61.7696 54.8602 61.7701C53.5602 61.7701 52.3302 61.2601 51.4102 60.3401C50.956 59.8879 50.5958 59.3502 50.3503 58.7581C50.1049 58.1659 49.9791 57.5311 49.9802 56.8901C49.9807 55.596 50.495 54.3551 51.4101 53.44C52.3251 52.525 53.5661 52.0107 54.8602 52.0101C56.1602 52.0101 57.3902 52.5201 58.3102 53.4401C59.2302 54.3601 59.7402 55.5901 59.7402 56.8901ZM51.6202 35.7601C52.9102 35.7601 54.1502 36.2701 55.0702 37.1901C55.5237 37.6429 55.8835 38.1807 56.129 38.7727C56.3745 39.3647 56.5009 39.9992 56.5009 40.6401C56.5009 41.281 56.3745 41.9156 56.129 42.5076C55.8835 43.0996 55.5237 43.6373 55.0702 44.0901C54.6174 44.5437 54.0796 44.9035 53.4876 45.149C52.8956 45.3945 52.2611 45.5208 51.6202 45.5208C50.9793 45.5208 50.3447 45.3945 49.7527 45.149C49.1607 44.9035 48.623 44.5437 48.1702 44.0901C47.7166 43.6373 47.3568 43.0996 47.1113 42.5076C46.8658 41.9156 46.7395 41.281 46.7395 40.6401C46.7395 39.9992 46.8658 39.3647 47.1113 38.7727C47.3568 38.1807 47.7166 37.6429 48.1702 37.1901C49.0863 36.2767 50.3265 35.7627 51.6202 35.7601Z" fill="#FF8974"/>
<path d="M56.43 44.9502C56.8836 44.4974 57.2434 43.9596 57.4889 43.3676C57.7344 42.7757 57.8607 42.1411 57.8607 41.5002C57.8607 40.8593 57.7344 40.2247 57.4889 39.6327C57.2434 39.0408 56.8836 38.503 56.43 38.0502C55.9656 37.5905 55.4151 37.2269 54.81 36.9802C54.89 37.0502 54.99 37.1102 55.07 37.1902C55.5236 37.643 55.8834 38.1808 56.1289 38.7727C56.3744 39.3647 56.5007 39.9993 56.5007 40.6402C56.5007 41.2811 56.3744 41.9157 56.1289 42.5076C55.8834 43.0996 55.5236 43.6374 55.07 44.0902C54.1539 45.0036 52.9137 45.5176 51.62 45.5202C50.99 45.5202 50.36 45.3902 49.79 45.1602C50.6708 45.9394 51.8041 46.3729 52.98 46.3802C54.27 46.3802 55.51 45.8702 56.43 44.9502ZM59.68 61.1902C60.59 60.2802 61.11 59.0402 61.11 57.7402C61.11 56.4402 60.6 55.2102 59.68 54.2902C59.21 53.8202 58.66 53.4702 58.07 53.2202C58.15 53.2902 58.25 53.3502 58.33 53.4302C59.24 54.3402 59.76 55.5802 59.76 56.8802C59.7595 58.1743 59.2452 59.4152 58.3301 60.3303C57.4151 61.2454 56.1741 61.7597 54.88 61.7602C54.25 61.7602 53.62 61.6302 53.05 61.4002C53.9308 62.1794 55.0641 62.6128 56.24 62.6202C57.53 62.6202 58.77 62.1102 59.69 61.1902H59.68ZM84.06 27.2102C84.14 27.2802 84.24 27.3402 84.32 27.4202C85.23 28.3302 85.75 29.5702 85.75 30.8702C85.7495 32.1643 85.2352 33.4052 84.3201 34.3203C83.4051 35.2354 82.1641 35.7497 80.87 35.7502C80.24 35.7502 79.61 35.6202 79.04 35.3902C79.9208 36.1694 81.0541 36.6029 82.23 36.6102C83.5241 36.6097 84.7651 36.0954 85.6801 35.1803C86.5952 34.2652 87.1095 33.0243 87.11 31.7302C87.11 30.4302 86.6 29.2002 85.68 28.2802C85.21 27.8102 84.66 27.4602 84.07 27.2102H84.06ZM69.43 31.9202C70.34 31.0102 70.86 29.7702 70.86 28.4702C70.86 27.1702 70.35 25.9402 69.43 25.0202C68.96 24.5502 68.41 24.2002 67.82 23.9502C67.9 24.0202 68 24.0802 68.08 24.1602C68.99 25.0702 69.51 26.3102 69.51 27.6102C69.5095 28.9043 68.9952 30.1452 68.0801 31.0603C67.1651 31.9754 65.9241 32.4897 64.63 32.4902C64 32.4902 63.37 32.3602 62.8 32.1302C63.6808 32.9094 64.8141 33.3428 65.99 33.3502C67.28 33.3502 68.52 32.8402 69.44 31.9202H69.43Z" fill="#F23D41"/>
<path d="M38.3902 51.3501C37.0002 41.1001 40.3602 31.0701 47.6002 23.8201C54.8502 16.5701 64.9002 13.2201 75.1302 14.6101C82.8502 15.6601 89.8702 19.6301 94.9402 25.3801C89.8202 18.9301 82.3502 14.4401 74.0502 13.3101C63.8202 11.9201 53.7702 15.2701 46.5202 22.5201C39.2702 29.7701 35.9102 39.8001 37.3102 50.0501C38.1802 56.4201 41.0202 62.3001 45.2102 67.0101C41.6202 62.5301 39.1802 57.1501 38.3902 51.3501Z" fill="#FFDBD5"/>
<path d="M100.85 36.9801C99.2602 31.1301 96.0202 25.9401 91.7402 21.8901C94.6202 25.3901 96.8102 29.4801 98.0302 33.9701C98.8302 36.8901 99.2102 39.9101 99.1802 42.9401C99.1583 44.5827 98.7215 46.1931 97.9102 47.6215C97.099 49.0499 95.9397 50.25 94.5402 51.1101C93.1496 51.9808 91.5589 52.48 89.9202 52.5601C88.2802 52.6501 86.6502 52.3201 85.1702 51.6001L83.8302 50.9501C80.7802 49.4801 78.0002 50.6301 76.4202 52.2101C74.8402 53.7901 73.6902 56.5601 75.1602 59.6201L75.8002 60.9701C76.5131 62.4458 76.8411 64.0779 76.7537 65.7144C76.6663 67.351 76.1663 68.9388 75.3002 70.3301C74.443 71.7299 73.2414 72.8866 71.8102 73.6901C70.3822 74.5012 68.7723 74.938 67.1302 74.9601H66.6702C63.7902 74.9601 60.9302 74.5701 58.1502 73.8101C52.9502 72.4001 48.2702 69.6801 44.4502 66.0801C48.6702 71.1801 54.4102 75.0401 60.9802 76.8201C63.7502 77.5801 66.6202 77.9701 69.5002 77.9701H69.9602C71.6012 77.9465 73.2099 77.5099 74.6377 76.7007C76.0656 75.8915 77.2667 74.7358 78.1302 73.3401C78.9963 71.9488 79.4963 70.361 79.5837 68.7244C79.6711 67.0879 79.3431 65.4558 78.6302 63.9801L77.9902 62.6301C76.5202 59.5701 77.6702 56.7901 79.2502 55.2201C80.8302 53.6501 83.6102 52.4901 86.6602 53.9601L88.0002 54.6101C89.4802 55.3201 91.1102 55.6501 92.7502 55.5701C94.3902 55.4801 95.9802 54.9801 97.3702 54.1201C98.7697 53.26 99.929 52.0599 100.74 50.6315C101.551 49.2031 101.988 47.5927 102.01 45.9501C102.05 42.9201 101.66 39.9001 100.86 36.9801H100.85Z" fill="#F23D41"/>
</g>
</svg>
